<?xml version="1.0" encoding="utf-8" standalone="no"?>
<!DOCTYPE svg PUBLIC "-//W3C//DTD SVG 1.1//EN"
  "http://www.w3.org/Graphics/SVG/1.1/DTD/svg11.dtd">
<svg xmlns:xlink="http://www.w3.org/1999/xlink" width="856.8pt" height="709.2pt" viewBox="0 0 856.8 709.2" xmlns="http://www.w3.org/2000/svg" version="1.1">
 <metadata>
  <rdf:RDF xmlns:dc="http://purl.org/dc/elements/1.1/" xmlns:cc="http://creativecommons.org/ns#" xmlns:rdf="http://www.w3.org/1999/02/22-rdf-syntax-ns#">
   <cc:Work>
    <dc:type rdf:resource="http://purl.org/dc/dcmitype/StillImage"/>
    <dc:date>2025-02-07T00:11:38.118312</dc:date>
    <dc:format>image/svg+xml</dc:format>
    <dc:creator>
     <cc:Agent>
      <dc:title>Matplotlib v3.10.0, https://matplotlib.org/</dc:title>
     </cc:Agent>
    </dc:creator>
   </cc:Work>
  </rdf:RDF>
 </metadata>
 <defs>
  <style type="text/css">*{stroke-linejoin: round; stroke-linecap: butt}</style>
 </defs>
 <g id="figure_1">
  <g id="patch_1">
   <path d="M 0 709.2 
L 856.8 709.2 
L 856.8 0 
L 0 0 
z
" style="fill: #ffffff"/>
  </g>
  <g id="axes_1">
   <g id="patch_2">
    <path d="M 7.2 153.648 
L 37.285714 153.648 
L 37.285714 43.44 
L 7.2 43.44 
z
" clip-path="url(#p1c91cb4b10)" style="fill: #1a1a1a"/>
   </g>
   <g id="patch_3">
    <path d="M 37.285714 153.648 
L 67.371429 153.648 
L 67.371429 43.44 
L 37.285714 43.44 
z
" clip-path="url(#p1c91cb4b10)" style="fill: #646464"/>
   </g>
   <g id="patch_4">
    <path d="M 67.371429 153.648 
L 97.457143 153.648 
L 97.457143 43.44 
L 67.371429 43.44 
z
" clip-path="url(#p1c91cb4b10)" style="fill: #646464"/>
   </g>
   <g id="patch_5">
    <path d="M 97.457143 153.648 
L 127.542857 153.648 
L 127.542857 43.44 
L 97.457143 43.44 
z
" clip-path="url(#p1c91cb4b10)" style="fill: #646464"/>
   </g>
   <g id="patch_6">
    <path d="M 127.542857 153.648 
L 157.628571 153.648 
L 157.628571 43.44 
L 127.542857 43.44 
z
" clip-path="url(#p1c91cb4b10)" style="fill: #ffffff"/>
   </g>
   <g id="patch_7">
    <path d="M 157.628571 153.648 
L 187.714286 153.648 
L 187.714286 43.44 
L 157.628571 43.44 
z
" clip-path="url(#p1c91cb4b10)" style="fill: #f29b76"/>
   </g>
   <g id="patch_8">
    <path d="M 187.714286 153.648 
L 217.8 153.648 
L 217.8 43.44 
L 187.714286 43.44 
z
" clip-path="url(#p1c91cb4b10)" style="fill: #f7ce46"/>
   </g>
   <g id="patch_9">
    <path d="M 217.8 153.648 
L 247.885714 153.648 
L 247.885714 43.44 
L 217.8 43.44 
z
" clip-path="url(#p1c91cb4b10)" style="fill: #ffc800"/>
   </g>
   <g id="patch_10">
    <path d="M 247.885714 153.648 
L 277.971429 153.648 
L 277.971429 43.44 
L 247.885714 43.44 
z
" clip-path="url(#p1c91cb4b10)" style="fill: #ffdd00"/>
   </g>
   <g id="patch_11">
    <path d="M 277.971429 153.648 
L 308.057143 153.648 
L 308.057143 43.44 
L 277.971429 43.44 
z
" clip-path="url(#p1c91cb4b10)" style="fill: #e2db28"/>
   </g>
   <g id="patch_12">
    <path d="M 308.057143 153.648 
L 338.142857 153.648 
L 338.142857 43.44 
L 308.057143 43.44 
z
" clip-path="url(#p1c91cb4b10)" style="fill: #fffc41"/>
   </g>
   <g id="patch_13">
    <path d="M 338.142857 153.648 
L 368.228571 153.648 
L 368.228571 43.44 
L 338.142857 43.44 
z
" clip-path="url(#p1c91cb4b10)" style="fill: #41e506"/>
   </g>
   <g id="patch_14">
    <path d="M 368.228571 153.648 
L 398.314286 153.648 
L 398.314286 43.44 
L 368.228571 43.44 
z
" clip-path="url(#p1c91cb4b10)" style="fill: #97c893"/>
   </g>
   <g id="patch_15">
    <path d="M 398.314286 153.648 
L 428.4 153.648 
L 428.4 43.44 
L 398.314286 43.44 
z
" clip-path="url(#p1c91cb4b10)" style="fill: #5edd55"/>
   </g>
   <g id="patch_16">
    <path d="M 428.4 153.648 
L 458.485714 153.648 
L 458.485714 43.44 
L 428.4 43.44 
z
" clip-path="url(#p1c91cb4b10)" style="fill: #00ff00"/>
   </g>
   <g id="patch_17">
    <path d="M 458.485714 153.648 
L 488.571429 153.648 
L 488.571429 43.44 
L 458.485714 43.44 
z
" clip-path="url(#p1c91cb4b10)" style="fill: #00ff1e"/>
   </g>
   <g id="patch_18">
    <path d="M 488.571429 153.648 
L 518.657143 153.648 
L 518.657143 43.44 
L 488.571429 43.44 
z
" clip-path="url(#p1c91cb4b10)" style="fill: #4fde60"/>
   </g>
   <g id="patch_19">
    <path d="M 518.657143 153.648 
L 548.742857 153.648 
L 548.742857 43.44 
L 518.657143 43.44 
z
" clip-path="url(#p1c91cb4b10)" style="fill: #00ff55"/>
   </g>
   <g id="patch_20">
    <path d="M 548.742857 153.648 
L 578.828571 153.648 
L 578.828571 43.44 
L 548.742857 43.44 
z
" clip-path="url(#p1c91cb4b10)" style="fill: #00ffff"/>
   </g>
   <g id="patch_21">
    <path d="M 578.828571 153.648 
L 608.914286 153.648 
L 608.914286 43.44 
L 578.828571 43.44 
z
" clip-path="url(#p1c91cb4b10)" style="fill: #00ffff"/>
   </g>
   <g id="patch_22">
    <path d="M 608.914286 153.648 
L 639 153.648 
L 639 43.44 
L 608.914286 43.44 
z
" clip-path="url(#p1c91cb4b10)" style="fill: #3f8a9d"/>
   </g>
   <g id="patch_23">
    <path d="M 639 153.648 
L 669.085714 153.648 
L 669.085714 43.44 
L 639 43.44 
z
" clip-path="url(#p1c91cb4b10)" style="fill: #001eff"/>
   </g>
   <g id="patch_24">
    <path d="M 669.085714 153.648 
L 699.171429 153.648 
L 699.171429 43.44 
L 669.085714 43.44 
z
" clip-path="url(#p1c91cb4b10)" style="fill: #d800f5"/>
   </g>
   <g id="patch_25">
    <path d="M 699.171429 153.648 
L 729.257143 153.648 
L 729.257143 43.44 
L 699.171429 43.44 
z
" clip-path="url(#p1c91cb4b10)" style="fill: #a049a2"/>
   </g>
   <g id="patch_26">
    <path d="M 729.257143 153.648 
L 759.342857 153.648 
L 759.342857 43.44 
L 729.257143 43.44 
z
" clip-path="url(#p1c91cb4b10)" style="fill: #ed5abe"/>
   </g>
   <g id="patch_27">
    <path d="M 759.342857 153.648 
L 789.428571 153.648 
L 789.428571 43.44 
L 759.342857 43.44 
z
" clip-path="url(#p1c91cb4b10)" style="fill: #d60a8b"/>
   </g>
   <g id="patch_28">
    <path d="M 789.428571 153.648 
L 819.514286 153.648 
L 819.514286 43.44 
L 789.428571 43.44 
z
" clip-path="url(#p1c91cb4b10)" style="fill: #ff055d"/>
   </g>
   <g id="patch_29">
    <path d="M 819.514286 153.648 
L 849.6 153.648 
L 849.6 43.44 
L 819.514286 43.44 
z
" clip-path="url(#p1c91cb4b10)" style="fill: #f53259"/>
   </g>
   <g id="text_1">
    <!-- Dataset for Joy -->
    <g transform="translate(7.2 37.44) scale(0.12 -0.12)">
     <defs>
      <path id="DejaVuSans-44" d="M 1259 4147 
L 1259 519 
L 2022 519 
Q 2988 519 3436 956 
Q 3884 1394 3884 2338 
Q 3884 3275 3436 3711 
Q 2988 4147 2022 4147 
L 1259 4147 
z
M 628 4666 
L 1925 4666 
Q 3281 4666 3915 4102 
Q 4550 3538 4550 2338 
Q 4550 1131 3912 565 
Q 3275 0 1925 0 
L 628 0 
L 628 4666 
z
" transform="scale(0.015625)"/>
      <path id="DejaVuSans-61" d="M 2194 1759 
Q 1497 1759 1228 1600 
Q 959 1441 959 1056 
Q 959 750 1161 570 
Q 1363 391 1709 391 
Q 2188 391 2477 730 
Q 2766 1069 2766 1631 
L 2766 1759 
L 2194 1759 
z
M 3341 1997 
L 3341 0 
L 2766 0 
L 2766 531 
Q 2569 213 2275 61 
Q 1981 -91 1556 -91 
Q 1019 -91 701 211 
Q 384 513 384 1019 
Q 384 1609 779 1909 
Q 1175 2209 1959 2209 
L 2766 2209 
L 2766 2266 
Q 2766 2663 2505 2880 
Q 2244 3097 1772 3097 
Q 1472 3097 1187 3025 
Q 903 2953 641 2809 
L 641 3341 
Q 956 3463 1253 3523 
Q 1550 3584 1831 3584 
Q 2591 3584 2966 3190 
Q 3341 2797 3341 1997 
z
" transform="scale(0.015625)"/>
      <path id="DejaVuSans-74" d="M 1172 4494 
L 1172 3500 
L 2356 3500 
L 2356 3053 
L 1172 3053 
L 1172 1153 
Q 1172 725 1289 603 
Q 1406 481 1766 481 
L 2356 481 
L 2356 0 
L 1766 0 
Q 1100 0 847 248 
Q 594 497 594 1153 
L 594 3053 
L 172 3053 
L 172 3500 
L 594 3500 
L 594 4494 
L 1172 4494 
z
" transform="scale(0.015625)"/>
      <path id="DejaVuSans-73" d="M 2834 3397 
L 2834 2853 
Q 2591 2978 2328 3040 
Q 2066 3103 1784 3103 
Q 1356 3103 1142 2972 
Q 928 2841 928 2578 
Q 928 2378 1081 2264 
Q 1234 2150 1697 2047 
L 1894 2003 
Q 2506 1872 2764 1633 
Q 3022 1394 3022 966 
Q 3022 478 2636 193 
Q 2250 -91 1575 -91 
Q 1294 -91 989 -36 
Q 684 19 347 128 
L 347 722 
Q 666 556 975 473 
Q 1284 391 1588 391 
Q 1994 391 2212 530 
Q 2431 669 2431 922 
Q 2431 1156 2273 1281 
Q 2116 1406 1581 1522 
L 1381 1569 
Q 847 1681 609 1914 
Q 372 2147 372 2553 
Q 372 3047 722 3315 
Q 1072 3584 1716 3584 
Q 2034 3584 2315 3537 
Q 2597 3491 2834 3397 
z
" transform="scale(0.015625)"/>
      <path id="DejaVuSans-65" d="M 3597 1894 
L 3597 1613 
L 953 1613 
Q 991 1019 1311 708 
Q 1631 397 2203 397 
Q 2534 397 2845 478 
Q 3156 559 3463 722 
L 3463 178 
Q 3153 47 2828 -22 
Q 2503 -91 2169 -91 
Q 1331 -91 842 396 
Q 353 884 353 1716 
Q 353 2575 817 3079 
Q 1281 3584 2069 3584 
Q 2775 3584 3186 3129 
Q 3597 2675 3597 1894 
z
M 3022 2063 
Q 3016 2534 2758 2815 
Q 2500 3097 2075 3097 
Q 1594 3097 1305 2825 
Q 1016 2553 972 2059 
L 3022 2063 
z
" transform="scale(0.015625)"/>
      <path id="DejaVuSans-20" transform="scale(0.015625)"/>
      <path id="DejaVuSans-66" d="M 2375 4863 
L 2375 4384 
L 1825 4384 
Q 1516 4384 1395 4259 
Q 1275 4134 1275 3809 
L 1275 3500 
L 2222 3500 
L 2222 3053 
L 1275 3053 
L 1275 0 
L 697 0 
L 697 3053 
L 147 3053 
L 147 3500 
L 697 3500 
L 697 3744 
Q 697 4328 969 4595 
Q 1241 4863 1831 4863 
L 2375 4863 
z
" transform="scale(0.015625)"/>
      <path id="DejaVuSans-6f" d="M 1959 3097 
Q 1497 3097 1228 2736 
Q 959 2375 959 1747 
Q 959 1119 1226 758 
Q 1494 397 1959 397 
Q 2419 397 2687 759 
Q 2956 1122 2956 1747 
Q 2956 2369 2687 2733 
Q 2419 3097 1959 3097 
z
M 1959 3584 
Q 2709 3584 3137 3096 
Q 3566 2609 3566 1747 
Q 3566 888 3137 398 
Q 2709 -91 1959 -91 
Q 1206 -91 779 398 
Q 353 888 353 1747 
Q 353 2609 779 3096 
Q 1206 3584 1959 3584 
z
" transform="scale(0.015625)"/>
      <path id="DejaVuSans-72" d="M 2631 2963 
Q 2534 3019 2420 3045 
Q 2306 3072 2169 3072 
Q 1681 3072 1420 2755 
Q 1159 2438 1159 1844 
L 1159 0 
L 581 0 
L 581 3500 
L 1159 3500 
L 1159 2956 
Q 1341 3275 1631 3429 
Q 1922 3584 2338 3584 
Q 2397 3584 2469 3576 
Q 2541 3569 2628 3553 
L 2631 2963 
z
" transform="scale(0.015625)"/>
      <path id="DejaVuSans-4a" d="M 628 4666 
L 1259 4666 
L 1259 325 
Q 1259 -519 939 -900 
Q 619 -1281 -91 -1281 
L -331 -1281 
L -331 -750 
L -134 -750 
Q 284 -750 456 -515 
Q 628 -281 628 325 
L 628 4666 
z
" transform="scale(0.015625)"/>
      <path id="DejaVuSans-79" d="M 2059 -325 
Q 1816 -950 1584 -1140 
Q 1353 -1331 966 -1331 
L 506 -1331 
L 506 -850 
L 844 -850 
Q 1081 -850 1212 -737 
Q 1344 -625 1503 -206 
L 1606 56 
L 191 3500 
L 800 3500 
L 1894 763 
L 2988 3500 
L 3597 3500 
L 2059 -325 
z
" transform="scale(0.015625)"/>
     </defs>
     <use xlink:href="#DejaVuSans-44"/>
     <use xlink:href="#DejaVuSans-61" transform="translate(77.001953 0)"/>
     <use xlink:href="#DejaVuSans-74" transform="translate(138.28125 0)"/>
     <use xlink:href="#DejaVuSans-61" transform="translate(177.490234 0)"/>
     <use xlink:href="#DejaVuSans-73" transform="translate(238.769531 0)"/>
     <use xlink:href="#DejaVuSans-65" transform="translate(290.869141 0)"/>
     <use xlink:href="#DejaVuSans-74" transform="translate(352.392578 0)"/>
     <use xlink:href="#DejaVuSans-20" transform="translate(391.601562 0)"/>
     <use xlink:href="#DejaVuSans-66" transform="translate(423.388672 0)"/>
     <use xlink:href="#DejaVuSans-6f" transform="translate(458.59375 0)"/>
     <use xlink:href="#DejaVuSans-72" transform="translate(519.775391 0)"/>
     <use xlink:href="#DejaVuSans-20" transform="translate(560.888672 0)"/>
     <use xlink:href="#DejaVuSans-4a" transform="translate(592.675781 0)"/>
     <use xlink:href="#DejaVuSans-6f" transform="translate(622.167969 0)"/>
     <use xlink:href="#DejaVuSans-79" transform="translate(683.349609 0)"/>
    </g>
   </g>
  </g>
  <g id="axes_2">
   <g id="patch_30">
    <path d="M 7.2 290.736 
L 37.285714 290.736 
L 37.285714 180.528 
L 7.2 180.528 
z
" clip-path="url(#pa971e147ae)"/>
   </g>
   <g id="patch_31">
    <path d="M 37.285714 290.736 
L 67.371429 290.736 
L 67.371429 180.528 
L 37.285714 180.528 
z
" clip-path="url(#pa971e147ae)"/>
   </g>
   <g id="patch_32">
    <path d="M 67.371429 290.736 
L 97.457143 290.736 
L 97.457143 180.528 
L 67.371429 180.528 
z
" clip-path="url(#pa971e147ae)" style="fill: #1a1a1a"/>
   </g>
   <g id="patch_33">
    <path d="M 97.457143 290.736 
L 127.542857 290.736 
L 127.542857 180.528 
L 97.457143 180.528 
z
" clip-path="url(#pa971e147ae)" style="fill: #646464"/>
   </g>
   <g id="patch_34">
    <path d="M 127.542857 290.736 
L 157.628571 290.736 
L 157.628571 180.528 
L 127.542857 180.528 
z
" clip-path="url(#pa971e147ae)" style="fill: #646464"/>
   </g>
   <g id="patch_35">
    <path d="M 157.628571 290.736 
L 187.714286 290.736 
L 187.714286 180.528 
L 157.628571 180.528 
z
" clip-path="url(#pa971e147ae)" style="fill: #646464"/>
   </g>
   <g id="patch_36">
    <path d="M 187.714286 290.736 
L 217.8 290.736 
L 217.8 180.528 
L 187.714286 180.528 
z
" clip-path="url(#pa971e147ae)" style="fill: #646464"/>
   </g>
   <g id="patch_37">
    <path d="M 217.8 290.736 
L 247.885714 290.736 
L 247.885714 180.528 
L 217.8 180.528 
z
" clip-path="url(#pa971e147ae)" style="fill: #d1d1d1"/>
   </g>
   <g id="patch_38">
    <path d="M 247.885714 290.736 
L 277.971429 290.736 
L 277.971429 180.528 
L 247.885714 180.528 
z
" clip-path="url(#pa971e147ae)" style="fill: #ffff00"/>
   </g>
   <g id="patch_39">
    <path d="M 277.971429 290.736 
L 308.057143 290.736 
L 308.057143 180.528 
L 277.971429 180.528 
z
" clip-path="url(#pa971e147ae)" style="fill: #e4e5e1"/>
   </g>
   <g id="patch_40">
    <path d="M 308.057143 290.736 
L 338.142857 290.736 
L 338.142857 180.528 
L 308.057143 180.528 
z
" clip-path="url(#pa971e147ae)" style="fill: #96d35f"/>
   </g>
   <g id="patch_41">
    <path d="M 338.142857 290.736 
L 368.228571 290.736 
L 368.228571 180.528 
L 338.142857 180.528 
z
" clip-path="url(#pa971e147ae)" style="fill: #1b3620"/>
   </g>
   <g id="patch_42">
    <path d="M 368.228571 290.736 
L 398.314286 290.736 
L 398.314286 180.528 
L 368.228571 180.528 
z
" clip-path="url(#pa971e147ae)" style="fill: #00ffff"/>
   </g>
   <g id="patch_43">
    <path d="M 398.314286 290.736 
L 428.4 290.736 
L 428.4 180.528 
L 398.314286 180.528 
z
" clip-path="url(#pa971e147ae)" style="fill: #436c7a"/>
   </g>
   <g id="patch_44">
    <path d="M 428.4 290.736 
L 458.485714 290.736 
L 458.485714 180.528 
L 428.4 180.528 
z
" clip-path="url(#pa971e147ae)" style="fill: #21292c"/>
   </g>
   <g id="patch_45">
    <path d="M 458.485714 290.736 
L 488.571429 290.736 
L 488.571429 180.528 
L 458.485714 180.528 
z
" clip-path="url(#pa971e147ae)" style="fill: #0075a9"/>
   </g>
   <g id="patch_46">
    <path d="M 488.571429 290.736 
L 518.657143 290.736 
L 518.657143 180.528 
L 488.571429 180.528 
z
" clip-path="url(#pa971e147ae)" style="fill: #00aaff"/>
   </g>
   <g id="patch_47">
    <path d="M 518.657143 290.736 
L 548.742857 290.736 
L 548.742857 180.528 
L 518.657143 180.528 
z
" clip-path="url(#pa971e147ae)" style="fill: #0b4a8e"/>
   </g>
   <g id="patch_48">
    <path d="M 548.742857 290.736 
L 578.828571 290.736 
L 578.828571 180.528 
L 548.742857 180.528 
z
" clip-path="url(#pa971e147ae)" style="fill: #0862d9"/>
   </g>
   <g id="patch_49">
    <path d="M 578.828571 290.736 
L 608.914286 290.736 
L 608.914286 180.528 
L 578.828571 180.528 
z
" clip-path="url(#pa971e147ae)" style="fill: #285ff4"/>
   </g>
   <g id="patch_50">
    <path d="M 608.914286 290.736 
L 639 290.736 
L 639 180.528 
L 608.914286 180.528 
z
" clip-path="url(#pa971e147ae)" style="fill: #dbe4ff"/>
   </g>
   <g id="patch_51">
    <path d="M 639 290.736 
L 669.085714 290.736 
L 669.085714 180.528 
L 639 180.528 
z
" clip-path="url(#pa971e147ae)" style="fill: #495fa2"/>
   </g>
   <g id="patch_52">
    <path d="M 669.085714 290.736 
L 699.171429 290.736 
L 699.171429 180.528 
L 669.085714 180.528 
z
" clip-path="url(#pa971e147ae)" style="fill: #29292e"/>
   </g>
   <g id="patch_53">
    <path d="M 699.171429 290.736 
L 729.257143 290.736 
L 729.257143 180.528 
L 699.171429 180.528 
z
" clip-path="url(#pa971e147ae)" style="fill: #484659"/>
   </g>
   <g id="patch_54">
    <path d="M 729.257143 290.736 
L 759.342857 290.736 
L 759.342857 180.528 
L 729.257143 180.528 
z
" clip-path="url(#pa971e147ae)" style="fill: #2c0977"/>
   </g>
   <g id="patch_55">
    <path d="M 759.342857 290.736 
L 789.428571 290.736 
L 789.428571 180.528 
L 759.342857 180.528 
z
" clip-path="url(#pa971e147ae)" style="fill: #4705c2"/>
   </g>
   <g id="patch_56">
    <path d="M 789.428571 290.736 
L 819.514286 290.736 
L 819.514286 180.528 
L 789.428571 180.528 
z
" clip-path="url(#pa971e147ae)" style="fill: #f532ef"/>
   </g>
   <g id="patch_57">
    <path d="M 819.514286 290.736 
L 849.6 290.736 
L 849.6 180.528 
L 819.514286 180.528 
z
" clip-path="url(#pa971e147ae)" style="fill: #de4f6c"/>
   </g>
   <g id="text_2">
    <!-- Dataset for Sad -->
    <g transform="translate(7.2 174.528) scale(0.12 -0.12)">
     <defs>
      <path id="DejaVuSans-53" d="M 3425 4513 
L 3425 3897 
Q 3066 4069 2747 4153 
Q 2428 4238 2131 4238 
Q 1616 4238 1336 4038 
Q 1056 3838 1056 3469 
Q 1056 3159 1242 3001 
Q 1428 2844 1947 2747 
L 2328 2669 
Q 3034 2534 3370 2195 
Q 3706 1856 3706 1288 
Q 3706 609 3251 259 
Q 2797 -91 1919 -91 
Q 1588 -91 1214 -16 
Q 841 59 441 206 
L 441 856 
Q 825 641 1194 531 
Q 1563 422 1919 422 
Q 2459 422 2753 634 
Q 3047 847 3047 1241 
Q 3047 1584 2836 1778 
Q 2625 1972 2144 2069 
L 1759 2144 
Q 1053 2284 737 2584 
Q 422 2884 422 3419 
Q 422 4038 858 4394 
Q 1294 4750 2059 4750 
Q 2388 4750 2728 4690 
Q 3069 4631 3425 4513 
z
" transform="scale(0.015625)"/>
      <path id="DejaVuSans-64" d="M 2906 2969 
L 2906 4863 
L 3481 4863 
L 3481 0 
L 2906 0 
L 2906 525 
Q 2725 213 2448 61 
Q 2172 -91 1784 -91 
Q 1150 -91 751 415 
Q 353 922 353 1747 
Q 353 2572 751 3078 
Q 1150 3584 1784 3584 
Q 2172 3584 2448 3432 
Q 2725 3281 2906 2969 
z
M 947 1747 
Q 947 1113 1208 752 
Q 1469 391 1925 391 
Q 2381 391 2643 752 
Q 2906 1113 2906 1747 
Q 2906 2381 2643 2742 
Q 2381 3103 1925 3103 
Q 1469 3103 1208 2742 
Q 947 2381 947 1747 
z
" transform="scale(0.015625)"/>
     </defs>
     <use xlink:href="#DejaVuSans-44"/>
     <use xlink:href="#DejaVuSans-61" transform="translate(77.001953 0)"/>
     <use xlink:href="#DejaVuSans-74" transform="translate(138.28125 0)"/>
     <use xlink:href="#DejaVuSans-61" transform="translate(177.490234 0)"/>
     <use xlink:href="#DejaVuSans-73" transform="translate(238.769531 0)"/>
     <use xlink:href="#DejaVuSans-65" transform="translate(290.869141 0)"/>
     <use xlink:href="#DejaVuSans-74" transform="translate(352.392578 0)"/>
     <use xlink:href="#DejaVuSans-20" transform="translate(391.601562 0)"/>
     <use xlink:href="#DejaVuSans-66" transform="translate(423.388672 0)"/>
     <use xlink:href="#DejaVuSans-6f" transform="translate(458.59375 0)"/>
     <use xlink:href="#DejaVuSans-72" transform="translate(519.775391 0)"/>
     <use xlink:href="#DejaVuSans-20" transform="translate(560.888672 0)"/>
     <use xlink:href="#DejaVuSans-53" transform="translate(592.675781 0)"/>
     <use xlink:href="#DejaVuSans-61" transform="translate(656.152344 0)"/>
     <use xlink:href="#DejaVuSans-64" transform="translate(717.431641 0)"/>
    </g>
   </g>
  </g>
  <g id="axes_3">
   <g id="patch_58">
    <path d="M 7.2 427.824 
L 37.285714 427.824 
L 37.285714 317.616 
L 7.2 317.616 
z
" clip-path="url(#p9f05d6412d)"/>
   </g>
   <g id="patch_59">
    <path d="M 37.285714 427.824 
L 67.371429 427.824 
L 67.371429 317.616 
L 37.285714 317.616 
z
" clip-path="url(#p9f05d6412d)"/>
   </g>
   <g id="patch_60">
    <path d="M 67.371429 427.824 
L 97.457143 427.824 
L 97.457143 317.616 
L 67.371429 317.616 
z
" clip-path="url(#p9f05d6412d)" style="fill: #0a0a0a"/>
   </g>
   <g id="patch_61">
    <path d="M 97.457143 427.824 
L 127.542857 427.824 
L 127.542857 317.616 
L 97.457143 317.616 
z
" clip-path="url(#p9f05d6412d)" style="fill: #1a1a1a"/>
   </g>
   <g id="patch_62">
    <path d="M 127.542857 427.824 
L 157.628571 427.824 
L 157.628571 317.616 
L 127.542857 317.616 
z
" clip-path="url(#p9f05d6412d)" style="fill: #545454"/>
   </g>
   <g id="patch_63">
    <path d="M 157.628571 427.824 
L 187.714286 427.824 
L 187.714286 317.616 
L 157.628571 317.616 
z
" clip-path="url(#p9f05d6412d)" style="fill: #646464"/>
   </g>
   <g id="patch_64">
    <path d="M 187.714286 427.824 
L 217.8 427.824 
L 217.8 317.616 
L 187.714286 317.616 
z
" clip-path="url(#p9f05d6412d)" style="fill: #646464"/>
   </g>
   <g id="patch_65">
    <path d="M 217.8 427.824 
L 247.885714 427.824 
L 247.885714 317.616 
L 217.8 317.616 
z
" clip-path="url(#p9f05d6412d)" style="fill: #646464"/>
   </g>
   <g id="patch_66">
    <path d="M 247.885714 427.824 
L 277.971429 427.824 
L 277.971429 317.616 
L 247.885714 317.616 
z
" clip-path="url(#p9f05d6412d)" style="fill: #ffffff"/>
   </g>
   <g id="patch_67">
    <path d="M 277.971429 427.824 
L 308.057143 427.824 
L 308.057143 317.616 
L 277.971429 317.616 
z
" clip-path="url(#p9f05d6412d)" style="fill: #990a0a"/>
   </g>
   <g id="patch_68">
    <path d="M 308.057143 427.824 
L 338.142857 427.824 
L 338.142857 317.616 
L 308.057143 317.616 
z
" clip-path="url(#p9f05d6412d)" style="fill: #7f0505"/>
   </g>
   <g id="patch_69">
    <path d="M 338.142857 427.824 
L 368.228571 427.824 
L 368.228571 317.616 
L 338.142857 317.616 
z
" clip-path="url(#p9f05d6412d)" style="fill: #ff0000"/>
   </g>
   <g id="patch_70">
    <path d="M 368.228571 427.824 
L 398.314286 427.824 
L 398.314286 317.616 
L 368.228571 317.616 
z
" clip-path="url(#p9f05d6412d)" style="fill: #ff0000"/>
   </g>
   <g id="patch_71">
    <path d="M 398.314286 427.824 
L 428.4 427.824 
L 428.4 317.616 
L 398.314286 317.616 
z
" clip-path="url(#p9f05d6412d)" style="fill: #ff0000"/>
   </g>
   <g id="patch_72">
    <path d="M 428.4 427.824 
L 458.485714 427.824 
L 458.485714 317.616 
L 428.4 317.616 
z
" clip-path="url(#p9f05d6412d)" style="fill: #ff0000"/>
   </g>
   <g id="patch_73">
    <path d="M 458.485714 427.824 
L 488.571429 427.824 
L 488.571429 317.616 
L 458.485714 317.616 
z
" clip-path="url(#p9f05d6412d)" style="fill: #ff0a0a"/>
   </g>
   <g id="patch_74">
    <path d="M 488.571429 427.824 
L 518.657143 427.824 
L 518.657143 317.616 
L 488.571429 317.616 
z
" clip-path="url(#p9f05d6412d)" style="fill: #ffc2c2"/>
   </g>
   <g id="patch_75">
    <path d="M 518.657143 427.824 
L 548.742857 427.824 
L 548.742857 317.616 
L 518.657143 317.616 
z
" clip-path="url(#p9f05d6412d)" style="fill: #ff4015"/>
   </g>
   <g id="patch_76">
    <path d="M 548.742857 427.824 
L 578.828571 427.824 
L 578.828571 317.616 
L 548.742857 317.616 
z
" clip-path="url(#p9f05d6412d)" style="fill: #f29b76"/>
   </g>
   <g id="patch_77">
    <path d="M 578.828571 427.824 
L 608.914286 427.824 
L 608.914286 317.616 
L 578.828571 317.616 
z
" clip-path="url(#p9f05d6412d)" style="fill: #c29005"/>
   </g>
   <g id="patch_78">
    <path d="M 608.914286 427.824 
L 639 427.824 
L 639 317.616 
L 608.914286 317.616 
z
" clip-path="url(#p9f05d6412d)" style="fill: #ffff00"/>
   </g>
   <g id="patch_79">
    <path d="M 639 427.824 
L 669.085714 427.824 
L 669.085714 317.616 
L 639 317.616 
z
" clip-path="url(#p9f05d6412d)" style="fill: #dff532"/>
   </g>
   <g id="patch_80">
    <path d="M 669.085714 427.824 
L 699.171429 427.824 
L 699.171429 317.616 
L 669.085714 317.616 
z
" clip-path="url(#p9f05d6412d)" style="fill: #00fbff"/>
   </g>
   <g id="patch_81">
    <path d="M 699.171429 427.824 
L 729.257143 427.824 
L 729.257143 317.616 
L 699.171429 317.616 
z
" clip-path="url(#p9f05d6412d)" style="fill: #ec1349"/>
   </g>
   <g id="patch_82">
    <path d="M 729.257143 427.824 
L 759.342857 427.824 
L 759.342857 317.616 
L 729.257143 317.616 
z
" clip-path="url(#p9f05d6412d)" style="fill: #a41e3f"/>
   </g>
   <g id="patch_83">
    <path d="M 759.342857 427.824 
L 789.428571 427.824 
L 789.428571 317.616 
L 759.342857 317.616 
z
" clip-path="url(#p9f05d6412d)" style="fill: #f80d3c"/>
   </g>
   <g id="patch_84">
    <path d="M 789.428571 427.824 
L 819.514286 427.824 
L 819.514286 317.616 
L 789.428571 317.616 
z
" clip-path="url(#p9f05d6412d)" style="fill: #8c4048"/>
   </g>
   <g id="patch_85">
    <path d="M 819.514286 427.824 
L 849.6 427.824 
L 849.6 317.616 
L 819.514286 317.616 
z
" clip-path="url(#p9f05d6412d)" style="fill: #f7021b"/>
   </g>
   <g id="text_3">
    <!-- Dataset for Anger -->
    <g transform="translate(7.2 311.616) scale(0.12 -0.12)">
     <defs>
      <path id="DejaVuSans-41" d="M 2188 4044 
L 1331 1722 
L 3047 1722 
L 2188 4044 
z
M 1831 4666 
L 2547 4666 
L 4325 0 
L 3669 0 
L 3244 1197 
L 1141 1197 
L 716 0 
L 50 0 
L 1831 4666 
z
" transform="scale(0.015625)"/>
      <path id="DejaVuSans-6e" d="M 3513 2113 
L 3513 0 
L 2938 0 
L 2938 2094 
Q 2938 2591 2744 2837 
Q 2550 3084 2163 3084 
Q 1697 3084 1428 2787 
Q 1159 2491 1159 1978 
L 1159 0 
L 581 0 
L 581 3500 
L 1159 3500 
L 1159 2956 
Q 1366 3272 1645 3428 
Q 1925 3584 2291 3584 
Q 2894 3584 3203 3211 
Q 3513 2838 3513 2113 
z
" transform="scale(0.015625)"/>
      <path id="DejaVuSans-67" d="M 2906 1791 
Q 2906 2416 2648 2759 
Q 2391 3103 1925 3103 
Q 1463 3103 1205 2759 
Q 947 2416 947 1791 
Q 947 1169 1205 825 
Q 1463 481 1925 481 
Q 2391 481 2648 825 
Q 2906 1169 2906 1791 
z
M 3481 434 
Q 3481 -459 3084 -895 
Q 2688 -1331 1869 -1331 
Q 1566 -1331 1297 -1286 
Q 1028 -1241 775 -1147 
L 775 -588 
Q 1028 -725 1275 -790 
Q 1522 -856 1778 -856 
Q 2344 -856 2625 -561 
Q 2906 -266 2906 331 
L 2906 616 
Q 2728 306 2450 153 
Q 2172 0 1784 0 
Q 1141 0 747 490 
Q 353 981 353 1791 
Q 353 2603 747 3093 
Q 1141 3584 1784 3584 
Q 2172 3584 2450 3431 
Q 2728 3278 2906 2969 
L 2906 3500 
L 3481 3500 
L 3481 434 
z
" transform="scale(0.015625)"/>
     </defs>
     <use xlink:href="#DejaVuSans-44"/>
     <use xlink:href="#DejaVuSans-61" transform="translate(77.001953 0)"/>
     <use xlink:href="#DejaVuSans-74" transform="translate(138.28125 0)"/>
     <use xlink:href="#DejaVuSans-61" transform="translate(177.490234 0)"/>
     <use xlink:href="#DejaVuSans-73" transform="translate(238.769531 0)"/>
     <use xlink:href="#DejaVuSans-65" transform="translate(290.869141 0)"/>
     <use xlink:href="#DejaVuSans-74" transform="translate(352.392578 0)"/>
     <use xlink:href="#DejaVuSans-20" transform="translate(391.601562 0)"/>
     <use xlink:href="#DejaVuSans-66" transform="translate(423.388672 0)"/>
     <use xlink:href="#DejaVuSans-6f" transform="translate(458.59375 0)"/>
     <use xlink:href="#DejaVuSans-72" transform="translate(519.775391 0)"/>
     <use xlink:href="#DejaVuSans-20" transform="translate(560.888672 0)"/>
     <use xlink:href="#DejaVuSans-41" transform="translate(592.675781 0)"/>
     <use xlink:href="#DejaVuSans-6e" transform="translate(661.083984 0)"/>
     <use xlink:href="#DejaVuSans-67" transform="translate(724.462891 0)"/>
     <use xlink:href="#DejaVuSans-65" transform="translate(787.939453 0)"/>
     <use xlink:href="#DejaVuSans-72" transform="translate(849.462891 0)"/>
    </g>
   </g>
  </g>
  <g id="axes_4">
   <g id="patch_86">
    <path d="M 7.2 564.912 
L 37.285714 564.912 
L 37.285714 454.704 
L 7.2 454.704 
z
" clip-path="url(#p327a9ea7c0)"/>
   </g>
   <g id="patch_87">
    <path d="M 37.285714 564.912 
L 67.371429 564.912 
L 67.371429 454.704 
L 37.285714 454.704 
z
" clip-path="url(#p327a9ea7c0)"/>
   </g>
   <g id="patch_88">
    <path d="M 67.371429 564.912 
L 97.457143 564.912 
L 97.457143 454.704 
L 67.371429 454.704 
z
" clip-path="url(#p327a9ea7c0)" style="fill: #0d0d0d"/>
   </g>
   <g id="patch_89">
    <path d="M 97.457143 564.912 
L 127.542857 564.912 
L 127.542857 454.704 
L 97.457143 454.704 
z
" clip-path="url(#p327a9ea7c0)" style="fill: #1a1a1a"/>
   </g>
   <g id="patch_90">
    <path d="M 127.542857 564.912 
L 157.628571 564.912 
L 157.628571 454.704 
L 127.542857 454.704 
z
" clip-path="url(#p327a9ea7c0)" style="fill: #646464"/>
   </g>
   <g id="patch_91">
    <path d="M 157.628571 564.912 
L 187.714286 564.912 
L 187.714286 454.704 
L 157.628571 454.704 
z
" clip-path="url(#p327a9ea7c0)" style="fill: #646464"/>
   </g>
   <g id="patch_92">
    <path d="M 187.714286 564.912 
L 217.8 564.912 
L 217.8 454.704 
L 187.714286 454.704 
z
" clip-path="url(#p327a9ea7c0)" style="fill: #646464"/>
   </g>
   <g id="patch_93">
    <path d="M 217.8 564.912 
L 247.885714 564.912 
L 247.885714 454.704 
L 217.8 454.704 
z
" clip-path="url(#p327a9ea7c0)" style="fill: #757575"/>
   </g>
   <g id="patch_94">
    <path d="M 247.885714 564.912 
L 277.971429 564.912 
L 277.971429 454.704 
L 247.885714 454.704 
z
" clip-path="url(#p327a9ea7c0)" style="fill: #a3a3a3"/>
   </g>
   <g id="patch_95">
    <path d="M 277.971429 564.912 
L 308.057143 564.912 
L 308.057143 454.704 
L 277.971429 454.704 
z
" clip-path="url(#p327a9ea7c0)" style="fill: #ffffff"/>
   </g>
   <g id="patch_96">
    <path d="M 308.057143 564.912 
L 338.142857 564.912 
L 338.142857 454.704 
L 308.057143 454.704 
z
" clip-path="url(#p327a9ea7c0)" style="fill: #ffffff"/>
   </g>
   <g id="patch_97">
    <path d="M 338.142857 564.912 
L 368.228571 564.912 
L 368.228571 454.704 
L 338.142857 454.704 
z
" clip-path="url(#p327a9ea7c0)" style="fill: #1a1919"/>
   </g>
   <g id="patch_98">
    <path d="M 368.228571 564.912 
L 398.314286 564.912 
L 398.314286 454.704 
L 368.228571 454.704 
z
" clip-path="url(#p327a9ea7c0)" style="fill: #864b4b"/>
   </g>
   <g id="patch_99">
    <path d="M 398.314286 564.912 
L 428.4 564.912 
L 428.4 454.704 
L 398.314286 454.704 
z
" clip-path="url(#p327a9ea7c0)" style="fill: #ff0000"/>
   </g>
   <g id="patch_100">
    <path d="M 428.4 564.912 
L 458.485714 564.912 
L 458.485714 454.704 
L 428.4 454.704 
z
" clip-path="url(#p327a9ea7c0)" style="fill: #ff0000"/>
   </g>
   <g id="patch_101">
    <path d="M 458.485714 564.912 
L 488.571429 564.912 
L 488.571429 454.704 
L 458.485714 454.704 
z
" clip-path="url(#p327a9ea7c0)" style="fill: #ffdd00"/>
   </g>
   <g id="patch_102">
    <path d="M 488.571429 564.912 
L 518.657143 564.912 
L 518.657143 454.704 
L 488.571429 454.704 
z
" clip-path="url(#p327a9ea7c0)" style="fill: #45602e"/>
   </g>
   <g id="patch_103">
    <path d="M 518.657143 564.912 
L 548.742857 564.912 
L 548.742857 454.704 
L 518.657143 454.704 
z
" clip-path="url(#p327a9ea7c0)" style="fill: #00ff00"/>
   </g>
   <g id="patch_104">
    <path d="M 548.742857 564.912 
L 578.828571 564.912 
L 578.828571 454.704 
L 548.742857 454.704 
z
" clip-path="url(#p327a9ea7c0)" style="fill: #00ff00"/>
   </g>
   <g id="patch_105">
    <path d="M 578.828571 564.912 
L 608.914286 564.912 
L 608.914286 454.704 
L 578.828571 454.704 
z
" clip-path="url(#p327a9ea7c0)" style="fill: #32f587"/>
   </g>
   <g id="patch_106">
    <path d="M 608.914286 564.912 
L 639 564.912 
L 639 454.704 
L 608.914286 454.704 
z
" clip-path="url(#p327a9ea7c0)" style="fill: #93e3fd"/>
   </g>
   <g id="patch_107">
    <path d="M 639 564.912 
L 669.085714 564.912 
L 669.085714 454.704 
L 639 454.704 
z
" clip-path="url(#p327a9ea7c0)" style="fill: #053ec2"/>
   </g>
   <g id="patch_108">
    <path d="M 669.085714 564.912 
L 699.171429 564.912 
L 699.171429 454.704 
L 669.085714 454.704 
z
" clip-path="url(#p327a9ea7c0)" style="fill: #6c6991"/>
   </g>
   <g id="patch_109">
    <path d="M 699.171429 564.912 
L 729.257143 564.912 
L 729.257143 454.704 
L 699.171429 454.704 
z
" clip-path="url(#p327a9ea7c0)" style="fill: #aa89bd"/>
   </g>
   <g id="patch_110">
    <path d="M 729.257143 564.912 
L 759.342857 564.912 
L 759.342857 454.704 
L 729.257143 454.704 
z
" clip-path="url(#p327a9ea7c0)" style="fill: #634e65"/>
   </g>
   <g id="patch_111">
    <path d="M 759.342857 564.912 
L 789.428571 564.912 
L 789.428571 454.704 
L 759.342857 454.704 
z
" clip-path="url(#p327a9ea7c0)" style="fill: #ff0095"/>
   </g>
   <g id="patch_112">
    <path d="M 789.428571 564.912 
L 819.514286 564.912 
L 819.514286 454.704 
L 789.428571 454.704 
z
" clip-path="url(#p327a9ea7c0)" style="fill: #928b8d"/>
   </g>
   <g id="patch_113">
    <path d="M 819.514286 564.912 
L 849.6 564.912 
L 849.6 454.704 
L 819.514286 454.704 
z
" clip-path="url(#p327a9ea7c0)" style="fill: #b5b0b1"/>
   </g>
   <g id="text_4">
    <!-- Dataset for Fear -->
    <g transform="translate(7.2 448.704) scale(0.12 -0.12)">
     <defs>
      <path id="DejaVuSans-46" d="M 628 4666 
L 3309 4666 
L 3309 4134 
L 1259 4134 
L 1259 2759 
L 3109 2759 
L 3109 2228 
L 1259 2228 
L 1259 0 
L 628 0 
L 628 4666 
z
" transform="scale(0.015625)"/>
     </defs>
     <use xlink:href="#DejaVuSans-44"/>
     <use xlink:href="#DejaVuSans-61" transform="translate(77.001953 0)"/>
     <use xlink:href="#DejaVuSans-74" transform="translate(138.28125 0)"/>
     <use xlink:href="#DejaVuSans-61" transform="translate(177.490234 0)"/>
     <use xlink:href="#DejaVuSans-73" transform="translate(238.769531 0)"/>
     <use xlink:href="#DejaVuSans-65" transform="translate(290.869141 0)"/>
     <use xlink:href="#DejaVuSans-74" transform="translate(352.392578 0)"/>
     <use xlink:href="#DejaVuSans-20" transform="translate(391.601562 0)"/>
     <use xlink:href="#DejaVuSans-66" transform="translate(423.388672 0)"/>
     <use xlink:href="#DejaVuSans-6f" transform="translate(458.59375 0)"/>
     <use xlink:href="#DejaVuSans-72" transform="translate(519.775391 0)"/>
     <use xlink:href="#DejaVuSans-20" transform="translate(560.888672 0)"/>
     <use xlink:href="#DejaVuSans-46" transform="translate(592.675781 0)"/>
     <use xlink:href="#DejaVuSans-65" transform="translate(644.695312 0)"/>
     <use xlink:href="#DejaVuSans-61" transform="translate(706.21875 0)"/>
     <use xlink:href="#DejaVuSans-72" transform="translate(767.498047 0)"/>
    </g>
   </g>
  </g>
  <g id="axes_5">
   <g id="patch_114">
    <path d="M 7.2 702 
L 37.285714 702 
L 37.285714 591.792 
L 7.2 591.792 
z
" clip-path="url(#pf02a78a6d0)" style="fill: #1a1a1a"/>
   </g>
   <g id="patch_115">
    <path d="M 37.285714 702 
L 67.371429 702 
L 67.371429 591.792 
L 37.285714 591.792 
z
" clip-path="url(#pf02a78a6d0)" style="fill: #646464"/>
   </g>
   <g id="patch_116">
    <path d="M 67.371429 702 
L 97.457143 702 
L 97.457143 591.792 
L 67.371429 591.792 
z
" clip-path="url(#pf02a78a6d0)" style="fill: #646464"/>
   </g>
   <g id="patch_117">
    <path d="M 97.457143 702 
L 127.542857 702 
L 127.542857 591.792 
L 97.457143 591.792 
z
" clip-path="url(#pf02a78a6d0)" style="fill: #8b7474"/>
   </g>
   <g id="patch_118">
    <path d="M 127.542857 702 
L 157.628571 702 
L 157.628571 591.792 
L 127.542857 591.792 
z
" clip-path="url(#pf02a78a6d0)" style="fill: #a47979"/>
   </g>
   <g id="patch_119">
    <path d="M 157.628571 702 
L 187.714286 702 
L 187.714286 591.792 
L 157.628571 591.792 
z
" clip-path="url(#pf02a78a6d0)" style="fill: #492d2d"/>
   </g>
   <g id="patch_120">
    <path d="M 187.714286 702 
L 217.8 702 
L 217.8 591.792 
L 187.714286 591.792 
z
" clip-path="url(#pf02a78a6d0)" style="fill: #864b4b"/>
   </g>
   <g id="patch_121">
    <path d="M 217.8 702 
L 247.885714 702 
L 247.885714 591.792 
L 217.8 591.792 
z
" clip-path="url(#pf02a78a6d0)" style="fill: #a96800"/>
   </g>
   <g id="patch_122">
    <path d="M 247.885714 702 
L 277.971429 702 
L 277.971429 591.792 
L 247.885714 591.792 
z
" clip-path="url(#pf02a78a6d0)" style="fill: #f5ae32"/>
   </g>
   <g id="patch_123">
    <path d="M 277.971429 702 
L 308.057143 702 
L 308.057143 591.792 
L 277.971429 591.792 
z
" clip-path="url(#pf02a78a6d0)" style="fill: #e0b61f"/>
   </g>
   <g id="patch_124">
    <path d="M 308.057143 702 
L 338.142857 702 
L 338.142857 591.792 
L 308.057143 591.792 
z
" clip-path="url(#pf02a78a6d0)" style="fill: #ffdd00"/>
   </g>
   <g id="patch_125">
    <path d="M 338.142857 702 
L 368.228571 702 
L 368.228571 591.792 
L 338.142857 591.792 
z
" clip-path="url(#pf02a78a6d0)" style="fill: #fbeb3c"/>
   </g>
   <g id="patch_126">
    <path d="M 368.228571 702 
L 398.314286 702 
L 398.314286 591.792 
L 368.228571 591.792 
z
" clip-path="url(#pf02a78a6d0)" style="fill: #ded000"/>
   </g>
   <g id="patch_127">
    <path d="M 398.314286 702 
L 428.4 702 
L 428.4 591.792 
L 398.314286 591.792 
z
" clip-path="url(#pf02a78a6d0)" style="fill: #fffc41"/>
   </g>
   <g id="patch_128">
    <path d="M 428.4 702 
L 458.485714 702 
L 458.485714 591.792 
L 428.4 591.792 
z
" clip-path="url(#pf02a78a6d0)" style="fill: #e5e515"/>
   </g>
   <g id="patch_129">
    <path d="M 458.485714 702 
L 488.571429 702 
L 488.571429 591.792 
L 458.485714 591.792 
z
" clip-path="url(#pf02a78a6d0)" style="fill: #b6b842"/>
   </g>
   <g id="patch_130">
    <path d="M 488.571429 702 
L 518.657143 702 
L 518.657143 591.792 
L 488.571429 591.792 
z
" clip-path="url(#pf02a78a6d0)" style="fill: #a0a46a"/>
   </g>
   <g id="patch_131">
    <path d="M 518.657143 702 
L 548.742857 702 
L 548.742857 591.792 
L 518.657143 591.792 
z
" clip-path="url(#pf02a78a6d0)" style="fill: #598929"/>
   </g>
   <g id="patch_132">
    <path d="M 548.742857 702 
L 578.828571 702 
L 578.828571 591.792 
L 548.742857 591.792 
z
" clip-path="url(#pf02a78a6d0)" style="fill: #2bff00"/>
   </g>
   <g id="patch_133">
    <path d="M 578.828571 702 
L 608.914286 702 
L 608.914286 591.792 
L 578.828571 591.792 
z
" clip-path="url(#pf02a78a6d0)" style="fill: #2a372a"/>
   </g>
   <g id="patch_134">
    <path d="M 608.914286 702 
L 639 702 
L 639 591.792 
L 608.914286 591.792 
z
" clip-path="url(#pf02a78a6d0)" style="fill: #00ff00"/>
   </g>
   <g id="patch_135">
    <path d="M 639 702 
L 669.085714 702 
L 669.085714 591.792 
L 639 591.792 
z
" clip-path="url(#pf02a78a6d0)" style="fill: #011307"/>
   </g>
   <g id="patch_136">
    <path d="M 669.085714 702 
L 699.171429 702 
L 699.171429 591.792 
L 669.085714 591.792 
z
" clip-path="url(#pf02a78a6d0)" style="fill: #02452c"/>
   </g>
   <g id="patch_137">
    <path d="M 699.171429 702 
L 729.257143 702 
L 729.257143 591.792 
L 699.171429 591.792 
z
" clip-path="url(#pf02a78a6d0)" style="fill: #00ffff"/>
   </g>
   <g id="patch_138">
    <path d="M 729.257143 702 
L 759.342857 702 
L 759.342857 591.792 
L 729.257143 591.792 
z
" clip-path="url(#pf02a78a6d0)" style="fill: #0000ff"/>
   </g>
   <g id="patch_139">
    <path d="M 759.342857 702 
L 789.428571 702 
L 789.428571 591.792 
L 759.342857 591.792 
z
" clip-path="url(#pf02a78a6d0)" style="fill: #aa89bd"/>
   </g>
   <g id="patch_140">
    <path d="M 789.428571 702 
L 819.514286 702 
L 819.514286 591.792 
L 789.428571 591.792 
z
" clip-path="url(#pf02a78a6d0)" style="fill: #ea0bba"/>
   </g>
   <g id="patch_141">
    <path d="M 819.514286 702 
L 849.6 702 
L 849.6 591.792 
L 819.514286 591.792 
z
" clip-path="url(#pf02a78a6d0)" style="fill: #601548"/>
   </g>
   <g id="text_5">
    <!-- Dataset for Disgust -->
    <g transform="translate(7.2 585.792) scale(0.12 -0.12)">
     <defs>
      <path id="DejaVuSans-69" d="M 603 3500 
L 1178 3500 
L 1178 0 
L 603 0 
L 603 3500 
z
M 603 4863 
L 1178 4863 
L 1178 4134 
L 603 4134 
L 603 4863 
z
" transform="scale(0.015625)"/>
      <path id="DejaVuSans-75" d="M 544 1381 
L 544 3500 
L 1119 3500 
L 1119 1403 
Q 1119 906 1312 657 
Q 1506 409 1894 409 
Q 2359 409 2629 706 
Q 2900 1003 2900 1516 
L 2900 3500 
L 3475 3500 
L 3475 0 
L 2900 0 
L 2900 538 
Q 2691 219 2414 64 
Q 2138 -91 1772 -91 
Q 1169 -91 856 284 
Q 544 659 544 1381 
z
M 1991 3584 
L 1991 3584 
z
" transform="scale(0.015625)"/>
     </defs>
     <use xlink:href="#DejaVuSans-44"/>
     <use xlink:href="#DejaVuSans-61" transform="translate(77.001953 0)"/>
     <use xlink:href="#DejaVuSans-74" transform="translate(138.28125 0)"/>
     <use xlink:href="#DejaVuSans-61" transform="translate(177.490234 0)"/>
     <use xlink:href="#DejaVuSans-73" transform="translate(238.769531 0)"/>
     <use xlink:href="#DejaVuSans-65" transform="translate(290.869141 0)"/>
     <use xlink:href="#DejaVuSans-74" transform="translate(352.392578 0)"/>
     <use xlink:href="#DejaVuSans-20" transform="translate(391.601562 0)"/>
     <use xlink:href="#DejaVuSans-66" transform="translate(423.388672 0)"/>
     <use xlink:href="#DejaVuSans-6f" transform="translate(458.59375 0)"/>
     <use xlink:href="#DejaVuSans-72" transform="translate(519.775391 0)"/>
     <use xlink:href="#DejaVuSans-20" transform="translate(560.888672 0)"/>
     <use xlink:href="#DejaVuSans-44" transform="translate(592.675781 0)"/>
     <use xlink:href="#DejaVuSans-69" transform="translate(669.677734 0)"/>
     <use xlink:href="#DejaVuSans-73" transform="translate(697.460938 0)"/>
     <use xlink:href="#DejaVuSans-67" transform="translate(749.560547 0)"/>
     <use xlink:href="#DejaVuSans-75" transform="translate(813.037109 0)"/>
     <use xlink:href="#DejaVuSans-73" transform="translate(876.416016 0)"/>
     <use xlink:href="#DejaVuSans-74" transform="translate(928.515625 0)"/>
    </g>
   </g>
  </g>
  <g id="text_6">
   <!-- Color Grid of Inner Ring Color -->
   <g transform="translate(340.178437 16.318125) scale(0.12 -0.12)">
    <defs>
     <path id="DejaVuSans-43" d="M 4122 4306 
L 4122 3641 
Q 3803 3938 3442 4084 
Q 3081 4231 2675 4231 
Q 1875 4231 1450 3742 
Q 1025 3253 1025 2328 
Q 1025 1406 1450 917 
Q 1875 428 2675 428 
Q 3081 428 3442 575 
Q 3803 722 4122 1019 
L 4122 359 
Q 3791 134 3420 21 
Q 3050 -91 2638 -91 
Q 1578 -91 968 557 
Q 359 1206 359 2328 
Q 359 3453 968 4101 
Q 1578 4750 2638 4750 
Q 3056 4750 3426 4639 
Q 3797 4528 4122 4306 
z
" transform="scale(0.015625)"/>
     <path id="DejaVuSans-6c" d="M 603 4863 
L 1178 4863 
L 1178 0 
L 603 0 
L 603 4863 
z
" transform="scale(0.015625)"/>
     <path id="DejaVuSans-47" d="M 3809 666 
L 3809 1919 
L 2778 1919 
L 2778 2438 
L 4434 2438 
L 4434 434 
Q 4069 175 3628 42 
Q 3188 -91 2688 -91 
Q 1594 -91 976 548 
Q 359 1188 359 2328 
Q 359 3472 976 4111 
Q 1594 4750 2688 4750 
Q 3144 4750 3555 4637 
Q 3966 4525 4313 4306 
L 4313 3634 
Q 3963 3931 3569 4081 
Q 3175 4231 2741 4231 
Q 1884 4231 1454 3753 
Q 1025 3275 1025 2328 
Q 1025 1384 1454 906 
Q 1884 428 2741 428 
Q 3075 428 3337 486 
Q 3600 544 3809 666 
z
" transform="scale(0.015625)"/>
     <path id="DejaVuSans-49" d="M 628 4666 
L 1259 4666 
L 1259 0 
L 628 0 
L 628 4666 
z
" transform="scale(0.015625)"/>
     <path id="DejaVuSans-52" d="M 2841 2188 
Q 3044 2119 3236 1894 
Q 3428 1669 3622 1275 
L 4263 0 
L 3584 0 
L 2988 1197 
Q 2756 1666 2539 1819 
Q 2322 1972 1947 1972 
L 1259 1972 
L 1259 0 
L 628 0 
L 628 4666 
L 2053 4666 
Q 2853 4666 3247 4331 
Q 3641 3997 3641 3322 
Q 3641 2881 3436 2590 
Q 3231 2300 2841 2188 
z
M 1259 4147 
L 1259 2491 
L 2053 2491 
Q 2509 2491 2742 2702 
Q 2975 2913 2975 3322 
Q 2975 3731 2742 3939 
Q 2509 4147 2053 4147 
L 1259 4147 
z
" transform="scale(0.015625)"/>
    </defs>
    <use xlink:href="#DejaVuSans-43"/>
    <use xlink:href="#DejaVuSans-6f" transform="translate(69.824219 0)"/>
    <use xlink:href="#DejaVuSans-6c" transform="translate(131.005859 0)"/>
    <use xlink:href="#DejaVuSans-6f" transform="translate(158.789062 0)"/>
    <use xlink:href="#DejaVuSans-72" transform="translate(219.970703 0)"/>
    <use xlink:href="#DejaVuSans-20" transform="translate(261.083984 0)"/>
    <use xlink:href="#DejaVuSans-47" transform="translate(292.871094 0)"/>
    <use xlink:href="#DejaVuSans-72" transform="translate(370.361328 0)"/>
    <use xlink:href="#DejaVuSans-69" transform="translate(411.474609 0)"/>
    <use xlink:href="#DejaVuSans-64" transform="translate(439.257812 0)"/>
    <use xlink:href="#DejaVuSans-20" transform="translate(502.734375 0)"/>
    <use xlink:href="#DejaVuSans-6f" transform="translate(534.521484 0)"/>
    <use xlink:href="#DejaVuSans-66" transform="translate(595.703125 0)"/>
    <use xlink:href="#DejaVuSans-20" transform="translate(630.908203 0)"/>
    <use xlink:href="#DejaVuSans-49" transform="translate(662.695312 0)"/>
    <use xlink:href="#DejaVuSans-6e" transform="translate(692.1875 0)"/>
    <use xlink:href="#DejaVuSans-6e" transform="translate(755.566406 0)"/>
    <use xlink:href="#DejaVuSans-65" transform="translate(818.945312 0)"/>
    <use xlink:href="#DejaVuSans-72" transform="translate(880.46875 0)"/>
    <use xlink:href="#DejaVuSans-20" transform="translate(921.582031 0)"/>
    <use xlink:href="#DejaVuSans-52" transform="translate(953.369141 0)"/>
    <use xlink:href="#DejaVuSans-69" transform="translate(1022.851562 0)"/>
    <use xlink:href="#DejaVuSans-6e" transform="translate(1050.634766 0)"/>
    <use xlink:href="#DejaVuSans-67" transform="translate(1114.013672 0)"/>
    <use xlink:href="#DejaVuSans-20" transform="translate(1177.490234 0)"/>
    <use xlink:href="#DejaVuSans-43" transform="translate(1209.277344 0)"/>
    <use xlink:href="#DejaVuSans-6f" transform="translate(1279.101562 0)"/>
    <use xlink:href="#DejaVuSans-6c" transform="translate(1340.283203 0)"/>
    <use xlink:href="#DejaVuSans-6f" transform="translate(1368.066406 0)"/>
    <use xlink:href="#DejaVuSans-72" transform="translate(1429.248047 0)"/>
   </g>
  </g>
 </g>
 <defs>
  <clipPath id="p1c91cb4b10">
   <rect x="7.2" y="43.44" width="842.4" height="110.208"/>
  </clipPath>
  <clipPath id="pa971e147ae">
   <rect x="7.2" y="180.528" width="842.4" height="110.208"/>
  </clipPath>
  <clipPath id="p9f05d6412d">
   <rect x="7.2" y="317.616" width="842.4" height="110.208"/>
  </clipPath>
  <clipPath id="p327a9ea7c0">
   <rect x="7.2" y="454.704" width="842.4" height="110.208"/>
  </clipPath>
  <clipPath id="pf02a78a6d0">
   <rect x="7.2" y="591.792" width="842.4" height="110.208"/>
  </clipPath>
 </defs>
</svg>
