<?xml version="1.0" encoding="utf-8" standalone="no"?>
<!DOCTYPE svg PUBLIC "-//W3C//DTD SVG 1.1//EN"
  "http://www.w3.org/Graphics/SVG/1.1/DTD/svg11.dtd">
<svg xmlns:xlink="http://www.w3.org/1999/xlink" width="726.94375pt" height="392.514375pt" viewBox="0 0 726.94375 392.514375" xmlns="http://www.w3.org/2000/svg" version="1.1">
 <metadata>
  <rdf:RDF xmlns:dc="http://purl.org/dc/elements/1.1/" xmlns:cc="http://creativecommons.org/ns#" xmlns:rdf="http://www.w3.org/1999/02/22-rdf-syntax-ns#">
   <cc:Work>
    <dc:type rdf:resource="http://purl.org/dc/dcmitype/StillImage"/>
    <dc:date>2025-02-07T16:38:43.033712</dc:date>
    <dc:format>image/svg+xml</dc:format>
    <dc:creator>
     <cc:Agent>
      <dc:title>Matplotlib v3.10.0, https://matplotlib.org/</dc:title>
     </cc:Agent>
    </dc:creator>
   </cc:Work>
  </rdf:RDF>
 </metadata>
 <defs>
  <style type="text/css">*{stroke-linejoin: round; stroke-linecap: butt}</style>
 </defs>
 <g id="figure_1">
  <g id="patch_1">
   <path d="M 0 392.514375 
L 726.94375 392.514375 
L 726.94375 0 
L 0 0 
z
" style="fill: #ffffff"/>
  </g>
  <g id="axes_1">
   <g id="patch_2">
    <path d="M 50.14375 354.958125 
L 719.74375 354.958125 
L 719.74375 22.318125 
L 50.14375 22.318125 
z
" style="fill: #ffffff"/>
   </g>
   <g id="matplotlib.axis_1">
    <g id="xtick_1">
     <g id="line2d_1">
      <path d="M 148.216477 354.958125 
L 148.216477 22.318125 
" clip-path="url(#p369be55c55)" style="fill: none; stroke: #b0b0b0; stroke-width: 0.8; stroke-linecap: square"/>
     </g>
     <g id="line2d_2">
      <defs>
       <path id="mb701e23e02" d="M 0 0 
L 0 3.5 
" style="stroke: #000000; stroke-width: 0.8"/>
      </defs>
      <g>
       <use xlink:href="#mb701e23e02" x="148.216477" y="354.958125" style="stroke: #000000; stroke-width: 0.8"/>
      </g>
     </g>
     <g id="text_1">
      <!-- 0.2 -->
      <g transform="translate(140.264915 369.556562) scale(0.1 -0.1)">
       <defs>
        <path id="DejaVuSans-30" d="M 2034 4250 
Q 1547 4250 1301 3770 
Q 1056 3291 1056 2328 
Q 1056 1369 1301 889 
Q 1547 409 2034 409 
Q 2525 409 2770 889 
Q 3016 1369 3016 2328 
Q 3016 3291 2770 3770 
Q 2525 4250 2034 4250 
z
M 2034 4750 
Q 2819 4750 3233 4129 
Q 3647 3509 3647 2328 
Q 3647 1150 3233 529 
Q 2819 -91 2034 -91 
Q 1250 -91 836 529 
Q 422 1150 422 2328 
Q 422 3509 836 4129 
Q 1250 4750 2034 4750 
z
" transform="scale(0.015625)"/>
        <path id="DejaVuSans-2e" d="M 684 794 
L 1344 794 
L 1344 0 
L 684 0 
L 684 794 
z
" transform="scale(0.015625)"/>
        <path id="DejaVuSans-32" d="M 1228 531 
L 3431 531 
L 3431 0 
L 469 0 
L 469 531 
Q 828 903 1448 1529 
Q 2069 2156 2228 2338 
Q 2531 2678 2651 2914 
Q 2772 3150 2772 3378 
Q 2772 3750 2511 3984 
Q 2250 4219 1831 4219 
Q 1534 4219 1204 4116 
Q 875 4013 500 3803 
L 500 4441 
Q 881 4594 1212 4672 
Q 1544 4750 1819 4750 
Q 2544 4750 2975 4387 
Q 3406 4025 3406 3419 
Q 3406 3131 3298 2873 
Q 3191 2616 2906 2266 
Q 2828 2175 2409 1742 
Q 1991 1309 1228 531 
z
" transform="scale(0.015625)"/>
       </defs>
       <use xlink:href="#DejaVuSans-30"/>
       <use xlink:href="#DejaVuSans-2e" transform="translate(63.623047 0)"/>
       <use xlink:href="#DejaVuSans-32" transform="translate(95.410156 0)"/>
      </g>
     </g>
    </g>
    <g id="xtick_2">
     <g id="line2d_3">
      <path d="M 283.489205 354.958125 
L 283.489205 22.318125 
" clip-path="url(#p369be55c55)" style="fill: none; stroke: #b0b0b0; stroke-width: 0.8; stroke-linecap: square"/>
     </g>
     <g id="line2d_4">
      <g>
       <use xlink:href="#mb701e23e02" x="283.489205" y="354.958125" style="stroke: #000000; stroke-width: 0.8"/>
      </g>
     </g>
     <g id="text_2">
      <!-- 0.4 -->
      <g transform="translate(275.537642 369.556562) scale(0.1 -0.1)">
       <defs>
        <path id="DejaVuSans-34" d="M 2419 4116 
L 825 1625 
L 2419 1625 
L 2419 4116 
z
M 2253 4666 
L 3047 4666 
L 3047 1625 
L 3713 1625 
L 3713 1100 
L 3047 1100 
L 3047 0 
L 2419 0 
L 2419 1100 
L 313 1100 
L 313 1709 
L 2253 4666 
z
" transform="scale(0.015625)"/>
       </defs>
       <use xlink:href="#DejaVuSans-30"/>
       <use xlink:href="#DejaVuSans-2e" transform="translate(63.623047 0)"/>
       <use xlink:href="#DejaVuSans-34" transform="translate(95.410156 0)"/>
      </g>
     </g>
    </g>
    <g id="xtick_3">
     <g id="line2d_5">
      <path d="M 418.761932 354.958125 
L 418.761932 22.318125 
" clip-path="url(#p369be55c55)" style="fill: none; stroke: #b0b0b0; stroke-width: 0.8; stroke-linecap: square"/>
     </g>
     <g id="line2d_6">
      <g>
       <use xlink:href="#mb701e23e02" x="418.761932" y="354.958125" style="stroke: #000000; stroke-width: 0.8"/>
      </g>
     </g>
     <g id="text_3">
      <!-- 0.6 -->
      <g transform="translate(410.810369 369.556562) scale(0.1 -0.1)">
       <defs>
        <path id="DejaVuSans-36" d="M 2113 2584 
Q 1688 2584 1439 2293 
Q 1191 2003 1191 1497 
Q 1191 994 1439 701 
Q 1688 409 2113 409 
Q 2538 409 2786 701 
Q 3034 994 3034 1497 
Q 3034 2003 2786 2293 
Q 2538 2584 2113 2584 
z
M 3366 4563 
L 3366 3988 
Q 3128 4100 2886 4159 
Q 2644 4219 2406 4219 
Q 1781 4219 1451 3797 
Q 1122 3375 1075 2522 
Q 1259 2794 1537 2939 
Q 1816 3084 2150 3084 
Q 2853 3084 3261 2657 
Q 3669 2231 3669 1497 
Q 3669 778 3244 343 
Q 2819 -91 2113 -91 
Q 1303 -91 875 529 
Q 447 1150 447 2328 
Q 447 3434 972 4092 
Q 1497 4750 2381 4750 
Q 2619 4750 2861 4703 
Q 3103 4656 3366 4563 
z
" transform="scale(0.015625)"/>
       </defs>
       <use xlink:href="#DejaVuSans-30"/>
       <use xlink:href="#DejaVuSans-2e" transform="translate(63.623047 0)"/>
       <use xlink:href="#DejaVuSans-36" transform="translate(95.410156 0)"/>
      </g>
     </g>
    </g>
    <g id="xtick_4">
     <g id="line2d_7">
      <path d="M 554.034659 354.958125 
L 554.034659 22.318125 
" clip-path="url(#p369be55c55)" style="fill: none; stroke: #b0b0b0; stroke-width: 0.8; stroke-linecap: square"/>
     </g>
     <g id="line2d_8">
      <g>
       <use xlink:href="#mb701e23e02" x="554.034659" y="354.958125" style="stroke: #000000; stroke-width: 0.8"/>
      </g>
     </g>
     <g id="text_4">
      <!-- 0.8 -->
      <g transform="translate(546.083097 369.556562) scale(0.1 -0.1)">
       <defs>
        <path id="DejaVuSans-38" d="M 2034 2216 
Q 1584 2216 1326 1975 
Q 1069 1734 1069 1313 
Q 1069 891 1326 650 
Q 1584 409 2034 409 
Q 2484 409 2743 651 
Q 3003 894 3003 1313 
Q 3003 1734 2745 1975 
Q 2488 2216 2034 2216 
z
M 1403 2484 
Q 997 2584 770 2862 
Q 544 3141 544 3541 
Q 544 4100 942 4425 
Q 1341 4750 2034 4750 
Q 2731 4750 3128 4425 
Q 3525 4100 3525 3541 
Q 3525 3141 3298 2862 
Q 3072 2584 2669 2484 
Q 3125 2378 3379 2068 
Q 3634 1759 3634 1313 
Q 3634 634 3220 271 
Q 2806 -91 2034 -91 
Q 1263 -91 848 271 
Q 434 634 434 1313 
Q 434 1759 690 2068 
Q 947 2378 1403 2484 
z
M 1172 3481 
Q 1172 3119 1398 2916 
Q 1625 2713 2034 2713 
Q 2441 2713 2670 2916 
Q 2900 3119 2900 3481 
Q 2900 3844 2670 4047 
Q 2441 4250 2034 4250 
Q 1625 4250 1398 4047 
Q 1172 3844 1172 3481 
z
" transform="scale(0.015625)"/>
       </defs>
       <use xlink:href="#DejaVuSans-30"/>
       <use xlink:href="#DejaVuSans-2e" transform="translate(63.623047 0)"/>
       <use xlink:href="#DejaVuSans-38" transform="translate(95.410156 0)"/>
      </g>
     </g>
    </g>
    <g id="xtick_5">
     <g id="line2d_9">
      <path d="M 689.307386 354.958125 
L 689.307386 22.318125 
" clip-path="url(#p369be55c55)" style="fill: none; stroke: #b0b0b0; stroke-width: 0.8; stroke-linecap: square"/>
     </g>
     <g id="line2d_10">
      <g>
       <use xlink:href="#mb701e23e02" x="689.307386" y="354.958125" style="stroke: #000000; stroke-width: 0.8"/>
      </g>
     </g>
     <g id="text_5">
      <!-- 1.0 -->
      <g transform="translate(681.355824 369.556562) scale(0.1 -0.1)">
       <defs>
        <path id="DejaVuSans-31" d="M 794 531 
L 1825 531 
L 1825 4091 
L 703 3866 
L 703 4441 
L 1819 4666 
L 2450 4666 
L 2450 531 
L 3481 531 
L 3481 0 
L 794 0 
L 794 531 
z
" transform="scale(0.015625)"/>
       </defs>
       <use xlink:href="#DejaVuSans-31"/>
       <use xlink:href="#DejaVuSans-2e" transform="translate(63.623047 0)"/>
       <use xlink:href="#DejaVuSans-30" transform="translate(95.410156 0)"/>
      </g>
     </g>
    </g>
    <g id="text_6">
     <!-- Values of Noise (Distortion / Disturbance) -->
     <g transform="translate(281.629688 383.234687) scale(0.1 -0.1)">
      <defs>
       <path id="DejaVuSans-56" d="M 1831 0 
L 50 4666 
L 709 4666 
L 2188 738 
L 3669 4666 
L 4325 4666 
L 2547 0 
L 1831 0 
z
" transform="scale(0.015625)"/>
       <path id="DejaVuSans-61" d="M 2194 1759 
Q 1497 1759 1228 1600 
Q 959 1441 959 1056 
Q 959 750 1161 570 
Q 1363 391 1709 391 
Q 2188 391 2477 730 
Q 2766 1069 2766 1631 
L 2766 1759 
L 2194 1759 
z
M 3341 1997 
L 3341 0 
L 2766 0 
L 2766 531 
Q 2569 213 2275 61 
Q 1981 -91 1556 -91 
Q 1019 -91 701 211 
Q 384 513 384 1019 
Q 384 1609 779 1909 
Q 1175 2209 1959 2209 
L 2766 2209 
L 2766 2266 
Q 2766 2663 2505 2880 
Q 2244 3097 1772 3097 
Q 1472 3097 1187 3025 
Q 903 2953 641 2809 
L 641 3341 
Q 956 3463 1253 3523 
Q 1550 3584 1831 3584 
Q 2591 3584 2966 3190 
Q 3341 2797 3341 1997 
z
" transform="scale(0.015625)"/>
       <path id="DejaVuSans-6c" d="M 603 4863 
L 1178 4863 
L 1178 0 
L 603 0 
L 603 4863 
z
" transform="scale(0.015625)"/>
       <path id="DejaVuSans-75" d="M 544 1381 
L 544 3500 
L 1119 3500 
L 1119 1403 
Q 1119 906 1312 657 
Q 1506 409 1894 409 
Q 2359 409 2629 706 
Q 2900 1003 2900 1516 
L 2900 3500 
L 3475 3500 
L 3475 0 
L 2900 0 
L 2900 538 
Q 2691 219 2414 64 
Q 2138 -91 1772 -91 
Q 1169 -91 856 284 
Q 544 659 544 1381 
z
M 1991 3584 
L 1991 3584 
z
" transform="scale(0.015625)"/>
       <path id="DejaVuSans-65" d="M 3597 1894 
L 3597 1613 
L 953 1613 
Q 991 1019 1311 708 
Q 1631 397 2203 397 
Q 2534 397 2845 478 
Q 3156 559 3463 722 
L 3463 178 
Q 3153 47 2828 -22 
Q 2503 -91 2169 -91 
Q 1331 -91 842 396 
Q 353 884 353 1716 
Q 353 2575 817 3079 
Q 1281 3584 2069 3584 
Q 2775 3584 3186 3129 
Q 3597 2675 3597 1894 
z
M 3022 2063 
Q 3016 2534 2758 2815 
Q 2500 3097 2075 3097 
Q 1594 3097 1305 2825 
Q 1016 2553 972 2059 
L 3022 2063 
z
" transform="scale(0.015625)"/>
       <path id="DejaVuSans-73" d="M 2834 3397 
L 2834 2853 
Q 2591 2978 2328 3040 
Q 2066 3103 1784 3103 
Q 1356 3103 1142 2972 
Q 928 2841 928 2578 
Q 928 2378 1081 2264 
Q 1234 2150 1697 2047 
L 1894 2003 
Q 2506 1872 2764 1633 
Q 3022 1394 3022 966 
Q 3022 478 2636 193 
Q 2250 -91 1575 -91 
Q 1294 -91 989 -36 
Q 684 19 347 128 
L 347 722 
Q 666 556 975 473 
Q 1284 391 1588 391 
Q 1994 391 2212 530 
Q 2431 669 2431 922 
Q 2431 1156 2273 1281 
Q 2116 1406 1581 1522 
L 1381 1569 
Q 847 1681 609 1914 
Q 372 2147 372 2553 
Q 372 3047 722 3315 
Q 1072 3584 1716 3584 
Q 2034 3584 2315 3537 
Q 2597 3491 2834 3397 
z
" transform="scale(0.015625)"/>
       <path id="DejaVuSans-20" transform="scale(0.015625)"/>
       <path id="DejaVuSans-6f" d="M 1959 3097 
Q 1497 3097 1228 2736 
Q 959 2375 959 1747 
Q 959 1119 1226 758 
Q 1494 397 1959 397 
Q 2419 397 2687 759 
Q 2956 1122 2956 1747 
Q 2956 2369 2687 2733 
Q 2419 3097 1959 3097 
z
M 1959 3584 
Q 2709 3584 3137 3096 
Q 3566 2609 3566 1747 
Q 3566 888 3137 398 
Q 2709 -91 1959 -91 
Q 1206 -91 779 398 
Q 353 888 353 1747 
Q 353 2609 779 3096 
Q 1206 3584 1959 3584 
z
" transform="scale(0.015625)"/>
       <path id="DejaVuSans-66" d="M 2375 4863 
L 2375 4384 
L 1825 4384 
Q 1516 4384 1395 4259 
Q 1275 4134 1275 3809 
L 1275 3500 
L 2222 3500 
L 2222 3053 
L 1275 3053 
L 1275 0 
L 697 0 
L 697 3053 
L 147 3053 
L 147 3500 
L 697 3500 
L 697 3744 
Q 697 4328 969 4595 
Q 1241 4863 1831 4863 
L 2375 4863 
z
" transform="scale(0.015625)"/>
       <path id="DejaVuSans-4e" d="M 628 4666 
L 1478 4666 
L 3547 763 
L 3547 4666 
L 4159 4666 
L 4159 0 
L 3309 0 
L 1241 3903 
L 1241 0 
L 628 0 
L 628 4666 
z
" transform="scale(0.015625)"/>
       <path id="DejaVuSans-69" d="M 603 3500 
L 1178 3500 
L 1178 0 
L 603 0 
L 603 3500 
z
M 603 4863 
L 1178 4863 
L 1178 4134 
L 603 4134 
L 603 4863 
z
" transform="scale(0.015625)"/>
       <path id="DejaVuSans-28" d="M 1984 4856 
Q 1566 4138 1362 3434 
Q 1159 2731 1159 2009 
Q 1159 1288 1364 580 
Q 1569 -128 1984 -844 
L 1484 -844 
Q 1016 -109 783 600 
Q 550 1309 550 2009 
Q 550 2706 781 3412 
Q 1013 4119 1484 4856 
L 1984 4856 
z
" transform="scale(0.015625)"/>
       <path id="DejaVuSans-44" d="M 1259 4147 
L 1259 519 
L 2022 519 
Q 2988 519 3436 956 
Q 3884 1394 3884 2338 
Q 3884 3275 3436 3711 
Q 2988 4147 2022 4147 
L 1259 4147 
z
M 628 4666 
L 1925 4666 
Q 3281 4666 3915 4102 
Q 4550 3538 4550 2338 
Q 4550 1131 3912 565 
Q 3275 0 1925 0 
L 628 0 
L 628 4666 
z
" transform="scale(0.015625)"/>
       <path id="DejaVuSans-74" d="M 1172 4494 
L 1172 3500 
L 2356 3500 
L 2356 3053 
L 1172 3053 
L 1172 1153 
Q 1172 725 1289 603 
Q 1406 481 1766 481 
L 2356 481 
L 2356 0 
L 1766 0 
Q 1100 0 847 248 
Q 594 497 594 1153 
L 594 3053 
L 172 3053 
L 172 3500 
L 594 3500 
L 594 4494 
L 1172 4494 
z
" transform="scale(0.015625)"/>
       <path id="DejaVuSans-72" d="M 2631 2963 
Q 2534 3019 2420 3045 
Q 2306 3072 2169 3072 
Q 1681 3072 1420 2755 
Q 1159 2438 1159 1844 
L 1159 0 
L 581 0 
L 581 3500 
L 1159 3500 
L 1159 2956 
Q 1341 3275 1631 3429 
Q 1922 3584 2338 3584 
Q 2397 3584 2469 3576 
Q 2541 3569 2628 3553 
L 2631 2963 
z
" transform="scale(0.015625)"/>
       <path id="DejaVuSans-6e" d="M 3513 2113 
L 3513 0 
L 2938 0 
L 2938 2094 
Q 2938 2591 2744 2837 
Q 2550 3084 2163 3084 
Q 1697 3084 1428 2787 
Q 1159 2491 1159 1978 
L 1159 0 
L 581 0 
L 581 3500 
L 1159 3500 
L 1159 2956 
Q 1366 3272 1645 3428 
Q 1925 3584 2291 3584 
Q 2894 3584 3203 3211 
Q 3513 2838 3513 2113 
z
" transform="scale(0.015625)"/>
       <path id="DejaVuSans-2f" d="M 1625 4666 
L 2156 4666 
L 531 -594 
L 0 -594 
L 1625 4666 
z
" transform="scale(0.015625)"/>
       <path id="DejaVuSans-62" d="M 3116 1747 
Q 3116 2381 2855 2742 
Q 2594 3103 2138 3103 
Q 1681 3103 1420 2742 
Q 1159 2381 1159 1747 
Q 1159 1113 1420 752 
Q 1681 391 2138 391 
Q 2594 391 2855 752 
Q 3116 1113 3116 1747 
z
M 1159 2969 
Q 1341 3281 1617 3432 
Q 1894 3584 2278 3584 
Q 2916 3584 3314 3078 
Q 3713 2572 3713 1747 
Q 3713 922 3314 415 
Q 2916 -91 2278 -91 
Q 1894 -91 1617 61 
Q 1341 213 1159 525 
L 1159 0 
L 581 0 
L 581 4863 
L 1159 4863 
L 1159 2969 
z
" transform="scale(0.015625)"/>
       <path id="DejaVuSans-63" d="M 3122 3366 
L 3122 2828 
Q 2878 2963 2633 3030 
Q 2388 3097 2138 3097 
Q 1578 3097 1268 2742 
Q 959 2388 959 1747 
Q 959 1106 1268 751 
Q 1578 397 2138 397 
Q 2388 397 2633 464 
Q 2878 531 3122 666 
L 3122 134 
Q 2881 22 2623 -34 
Q 2366 -91 2075 -91 
Q 1284 -91 818 406 
Q 353 903 353 1747 
Q 353 2603 823 3093 
Q 1294 3584 2113 3584 
Q 2378 3584 2631 3529 
Q 2884 3475 3122 3366 
z
" transform="scale(0.015625)"/>
       <path id="DejaVuSans-29" d="M 513 4856 
L 1013 4856 
Q 1481 4119 1714 3412 
Q 1947 2706 1947 2009 
Q 1947 1309 1714 600 
Q 1481 -109 1013 -844 
L 513 -844 
Q 928 -128 1133 580 
Q 1338 1288 1338 2009 
Q 1338 2731 1133 3434 
Q 928 4138 513 4856 
z
" transform="scale(0.015625)"/>
      </defs>
      <use xlink:href="#DejaVuSans-56"/>
      <use xlink:href="#DejaVuSans-61" transform="translate(60.658203 0)"/>
      <use xlink:href="#DejaVuSans-6c" transform="translate(121.9375 0)"/>
      <use xlink:href="#DejaVuSans-75" transform="translate(149.720703 0)"/>
      <use xlink:href="#DejaVuSans-65" transform="translate(213.099609 0)"/>
      <use xlink:href="#DejaVuSans-73" transform="translate(274.623047 0)"/>
      <use xlink:href="#DejaVuSans-20" transform="translate(326.722656 0)"/>
      <use xlink:href="#DejaVuSans-6f" transform="translate(358.509766 0)"/>
      <use xlink:href="#DejaVuSans-66" transform="translate(419.691406 0)"/>
      <use xlink:href="#DejaVuSans-20" transform="translate(454.896484 0)"/>
      <use xlink:href="#DejaVuSans-4e" transform="translate(486.683594 0)"/>
      <use xlink:href="#DejaVuSans-6f" transform="translate(561.488281 0)"/>
      <use xlink:href="#DejaVuSans-69" transform="translate(622.669922 0)"/>
      <use xlink:href="#DejaVuSans-73" transform="translate(650.453125 0)"/>
      <use xlink:href="#DejaVuSans-65" transform="translate(702.552734 0)"/>
      <use xlink:href="#DejaVuSans-20" transform="translate(764.076172 0)"/>
      <use xlink:href="#DejaVuSans-28" transform="translate(795.863281 0)"/>
      <use xlink:href="#DejaVuSans-44" transform="translate(834.876953 0)"/>
      <use xlink:href="#DejaVuSans-69" transform="translate(911.878906 0)"/>
      <use xlink:href="#DejaVuSans-73" transform="translate(939.662109 0)"/>
      <use xlink:href="#DejaVuSans-74" transform="translate(991.761719 0)"/>
      <use xlink:href="#DejaVuSans-6f" transform="translate(1030.970703 0)"/>
      <use xlink:href="#DejaVuSans-72" transform="translate(1092.152344 0)"/>
      <use xlink:href="#DejaVuSans-74" transform="translate(1133.265625 0)"/>
      <use xlink:href="#DejaVuSans-69" transform="translate(1172.474609 0)"/>
      <use xlink:href="#DejaVuSans-6f" transform="translate(1200.257812 0)"/>
      <use xlink:href="#DejaVuSans-6e" transform="translate(1261.439453 0)"/>
      <use xlink:href="#DejaVuSans-20" transform="translate(1324.818359 0)"/>
      <use xlink:href="#DejaVuSans-2f" transform="translate(1356.605469 0)"/>
      <use xlink:href="#DejaVuSans-20" transform="translate(1390.296875 0)"/>
      <use xlink:href="#DejaVuSans-44" transform="translate(1422.083984 0)"/>
      <use xlink:href="#DejaVuSans-69" transform="translate(1499.085938 0)"/>
      <use xlink:href="#DejaVuSans-73" transform="translate(1526.869141 0)"/>
      <use xlink:href="#DejaVuSans-74" transform="translate(1578.96875 0)"/>
      <use xlink:href="#DejaVuSans-75" transform="translate(1618.177734 0)"/>
      <use xlink:href="#DejaVuSans-72" transform="translate(1681.556641 0)"/>
      <use xlink:href="#DejaVuSans-62" transform="translate(1722.669922 0)"/>
      <use xlink:href="#DejaVuSans-61" transform="translate(1786.146484 0)"/>
      <use xlink:href="#DejaVuSans-6e" transform="translate(1847.425781 0)"/>
      <use xlink:href="#DejaVuSans-63" transform="translate(1910.804688 0)"/>
      <use xlink:href="#DejaVuSans-65" transform="translate(1965.785156 0)"/>
      <use xlink:href="#DejaVuSans-29" transform="translate(2027.308594 0)"/>
     </g>
    </g>
   </g>
   <g id="matplotlib.axis_2">
    <g id="ytick_1">
     <g id="line2d_11">
      <path d="M 50.14375 339.838125 
L 719.74375 339.838125 
" clip-path="url(#p369be55c55)" style="fill: none; stroke: #b0b0b0; stroke-width: 0.8; stroke-linecap: square"/>
     </g>
     <g id="line2d_12">
      <defs>
       <path id="md916f4c292" d="M 0 0 
L -3.5 0 
" style="stroke: #000000; stroke-width: 0.8"/>
      </defs>
      <g>
       <use xlink:href="#md916f4c292" x="50.14375" y="339.838125" style="stroke: #000000; stroke-width: 0.8"/>
      </g>
     </g>
     <g id="text_7">
      <!-- 0.0 -->
      <g transform="translate(27.240625 343.637344) scale(0.1 -0.1)">
       <use xlink:href="#DejaVuSans-30"/>
       <use xlink:href="#DejaVuSans-2e" transform="translate(63.623047 0)"/>
       <use xlink:href="#DejaVuSans-30" transform="translate(95.410156 0)"/>
      </g>
     </g>
    </g>
    <g id="ytick_2">
     <g id="line2d_13">
      <path d="M 50.14375 297.838125 
L 719.74375 297.838125 
" clip-path="url(#p369be55c55)" style="fill: none; stroke: #b0b0b0; stroke-width: 0.8; stroke-linecap: square"/>
     </g>
     <g id="line2d_14">
      <g>
       <use xlink:href="#md916f4c292" x="50.14375" y="297.838125" style="stroke: #000000; stroke-width: 0.8"/>
      </g>
     </g>
     <g id="text_8">
      <!-- 2.5 -->
      <g transform="translate(27.240625 301.637344) scale(0.1 -0.1)">
       <defs>
        <path id="DejaVuSans-35" d="M 691 4666 
L 3169 4666 
L 3169 4134 
L 1269 4134 
L 1269 2991 
Q 1406 3038 1543 3061 
Q 1681 3084 1819 3084 
Q 2600 3084 3056 2656 
Q 3513 2228 3513 1497 
Q 3513 744 3044 326 
Q 2575 -91 1722 -91 
Q 1428 -91 1123 -41 
Q 819 9 494 109 
L 494 744 
Q 775 591 1075 516 
Q 1375 441 1709 441 
Q 2250 441 2565 725 
Q 2881 1009 2881 1497 
Q 2881 1984 2565 2268 
Q 2250 2553 1709 2553 
Q 1456 2553 1204 2497 
Q 953 2441 691 2322 
L 691 4666 
z
" transform="scale(0.015625)"/>
       </defs>
       <use xlink:href="#DejaVuSans-32"/>
       <use xlink:href="#DejaVuSans-2e" transform="translate(63.623047 0)"/>
       <use xlink:href="#DejaVuSans-35" transform="translate(95.410156 0)"/>
      </g>
     </g>
    </g>
    <g id="ytick_3">
     <g id="line2d_15">
      <path d="M 50.14375 255.838125 
L 719.74375 255.838125 
" clip-path="url(#p369be55c55)" style="fill: none; stroke: #b0b0b0; stroke-width: 0.8; stroke-linecap: square"/>
     </g>
     <g id="line2d_16">
      <g>
       <use xlink:href="#md916f4c292" x="50.14375" y="255.838125" style="stroke: #000000; stroke-width: 0.8"/>
      </g>
     </g>
     <g id="text_9">
      <!-- 5.0 -->
      <g transform="translate(27.240625 259.637344) scale(0.1 -0.1)">
       <use xlink:href="#DejaVuSans-35"/>
       <use xlink:href="#DejaVuSans-2e" transform="translate(63.623047 0)"/>
       <use xlink:href="#DejaVuSans-30" transform="translate(95.410156 0)"/>
      </g>
     </g>
    </g>
    <g id="ytick_4">
     <g id="line2d_17">
      <path d="M 50.14375 213.838125 
L 719.74375 213.838125 
" clip-path="url(#p369be55c55)" style="fill: none; stroke: #b0b0b0; stroke-width: 0.8; stroke-linecap: square"/>
     </g>
     <g id="line2d_18">
      <g>
       <use xlink:href="#md916f4c292" x="50.14375" y="213.838125" style="stroke: #000000; stroke-width: 0.8"/>
      </g>
     </g>
     <g id="text_10">
      <!-- 7.5 -->
      <g transform="translate(27.240625 217.637344) scale(0.1 -0.1)">
       <defs>
        <path id="DejaVuSans-37" d="M 525 4666 
L 3525 4666 
L 3525 4397 
L 1831 0 
L 1172 0 
L 2766 4134 
L 525 4134 
L 525 4666 
z
" transform="scale(0.015625)"/>
       </defs>
       <use xlink:href="#DejaVuSans-37"/>
       <use xlink:href="#DejaVuSans-2e" transform="translate(63.623047 0)"/>
       <use xlink:href="#DejaVuSans-35" transform="translate(95.410156 0)"/>
      </g>
     </g>
    </g>
    <g id="ytick_5">
     <g id="line2d_19">
      <path d="M 50.14375 171.838125 
L 719.74375 171.838125 
" clip-path="url(#p369be55c55)" style="fill: none; stroke: #b0b0b0; stroke-width: 0.8; stroke-linecap: square"/>
     </g>
     <g id="line2d_20">
      <g>
       <use xlink:href="#md916f4c292" x="50.14375" y="171.838125" style="stroke: #000000; stroke-width: 0.8"/>
      </g>
     </g>
     <g id="text_11">
      <!-- 10.0 -->
      <g transform="translate(20.878125 175.637344) scale(0.1 -0.1)">
       <use xlink:href="#DejaVuSans-31"/>
       <use xlink:href="#DejaVuSans-30" transform="translate(63.623047 0)"/>
       <use xlink:href="#DejaVuSans-2e" transform="translate(127.246094 0)"/>
       <use xlink:href="#DejaVuSans-30" transform="translate(159.033203 0)"/>
      </g>
     </g>
    </g>
    <g id="ytick_6">
     <g id="line2d_21">
      <path d="M 50.14375 129.838125 
L 719.74375 129.838125 
" clip-path="url(#p369be55c55)" style="fill: none; stroke: #b0b0b0; stroke-width: 0.8; stroke-linecap: square"/>
     </g>
     <g id="line2d_22">
      <g>
       <use xlink:href="#md916f4c292" x="50.14375" y="129.838125" style="stroke: #000000; stroke-width: 0.8"/>
      </g>
     </g>
     <g id="text_12">
      <!-- 12.5 -->
      <g transform="translate(20.878125 133.637344) scale(0.1 -0.1)">
       <use xlink:href="#DejaVuSans-31"/>
       <use xlink:href="#DejaVuSans-32" transform="translate(63.623047 0)"/>
       <use xlink:href="#DejaVuSans-2e" transform="translate(127.246094 0)"/>
       <use xlink:href="#DejaVuSans-35" transform="translate(159.033203 0)"/>
      </g>
     </g>
    </g>
    <g id="ytick_7">
     <g id="line2d_23">
      <path d="M 50.14375 87.838125 
L 719.74375 87.838125 
" clip-path="url(#p369be55c55)" style="fill: none; stroke: #b0b0b0; stroke-width: 0.8; stroke-linecap: square"/>
     </g>
     <g id="line2d_24">
      <g>
       <use xlink:href="#md916f4c292" x="50.14375" y="87.838125" style="stroke: #000000; stroke-width: 0.8"/>
      </g>
     </g>
     <g id="text_13">
      <!-- 15.0 -->
      <g transform="translate(20.878125 91.637344) scale(0.1 -0.1)">
       <use xlink:href="#DejaVuSans-31"/>
       <use xlink:href="#DejaVuSans-35" transform="translate(63.623047 0)"/>
       <use xlink:href="#DejaVuSans-2e" transform="translate(127.246094 0)"/>
       <use xlink:href="#DejaVuSans-30" transform="translate(159.033203 0)"/>
      </g>
     </g>
    </g>
    <g id="ytick_8">
     <g id="line2d_25">
      <path d="M 50.14375 45.838125 
L 719.74375 45.838125 
" clip-path="url(#p369be55c55)" style="fill: none; stroke: #b0b0b0; stroke-width: 0.8; stroke-linecap: square"/>
     </g>
     <g id="line2d_26">
      <g>
       <use xlink:href="#md916f4c292" x="50.14375" y="45.838125" style="stroke: #000000; stroke-width: 0.8"/>
      </g>
     </g>
     <g id="text_14">
      <!-- 17.5 -->
      <g transform="translate(20.878125 49.637344) scale(0.1 -0.1)">
       <use xlink:href="#DejaVuSans-31"/>
       <use xlink:href="#DejaVuSans-37" transform="translate(63.623047 0)"/>
       <use xlink:href="#DejaVuSans-2e" transform="translate(127.246094 0)"/>
       <use xlink:href="#DejaVuSans-35" transform="translate(159.033203 0)"/>
      </g>
     </g>
    </g>
    <g id="text_15">
     <!-- Frequency -->
     <g transform="translate(14.798438 214.467812) rotate(-90) scale(0.1 -0.1)">
      <defs>
       <path id="DejaVuSans-46" d="M 628 4666 
L 3309 4666 
L 3309 4134 
L 1259 4134 
L 1259 2759 
L 3109 2759 
L 3109 2228 
L 1259 2228 
L 1259 0 
L 628 0 
L 628 4666 
z
" transform="scale(0.015625)"/>
       <path id="DejaVuSans-71" d="M 947 1747 
Q 947 1113 1208 752 
Q 1469 391 1925 391 
Q 2381 391 2643 752 
Q 2906 1113 2906 1747 
Q 2906 2381 2643 2742 
Q 2381 3103 1925 3103 
Q 1469 3103 1208 2742 
Q 947 2381 947 1747 
z
M 2906 525 
Q 2725 213 2448 61 
Q 2172 -91 1784 -91 
Q 1150 -91 751 415 
Q 353 922 353 1747 
Q 353 2572 751 3078 
Q 1150 3584 1784 3584 
Q 2172 3584 2448 3432 
Q 2725 3281 2906 2969 
L 2906 3500 
L 3481 3500 
L 3481 -1331 
L 2906 -1331 
L 2906 525 
z
" transform="scale(0.015625)"/>
       <path id="DejaVuSans-79" d="M 2059 -325 
Q 1816 -950 1584 -1140 
Q 1353 -1331 966 -1331 
L 506 -1331 
L 506 -850 
L 844 -850 
Q 1081 -850 1212 -737 
Q 1344 -625 1503 -206 
L 1606 56 
L 191 3500 
L 800 3500 
L 1894 763 
L 2988 3500 
L 3597 3500 
L 2059 -325 
z
" transform="scale(0.015625)"/>
      </defs>
      <use xlink:href="#DejaVuSans-46"/>
      <use xlink:href="#DejaVuSans-72" transform="translate(50.269531 0)"/>
      <use xlink:href="#DejaVuSans-65" transform="translate(89.132812 0)"/>
      <use xlink:href="#DejaVuSans-71" transform="translate(150.65625 0)"/>
      <use xlink:href="#DejaVuSans-75" transform="translate(214.132812 0)"/>
      <use xlink:href="#DejaVuSans-65" transform="translate(277.511719 0)"/>
      <use xlink:href="#DejaVuSans-6e" transform="translate(339.035156 0)"/>
      <use xlink:href="#DejaVuSans-63" transform="translate(402.414062 0)"/>
      <use xlink:href="#DejaVuSans-79" transform="translate(457.394531 0)"/>
     </g>
    </g>
   </g>
   <g id="line2d_27">
    <path d="M 80.580114 205.438125 
L 87.34375 306.238125 
L 94.107386 323.038125 
L 100.871023 323.038125 
L 107.634659 323.038125 
L 114.398295 323.038125 
L 121.161932 323.038125 
L 127.925568 323.038125 
L 134.689205 323.038125 
L 141.452841 339.838125 
L 148.216477 339.838125 
L 154.980114 289.438125 
L 161.74375 339.838125 
L 168.507386 306.238125 
L 175.271023 323.038125 
L 182.034659 339.838125 
L 188.798295 306.238125 
L 195.561932 289.438125 
L 202.325568 306.238125 
L 209.089205 323.038125 
L 215.852841 306.238125 
L 222.616477 339.838125 
L 229.380114 339.838125 
L 236.14375 339.838125 
L 242.907386 339.838125 
L 249.671023 323.038125 
L 256.434659 306.238125 
L 263.198295 339.838125 
L 269.961932 323.038125 
L 276.725568 323.038125 
L 283.489205 306.238125 
L 303.780114 339.838125 
L 310.54375 323.038125 
L 317.307386 306.238125 
L 330.834659 339.838125 
L 337.598295 323.038125 
L 344.361932 339.838125 
L 351.125568 339.838125 
L 357.889205 339.838125 
L 364.652841 323.038125 
L 371.416477 306.238125 
L 378.180114 323.038125 
L 384.94375 339.838125 
L 391.707386 339.838125 
L 405.234659 339.838125 
L 411.998295 339.838125 
L 425.525568 339.838125 
L 432.289205 339.838125 
L 439.052841 339.838125 
L 452.580114 339.838125 
L 459.34375 339.838125 
L 479.634659 339.838125 
L 486.398295 339.838125 
L 499.925568 339.838125 
L 506.689205 339.838125 
L 513.452841 323.038125 
L 520.216477 323.038125 
L 526.980114 339.838125 
L 533.74375 339.838125 
L 540.507386 339.838125 
L 554.034659 339.838125 
L 560.798295 339.838125 
L 574.325568 323.038125 
L 581.089205 339.838125 
L 587.852841 339.838125 
L 594.616477 339.838125 
L 601.380114 339.838125 
L 608.14375 339.838125 
L 621.671023 339.838125 
L 628.434659 339.838125 
L 635.198295 339.838125 
L 641.961932 339.838125 
L 648.725568 339.838125 
L 662.252841 339.838125 
L 669.016477 339.838125 
L 675.780114 339.838125 
L 689.307386 306.238125 
" clip-path="url(#p369be55c55)" style="fill: none; stroke: #0000ff; stroke-width: 1.5; stroke-linecap: square"/>
    <defs>
     <path id="m5eadc4d79a" d="M 0 3 
C 0.795609 3 1.55874 2.683901 2.12132 2.12132 
C 2.683901 1.55874 3 0.795609 3 0 
C 3 -0.795609 2.683901 -1.55874 2.12132 -2.12132 
C 1.55874 -2.683901 0.795609 -3 0 -3 
C -0.795609 -3 -1.55874 -2.683901 -2.12132 -2.12132 
C -2.683901 -1.55874 -3 -0.795609 -3 0 
C -3 0.795609 -2.683901 1.55874 -2.12132 2.12132 
C -1.55874 2.683901 -0.795609 3 0 3 
z
" style="stroke: #0000ff"/>
    </defs>
    <g clip-path="url(#p369be55c55)">
     <use xlink:href="#m5eadc4d79a" x="80.580114" y="205.438125" style="fill: #0000ff; stroke: #0000ff"/>
     <use xlink:href="#m5eadc4d79a" x="87.34375" y="306.238125" style="fill: #0000ff; stroke: #0000ff"/>
     <use xlink:href="#m5eadc4d79a" x="94.107386" y="323.038125" style="fill: #0000ff; stroke: #0000ff"/>
     <use xlink:href="#m5eadc4d79a" x="100.871023" y="323.038125" style="fill: #0000ff; stroke: #0000ff"/>
     <use xlink:href="#m5eadc4d79a" x="107.634659" y="323.038125" style="fill: #0000ff; stroke: #0000ff"/>
     <use xlink:href="#m5eadc4d79a" x="114.398295" y="323.038125" style="fill: #0000ff; stroke: #0000ff"/>
     <use xlink:href="#m5eadc4d79a" x="121.161932" y="323.038125" style="fill: #0000ff; stroke: #0000ff"/>
     <use xlink:href="#m5eadc4d79a" x="127.925568" y="323.038125" style="fill: #0000ff; stroke: #0000ff"/>
     <use xlink:href="#m5eadc4d79a" x="134.689205" y="323.038125" style="fill: #0000ff; stroke: #0000ff"/>
     <use xlink:href="#m5eadc4d79a" x="141.452841" y="339.838125" style="fill: #0000ff; stroke: #0000ff"/>
     <use xlink:href="#m5eadc4d79a" x="148.216477" y="339.838125" style="fill: #0000ff; stroke: #0000ff"/>
     <use xlink:href="#m5eadc4d79a" x="154.980114" y="289.438125" style="fill: #0000ff; stroke: #0000ff"/>
     <use xlink:href="#m5eadc4d79a" x="161.74375" y="339.838125" style="fill: #0000ff; stroke: #0000ff"/>
     <use xlink:href="#m5eadc4d79a" x="168.507386" y="306.238125" style="fill: #0000ff; stroke: #0000ff"/>
     <use xlink:href="#m5eadc4d79a" x="175.271023" y="323.038125" style="fill: #0000ff; stroke: #0000ff"/>
     <use xlink:href="#m5eadc4d79a" x="182.034659" y="339.838125" style="fill: #0000ff; stroke: #0000ff"/>
     <use xlink:href="#m5eadc4d79a" x="188.798295" y="306.238125" style="fill: #0000ff; stroke: #0000ff"/>
     <use xlink:href="#m5eadc4d79a" x="195.561932" y="289.438125" style="fill: #0000ff; stroke: #0000ff"/>
     <use xlink:href="#m5eadc4d79a" x="202.325568" y="306.238125" style="fill: #0000ff; stroke: #0000ff"/>
     <use xlink:href="#m5eadc4d79a" x="209.089205" y="323.038125" style="fill: #0000ff; stroke: #0000ff"/>
     <use xlink:href="#m5eadc4d79a" x="215.852841" y="306.238125" style="fill: #0000ff; stroke: #0000ff"/>
     <use xlink:href="#m5eadc4d79a" x="222.616477" y="339.838125" style="fill: #0000ff; stroke: #0000ff"/>
     <use xlink:href="#m5eadc4d79a" x="229.380114" y="339.838125" style="fill: #0000ff; stroke: #0000ff"/>
     <use xlink:href="#m5eadc4d79a" x="236.14375" y="339.838125" style="fill: #0000ff; stroke: #0000ff"/>
     <use xlink:href="#m5eadc4d79a" x="242.907386" y="339.838125" style="fill: #0000ff; stroke: #0000ff"/>
     <use xlink:href="#m5eadc4d79a" x="249.671023" y="323.038125" style="fill: #0000ff; stroke: #0000ff"/>
     <use xlink:href="#m5eadc4d79a" x="256.434659" y="306.238125" style="fill: #0000ff; stroke: #0000ff"/>
     <use xlink:href="#m5eadc4d79a" x="263.198295" y="339.838125" style="fill: #0000ff; stroke: #0000ff"/>
     <use xlink:href="#m5eadc4d79a" x="269.961932" y="323.038125" style="fill: #0000ff; stroke: #0000ff"/>
     <use xlink:href="#m5eadc4d79a" x="276.725568" y="323.038125" style="fill: #0000ff; stroke: #0000ff"/>
     <use xlink:href="#m5eadc4d79a" x="283.489205" y="306.238125" style="fill: #0000ff; stroke: #0000ff"/>
     <use xlink:href="#m5eadc4d79a" x="303.780114" y="339.838125" style="fill: #0000ff; stroke: #0000ff"/>
     <use xlink:href="#m5eadc4d79a" x="310.54375" y="323.038125" style="fill: #0000ff; stroke: #0000ff"/>
     <use xlink:href="#m5eadc4d79a" x="317.307386" y="306.238125" style="fill: #0000ff; stroke: #0000ff"/>
     <use xlink:href="#m5eadc4d79a" x="330.834659" y="339.838125" style="fill: #0000ff; stroke: #0000ff"/>
     <use xlink:href="#m5eadc4d79a" x="337.598295" y="323.038125" style="fill: #0000ff; stroke: #0000ff"/>
     <use xlink:href="#m5eadc4d79a" x="344.361932" y="339.838125" style="fill: #0000ff; stroke: #0000ff"/>
     <use xlink:href="#m5eadc4d79a" x="351.125568" y="339.838125" style="fill: #0000ff; stroke: #0000ff"/>
     <use xlink:href="#m5eadc4d79a" x="357.889205" y="339.838125" style="fill: #0000ff; stroke: #0000ff"/>
     <use xlink:href="#m5eadc4d79a" x="364.652841" y="323.038125" style="fill: #0000ff; stroke: #0000ff"/>
     <use xlink:href="#m5eadc4d79a" x="371.416477" y="306.238125" style="fill: #0000ff; stroke: #0000ff"/>
     <use xlink:href="#m5eadc4d79a" x="378.180114" y="323.038125" style="fill: #0000ff; stroke: #0000ff"/>
     <use xlink:href="#m5eadc4d79a" x="384.94375" y="339.838125" style="fill: #0000ff; stroke: #0000ff"/>
     <use xlink:href="#m5eadc4d79a" x="391.707386" y="339.838125" style="fill: #0000ff; stroke: #0000ff"/>
     <use xlink:href="#m5eadc4d79a" x="405.234659" y="339.838125" style="fill: #0000ff; stroke: #0000ff"/>
     <use xlink:href="#m5eadc4d79a" x="411.998295" y="339.838125" style="fill: #0000ff; stroke: #0000ff"/>
     <use xlink:href="#m5eadc4d79a" x="425.525568" y="339.838125" style="fill: #0000ff; stroke: #0000ff"/>
     <use xlink:href="#m5eadc4d79a" x="432.289205" y="339.838125" style="fill: #0000ff; stroke: #0000ff"/>
     <use xlink:href="#m5eadc4d79a" x="439.052841" y="339.838125" style="fill: #0000ff; stroke: #0000ff"/>
     <use xlink:href="#m5eadc4d79a" x="452.580114" y="339.838125" style="fill: #0000ff; stroke: #0000ff"/>
     <use xlink:href="#m5eadc4d79a" x="459.34375" y="339.838125" style="fill: #0000ff; stroke: #0000ff"/>
     <use xlink:href="#m5eadc4d79a" x="479.634659" y="339.838125" style="fill: #0000ff; stroke: #0000ff"/>
     <use xlink:href="#m5eadc4d79a" x="486.398295" y="339.838125" style="fill: #0000ff; stroke: #0000ff"/>
     <use xlink:href="#m5eadc4d79a" x="499.925568" y="339.838125" style="fill: #0000ff; stroke: #0000ff"/>
     <use xlink:href="#m5eadc4d79a" x="506.689205" y="339.838125" style="fill: #0000ff; stroke: #0000ff"/>
     <use xlink:href="#m5eadc4d79a" x="513.452841" y="323.038125" style="fill: #0000ff; stroke: #0000ff"/>
     <use xlink:href="#m5eadc4d79a" x="520.216477" y="323.038125" style="fill: #0000ff; stroke: #0000ff"/>
     <use xlink:href="#m5eadc4d79a" x="526.980114" y="339.838125" style="fill: #0000ff; stroke: #0000ff"/>
     <use xlink:href="#m5eadc4d79a" x="533.74375" y="339.838125" style="fill: #0000ff; stroke: #0000ff"/>
     <use xlink:href="#m5eadc4d79a" x="540.507386" y="339.838125" style="fill: #0000ff; stroke: #0000ff"/>
     <use xlink:href="#m5eadc4d79a" x="554.034659" y="339.838125" style="fill: #0000ff; stroke: #0000ff"/>
     <use xlink:href="#m5eadc4d79a" x="560.798295" y="339.838125" style="fill: #0000ff; stroke: #0000ff"/>
     <use xlink:href="#m5eadc4d79a" x="574.325568" y="323.038125" style="fill: #0000ff; stroke: #0000ff"/>
     <use xlink:href="#m5eadc4d79a" x="581.089205" y="339.838125" style="fill: #0000ff; stroke: #0000ff"/>
     <use xlink:href="#m5eadc4d79a" x="587.852841" y="339.838125" style="fill: #0000ff; stroke: #0000ff"/>
     <use xlink:href="#m5eadc4d79a" x="594.616477" y="339.838125" style="fill: #0000ff; stroke: #0000ff"/>
     <use xlink:href="#m5eadc4d79a" x="601.380114" y="339.838125" style="fill: #0000ff; stroke: #0000ff"/>
     <use xlink:href="#m5eadc4d79a" x="608.14375" y="339.838125" style="fill: #0000ff; stroke: #0000ff"/>
     <use xlink:href="#m5eadc4d79a" x="621.671023" y="339.838125" style="fill: #0000ff; stroke: #0000ff"/>
     <use xlink:href="#m5eadc4d79a" x="628.434659" y="339.838125" style="fill: #0000ff; stroke: #0000ff"/>
     <use xlink:href="#m5eadc4d79a" x="635.198295" y="339.838125" style="fill: #0000ff; stroke: #0000ff"/>
     <use xlink:href="#m5eadc4d79a" x="641.961932" y="339.838125" style="fill: #0000ff; stroke: #0000ff"/>
     <use xlink:href="#m5eadc4d79a" x="648.725568" y="339.838125" style="fill: #0000ff; stroke: #0000ff"/>
     <use xlink:href="#m5eadc4d79a" x="662.252841" y="339.838125" style="fill: #0000ff; stroke: #0000ff"/>
     <use xlink:href="#m5eadc4d79a" x="669.016477" y="339.838125" style="fill: #0000ff; stroke: #0000ff"/>
     <use xlink:href="#m5eadc4d79a" x="675.780114" y="339.838125" style="fill: #0000ff; stroke: #0000ff"/>
     <use xlink:href="#m5eadc4d79a" x="689.307386" y="306.238125" style="fill: #0000ff; stroke: #0000ff"/>
    </g>
   </g>
   <g id="line2d_28">
    <path d="M 80.580114 239.038125 
L 87.34375 289.438125 
L 94.107386 339.838125 
L 100.871023 306.238125 
L 107.634659 306.238125 
L 114.398295 306.238125 
L 121.161932 306.238125 
L 127.925568 323.038125 
L 134.689205 323.038125 
L 141.452841 339.838125 
L 148.216477 339.838125 
L 154.980114 323.038125 
L 161.74375 323.038125 
L 168.507386 323.038125 
L 175.271023 306.238125 
L 182.034659 323.038125 
L 188.798295 339.838125 
L 195.561932 289.438125 
L 202.325568 323.038125 
L 209.089205 339.838125 
L 215.852841 323.038125 
L 222.616477 323.038125 
L 229.380114 339.838125 
L 236.14375 339.838125 
L 242.907386 323.038125 
L 249.671023 323.038125 
L 256.434659 339.838125 
L 263.198295 306.238125 
L 269.961932 306.238125 
L 276.725568 339.838125 
L 283.489205 339.838125 
L 303.780114 323.038125 
L 310.54375 339.838125 
L 317.307386 323.038125 
L 330.834659 339.838125 
L 337.598295 323.038125 
L 344.361932 339.838125 
L 351.125568 323.038125 
L 357.889205 339.838125 
L 364.652841 339.838125 
L 371.416477 339.838125 
L 378.180114 339.838125 
L 384.94375 339.838125 
L 391.707386 339.838125 
L 405.234659 339.838125 
L 411.998295 339.838125 
L 425.525568 323.038125 
L 432.289205 339.838125 
L 439.052841 339.838125 
L 452.580114 339.838125 
L 459.34375 339.838125 
L 479.634659 339.838125 
L 486.398295 339.838125 
L 499.925568 306.238125 
L 506.689205 306.238125 
L 513.452841 339.838125 
L 520.216477 339.838125 
L 526.980114 339.838125 
L 533.74375 339.838125 
L 540.507386 339.838125 
L 554.034659 323.038125 
L 560.798295 339.838125 
L 574.325568 339.838125 
L 581.089205 339.838125 
L 587.852841 339.838125 
L 594.616477 323.038125 
L 601.380114 339.838125 
L 608.14375 339.838125 
L 621.671023 339.838125 
L 628.434659 339.838125 
L 635.198295 339.838125 
L 641.961932 339.838125 
L 648.725568 339.838125 
L 662.252841 339.838125 
L 669.016477 339.838125 
L 675.780114 339.838125 
L 689.307386 255.838125 
" clip-path="url(#p369be55c55)" style="fill: none; stroke: #ffa500; stroke-width: 1.5; stroke-linecap: square"/>
    <defs>
     <path id="m6b8592841b" d="M 0 3 
C 0.795609 3 1.55874 2.683901 2.12132 2.12132 
C 2.683901 1.55874 3 0.795609 3 0 
C 3 -0.795609 2.683901 -1.55874 2.12132 -2.12132 
C 1.55874 -2.683901 0.795609 -3 0 -3 
C -0.795609 -3 -1.55874 -2.683901 -2.12132 -2.12132 
C -2.683901 -1.55874 -3 -0.795609 -3 0 
C -3 0.795609 -2.683901 1.55874 -2.12132 2.12132 
C -1.55874 2.683901 -0.795609 3 0 3 
z
" style="stroke: #ffa500"/>
    </defs>
    <g clip-path="url(#p369be55c55)">
     <use xlink:href="#m6b8592841b" x="80.580114" y="239.038125" style="fill: #ffa500; stroke: #ffa500"/>
     <use xlink:href="#m6b8592841b" x="87.34375" y="289.438125" style="fill: #ffa500; stroke: #ffa500"/>
     <use xlink:href="#m6b8592841b" x="94.107386" y="339.838125" style="fill: #ffa500; stroke: #ffa500"/>
     <use xlink:href="#m6b8592841b" x="100.871023" y="306.238125" style="fill: #ffa500; stroke: #ffa500"/>
     <use xlink:href="#m6b8592841b" x="107.634659" y="306.238125" style="fill: #ffa500; stroke: #ffa500"/>
     <use xlink:href="#m6b8592841b" x="114.398295" y="306.238125" style="fill: #ffa500; stroke: #ffa500"/>
     <use xlink:href="#m6b8592841b" x="121.161932" y="306.238125" style="fill: #ffa500; stroke: #ffa500"/>
     <use xlink:href="#m6b8592841b" x="127.925568" y="323.038125" style="fill: #ffa500; stroke: #ffa500"/>
     <use xlink:href="#m6b8592841b" x="134.689205" y="323.038125" style="fill: #ffa500; stroke: #ffa500"/>
     <use xlink:href="#m6b8592841b" x="141.452841" y="339.838125" style="fill: #ffa500; stroke: #ffa500"/>
     <use xlink:href="#m6b8592841b" x="148.216477" y="339.838125" style="fill: #ffa500; stroke: #ffa500"/>
     <use xlink:href="#m6b8592841b" x="154.980114" y="323.038125" style="fill: #ffa500; stroke: #ffa500"/>
     <use xlink:href="#m6b8592841b" x="161.74375" y="323.038125" style="fill: #ffa500; stroke: #ffa500"/>
     <use xlink:href="#m6b8592841b" x="168.507386" y="323.038125" style="fill: #ffa500; stroke: #ffa500"/>
     <use xlink:href="#m6b8592841b" x="175.271023" y="306.238125" style="fill: #ffa500; stroke: #ffa500"/>
     <use xlink:href="#m6b8592841b" x="182.034659" y="323.038125" style="fill: #ffa500; stroke: #ffa500"/>
     <use xlink:href="#m6b8592841b" x="188.798295" y="339.838125" style="fill: #ffa500; stroke: #ffa500"/>
     <use xlink:href="#m6b8592841b" x="195.561932" y="289.438125" style="fill: #ffa500; stroke: #ffa500"/>
     <use xlink:href="#m6b8592841b" x="202.325568" y="323.038125" style="fill: #ffa500; stroke: #ffa500"/>
     <use xlink:href="#m6b8592841b" x="209.089205" y="339.838125" style="fill: #ffa500; stroke: #ffa500"/>
     <use xlink:href="#m6b8592841b" x="215.852841" y="323.038125" style="fill: #ffa500; stroke: #ffa500"/>
     <use xlink:href="#m6b8592841b" x="222.616477" y="323.038125" style="fill: #ffa500; stroke: #ffa500"/>
     <use xlink:href="#m6b8592841b" x="229.380114" y="339.838125" style="fill: #ffa500; stroke: #ffa500"/>
     <use xlink:href="#m6b8592841b" x="236.14375" y="339.838125" style="fill: #ffa500; stroke: #ffa500"/>
     <use xlink:href="#m6b8592841b" x="242.907386" y="323.038125" style="fill: #ffa500; stroke: #ffa500"/>
     <use xlink:href="#m6b8592841b" x="249.671023" y="323.038125" style="fill: #ffa500; stroke: #ffa500"/>
     <use xlink:href="#m6b8592841b" x="256.434659" y="339.838125" style="fill: #ffa500; stroke: #ffa500"/>
     <use xlink:href="#m6b8592841b" x="263.198295" y="306.238125" style="fill: #ffa500; stroke: #ffa500"/>
     <use xlink:href="#m6b8592841b" x="269.961932" y="306.238125" style="fill: #ffa500; stroke: #ffa500"/>
     <use xlink:href="#m6b8592841b" x="276.725568" y="339.838125" style="fill: #ffa500; stroke: #ffa500"/>
     <use xlink:href="#m6b8592841b" x="283.489205" y="339.838125" style="fill: #ffa500; stroke: #ffa500"/>
     <use xlink:href="#m6b8592841b" x="303.780114" y="323.038125" style="fill: #ffa500; stroke: #ffa500"/>
     <use xlink:href="#m6b8592841b" x="310.54375" y="339.838125" style="fill: #ffa500; stroke: #ffa500"/>
     <use xlink:href="#m6b8592841b" x="317.307386" y="323.038125" style="fill: #ffa500; stroke: #ffa500"/>
     <use xlink:href="#m6b8592841b" x="330.834659" y="339.838125" style="fill: #ffa500; stroke: #ffa500"/>
     <use xlink:href="#m6b8592841b" x="337.598295" y="323.038125" style="fill: #ffa500; stroke: #ffa500"/>
     <use xlink:href="#m6b8592841b" x="344.361932" y="339.838125" style="fill: #ffa500; stroke: #ffa500"/>
     <use xlink:href="#m6b8592841b" x="351.125568" y="323.038125" style="fill: #ffa500; stroke: #ffa500"/>
     <use xlink:href="#m6b8592841b" x="357.889205" y="339.838125" style="fill: #ffa500; stroke: #ffa500"/>
     <use xlink:href="#m6b8592841b" x="364.652841" y="339.838125" style="fill: #ffa500; stroke: #ffa500"/>
     <use xlink:href="#m6b8592841b" x="371.416477" y="339.838125" style="fill: #ffa500; stroke: #ffa500"/>
     <use xlink:href="#m6b8592841b" x="378.180114" y="339.838125" style="fill: #ffa500; stroke: #ffa500"/>
     <use xlink:href="#m6b8592841b" x="384.94375" y="339.838125" style="fill: #ffa500; stroke: #ffa500"/>
     <use xlink:href="#m6b8592841b" x="391.707386" y="339.838125" style="fill: #ffa500; stroke: #ffa500"/>
     <use xlink:href="#m6b8592841b" x="405.234659" y="339.838125" style="fill: #ffa500; stroke: #ffa500"/>
     <use xlink:href="#m6b8592841b" x="411.998295" y="339.838125" style="fill: #ffa500; stroke: #ffa500"/>
     <use xlink:href="#m6b8592841b" x="425.525568" y="323.038125" style="fill: #ffa500; stroke: #ffa500"/>
     <use xlink:href="#m6b8592841b" x="432.289205" y="339.838125" style="fill: #ffa500; stroke: #ffa500"/>
     <use xlink:href="#m6b8592841b" x="439.052841" y="339.838125" style="fill: #ffa500; stroke: #ffa500"/>
     <use xlink:href="#m6b8592841b" x="452.580114" y="339.838125" style="fill: #ffa500; stroke: #ffa500"/>
     <use xlink:href="#m6b8592841b" x="459.34375" y="339.838125" style="fill: #ffa500; stroke: #ffa500"/>
     <use xlink:href="#m6b8592841b" x="479.634659" y="339.838125" style="fill: #ffa500; stroke: #ffa500"/>
     <use xlink:href="#m6b8592841b" x="486.398295" y="339.838125" style="fill: #ffa500; stroke: #ffa500"/>
     <use xlink:href="#m6b8592841b" x="499.925568" y="306.238125" style="fill: #ffa500; stroke: #ffa500"/>
     <use xlink:href="#m6b8592841b" x="506.689205" y="306.238125" style="fill: #ffa500; stroke: #ffa500"/>
     <use xlink:href="#m6b8592841b" x="513.452841" y="339.838125" style="fill: #ffa500; stroke: #ffa500"/>
     <use xlink:href="#m6b8592841b" x="520.216477" y="339.838125" style="fill: #ffa500; stroke: #ffa500"/>
     <use xlink:href="#m6b8592841b" x="526.980114" y="339.838125" style="fill: #ffa500; stroke: #ffa500"/>
     <use xlink:href="#m6b8592841b" x="533.74375" y="339.838125" style="fill: #ffa500; stroke: #ffa500"/>
     <use xlink:href="#m6b8592841b" x="540.507386" y="339.838125" style="fill: #ffa500; stroke: #ffa500"/>
     <use xlink:href="#m6b8592841b" x="554.034659" y="323.038125" style="fill: #ffa500; stroke: #ffa500"/>
     <use xlink:href="#m6b8592841b" x="560.798295" y="339.838125" style="fill: #ffa500; stroke: #ffa500"/>
     <use xlink:href="#m6b8592841b" x="574.325568" y="339.838125" style="fill: #ffa500; stroke: #ffa500"/>
     <use xlink:href="#m6b8592841b" x="581.089205" y="339.838125" style="fill: #ffa500; stroke: #ffa500"/>
     <use xlink:href="#m6b8592841b" x="587.852841" y="339.838125" style="fill: #ffa500; stroke: #ffa500"/>
     <use xlink:href="#m6b8592841b" x="594.616477" y="323.038125" style="fill: #ffa500; stroke: #ffa500"/>
     <use xlink:href="#m6b8592841b" x="601.380114" y="339.838125" style="fill: #ffa500; stroke: #ffa500"/>
     <use xlink:href="#m6b8592841b" x="608.14375" y="339.838125" style="fill: #ffa500; stroke: #ffa500"/>
     <use xlink:href="#m6b8592841b" x="621.671023" y="339.838125" style="fill: #ffa500; stroke: #ffa500"/>
     <use xlink:href="#m6b8592841b" x="628.434659" y="339.838125" style="fill: #ffa500; stroke: #ffa500"/>
     <use xlink:href="#m6b8592841b" x="635.198295" y="339.838125" style="fill: #ffa500; stroke: #ffa500"/>
     <use xlink:href="#m6b8592841b" x="641.961932" y="339.838125" style="fill: #ffa500; stroke: #ffa500"/>
     <use xlink:href="#m6b8592841b" x="648.725568" y="339.838125" style="fill: #ffa500; stroke: #ffa500"/>
     <use xlink:href="#m6b8592841b" x="662.252841" y="339.838125" style="fill: #ffa500; stroke: #ffa500"/>
     <use xlink:href="#m6b8592841b" x="669.016477" y="339.838125" style="fill: #ffa500; stroke: #ffa500"/>
     <use xlink:href="#m6b8592841b" x="675.780114" y="339.838125" style="fill: #ffa500; stroke: #ffa500"/>
     <use xlink:href="#m6b8592841b" x="689.307386" y="255.838125" style="fill: #ffa500; stroke: #ffa500"/>
    </g>
   </g>
   <g id="line2d_29">
    <path d="M 80.580114 339.838125 
L 87.34375 339.838125 
L 94.107386 323.038125 
L 100.871023 339.838125 
L 107.634659 339.838125 
L 114.398295 339.838125 
L 121.161932 339.838125 
L 127.925568 339.838125 
L 134.689205 323.038125 
L 141.452841 339.838125 
L 148.216477 339.838125 
L 154.980114 339.838125 
L 161.74375 339.838125 
L 168.507386 323.038125 
L 175.271023 339.838125 
L 182.034659 339.838125 
L 188.798295 339.838125 
L 195.561932 323.038125 
L 202.325568 339.838125 
L 209.089205 339.838125 
L 215.852841 323.038125 
L 222.616477 339.838125 
L 229.380114 339.838125 
L 236.14375 339.838125 
L 242.907386 339.838125 
L 249.671023 323.038125 
L 256.434659 339.838125 
L 263.198295 323.038125 
L 269.961932 339.838125 
L 276.725568 339.838125 
L 283.489205 323.038125 
L 303.780114 339.838125 
L 310.54375 339.838125 
L 317.307386 339.838125 
L 330.834659 339.838125 
L 337.598295 339.838125 
L 344.361932 339.838125 
L 351.125568 339.838125 
L 357.889205 339.838125 
L 364.652841 323.038125 
L 371.416477 339.838125 
L 378.180114 339.838125 
L 384.94375 323.038125 
L 391.707386 339.838125 
L 405.234659 323.038125 
L 411.998295 306.238125 
L 425.525568 323.038125 
L 432.289205 339.838125 
L 439.052841 339.838125 
L 452.580114 323.038125 
L 459.34375 323.038125 
L 479.634659 339.838125 
L 486.398295 339.838125 
L 499.925568 339.838125 
L 506.689205 323.038125 
L 513.452841 323.038125 
L 520.216477 339.838125 
L 526.980114 323.038125 
L 533.74375 339.838125 
L 540.507386 339.838125 
L 554.034659 339.838125 
L 560.798295 323.038125 
L 574.325568 306.238125 
L 581.089205 323.038125 
L 587.852841 323.038125 
L 594.616477 323.038125 
L 601.380114 323.038125 
L 608.14375 323.038125 
L 621.671023 323.038125 
L 628.434659 306.238125 
L 635.198295 306.238125 
L 641.961932 323.038125 
L 648.725568 339.838125 
L 662.252841 339.838125 
L 669.016477 339.838125 
L 675.780114 306.238125 
L 689.307386 37.438125 
" clip-path="url(#p369be55c55)" style="fill: none; stroke: #008000; stroke-width: 1.5; stroke-linecap: square"/>
    <defs>
     <path id="m805891bc45" d="M 0 3 
C 0.795609 3 1.55874 2.683901 2.12132 2.12132 
C 2.683901 1.55874 3 0.795609 3 0 
C 3 -0.795609 2.683901 -1.55874 2.12132 -2.12132 
C 1.55874 -2.683901 0.795609 -3 0 -3 
C -0.795609 -3 -1.55874 -2.683901 -2.12132 -2.12132 
C -2.683901 -1.55874 -3 -0.795609 -3 0 
C -3 0.795609 -2.683901 1.55874 -2.12132 2.12132 
C -1.55874 2.683901 -0.795609 3 0 3 
z
" style="stroke: #008000"/>
    </defs>
    <g clip-path="url(#p369be55c55)">
     <use xlink:href="#m805891bc45" x="80.580114" y="339.838125" style="fill: #008000; stroke: #008000"/>
     <use xlink:href="#m805891bc45" x="87.34375" y="339.838125" style="fill: #008000; stroke: #008000"/>
     <use xlink:href="#m805891bc45" x="94.107386" y="323.038125" style="fill: #008000; stroke: #008000"/>
     <use xlink:href="#m805891bc45" x="100.871023" y="339.838125" style="fill: #008000; stroke: #008000"/>
     <use xlink:href="#m805891bc45" x="107.634659" y="339.838125" style="fill: #008000; stroke: #008000"/>
     <use xlink:href="#m805891bc45" x="114.398295" y="339.838125" style="fill: #008000; stroke: #008000"/>
     <use xlink:href="#m805891bc45" x="121.161932" y="339.838125" style="fill: #008000; stroke: #008000"/>
     <use xlink:href="#m805891bc45" x="127.925568" y="339.838125" style="fill: #008000; stroke: #008000"/>
     <use xlink:href="#m805891bc45" x="134.689205" y="323.038125" style="fill: #008000; stroke: #008000"/>
     <use xlink:href="#m805891bc45" x="141.452841" y="339.838125" style="fill: #008000; stroke: #008000"/>
     <use xlink:href="#m805891bc45" x="148.216477" y="339.838125" style="fill: #008000; stroke: #008000"/>
     <use xlink:href="#m805891bc45" x="154.980114" y="339.838125" style="fill: #008000; stroke: #008000"/>
     <use xlink:href="#m805891bc45" x="161.74375" y="339.838125" style="fill: #008000; stroke: #008000"/>
     <use xlink:href="#m805891bc45" x="168.507386" y="323.038125" style="fill: #008000; stroke: #008000"/>
     <use xlink:href="#m805891bc45" x="175.271023" y="339.838125" style="fill: #008000; stroke: #008000"/>
     <use xlink:href="#m805891bc45" x="182.034659" y="339.838125" style="fill: #008000; stroke: #008000"/>
     <use xlink:href="#m805891bc45" x="188.798295" y="339.838125" style="fill: #008000; stroke: #008000"/>
     <use xlink:href="#m805891bc45" x="195.561932" y="323.038125" style="fill: #008000; stroke: #008000"/>
     <use xlink:href="#m805891bc45" x="202.325568" y="339.838125" style="fill: #008000; stroke: #008000"/>
     <use xlink:href="#m805891bc45" x="209.089205" y="339.838125" style="fill: #008000; stroke: #008000"/>
     <use xlink:href="#m805891bc45" x="215.852841" y="323.038125" style="fill: #008000; stroke: #008000"/>
     <use xlink:href="#m805891bc45" x="222.616477" y="339.838125" style="fill: #008000; stroke: #008000"/>
     <use xlink:href="#m805891bc45" x="229.380114" y="339.838125" style="fill: #008000; stroke: #008000"/>
     <use xlink:href="#m805891bc45" x="236.14375" y="339.838125" style="fill: #008000; stroke: #008000"/>
     <use xlink:href="#m805891bc45" x="242.907386" y="339.838125" style="fill: #008000; stroke: #008000"/>
     <use xlink:href="#m805891bc45" x="249.671023" y="323.038125" style="fill: #008000; stroke: #008000"/>
     <use xlink:href="#m805891bc45" x="256.434659" y="339.838125" style="fill: #008000; stroke: #008000"/>
     <use xlink:href="#m805891bc45" x="263.198295" y="323.038125" style="fill: #008000; stroke: #008000"/>
     <use xlink:href="#m805891bc45" x="269.961932" y="339.838125" style="fill: #008000; stroke: #008000"/>
     <use xlink:href="#m805891bc45" x="276.725568" y="339.838125" style="fill: #008000; stroke: #008000"/>
     <use xlink:href="#m805891bc45" x="283.489205" y="323.038125" style="fill: #008000; stroke: #008000"/>
     <use xlink:href="#m805891bc45" x="303.780114" y="339.838125" style="fill: #008000; stroke: #008000"/>
     <use xlink:href="#m805891bc45" x="310.54375" y="339.838125" style="fill: #008000; stroke: #008000"/>
     <use xlink:href="#m805891bc45" x="317.307386" y="339.838125" style="fill: #008000; stroke: #008000"/>
     <use xlink:href="#m805891bc45" x="330.834659" y="339.838125" style="fill: #008000; stroke: #008000"/>
     <use xlink:href="#m805891bc45" x="337.598295" y="339.838125" style="fill: #008000; stroke: #008000"/>
     <use xlink:href="#m805891bc45" x="344.361932" y="339.838125" style="fill: #008000; stroke: #008000"/>
     <use xlink:href="#m805891bc45" x="351.125568" y="339.838125" style="fill: #008000; stroke: #008000"/>
     <use xlink:href="#m805891bc45" x="357.889205" y="339.838125" style="fill: #008000; stroke: #008000"/>
     <use xlink:href="#m805891bc45" x="364.652841" y="323.038125" style="fill: #008000; stroke: #008000"/>
     <use xlink:href="#m805891bc45" x="371.416477" y="339.838125" style="fill: #008000; stroke: #008000"/>
     <use xlink:href="#m805891bc45" x="378.180114" y="339.838125" style="fill: #008000; stroke: #008000"/>
     <use xlink:href="#m805891bc45" x="384.94375" y="323.038125" style="fill: #008000; stroke: #008000"/>
     <use xlink:href="#m805891bc45" x="391.707386" y="339.838125" style="fill: #008000; stroke: #008000"/>
     <use xlink:href="#m805891bc45" x="405.234659" y="323.038125" style="fill: #008000; stroke: #008000"/>
     <use xlink:href="#m805891bc45" x="411.998295" y="306.238125" style="fill: #008000; stroke: #008000"/>
     <use xlink:href="#m805891bc45" x="425.525568" y="323.038125" style="fill: #008000; stroke: #008000"/>
     <use xlink:href="#m805891bc45" x="432.289205" y="339.838125" style="fill: #008000; stroke: #008000"/>
     <use xlink:href="#m805891bc45" x="439.052841" y="339.838125" style="fill: #008000; stroke: #008000"/>
     <use xlink:href="#m805891bc45" x="452.580114" y="323.038125" style="fill: #008000; stroke: #008000"/>
     <use xlink:href="#m805891bc45" x="459.34375" y="323.038125" style="fill: #008000; stroke: #008000"/>
     <use xlink:href="#m805891bc45" x="479.634659" y="339.838125" style="fill: #008000; stroke: #008000"/>
     <use xlink:href="#m805891bc45" x="486.398295" y="339.838125" style="fill: #008000; stroke: #008000"/>
     <use xlink:href="#m805891bc45" x="499.925568" y="339.838125" style="fill: #008000; stroke: #008000"/>
     <use xlink:href="#m805891bc45" x="506.689205" y="323.038125" style="fill: #008000; stroke: #008000"/>
     <use xlink:href="#m805891bc45" x="513.452841" y="323.038125" style="fill: #008000; stroke: #008000"/>
     <use xlink:href="#m805891bc45" x="520.216477" y="339.838125" style="fill: #008000; stroke: #008000"/>
     <use xlink:href="#m805891bc45" x="526.980114" y="323.038125" style="fill: #008000; stroke: #008000"/>
     <use xlink:href="#m805891bc45" x="533.74375" y="339.838125" style="fill: #008000; stroke: #008000"/>
     <use xlink:href="#m805891bc45" x="540.507386" y="339.838125" style="fill: #008000; stroke: #008000"/>
     <use xlink:href="#m805891bc45" x="554.034659" y="339.838125" style="fill: #008000; stroke: #008000"/>
     <use xlink:href="#m805891bc45" x="560.798295" y="323.038125" style="fill: #008000; stroke: #008000"/>
     <use xlink:href="#m805891bc45" x="574.325568" y="306.238125" style="fill: #008000; stroke: #008000"/>
     <use xlink:href="#m805891bc45" x="581.089205" y="323.038125" style="fill: #008000; stroke: #008000"/>
     <use xlink:href="#m805891bc45" x="587.852841" y="323.038125" style="fill: #008000; stroke: #008000"/>
     <use xlink:href="#m805891bc45" x="594.616477" y="323.038125" style="fill: #008000; stroke: #008000"/>
     <use xlink:href="#m805891bc45" x="601.380114" y="323.038125" style="fill: #008000; stroke: #008000"/>
     <use xlink:href="#m805891bc45" x="608.14375" y="323.038125" style="fill: #008000; stroke: #008000"/>
     <use xlink:href="#m805891bc45" x="621.671023" y="323.038125" style="fill: #008000; stroke: #008000"/>
     <use xlink:href="#m805891bc45" x="628.434659" y="306.238125" style="fill: #008000; stroke: #008000"/>
     <use xlink:href="#m805891bc45" x="635.198295" y="306.238125" style="fill: #008000; stroke: #008000"/>
     <use xlink:href="#m805891bc45" x="641.961932" y="323.038125" style="fill: #008000; stroke: #008000"/>
     <use xlink:href="#m805891bc45" x="648.725568" y="339.838125" style="fill: #008000; stroke: #008000"/>
     <use xlink:href="#m805891bc45" x="662.252841" y="339.838125" style="fill: #008000; stroke: #008000"/>
     <use xlink:href="#m805891bc45" x="669.016477" y="339.838125" style="fill: #008000; stroke: #008000"/>
     <use xlink:href="#m805891bc45" x="675.780114" y="306.238125" style="fill: #008000; stroke: #008000"/>
     <use xlink:href="#m805891bc45" x="689.307386" y="37.438125" style="fill: #008000; stroke: #008000"/>
    </g>
   </g>
   <g id="line2d_30">
    <path d="M 80.580114 306.238125 
L 87.34375 339.838125 
L 94.107386 323.038125 
L 100.871023 339.838125 
L 107.634659 339.838125 
L 114.398295 339.838125 
L 121.161932 339.838125 
L 127.925568 339.838125 
L 134.689205 323.038125 
L 141.452841 339.838125 
L 148.216477 323.038125 
L 154.980114 339.838125 
L 161.74375 339.838125 
L 168.507386 339.838125 
L 175.271023 323.038125 
L 182.034659 339.838125 
L 188.798295 339.838125 
L 195.561932 339.838125 
L 202.325568 306.238125 
L 209.089205 306.238125 
L 215.852841 323.038125 
L 222.616477 323.038125 
L 229.380114 339.838125 
L 236.14375 339.838125 
L 242.907386 339.838125 
L 249.671023 339.838125 
L 256.434659 339.838125 
L 263.198295 306.238125 
L 269.961932 323.038125 
L 276.725568 339.838125 
L 283.489205 339.838125 
L 303.780114 339.838125 
L 310.54375 339.838125 
L 317.307386 339.838125 
L 330.834659 339.838125 
L 337.598295 339.838125 
L 344.361932 323.038125 
L 351.125568 339.838125 
L 357.889205 323.038125 
L 364.652841 306.238125 
L 371.416477 323.038125 
L 378.180114 323.038125 
L 384.94375 272.638125 
L 391.707386 323.038125 
L 405.234659 339.838125 
L 411.998295 323.038125 
L 425.525568 339.838125 
L 432.289205 306.238125 
L 439.052841 323.038125 
L 452.580114 339.838125 
L 459.34375 323.038125 
L 479.634659 323.038125 
L 486.398295 323.038125 
L 499.925568 323.038125 
L 506.689205 339.838125 
L 513.452841 323.038125 
L 520.216477 323.038125 
L 526.980114 339.838125 
L 533.74375 339.838125 
L 540.507386 323.038125 
L 554.034659 339.838125 
L 560.798295 339.838125 
L 574.325568 339.838125 
L 581.089205 339.838125 
L 587.852841 339.838125 
L 594.616477 306.238125 
L 601.380114 339.838125 
L 608.14375 323.038125 
L 621.671023 323.038125 
L 628.434659 339.838125 
L 635.198295 339.838125 
L 641.961932 339.838125 
L 648.725568 339.838125 
L 662.252841 339.838125 
L 669.016477 339.838125 
L 675.780114 339.838125 
L 689.307386 138.238125 
" clip-path="url(#p369be55c55)" style="fill: none; stroke: #ff0000; stroke-width: 1.5; stroke-linecap: square"/>
    <defs>
     <path id="m407b6dd50b" d="M 0 3 
C 0.795609 3 1.55874 2.683901 2.12132 2.12132 
C 2.683901 1.55874 3 0.795609 3 0 
C 3 -0.795609 2.683901 -1.55874 2.12132 -2.12132 
C 1.55874 -2.683901 0.795609 -3 0 -3 
C -0.795609 -3 -1.55874 -2.683901 -2.12132 -2.12132 
C -2.683901 -1.55874 -3 -0.795609 -3 0 
C -3 0.795609 -2.683901 1.55874 -2.12132 2.12132 
C -1.55874 2.683901 -0.795609 3 0 3 
z
" style="stroke: #ff0000"/>
    </defs>
    <g clip-path="url(#p369be55c55)">
     <use xlink:href="#m407b6dd50b" x="80.580114" y="306.238125" style="fill: #ff0000; stroke: #ff0000"/>
     <use xlink:href="#m407b6dd50b" x="87.34375" y="339.838125" style="fill: #ff0000; stroke: #ff0000"/>
     <use xlink:href="#m407b6dd50b" x="94.107386" y="323.038125" style="fill: #ff0000; stroke: #ff0000"/>
     <use xlink:href="#m407b6dd50b" x="100.871023" y="339.838125" style="fill: #ff0000; stroke: #ff0000"/>
     <use xlink:href="#m407b6dd50b" x="107.634659" y="339.838125" style="fill: #ff0000; stroke: #ff0000"/>
     <use xlink:href="#m407b6dd50b" x="114.398295" y="339.838125" style="fill: #ff0000; stroke: #ff0000"/>
     <use xlink:href="#m407b6dd50b" x="121.161932" y="339.838125" style="fill: #ff0000; stroke: #ff0000"/>
     <use xlink:href="#m407b6dd50b" x="127.925568" y="339.838125" style="fill: #ff0000; stroke: #ff0000"/>
     <use xlink:href="#m407b6dd50b" x="134.689205" y="323.038125" style="fill: #ff0000; stroke: #ff0000"/>
     <use xlink:href="#m407b6dd50b" x="141.452841" y="339.838125" style="fill: #ff0000; stroke: #ff0000"/>
     <use xlink:href="#m407b6dd50b" x="148.216477" y="323.038125" style="fill: #ff0000; stroke: #ff0000"/>
     <use xlink:href="#m407b6dd50b" x="154.980114" y="339.838125" style="fill: #ff0000; stroke: #ff0000"/>
     <use xlink:href="#m407b6dd50b" x="161.74375" y="339.838125" style="fill: #ff0000; stroke: #ff0000"/>
     <use xlink:href="#m407b6dd50b" x="168.507386" y="339.838125" style="fill: #ff0000; stroke: #ff0000"/>
     <use xlink:href="#m407b6dd50b" x="175.271023" y="323.038125" style="fill: #ff0000; stroke: #ff0000"/>
     <use xlink:href="#m407b6dd50b" x="182.034659" y="339.838125" style="fill: #ff0000; stroke: #ff0000"/>
     <use xlink:href="#m407b6dd50b" x="188.798295" y="339.838125" style="fill: #ff0000; stroke: #ff0000"/>
     <use xlink:href="#m407b6dd50b" x="195.561932" y="339.838125" style="fill: #ff0000; stroke: #ff0000"/>
     <use xlink:href="#m407b6dd50b" x="202.325568" y="306.238125" style="fill: #ff0000; stroke: #ff0000"/>
     <use xlink:href="#m407b6dd50b" x="209.089205" y="306.238125" style="fill: #ff0000; stroke: #ff0000"/>
     <use xlink:href="#m407b6dd50b" x="215.852841" y="323.038125" style="fill: #ff0000; stroke: #ff0000"/>
     <use xlink:href="#m407b6dd50b" x="222.616477" y="323.038125" style="fill: #ff0000; stroke: #ff0000"/>
     <use xlink:href="#m407b6dd50b" x="229.380114" y="339.838125" style="fill: #ff0000; stroke: #ff0000"/>
     <use xlink:href="#m407b6dd50b" x="236.14375" y="339.838125" style="fill: #ff0000; stroke: #ff0000"/>
     <use xlink:href="#m407b6dd50b" x="242.907386" y="339.838125" style="fill: #ff0000; stroke: #ff0000"/>
     <use xlink:href="#m407b6dd50b" x="249.671023" y="339.838125" style="fill: #ff0000; stroke: #ff0000"/>
     <use xlink:href="#m407b6dd50b" x="256.434659" y="339.838125" style="fill: #ff0000; stroke: #ff0000"/>
     <use xlink:href="#m407b6dd50b" x="263.198295" y="306.238125" style="fill: #ff0000; stroke: #ff0000"/>
     <use xlink:href="#m407b6dd50b" x="269.961932" y="323.038125" style="fill: #ff0000; stroke: #ff0000"/>
     <use xlink:href="#m407b6dd50b" x="276.725568" y="339.838125" style="fill: #ff0000; stroke: #ff0000"/>
     <use xlink:href="#m407b6dd50b" x="283.489205" y="339.838125" style="fill: #ff0000; stroke: #ff0000"/>
     <use xlink:href="#m407b6dd50b" x="303.780114" y="339.838125" style="fill: #ff0000; stroke: #ff0000"/>
     <use xlink:href="#m407b6dd50b" x="310.54375" y="339.838125" style="fill: #ff0000; stroke: #ff0000"/>
     <use xlink:href="#m407b6dd50b" x="317.307386" y="339.838125" style="fill: #ff0000; stroke: #ff0000"/>
     <use xlink:href="#m407b6dd50b" x="330.834659" y="339.838125" style="fill: #ff0000; stroke: #ff0000"/>
     <use xlink:href="#m407b6dd50b" x="337.598295" y="339.838125" style="fill: #ff0000; stroke: #ff0000"/>
     <use xlink:href="#m407b6dd50b" x="344.361932" y="323.038125" style="fill: #ff0000; stroke: #ff0000"/>
     <use xlink:href="#m407b6dd50b" x="351.125568" y="339.838125" style="fill: #ff0000; stroke: #ff0000"/>
     <use xlink:href="#m407b6dd50b" x="357.889205" y="323.038125" style="fill: #ff0000; stroke: #ff0000"/>
     <use xlink:href="#m407b6dd50b" x="364.652841" y="306.238125" style="fill: #ff0000; stroke: #ff0000"/>
     <use xlink:href="#m407b6dd50b" x="371.416477" y="323.038125" style="fill: #ff0000; stroke: #ff0000"/>
     <use xlink:href="#m407b6dd50b" x="378.180114" y="323.038125" style="fill: #ff0000; stroke: #ff0000"/>
     <use xlink:href="#m407b6dd50b" x="384.94375" y="272.638125" style="fill: #ff0000; stroke: #ff0000"/>
     <use xlink:href="#m407b6dd50b" x="391.707386" y="323.038125" style="fill: #ff0000; stroke: #ff0000"/>
     <use xlink:href="#m407b6dd50b" x="405.234659" y="339.838125" style="fill: #ff0000; stroke: #ff0000"/>
     <use xlink:href="#m407b6dd50b" x="411.998295" y="323.038125" style="fill: #ff0000; stroke: #ff0000"/>
     <use xlink:href="#m407b6dd50b" x="425.525568" y="339.838125" style="fill: #ff0000; stroke: #ff0000"/>
     <use xlink:href="#m407b6dd50b" x="432.289205" y="306.238125" style="fill: #ff0000; stroke: #ff0000"/>
     <use xlink:href="#m407b6dd50b" x="439.052841" y="323.038125" style="fill: #ff0000; stroke: #ff0000"/>
     <use xlink:href="#m407b6dd50b" x="452.580114" y="339.838125" style="fill: #ff0000; stroke: #ff0000"/>
     <use xlink:href="#m407b6dd50b" x="459.34375" y="323.038125" style="fill: #ff0000; stroke: #ff0000"/>
     <use xlink:href="#m407b6dd50b" x="479.634659" y="323.038125" style="fill: #ff0000; stroke: #ff0000"/>
     <use xlink:href="#m407b6dd50b" x="486.398295" y="323.038125" style="fill: #ff0000; stroke: #ff0000"/>
     <use xlink:href="#m407b6dd50b" x="499.925568" y="323.038125" style="fill: #ff0000; stroke: #ff0000"/>
     <use xlink:href="#m407b6dd50b" x="506.689205" y="339.838125" style="fill: #ff0000; stroke: #ff0000"/>
     <use xlink:href="#m407b6dd50b" x="513.452841" y="323.038125" style="fill: #ff0000; stroke: #ff0000"/>
     <use xlink:href="#m407b6dd50b" x="520.216477" y="323.038125" style="fill: #ff0000; stroke: #ff0000"/>
     <use xlink:href="#m407b6dd50b" x="526.980114" y="339.838125" style="fill: #ff0000; stroke: #ff0000"/>
     <use xlink:href="#m407b6dd50b" x="533.74375" y="339.838125" style="fill: #ff0000; stroke: #ff0000"/>
     <use xlink:href="#m407b6dd50b" x="540.507386" y="323.038125" style="fill: #ff0000; stroke: #ff0000"/>
     <use xlink:href="#m407b6dd50b" x="554.034659" y="339.838125" style="fill: #ff0000; stroke: #ff0000"/>
     <use xlink:href="#m407b6dd50b" x="560.798295" y="339.838125" style="fill: #ff0000; stroke: #ff0000"/>
     <use xlink:href="#m407b6dd50b" x="574.325568" y="339.838125" style="fill: #ff0000; stroke: #ff0000"/>
     <use xlink:href="#m407b6dd50b" x="581.089205" y="339.838125" style="fill: #ff0000; stroke: #ff0000"/>
     <use xlink:href="#m407b6dd50b" x="587.852841" y="339.838125" style="fill: #ff0000; stroke: #ff0000"/>
     <use xlink:href="#m407b6dd50b" x="594.616477" y="306.238125" style="fill: #ff0000; stroke: #ff0000"/>
     <use xlink:href="#m407b6dd50b" x="601.380114" y="339.838125" style="fill: #ff0000; stroke: #ff0000"/>
     <use xlink:href="#m407b6dd50b" x="608.14375" y="323.038125" style="fill: #ff0000; stroke: #ff0000"/>
     <use xlink:href="#m407b6dd50b" x="621.671023" y="323.038125" style="fill: #ff0000; stroke: #ff0000"/>
     <use xlink:href="#m407b6dd50b" x="628.434659" y="339.838125" style="fill: #ff0000; stroke: #ff0000"/>
     <use xlink:href="#m407b6dd50b" x="635.198295" y="339.838125" style="fill: #ff0000; stroke: #ff0000"/>
     <use xlink:href="#m407b6dd50b" x="641.961932" y="339.838125" style="fill: #ff0000; stroke: #ff0000"/>
     <use xlink:href="#m407b6dd50b" x="648.725568" y="339.838125" style="fill: #ff0000; stroke: #ff0000"/>
     <use xlink:href="#m407b6dd50b" x="662.252841" y="339.838125" style="fill: #ff0000; stroke: #ff0000"/>
     <use xlink:href="#m407b6dd50b" x="669.016477" y="339.838125" style="fill: #ff0000; stroke: #ff0000"/>
     <use xlink:href="#m407b6dd50b" x="675.780114" y="339.838125" style="fill: #ff0000; stroke: #ff0000"/>
     <use xlink:href="#m407b6dd50b" x="689.307386" y="138.238125" style="fill: #ff0000; stroke: #ff0000"/>
    </g>
   </g>
   <g id="line2d_31">
    <path d="M 80.580114 339.838125 
L 87.34375 339.838125 
L 94.107386 339.838125 
L 100.871023 339.838125 
L 107.634659 339.838125 
L 114.398295 339.838125 
L 121.161932 339.838125 
L 127.925568 339.838125 
L 134.689205 323.038125 
L 141.452841 323.038125 
L 148.216477 323.038125 
L 154.980114 339.838125 
L 161.74375 339.838125 
L 168.507386 323.038125 
L 175.271023 339.838125 
L 182.034659 339.838125 
L 188.798295 323.038125 
L 195.561932 339.838125 
L 202.325568 323.038125 
L 209.089205 323.038125 
L 215.852841 339.838125 
L 222.616477 323.038125 
L 229.380114 323.038125 
L 236.14375 306.238125 
L 242.907386 339.838125 
L 249.671023 339.838125 
L 256.434659 323.038125 
L 263.198295 339.838125 
L 269.961932 339.838125 
L 276.725568 323.038125 
L 283.489205 339.838125 
L 303.780114 323.038125 
L 310.54375 339.838125 
L 317.307386 339.838125 
L 330.834659 306.238125 
L 337.598295 323.038125 
L 344.361932 339.838125 
L 351.125568 306.238125 
L 357.889205 306.238125 
L 364.652841 323.038125 
L 371.416477 323.038125 
L 378.180114 306.238125 
L 384.94375 323.038125 
L 391.707386 339.838125 
L 405.234659 339.838125 
L 411.998295 339.838125 
L 425.525568 323.038125 
L 432.289205 323.038125 
L 439.052841 339.838125 
L 452.580114 306.238125 
L 459.34375 339.838125 
L 479.634659 323.038125 
L 486.398295 323.038125 
L 499.925568 339.838125 
L 506.689205 339.838125 
L 513.452841 339.838125 
L 520.216477 323.038125 
L 526.980114 339.838125 
L 533.74375 323.038125 
L 540.507386 339.838125 
L 554.034659 323.038125 
L 560.798295 339.838125 
L 574.325568 339.838125 
L 581.089205 323.038125 
L 587.852841 323.038125 
L 594.616477 339.838125 
L 601.380114 339.838125 
L 608.14375 339.838125 
L 621.671023 339.838125 
L 628.434659 339.838125 
L 635.198295 339.838125 
L 641.961932 339.838125 
L 648.725568 323.038125 
L 662.252841 306.238125 
L 669.016477 323.038125 
L 675.780114 339.838125 
L 689.307386 138.238125 
" clip-path="url(#p369be55c55)" style="fill: none; stroke: #800080; stroke-width: 1.5; stroke-linecap: square"/>
    <defs>
     <path id="m338375c8ed" d="M 0 3 
C 0.795609 3 1.55874 2.683901 2.12132 2.12132 
C 2.683901 1.55874 3 0.795609 3 0 
C 3 -0.795609 2.683901 -1.55874 2.12132 -2.12132 
C 1.55874 -2.683901 0.795609 -3 0 -3 
C -0.795609 -3 -1.55874 -2.683901 -2.12132 -2.12132 
C -2.683901 -1.55874 -3 -0.795609 -3 0 
C -3 0.795609 -2.683901 1.55874 -2.12132 2.12132 
C -1.55874 2.683901 -0.795609 3 0 3 
z
" style="stroke: #800080"/>
    </defs>
    <g clip-path="url(#p369be55c55)">
     <use xlink:href="#m338375c8ed" x="80.580114" y="339.838125" style="fill: #800080; stroke: #800080"/>
     <use xlink:href="#m338375c8ed" x="87.34375" y="339.838125" style="fill: #800080; stroke: #800080"/>
     <use xlink:href="#m338375c8ed" x="94.107386" y="339.838125" style="fill: #800080; stroke: #800080"/>
     <use xlink:href="#m338375c8ed" x="100.871023" y="339.838125" style="fill: #800080; stroke: #800080"/>
     <use xlink:href="#m338375c8ed" x="107.634659" y="339.838125" style="fill: #800080; stroke: #800080"/>
     <use xlink:href="#m338375c8ed" x="114.398295" y="339.838125" style="fill: #800080; stroke: #800080"/>
     <use xlink:href="#m338375c8ed" x="121.161932" y="339.838125" style="fill: #800080; stroke: #800080"/>
     <use xlink:href="#m338375c8ed" x="127.925568" y="339.838125" style="fill: #800080; stroke: #800080"/>
     <use xlink:href="#m338375c8ed" x="134.689205" y="323.038125" style="fill: #800080; stroke: #800080"/>
     <use xlink:href="#m338375c8ed" x="141.452841" y="323.038125" style="fill: #800080; stroke: #800080"/>
     <use xlink:href="#m338375c8ed" x="148.216477" y="323.038125" style="fill: #800080; stroke: #800080"/>
     <use xlink:href="#m338375c8ed" x="154.980114" y="339.838125" style="fill: #800080; stroke: #800080"/>
     <use xlink:href="#m338375c8ed" x="161.74375" y="339.838125" style="fill: #800080; stroke: #800080"/>
     <use xlink:href="#m338375c8ed" x="168.507386" y="323.038125" style="fill: #800080; stroke: #800080"/>
     <use xlink:href="#m338375c8ed" x="175.271023" y="339.838125" style="fill: #800080; stroke: #800080"/>
     <use xlink:href="#m338375c8ed" x="182.034659" y="339.838125" style="fill: #800080; stroke: #800080"/>
     <use xlink:href="#m338375c8ed" x="188.798295" y="323.038125" style="fill: #800080; stroke: #800080"/>
     <use xlink:href="#m338375c8ed" x="195.561932" y="339.838125" style="fill: #800080; stroke: #800080"/>
     <use xlink:href="#m338375c8ed" x="202.325568" y="323.038125" style="fill: #800080; stroke: #800080"/>
     <use xlink:href="#m338375c8ed" x="209.089205" y="323.038125" style="fill: #800080; stroke: #800080"/>
     <use xlink:href="#m338375c8ed" x="215.852841" y="339.838125" style="fill: #800080; stroke: #800080"/>
     <use xlink:href="#m338375c8ed" x="222.616477" y="323.038125" style="fill: #800080; stroke: #800080"/>
     <use xlink:href="#m338375c8ed" x="229.380114" y="323.038125" style="fill: #800080; stroke: #800080"/>
     <use xlink:href="#m338375c8ed" x="236.14375" y="306.238125" style="fill: #800080; stroke: #800080"/>
     <use xlink:href="#m338375c8ed" x="242.907386" y="339.838125" style="fill: #800080; stroke: #800080"/>
     <use xlink:href="#m338375c8ed" x="249.671023" y="339.838125" style="fill: #800080; stroke: #800080"/>
     <use xlink:href="#m338375c8ed" x="256.434659" y="323.038125" style="fill: #800080; stroke: #800080"/>
     <use xlink:href="#m338375c8ed" x="263.198295" y="339.838125" style="fill: #800080; stroke: #800080"/>
     <use xlink:href="#m338375c8ed" x="269.961932" y="339.838125" style="fill: #800080; stroke: #800080"/>
     <use xlink:href="#m338375c8ed" x="276.725568" y="323.038125" style="fill: #800080; stroke: #800080"/>
     <use xlink:href="#m338375c8ed" x="283.489205" y="339.838125" style="fill: #800080; stroke: #800080"/>
     <use xlink:href="#m338375c8ed" x="303.780114" y="323.038125" style="fill: #800080; stroke: #800080"/>
     <use xlink:href="#m338375c8ed" x="310.54375" y="339.838125" style="fill: #800080; stroke: #800080"/>
     <use xlink:href="#m338375c8ed" x="317.307386" y="339.838125" style="fill: #800080; stroke: #800080"/>
     <use xlink:href="#m338375c8ed" x="330.834659" y="306.238125" style="fill: #800080; stroke: #800080"/>
     <use xlink:href="#m338375c8ed" x="337.598295" y="323.038125" style="fill: #800080; stroke: #800080"/>
     <use xlink:href="#m338375c8ed" x="344.361932" y="339.838125" style="fill: #800080; stroke: #800080"/>
     <use xlink:href="#m338375c8ed" x="351.125568" y="306.238125" style="fill: #800080; stroke: #800080"/>
     <use xlink:href="#m338375c8ed" x="357.889205" y="306.238125" style="fill: #800080; stroke: #800080"/>
     <use xlink:href="#m338375c8ed" x="364.652841" y="323.038125" style="fill: #800080; stroke: #800080"/>
     <use xlink:href="#m338375c8ed" x="371.416477" y="323.038125" style="fill: #800080; stroke: #800080"/>
     <use xlink:href="#m338375c8ed" x="378.180114" y="306.238125" style="fill: #800080; stroke: #800080"/>
     <use xlink:href="#m338375c8ed" x="384.94375" y="323.038125" style="fill: #800080; stroke: #800080"/>
     <use xlink:href="#m338375c8ed" x="391.707386" y="339.838125" style="fill: #800080; stroke: #800080"/>
     <use xlink:href="#m338375c8ed" x="405.234659" y="339.838125" style="fill: #800080; stroke: #800080"/>
     <use xlink:href="#m338375c8ed" x="411.998295" y="339.838125" style="fill: #800080; stroke: #800080"/>
     <use xlink:href="#m338375c8ed" x="425.525568" y="323.038125" style="fill: #800080; stroke: #800080"/>
     <use xlink:href="#m338375c8ed" x="432.289205" y="323.038125" style="fill: #800080; stroke: #800080"/>
     <use xlink:href="#m338375c8ed" x="439.052841" y="339.838125" style="fill: #800080; stroke: #800080"/>
     <use xlink:href="#m338375c8ed" x="452.580114" y="306.238125" style="fill: #800080; stroke: #800080"/>
     <use xlink:href="#m338375c8ed" x="459.34375" y="339.838125" style="fill: #800080; stroke: #800080"/>
     <use xlink:href="#m338375c8ed" x="479.634659" y="323.038125" style="fill: #800080; stroke: #800080"/>
     <use xlink:href="#m338375c8ed" x="486.398295" y="323.038125" style="fill: #800080; stroke: #800080"/>
     <use xlink:href="#m338375c8ed" x="499.925568" y="339.838125" style="fill: #800080; stroke: #800080"/>
     <use xlink:href="#m338375c8ed" x="506.689205" y="339.838125" style="fill: #800080; stroke: #800080"/>
     <use xlink:href="#m338375c8ed" x="513.452841" y="339.838125" style="fill: #800080; stroke: #800080"/>
     <use xlink:href="#m338375c8ed" x="520.216477" y="323.038125" style="fill: #800080; stroke: #800080"/>
     <use xlink:href="#m338375c8ed" x="526.980114" y="339.838125" style="fill: #800080; stroke: #800080"/>
     <use xlink:href="#m338375c8ed" x="533.74375" y="323.038125" style="fill: #800080; stroke: #800080"/>
     <use xlink:href="#m338375c8ed" x="540.507386" y="339.838125" style="fill: #800080; stroke: #800080"/>
     <use xlink:href="#m338375c8ed" x="554.034659" y="323.038125" style="fill: #800080; stroke: #800080"/>
     <use xlink:href="#m338375c8ed" x="560.798295" y="339.838125" style="fill: #800080; stroke: #800080"/>
     <use xlink:href="#m338375c8ed" x="574.325568" y="339.838125" style="fill: #800080; stroke: #800080"/>
     <use xlink:href="#m338375c8ed" x="581.089205" y="323.038125" style="fill: #800080; stroke: #800080"/>
     <use xlink:href="#m338375c8ed" x="587.852841" y="323.038125" style="fill: #800080; stroke: #800080"/>
     <use xlink:href="#m338375c8ed" x="594.616477" y="339.838125" style="fill: #800080; stroke: #800080"/>
     <use xlink:href="#m338375c8ed" x="601.380114" y="339.838125" style="fill: #800080; stroke: #800080"/>
     <use xlink:href="#m338375c8ed" x="608.14375" y="339.838125" style="fill: #800080; stroke: #800080"/>
     <use xlink:href="#m338375c8ed" x="621.671023" y="339.838125" style="fill: #800080; stroke: #800080"/>
     <use xlink:href="#m338375c8ed" x="628.434659" y="339.838125" style="fill: #800080; stroke: #800080"/>
     <use xlink:href="#m338375c8ed" x="635.198295" y="339.838125" style="fill: #800080; stroke: #800080"/>
     <use xlink:href="#m338375c8ed" x="641.961932" y="339.838125" style="fill: #800080; stroke: #800080"/>
     <use xlink:href="#m338375c8ed" x="648.725568" y="323.038125" style="fill: #800080; stroke: #800080"/>
     <use xlink:href="#m338375c8ed" x="662.252841" y="306.238125" style="fill: #800080; stroke: #800080"/>
     <use xlink:href="#m338375c8ed" x="669.016477" y="323.038125" style="fill: #800080; stroke: #800080"/>
     <use xlink:href="#m338375c8ed" x="675.780114" y="339.838125" style="fill: #800080; stroke: #800080"/>
     <use xlink:href="#m338375c8ed" x="689.307386" y="138.238125" style="fill: #800080; stroke: #800080"/>
    </g>
   </g>
   <g id="patch_3">
    <path d="M 50.14375 354.958125 
L 50.14375 22.318125 
" style="fill: none; stroke: #000000; stroke-width: 0.8; stroke-linejoin: miter; stroke-linecap: square"/>
   </g>
   <g id="patch_4">
    <path d="M 719.74375 354.958125 
L 719.74375 22.318125 
" style="fill: none; stroke: #000000; stroke-width: 0.8; stroke-linejoin: miter; stroke-linecap: square"/>
   </g>
   <g id="patch_5">
    <path d="M 50.14375 354.958125 
L 719.74375 354.958125 
" style="fill: none; stroke: #000000; stroke-width: 0.8; stroke-linejoin: miter; stroke-linecap: square"/>
   </g>
   <g id="patch_6">
    <path d="M 50.14375 22.318125 
L 719.74375 22.318125 
" style="fill: none; stroke: #000000; stroke-width: 0.8; stroke-linejoin: miter; stroke-linecap: square"/>
   </g>
   <g id="text_16">
    <!-- Frequency Data of Noise (Distortion / Disturbance) -->
    <g transform="translate(233.341563 16.318125) scale(0.12 -0.12)">
     <use xlink:href="#DejaVuSans-46"/>
     <use xlink:href="#DejaVuSans-72" transform="translate(50.269531 0)"/>
     <use xlink:href="#DejaVuSans-65" transform="translate(89.132812 0)"/>
     <use xlink:href="#DejaVuSans-71" transform="translate(150.65625 0)"/>
     <use xlink:href="#DejaVuSans-75" transform="translate(214.132812 0)"/>
     <use xlink:href="#DejaVuSans-65" transform="translate(277.511719 0)"/>
     <use xlink:href="#DejaVuSans-6e" transform="translate(339.035156 0)"/>
     <use xlink:href="#DejaVuSans-63" transform="translate(402.414062 0)"/>
     <use xlink:href="#DejaVuSans-79" transform="translate(457.394531 0)"/>
     <use xlink:href="#DejaVuSans-20" transform="translate(516.574219 0)"/>
     <use xlink:href="#DejaVuSans-44" transform="translate(548.361328 0)"/>
     <use xlink:href="#DejaVuSans-61" transform="translate(625.363281 0)"/>
     <use xlink:href="#DejaVuSans-74" transform="translate(686.642578 0)"/>
     <use xlink:href="#DejaVuSans-61" transform="translate(725.851562 0)"/>
     <use xlink:href="#DejaVuSans-20" transform="translate(787.130859 0)"/>
     <use xlink:href="#DejaVuSans-6f" transform="translate(818.917969 0)"/>
     <use xlink:href="#DejaVuSans-66" transform="translate(880.099609 0)"/>
     <use xlink:href="#DejaVuSans-20" transform="translate(915.304688 0)"/>
     <use xlink:href="#DejaVuSans-4e" transform="translate(947.091797 0)"/>
     <use xlink:href="#DejaVuSans-6f" transform="translate(1021.896484 0)"/>
     <use xlink:href="#DejaVuSans-69" transform="translate(1083.078125 0)"/>
     <use xlink:href="#DejaVuSans-73" transform="translate(1110.861328 0)"/>
     <use xlink:href="#DejaVuSans-65" transform="translate(1162.960938 0)"/>
     <use xlink:href="#DejaVuSans-20" transform="translate(1224.484375 0)"/>
     <use xlink:href="#DejaVuSans-28" transform="translate(1256.271484 0)"/>
     <use xlink:href="#DejaVuSans-44" transform="translate(1295.285156 0)"/>
     <use xlink:href="#DejaVuSans-69" transform="translate(1372.287109 0)"/>
     <use xlink:href="#DejaVuSans-73" transform="translate(1400.070312 0)"/>
     <use xlink:href="#DejaVuSans-74" transform="translate(1452.169922 0)"/>
     <use xlink:href="#DejaVuSans-6f" transform="translate(1491.378906 0)"/>
     <use xlink:href="#DejaVuSans-72" transform="translate(1552.560547 0)"/>
     <use xlink:href="#DejaVuSans-74" transform="translate(1593.673828 0)"/>
     <use xlink:href="#DejaVuSans-69" transform="translate(1632.882812 0)"/>
     <use xlink:href="#DejaVuSans-6f" transform="translate(1660.666016 0)"/>
     <use xlink:href="#DejaVuSans-6e" transform="translate(1721.847656 0)"/>
     <use xlink:href="#DejaVuSans-20" transform="translate(1785.226562 0)"/>
     <use xlink:href="#DejaVuSans-2f" transform="translate(1817.013672 0)"/>
     <use xlink:href="#DejaVuSans-20" transform="translate(1850.705078 0)"/>
     <use xlink:href="#DejaVuSans-44" transform="translate(1882.492188 0)"/>
     <use xlink:href="#DejaVuSans-69" transform="translate(1959.494141 0)"/>
     <use xlink:href="#DejaVuSans-73" transform="translate(1987.277344 0)"/>
     <use xlink:href="#DejaVuSans-74" transform="translate(2039.376953 0)"/>
     <use xlink:href="#DejaVuSans-75" transform="translate(2078.585938 0)"/>
     <use xlink:href="#DejaVuSans-72" transform="translate(2141.964844 0)"/>
     <use xlink:href="#DejaVuSans-62" transform="translate(2183.078125 0)"/>
     <use xlink:href="#DejaVuSans-61" transform="translate(2246.554688 0)"/>
     <use xlink:href="#DejaVuSans-6e" transform="translate(2307.833984 0)"/>
     <use xlink:href="#DejaVuSans-63" transform="translate(2371.212891 0)"/>
     <use xlink:href="#DejaVuSans-65" transform="translate(2426.193359 0)"/>
     <use xlink:href="#DejaVuSans-29" transform="translate(2487.716797 0)"/>
    </g>
   </g>
   <g id="legend_1">
    <g id="patch_7">
     <path d="M 57.14375 103.70875 
L 126.646875 103.70875 
Q 128.646875 103.70875 128.646875 101.70875 
L 128.646875 29.318125 
Q 128.646875 27.318125 126.646875 27.318125 
L 57.14375 27.318125 
Q 55.14375 27.318125 55.14375 29.318125 
L 55.14375 101.70875 
Q 55.14375 103.70875 57.14375 103.70875 
z
" style="fill: #ffffff; opacity: 0.8; stroke: #cccccc; stroke-linejoin: miter"/>
    </g>
    <g id="line2d_32">
     <path d="M 59.14375 35.416562 
L 69.14375 35.416562 
L 79.14375 35.416562 
" style="fill: none; stroke: #0000ff; stroke-width: 1.5; stroke-linecap: square"/>
     <g>
      <use xlink:href="#m5eadc4d79a" x="69.14375" y="35.416562" style="fill: #0000ff; stroke: #0000ff"/>
     </g>
    </g>
    <g id="text_17">
     <!-- Joy -->
     <g transform="translate(87.14375 38.916562) scale(0.1 -0.1)">
      <defs>
       <path id="DejaVuSans-4a" d="M 628 4666 
L 1259 4666 
L 1259 325 
Q 1259 -519 939 -900 
Q 619 -1281 -91 -1281 
L -331 -1281 
L -331 -750 
L -134 -750 
Q 284 -750 456 -515 
Q 628 -281 628 325 
L 628 4666 
z
" transform="scale(0.015625)"/>
      </defs>
      <use xlink:href="#DejaVuSans-4a"/>
      <use xlink:href="#DejaVuSans-6f" transform="translate(29.492188 0)"/>
      <use xlink:href="#DejaVuSans-79" transform="translate(90.673828 0)"/>
     </g>
    </g>
    <g id="line2d_33">
     <path d="M 59.14375 50.094688 
L 69.14375 50.094688 
L 79.14375 50.094688 
" style="fill: none; stroke: #ffa500; stroke-width: 1.5; stroke-linecap: square"/>
     <g>
      <use xlink:href="#m6b8592841b" x="69.14375" y="50.094688" style="fill: #ffa500; stroke: #ffa500"/>
     </g>
    </g>
    <g id="text_18">
     <!-- Sad -->
     <g transform="translate(87.14375 53.594688) scale(0.1 -0.1)">
      <defs>
       <path id="DejaVuSans-53" d="M 3425 4513 
L 3425 3897 
Q 3066 4069 2747 4153 
Q 2428 4238 2131 4238 
Q 1616 4238 1336 4038 
Q 1056 3838 1056 3469 
Q 1056 3159 1242 3001 
Q 1428 2844 1947 2747 
L 2328 2669 
Q 3034 2534 3370 2195 
Q 3706 1856 3706 1288 
Q 3706 609 3251 259 
Q 2797 -91 1919 -91 
Q 1588 -91 1214 -16 
Q 841 59 441 206 
L 441 856 
Q 825 641 1194 531 
Q 1563 422 1919 422 
Q 2459 422 2753 634 
Q 3047 847 3047 1241 
Q 3047 1584 2836 1778 
Q 2625 1972 2144 2069 
L 1759 2144 
Q 1053 2284 737 2584 
Q 422 2884 422 3419 
Q 422 4038 858 4394 
Q 1294 4750 2059 4750 
Q 2388 4750 2728 4690 
Q 3069 4631 3425 4513 
z
" transform="scale(0.015625)"/>
       <path id="DejaVuSans-64" d="M 2906 2969 
L 2906 4863 
L 3481 4863 
L 3481 0 
L 2906 0 
L 2906 525 
Q 2725 213 2448 61 
Q 2172 -91 1784 -91 
Q 1150 -91 751 415 
Q 353 922 353 1747 
Q 353 2572 751 3078 
Q 1150 3584 1784 3584 
Q 2172 3584 2448 3432 
Q 2725 3281 2906 2969 
z
M 947 1747 
Q 947 1113 1208 752 
Q 1469 391 1925 391 
Q 2381 391 2643 752 
Q 2906 1113 2906 1747 
Q 2906 2381 2643 2742 
Q 2381 3103 1925 3103 
Q 1469 3103 1208 2742 
Q 947 2381 947 1747 
z
" transform="scale(0.015625)"/>
      </defs>
      <use xlink:href="#DejaVuSans-53"/>
      <use xlink:href="#DejaVuSans-61" transform="translate(63.476562 0)"/>
      <use xlink:href="#DejaVuSans-64" transform="translate(124.755859 0)"/>
     </g>
    </g>
    <g id="line2d_34">
     <path d="M 59.14375 64.772812 
L 69.14375 64.772812 
L 79.14375 64.772812 
" style="fill: none; stroke: #008000; stroke-width: 1.5; stroke-linecap: square"/>
     <g>
      <use xlink:href="#m805891bc45" x="69.14375" y="64.772812" style="fill: #008000; stroke: #008000"/>
     </g>
    </g>
    <g id="text_19">
     <!-- Anger -->
     <g transform="translate(87.14375 68.272812) scale(0.1 -0.1)">
      <defs>
       <path id="DejaVuSans-41" d="M 2188 4044 
L 1331 1722 
L 3047 1722 
L 2188 4044 
z
M 1831 4666 
L 2547 4666 
L 4325 0 
L 3669 0 
L 3244 1197 
L 1141 1197 
L 716 0 
L 50 0 
L 1831 4666 
z
" transform="scale(0.015625)"/>
       <path id="DejaVuSans-67" d="M 2906 1791 
Q 2906 2416 2648 2759 
Q 2391 3103 1925 3103 
Q 1463 3103 1205 2759 
Q 947 2416 947 1791 
Q 947 1169 1205 825 
Q 1463 481 1925 481 
Q 2391 481 2648 825 
Q 2906 1169 2906 1791 
z
M 3481 434 
Q 3481 -459 3084 -895 
Q 2688 -1331 1869 -1331 
Q 1566 -1331 1297 -1286 
Q 1028 -1241 775 -1147 
L 775 -588 
Q 1028 -725 1275 -790 
Q 1522 -856 1778 -856 
Q 2344 -856 2625 -561 
Q 2906 -266 2906 331 
L 2906 616 
Q 2728 306 2450 153 
Q 2172 0 1784 0 
Q 1141 0 747 490 
Q 353 981 353 1791 
Q 353 2603 747 3093 
Q 1141 3584 1784 3584 
Q 2172 3584 2450 3431 
Q 2728 3278 2906 2969 
L 2906 3500 
L 3481 3500 
L 3481 434 
z
" transform="scale(0.015625)"/>
      </defs>
      <use xlink:href="#DejaVuSans-41"/>
      <use xlink:href="#DejaVuSans-6e" transform="translate(68.408203 0)"/>
      <use xlink:href="#DejaVuSans-67" transform="translate(131.787109 0)"/>
      <use xlink:href="#DejaVuSans-65" transform="translate(195.263672 0)"/>
      <use xlink:href="#DejaVuSans-72" transform="translate(256.787109 0)"/>
     </g>
    </g>
    <g id="line2d_35">
     <path d="M 59.14375 79.450938 
L 69.14375 79.450938 
L 79.14375 79.450938 
" style="fill: none; stroke: #ff0000; stroke-width: 1.5; stroke-linecap: square"/>
     <g>
      <use xlink:href="#m407b6dd50b" x="69.14375" y="79.450938" style="fill: #ff0000; stroke: #ff0000"/>
     </g>
    </g>
    <g id="text_20">
     <!-- Fear -->
     <g transform="translate(87.14375 82.950938) scale(0.1 -0.1)">
      <use xlink:href="#DejaVuSans-46"/>
      <use xlink:href="#DejaVuSans-65" transform="translate(52.019531 0)"/>
      <use xlink:href="#DejaVuSans-61" transform="translate(113.542969 0)"/>
      <use xlink:href="#DejaVuSans-72" transform="translate(174.822266 0)"/>
     </g>
    </g>
    <g id="line2d_36">
     <path d="M 59.14375 94.129063 
L 69.14375 94.129063 
L 79.14375 94.129063 
" style="fill: none; stroke: #800080; stroke-width: 1.5; stroke-linecap: square"/>
     <g>
      <use xlink:href="#m338375c8ed" x="69.14375" y="94.129063" style="fill: #800080; stroke: #800080"/>
     </g>
    </g>
    <g id="text_21">
     <!-- Disgust -->
     <g transform="translate(87.14375 97.629063) scale(0.1 -0.1)">
      <use xlink:href="#DejaVuSans-44"/>
      <use xlink:href="#DejaVuSans-69" transform="translate(77.001953 0)"/>
      <use xlink:href="#DejaVuSans-73" transform="translate(104.785156 0)"/>
      <use xlink:href="#DejaVuSans-67" transform="translate(156.884766 0)"/>
      <use xlink:href="#DejaVuSans-75" transform="translate(220.361328 0)"/>
      <use xlink:href="#DejaVuSans-73" transform="translate(283.740234 0)"/>
      <use xlink:href="#DejaVuSans-74" transform="translate(335.839844 0)"/>
     </g>
    </g>
   </g>
  </g>
 </g>
 <defs>
  <clipPath id="p369be55c55">
   <rect x="50.14375" y="22.318125" width="669.6" height="332.64"/>
  </clipPath>
 </defs>
</svg>
