<?xml version="1.0" encoding="utf-8" standalone="no"?>
<!DOCTYPE svg PUBLIC "-//W3C//DTD SVG 1.1//EN"
  "http://www.w3.org/Graphics/SVG/1.1/DTD/svg11.dtd">
<svg xmlns:xlink="http://www.w3.org/1999/xlink" width="856.8pt" height="709.2pt" viewBox="0 0 856.8 709.2" xmlns="http://www.w3.org/2000/svg" version="1.1">
 <metadata>
  <rdf:RDF xmlns:dc="http://purl.org/dc/elements/1.1/" xmlns:cc="http://creativecommons.org/ns#" xmlns:rdf="http://www.w3.org/1999/02/22-rdf-syntax-ns#">
   <cc:Work>
    <dc:type rdf:resource="http://purl.org/dc/dcmitype/StillImage"/>
    <dc:date>2025-02-01T00:31:04.488336</dc:date>
    <dc:format>image/svg+xml</dc:format>
    <dc:creator>
     <cc:Agent>
      <dc:title>Matplotlib v3.10.0, https://matplotlib.org/</dc:title>
     </cc:Agent>
    </dc:creator>
   </cc:Work>
  </rdf:RDF>
 </metadata>
 <defs>
  <style type="text/css">*{stroke-linejoin: round; stroke-linecap: butt}</style>
 </defs>
 <g id="figure_1">
  <g id="patch_1">
   <path d="M 0 709.2 
L 856.8 709.2 
L 856.8 0 
L 0 0 
z
" style="fill: #ffffff"/>
  </g>
  <g id="axes_1">
   <g id="patch_2">
    <path d="M 7.2 153.648 
L 35.28 153.648 
L 35.28 43.44 
L 7.2 43.44 
z
" clip-path="url(#p5d5dbe868f)" style="fill: #646464"/>
   </g>
   <g id="patch_3">
    <path d="M 35.28 153.648 
L 63.36 153.648 
L 63.36 43.44 
L 35.28 43.44 
z
" clip-path="url(#p5d5dbe868f)" style="fill: #ffffff"/>
   </g>
   <g id="patch_4">
    <path d="M 63.36 153.648 
L 91.44 153.648 
L 91.44 43.44 
L 63.36 43.44 
z
" clip-path="url(#p5d5dbe868f)" style="fill: #ffffff"/>
   </g>
   <g id="patch_5">
    <path d="M 91.44 153.648 
L 119.52 153.648 
L 119.52 43.44 
L 91.44 43.44 
z
" clip-path="url(#p5d5dbe868f)" style="fill: #ffffff"/>
   </g>
   <g id="patch_6">
    <path d="M 119.52 153.648 
L 147.6 153.648 
L 147.6 43.44 
L 119.52 43.44 
z
" clip-path="url(#p5d5dbe868f)" style="fill: #ffffff"/>
   </g>
   <g id="patch_7">
    <path d="M 147.6 153.648 
L 175.68 153.648 
L 175.68 43.44 
L 147.6 43.44 
z
" clip-path="url(#p5d5dbe868f)" style="fill: #ffffff"/>
   </g>
   <g id="patch_8">
    <path d="M 175.68 153.648 
L 203.76 153.648 
L 203.76 43.44 
L 175.68 43.44 
z
" clip-path="url(#p5d5dbe868f)" style="fill: #702424"/>
   </g>
   <g id="patch_9">
    <path d="M 203.76 153.648 
L 231.84 153.648 
L 231.84 43.44 
L 203.76 43.44 
z
" clip-path="url(#p5d5dbe868f)" style="fill: #df9a9a"/>
   </g>
   <g id="patch_10">
    <path d="M 231.84 153.648 
L 259.92 153.648 
L 259.92 43.44 
L 231.84 43.44 
z
" clip-path="url(#p5d5dbe868f)" style="fill: #ff0000"/>
   </g>
   <g id="patch_11">
    <path d="M 259.92 153.648 
L 288 153.648 
L 288 43.44 
L 259.92 43.44 
z
" clip-path="url(#p5d5dbe868f)" style="fill: #ff6a00"/>
   </g>
   <g id="patch_12">
    <path d="M 288 153.648 
L 316.08 153.648 
L 316.08 43.44 
L 288 43.44 
z
" clip-path="url(#p5d5dbe868f)" style="fill: #fe9239"/>
   </g>
   <g id="patch_13">
    <path d="M 316.08 153.648 
L 344.16 153.648 
L 344.16 43.44 
L 316.08 43.44 
z
" clip-path="url(#p5d5dbe868f)" style="fill: #c65f02"/>
   </g>
   <g id="patch_14">
    <path d="M 344.16 153.648 
L 372.24 153.648 
L 372.24 43.44 
L 344.16 43.44 
z
" clip-path="url(#p5d5dbe868f)" style="fill: #feb43f"/>
   </g>
   <g id="patch_15">
    <path d="M 372.24 153.648 
L 400.32 153.648 
L 400.32 43.44 
L 372.24 43.44 
z
" clip-path="url(#p5d5dbe868f)" style="fill: #e6d628"/>
   </g>
   <g id="patch_16">
    <path d="M 400.32 153.648 
L 428.4 153.648 
L 428.4 43.44 
L 400.32 43.44 
z
" clip-path="url(#p5d5dbe868f)" style="fill: #ffff00"/>
   </g>
   <g id="patch_17">
    <path d="M 428.4 153.648 
L 456.48 153.648 
L 456.48 43.44 
L 428.4 43.44 
z
" clip-path="url(#p5d5dbe868f)" style="fill: #ffff00"/>
   </g>
   <g id="patch_18">
    <path d="M 456.48 153.648 
L 484.56 153.648 
L 484.56 43.44 
L 456.48 43.44 
z
" clip-path="url(#p5d5dbe868f)" style="fill: #ffff00"/>
   </g>
   <g id="patch_19">
    <path d="M 484.56 153.648 
L 512.64 153.648 
L 512.64 43.44 
L 484.56 43.44 
z
" clip-path="url(#p5d5dbe868f)" style="fill: #ebf38f"/>
   </g>
   <g id="patch_20">
    <path d="M 512.64 153.648 
L 540.72 153.648 
L 540.72 43.44 
L 512.64 43.44 
z
" clip-path="url(#p5d5dbe868f)" style="fill: #869419"/>
   </g>
   <g id="patch_21">
    <path d="M 540.72 153.648 
L 568.8 153.648 
L 568.8 43.44 
L 540.72 43.44 
z
" clip-path="url(#p5d5dbe868f)" style="fill: #c5f084"/>
   </g>
   <g id="patch_22">
    <path d="M 568.8 153.648 
L 596.88 153.648 
L 596.88 43.44 
L 568.8 43.44 
z
" clip-path="url(#p5d5dbe868f)" style="fill: #121c06"/>
   </g>
   <g id="patch_23">
    <path d="M 596.88 153.648 
L 624.96 153.648 
L 624.96 43.44 
L 596.88 43.44 
z
" clip-path="url(#p5d5dbe868f)" style="fill: #15cb34"/>
   </g>
   <g id="patch_24">
    <path d="M 624.96 153.648 
L 653.04 153.648 
L 653.04 43.44 
L 624.96 43.44 
z
" clip-path="url(#p5d5dbe868f)" style="fill: #05f5ad"/>
   </g>
   <g id="patch_25">
    <path d="M 653.04 153.648 
L 681.12 153.648 
L 681.12 43.44 
L 653.04 43.44 
z
" clip-path="url(#p5d5dbe868f)" style="fill: #0b755f"/>
   </g>
   <g id="patch_26">
    <path d="M 681.12 153.648 
L 709.2 153.648 
L 709.2 43.44 
L 681.12 43.44 
z
" clip-path="url(#p5d5dbe868f)" style="fill: #92eeff"/>
   </g>
   <g id="patch_27">
    <path d="M 709.2 153.648 
L 737.28 153.648 
L 737.28 43.44 
L 709.2 43.44 
z
" clip-path="url(#p5d5dbe868f)" style="fill: #93e3fd"/>
   </g>
   <g id="patch_28">
    <path d="M 737.28 153.648 
L 765.36 153.648 
L 765.36 43.44 
L 737.28 43.44 
z
" clip-path="url(#p5d5dbe868f)" style="fill: #2600e6"/>
   </g>
   <g id="patch_29">
    <path d="M 765.36 153.648 
L 793.44 153.648 
L 793.44 43.44 
L 765.36 43.44 
z
" clip-path="url(#p5d5dbe868f)" style="fill: #a00097"/>
   </g>
   <g id="patch_30">
    <path d="M 793.44 153.648 
L 821.52 153.648 
L 821.52 43.44 
L 793.44 43.44 
z
" clip-path="url(#p5d5dbe868f)" style="fill: #be4bb5"/>
   </g>
   <g id="patch_31">
    <path d="M 821.52 153.648 
L 849.6 153.648 
L 849.6 43.44 
L 821.52 43.44 
z
" clip-path="url(#p5d5dbe868f)" style="fill: #c70fa5"/>
   </g>
   <g id="text_1">
    <!-- Dataset for Joy -->
    <g transform="translate(7.2 37.44) scale(0.12 -0.12)">
     <defs>
      <path id="DejaVuSans-44" d="M 1259 4147 
L 1259 519 
L 2022 519 
Q 2988 519 3436 956 
Q 3884 1394 3884 2338 
Q 3884 3275 3436 3711 
Q 2988 4147 2022 4147 
L 1259 4147 
z
M 628 4666 
L 1925 4666 
Q 3281 4666 3915 4102 
Q 4550 3538 4550 2338 
Q 4550 1131 3912 565 
Q 3275 0 1925 0 
L 628 0 
L 628 4666 
z
" transform="scale(0.015625)"/>
      <path id="DejaVuSans-61" d="M 2194 1759 
Q 1497 1759 1228 1600 
Q 959 1441 959 1056 
Q 959 750 1161 570 
Q 1363 391 1709 391 
Q 2188 391 2477 730 
Q 2766 1069 2766 1631 
L 2766 1759 
L 2194 1759 
z
M 3341 1997 
L 3341 0 
L 2766 0 
L 2766 531 
Q 2569 213 2275 61 
Q 1981 -91 1556 -91 
Q 1019 -91 701 211 
Q 384 513 384 1019 
Q 384 1609 779 1909 
Q 1175 2209 1959 2209 
L 2766 2209 
L 2766 2266 
Q 2766 2663 2505 2880 
Q 2244 3097 1772 3097 
Q 1472 3097 1187 3025 
Q 903 2953 641 2809 
L 641 3341 
Q 956 3463 1253 3523 
Q 1550 3584 1831 3584 
Q 2591 3584 2966 3190 
Q 3341 2797 3341 1997 
z
" transform="scale(0.015625)"/>
      <path id="DejaVuSans-74" d="M 1172 4494 
L 1172 3500 
L 2356 3500 
L 2356 3053 
L 1172 3053 
L 1172 1153 
Q 1172 725 1289 603 
Q 1406 481 1766 481 
L 2356 481 
L 2356 0 
L 1766 0 
Q 1100 0 847 248 
Q 594 497 594 1153 
L 594 3053 
L 172 3053 
L 172 3500 
L 594 3500 
L 594 4494 
L 1172 4494 
z
" transform="scale(0.015625)"/>
      <path id="DejaVuSans-73" d="M 2834 3397 
L 2834 2853 
Q 2591 2978 2328 3040 
Q 2066 3103 1784 3103 
Q 1356 3103 1142 2972 
Q 928 2841 928 2578 
Q 928 2378 1081 2264 
Q 1234 2150 1697 2047 
L 1894 2003 
Q 2506 1872 2764 1633 
Q 3022 1394 3022 966 
Q 3022 478 2636 193 
Q 2250 -91 1575 -91 
Q 1294 -91 989 -36 
Q 684 19 347 128 
L 347 722 
Q 666 556 975 473 
Q 1284 391 1588 391 
Q 1994 391 2212 530 
Q 2431 669 2431 922 
Q 2431 1156 2273 1281 
Q 2116 1406 1581 1522 
L 1381 1569 
Q 847 1681 609 1914 
Q 372 2147 372 2553 
Q 372 3047 722 3315 
Q 1072 3584 1716 3584 
Q 2034 3584 2315 3537 
Q 2597 3491 2834 3397 
z
" transform="scale(0.015625)"/>
      <path id="DejaVuSans-65" d="M 3597 1894 
L 3597 1613 
L 953 1613 
Q 991 1019 1311 708 
Q 1631 397 2203 397 
Q 2534 397 2845 478 
Q 3156 559 3463 722 
L 3463 178 
Q 3153 47 2828 -22 
Q 2503 -91 2169 -91 
Q 1331 -91 842 396 
Q 353 884 353 1716 
Q 353 2575 817 3079 
Q 1281 3584 2069 3584 
Q 2775 3584 3186 3129 
Q 3597 2675 3597 1894 
z
M 3022 2063 
Q 3016 2534 2758 2815 
Q 2500 3097 2075 3097 
Q 1594 3097 1305 2825 
Q 1016 2553 972 2059 
L 3022 2063 
z
" transform="scale(0.015625)"/>
      <path id="DejaVuSans-20" transform="scale(0.015625)"/>
      <path id="DejaVuSans-66" d="M 2375 4863 
L 2375 4384 
L 1825 4384 
Q 1516 4384 1395 4259 
Q 1275 4134 1275 3809 
L 1275 3500 
L 2222 3500 
L 2222 3053 
L 1275 3053 
L 1275 0 
L 697 0 
L 697 3053 
L 147 3053 
L 147 3500 
L 697 3500 
L 697 3744 
Q 697 4328 969 4595 
Q 1241 4863 1831 4863 
L 2375 4863 
z
" transform="scale(0.015625)"/>
      <path id="DejaVuSans-6f" d="M 1959 3097 
Q 1497 3097 1228 2736 
Q 959 2375 959 1747 
Q 959 1119 1226 758 
Q 1494 397 1959 397 
Q 2419 397 2687 759 
Q 2956 1122 2956 1747 
Q 2956 2369 2687 2733 
Q 2419 3097 1959 3097 
z
M 1959 3584 
Q 2709 3584 3137 3096 
Q 3566 2609 3566 1747 
Q 3566 888 3137 398 
Q 2709 -91 1959 -91 
Q 1206 -91 779 398 
Q 353 888 353 1747 
Q 353 2609 779 3096 
Q 1206 3584 1959 3584 
z
" transform="scale(0.015625)"/>
      <path id="DejaVuSans-72" d="M 2631 2963 
Q 2534 3019 2420 3045 
Q 2306 3072 2169 3072 
Q 1681 3072 1420 2755 
Q 1159 2438 1159 1844 
L 1159 0 
L 581 0 
L 581 3500 
L 1159 3500 
L 1159 2956 
Q 1341 3275 1631 3429 
Q 1922 3584 2338 3584 
Q 2397 3584 2469 3576 
Q 2541 3569 2628 3553 
L 2631 2963 
z
" transform="scale(0.015625)"/>
      <path id="DejaVuSans-4a" d="M 628 4666 
L 1259 4666 
L 1259 325 
Q 1259 -519 939 -900 
Q 619 -1281 -91 -1281 
L -331 -1281 
L -331 -750 
L -134 -750 
Q 284 -750 456 -515 
Q 628 -281 628 325 
L 628 4666 
z
" transform="scale(0.015625)"/>
      <path id="DejaVuSans-79" d="M 2059 -325 
Q 1816 -950 1584 -1140 
Q 1353 -1331 966 -1331 
L 506 -1331 
L 506 -850 
L 844 -850 
Q 1081 -850 1212 -737 
Q 1344 -625 1503 -206 
L 1606 56 
L 191 3500 
L 800 3500 
L 1894 763 
L 2988 3500 
L 3597 3500 
L 2059 -325 
z
" transform="scale(0.015625)"/>
     </defs>
     <use xlink:href="#DejaVuSans-44"/>
     <use xlink:href="#DejaVuSans-61" transform="translate(77.001953 0)"/>
     <use xlink:href="#DejaVuSans-74" transform="translate(138.28125 0)"/>
     <use xlink:href="#DejaVuSans-61" transform="translate(177.490234 0)"/>
     <use xlink:href="#DejaVuSans-73" transform="translate(238.769531 0)"/>
     <use xlink:href="#DejaVuSans-65" transform="translate(290.869141 0)"/>
     <use xlink:href="#DejaVuSans-74" transform="translate(352.392578 0)"/>
     <use xlink:href="#DejaVuSans-20" transform="translate(391.601562 0)"/>
     <use xlink:href="#DejaVuSans-66" transform="translate(423.388672 0)"/>
     <use xlink:href="#DejaVuSans-6f" transform="translate(458.59375 0)"/>
     <use xlink:href="#DejaVuSans-72" transform="translate(519.775391 0)"/>
     <use xlink:href="#DejaVuSans-20" transform="translate(560.888672 0)"/>
     <use xlink:href="#DejaVuSans-4a" transform="translate(592.675781 0)"/>
     <use xlink:href="#DejaVuSans-6f" transform="translate(622.167969 0)"/>
     <use xlink:href="#DejaVuSans-79" transform="translate(683.349609 0)"/>
    </g>
   </g>
  </g>
  <g id="axes_2">
   <g id="patch_32">
    <path d="M 7.2 290.736 
L 35.28 290.736 
L 35.28 180.528 
L 7.2 180.528 
z
" clip-path="url(#p68fd60dce9)"/>
   </g>
   <g id="patch_33">
    <path d="M 35.28 290.736 
L 63.36 290.736 
L 63.36 180.528 
L 35.28 180.528 
z
" clip-path="url(#p68fd60dce9)"/>
   </g>
   <g id="patch_34">
    <path d="M 63.36 290.736 
L 91.44 290.736 
L 91.44 180.528 
L 63.36 180.528 
z
" clip-path="url(#p68fd60dce9)" style="fill: #2b2b2b"/>
   </g>
   <g id="patch_35">
    <path d="M 91.44 290.736 
L 119.52 290.736 
L 119.52 180.528 
L 91.44 180.528 
z
" clip-path="url(#p68fd60dce9)" style="fill: #404040"/>
   </g>
   <g id="patch_36">
    <path d="M 119.52 290.736 
L 147.6 290.736 
L 147.6 180.528 
L 119.52 180.528 
z
" clip-path="url(#p68fd60dce9)" style="fill: #646464"/>
   </g>
   <g id="patch_37">
    <path d="M 147.6 290.736 
L 175.68 290.736 
L 175.68 180.528 
L 147.6 180.528 
z
" clip-path="url(#p68fd60dce9)" style="fill: #646464"/>
   </g>
   <g id="patch_38">
    <path d="M 175.68 290.736 
L 203.76 290.736 
L 203.76 180.528 
L 175.68 180.528 
z
" clip-path="url(#p68fd60dce9)" style="fill: #787878"/>
   </g>
   <g id="patch_39">
    <path d="M 203.76 290.736 
L 231.84 290.736 
L 231.84 180.528 
L 203.76 180.528 
z
" clip-path="url(#p68fd60dce9)" style="fill: #ffffff"/>
   </g>
   <g id="patch_40">
    <path d="M 231.84 290.736 
L 259.92 290.736 
L 259.92 180.528 
L 231.84 180.528 
z
" clip-path="url(#p68fd60dce9)" style="fill: #ffffff"/>
   </g>
   <g id="patch_41">
    <path d="M 259.92 290.736 
L 288 290.736 
L 288 180.528 
L 259.92 180.528 
z
" clip-path="url(#p68fd60dce9)" style="fill: #ffffff"/>
   </g>
   <g id="patch_42">
    <path d="M 288 290.736 
L 316.08 290.736 
L 316.08 180.528 
L 288 180.528 
z
" clip-path="url(#p68fd60dce9)" style="fill: #ffffff"/>
   </g>
   <g id="patch_43">
    <path d="M 316.08 290.736 
L 344.16 290.736 
L 344.16 180.528 
L 316.08 180.528 
z
" clip-path="url(#p68fd60dce9)" style="fill: #e2dada"/>
   </g>
   <g id="patch_44">
    <path d="M 344.16 290.736 
L 372.24 290.736 
L 372.24 180.528 
L 344.16 180.528 
z
" clip-path="url(#p68fd60dce9)" style="fill: #121c06"/>
   </g>
   <g id="patch_45">
    <path d="M 372.24 290.736 
L 400.32 290.736 
L 400.32 180.528 
L 372.24 180.528 
z
" clip-path="url(#p68fd60dce9)" style="fill: #5f6362"/>
   </g>
   <g id="patch_46">
    <path d="M 400.32 290.736 
L 428.4 290.736 
L 428.4 180.528 
L 400.32 180.528 
z
" clip-path="url(#p68fd60dce9)" style="fill: #0d1415"/>
   </g>
   <g id="patch_47">
    <path d="M 428.4 290.736 
L 456.48 290.736 
L 456.48 180.528 
L 428.4 180.528 
z
" clip-path="url(#p68fd60dce9)" style="fill: #004cff"/>
   </g>
   <g id="patch_48">
    <path d="M 456.48 290.736 
L 484.56 290.736 
L 484.56 180.528 
L 456.48 180.528 
z
" clip-path="url(#p68fd60dce9)" style="fill: #000f34"/>
   </g>
   <g id="patch_49">
    <path d="M 484.56 290.736 
L 512.64 290.736 
L 512.64 180.528 
L 484.56 180.528 
z
" clip-path="url(#p68fd60dce9)" style="fill: #1a3089"/>
   </g>
   <g id="patch_50">
    <path d="M 512.64 290.736 
L 540.72 290.736 
L 540.72 180.528 
L 512.64 180.528 
z
" clip-path="url(#p68fd60dce9)" style="fill: #202d8d"/>
   </g>
   <g id="patch_51">
    <path d="M 540.72 290.736 
L 568.8 290.736 
L 568.8 180.528 
L 540.72 180.528 
z
" clip-path="url(#p68fd60dce9)" style="fill: #0f1148"/>
   </g>
   <g id="patch_52">
    <path d="M 568.8 290.736 
L 596.88 290.736 
L 596.88 180.528 
L 568.8 180.528 
z
" clip-path="url(#p68fd60dce9)" style="fill: #0000ff"/>
   </g>
   <g id="patch_53">
    <path d="M 596.88 290.736 
L 624.96 290.736 
L 624.96 180.528 
L 596.88 180.528 
z
" clip-path="url(#p68fd60dce9)" style="fill: #0000ff"/>
   </g>
   <g id="patch_54">
    <path d="M 624.96 290.736 
L 653.04 290.736 
L 653.04 180.528 
L 624.96 180.528 
z
" clip-path="url(#p68fd60dce9)" style="fill: #0000ff"/>
   </g>
   <g id="patch_55">
    <path d="M 653.04 290.736 
L 681.12 290.736 
L 681.12 180.528 
L 653.04 180.528 
z
" clip-path="url(#p68fd60dce9)" style="fill: #786fa5"/>
   </g>
   <g id="patch_56">
    <path d="M 681.12 290.736 
L 709.2 290.736 
L 709.2 180.528 
L 681.12 180.528 
z
" clip-path="url(#p68fd60dce9)" style="fill: #c269ff"/>
   </g>
   <g id="patch_57">
    <path d="M 709.2 290.736 
L 737.28 290.736 
L 737.28 180.528 
L 709.2 180.528 
z
" clip-path="url(#p68fd60dce9)" style="fill: #613c72"/>
   </g>
   <g id="patch_58">
    <path d="M 737.28 290.736 
L 765.36 290.736 
L 765.36 180.528 
L 737.28 180.528 
z
" clip-path="url(#p68fd60dce9)" style="fill: #efcaff"/>
   </g>
   <g id="patch_59">
    <path d="M 765.36 290.736 
L 793.44 290.736 
L 793.44 180.528 
L 765.36 180.528 
z
" clip-path="url(#p68fd60dce9)" style="fill: #7a219e"/>
   </g>
   <g id="patch_60">
    <path d="M 793.44 290.736 
L 821.52 290.736 
L 821.52 180.528 
L 793.44 180.528 
z
" clip-path="url(#p68fd60dce9)" style="fill: #be4bb5"/>
   </g>
   <g id="patch_61">
    <path d="M 821.52 290.736 
L 849.6 290.736 
L 849.6 180.528 
L 821.52 180.528 
z
" clip-path="url(#p68fd60dce9)" style="fill: #9a244f"/>
   </g>
   <g id="text_2">
    <!-- Dataset for Sad -->
    <g transform="translate(7.2 174.528) scale(0.12 -0.12)">
     <defs>
      <path id="DejaVuSans-53" d="M 3425 4513 
L 3425 3897 
Q 3066 4069 2747 4153 
Q 2428 4238 2131 4238 
Q 1616 4238 1336 4038 
Q 1056 3838 1056 3469 
Q 1056 3159 1242 3001 
Q 1428 2844 1947 2747 
L 2328 2669 
Q 3034 2534 3370 2195 
Q 3706 1856 3706 1288 
Q 3706 609 3251 259 
Q 2797 -91 1919 -91 
Q 1588 -91 1214 -16 
Q 841 59 441 206 
L 441 856 
Q 825 641 1194 531 
Q 1563 422 1919 422 
Q 2459 422 2753 634 
Q 3047 847 3047 1241 
Q 3047 1584 2836 1778 
Q 2625 1972 2144 2069 
L 1759 2144 
Q 1053 2284 737 2584 
Q 422 2884 422 3419 
Q 422 4038 858 4394 
Q 1294 4750 2059 4750 
Q 2388 4750 2728 4690 
Q 3069 4631 3425 4513 
z
" transform="scale(0.015625)"/>
      <path id="DejaVuSans-64" d="M 2906 2969 
L 2906 4863 
L 3481 4863 
L 3481 0 
L 2906 0 
L 2906 525 
Q 2725 213 2448 61 
Q 2172 -91 1784 -91 
Q 1150 -91 751 415 
Q 353 922 353 1747 
Q 353 2572 751 3078 
Q 1150 3584 1784 3584 
Q 2172 3584 2448 3432 
Q 2725 3281 2906 2969 
z
M 947 1747 
Q 947 1113 1208 752 
Q 1469 391 1925 391 
Q 2381 391 2643 752 
Q 2906 1113 2906 1747 
Q 2906 2381 2643 2742 
Q 2381 3103 1925 3103 
Q 1469 3103 1208 2742 
Q 947 2381 947 1747 
z
" transform="scale(0.015625)"/>
     </defs>
     <use xlink:href="#DejaVuSans-44"/>
     <use xlink:href="#DejaVuSans-61" transform="translate(77.001953 0)"/>
     <use xlink:href="#DejaVuSans-74" transform="translate(138.28125 0)"/>
     <use xlink:href="#DejaVuSans-61" transform="translate(177.490234 0)"/>
     <use xlink:href="#DejaVuSans-73" transform="translate(238.769531 0)"/>
     <use xlink:href="#DejaVuSans-65" transform="translate(290.869141 0)"/>
     <use xlink:href="#DejaVuSans-74" transform="translate(352.392578 0)"/>
     <use xlink:href="#DejaVuSans-20" transform="translate(391.601562 0)"/>
     <use xlink:href="#DejaVuSans-66" transform="translate(423.388672 0)"/>
     <use xlink:href="#DejaVuSans-6f" transform="translate(458.59375 0)"/>
     <use xlink:href="#DejaVuSans-72" transform="translate(519.775391 0)"/>
     <use xlink:href="#DejaVuSans-20" transform="translate(560.888672 0)"/>
     <use xlink:href="#DejaVuSans-53" transform="translate(592.675781 0)"/>
     <use xlink:href="#DejaVuSans-61" transform="translate(656.152344 0)"/>
     <use xlink:href="#DejaVuSans-64" transform="translate(717.431641 0)"/>
    </g>
   </g>
  </g>
  <g id="axes_3">
   <g id="patch_62">
    <path d="M 7.2 427.824 
L 35.28 427.824 
L 35.28 317.616 
L 7.2 317.616 
z
" clip-path="url(#p58efbc1d4a)"/>
   </g>
   <g id="patch_63">
    <path d="M 35.28 427.824 
L 63.36 427.824 
L 63.36 317.616 
L 35.28 317.616 
z
" clip-path="url(#p58efbc1d4a)"/>
   </g>
   <g id="patch_64">
    <path d="M 63.36 427.824 
L 91.44 427.824 
L 91.44 317.616 
L 63.36 317.616 
z
" clip-path="url(#p58efbc1d4a)" style="fill: #646464"/>
   </g>
   <g id="patch_65">
    <path d="M 91.44 427.824 
L 119.52 427.824 
L 119.52 317.616 
L 91.44 317.616 
z
" clip-path="url(#p58efbc1d4a)" style="fill: #ffffff"/>
   </g>
   <g id="patch_66">
    <path d="M 119.52 427.824 
L 147.6 427.824 
L 147.6 317.616 
L 119.52 317.616 
z
" clip-path="url(#p58efbc1d4a)" style="fill: #ffffff"/>
   </g>
   <g id="patch_67">
    <path d="M 147.6 427.824 
L 175.68 427.824 
L 175.68 317.616 
L 147.6 317.616 
z
" clip-path="url(#p58efbc1d4a)" style="fill: #2c2b2b"/>
   </g>
   <g id="patch_68">
    <path d="M 175.68 427.824 
L 203.76 427.824 
L 203.76 317.616 
L 175.68 317.616 
z
" clip-path="url(#p58efbc1d4a)" style="fill: #bd2828"/>
   </g>
   <g id="patch_69">
    <path d="M 203.76 427.824 
L 231.84 427.824 
L 231.84 317.616 
L 203.76 317.616 
z
" clip-path="url(#p58efbc1d4a)" style="fill: #3b0202"/>
   </g>
   <g id="patch_70">
    <path d="M 231.84 427.824 
L 259.92 427.824 
L 259.92 317.616 
L 231.84 317.616 
z
" clip-path="url(#p58efbc1d4a)" style="fill: #400202"/>
   </g>
   <g id="patch_71">
    <path d="M 259.92 427.824 
L 288 427.824 
L 288 317.616 
L 259.92 317.616 
z
" clip-path="url(#p58efbc1d4a)" style="fill: #680303"/>
   </g>
   <g id="patch_72">
    <path d="M 288 427.824 
L 316.08 427.824 
L 316.08 317.616 
L 288 317.616 
z
" clip-path="url(#p58efbc1d4a)" style="fill: #b90404"/>
   </g>
   <g id="patch_73">
    <path d="M 316.08 427.824 
L 344.16 427.824 
L 344.16 317.616 
L 316.08 317.616 
z
" clip-path="url(#p58efbc1d4a)" style="fill: #ff0000"/>
   </g>
   <g id="patch_74">
    <path d="M 344.16 427.824 
L 372.24 427.824 
L 372.24 317.616 
L 344.16 317.616 
z
" clip-path="url(#p58efbc1d4a)" style="fill: #ff0000"/>
   </g>
   <g id="patch_75">
    <path d="M 372.24 427.824 
L 400.32 427.824 
L 400.32 317.616 
L 372.24 317.616 
z
" clip-path="url(#p58efbc1d4a)" style="fill: #ff0a0a"/>
   </g>
   <g id="patch_76">
    <path d="M 400.32 427.824 
L 428.4 427.824 
L 428.4 317.616 
L 400.32 317.616 
z
" clip-path="url(#p58efbc1d4a)" style="fill: #ff8585"/>
   </g>
   <g id="patch_77">
    <path d="M 428.4 427.824 
L 456.48 427.824 
L 456.48 317.616 
L 428.4 317.616 
z
" clip-path="url(#p58efbc1d4a)" style="fill: #5c0701"/>
   </g>
   <g id="patch_78">
    <path d="M 456.48 427.824 
L 484.56 427.824 
L 484.56 317.616 
L 456.48 317.616 
z
" clip-path="url(#p58efbc1d4a)" style="fill: #ff4015"/>
   </g>
   <g id="patch_79">
    <path d="M 484.56 427.824 
L 512.64 427.824 
L 512.64 317.616 
L 484.56 317.616 
z
" clip-path="url(#p58efbc1d4a)" style="fill: #b0640c"/>
   </g>
   <g id="patch_80">
    <path d="M 512.64 427.824 
L 540.72 427.824 
L 540.72 317.616 
L 512.64 317.616 
z
" clip-path="url(#p58efbc1d4a)" style="fill: #ffff00"/>
   </g>
   <g id="patch_81">
    <path d="M 540.72 427.824 
L 568.8 427.824 
L 568.8 317.616 
L 540.72 317.616 
z
" clip-path="url(#p58efbc1d4a)" style="fill: #121c06"/>
   </g>
   <g id="patch_82">
    <path d="M 568.8 427.824 
L 596.88 427.824 
L 596.88 317.616 
L 568.8 317.616 
z
" clip-path="url(#p58efbc1d4a)" style="fill: #4b007c"/>
   </g>
   <g id="patch_83">
    <path d="M 596.88 427.824 
L 624.96 427.824 
L 624.96 317.616 
L 596.88 317.616 
z
" clip-path="url(#p58efbc1d4a)" style="fill: #521353"/>
   </g>
   <g id="patch_84">
    <path d="M 624.96 427.824 
L 653.04 427.824 
L 653.04 317.616 
L 624.96 317.616 
z
" clip-path="url(#p58efbc1d4a)" style="fill: #ff00ff"/>
   </g>
   <g id="patch_85">
    <path d="M 653.04 427.824 
L 681.12 427.824 
L 681.12 317.616 
L 653.04 317.616 
z
" clip-path="url(#p58efbc1d4a)" style="fill: #be4bb5"/>
   </g>
   <g id="patch_86">
    <path d="M 681.12 427.824 
L 709.2 427.824 
L 709.2 317.616 
L 681.12 317.616 
z
" clip-path="url(#p58efbc1d4a)" style="fill: #f20d7c"/>
   </g>
   <g id="patch_87">
    <path d="M 709.2 427.824 
L 737.28 427.824 
L 737.28 317.616 
L 709.2 317.616 
z
" clip-path="url(#p58efbc1d4a)" style="fill: #9a244f"/>
   </g>
   <g id="patch_88">
    <path d="M 737.28 427.824 
L 765.36 427.824 
L 765.36 317.616 
L 737.28 317.616 
z
" clip-path="url(#p58efbc1d4a)" style="fill: #171213"/>
   </g>
   <g id="patch_89">
    <path d="M 765.36 427.824 
L 793.44 427.824 
L 793.44 317.616 
L 765.36 317.616 
z
" clip-path="url(#p58efbc1d4a)" style="fill: #200207"/>
   </g>
   <g id="patch_90">
    <path d="M 793.44 427.824 
L 821.52 427.824 
L 821.52 317.616 
L 793.44 317.616 
z
" clip-path="url(#p58efbc1d4a)" style="fill: #b34752"/>
   </g>
   <g id="patch_91">
    <path d="M 821.52 427.824 
L 849.6 427.824 
L 849.6 317.616 
L 821.52 317.616 
z
" clip-path="url(#p58efbc1d4a)" style="fill: #9e0009"/>
   </g>
   <g id="text_3">
    <!-- Dataset for Anger -->
    <g transform="translate(7.2 311.616) scale(0.12 -0.12)">
     <defs>
      <path id="DejaVuSans-41" d="M 2188 4044 
L 1331 1722 
L 3047 1722 
L 2188 4044 
z
M 1831 4666 
L 2547 4666 
L 4325 0 
L 3669 0 
L 3244 1197 
L 1141 1197 
L 716 0 
L 50 0 
L 1831 4666 
z
" transform="scale(0.015625)"/>
      <path id="DejaVuSans-6e" d="M 3513 2113 
L 3513 0 
L 2938 0 
L 2938 2094 
Q 2938 2591 2744 2837 
Q 2550 3084 2163 3084 
Q 1697 3084 1428 2787 
Q 1159 2491 1159 1978 
L 1159 0 
L 581 0 
L 581 3500 
L 1159 3500 
L 1159 2956 
Q 1366 3272 1645 3428 
Q 1925 3584 2291 3584 
Q 2894 3584 3203 3211 
Q 3513 2838 3513 2113 
z
" transform="scale(0.015625)"/>
      <path id="DejaVuSans-67" d="M 2906 1791 
Q 2906 2416 2648 2759 
Q 2391 3103 1925 3103 
Q 1463 3103 1205 2759 
Q 947 2416 947 1791 
Q 947 1169 1205 825 
Q 1463 481 1925 481 
Q 2391 481 2648 825 
Q 2906 1169 2906 1791 
z
M 3481 434 
Q 3481 -459 3084 -895 
Q 2688 -1331 1869 -1331 
Q 1566 -1331 1297 -1286 
Q 1028 -1241 775 -1147 
L 775 -588 
Q 1028 -725 1275 -790 
Q 1522 -856 1778 -856 
Q 2344 -856 2625 -561 
Q 2906 -266 2906 331 
L 2906 616 
Q 2728 306 2450 153 
Q 2172 0 1784 0 
Q 1141 0 747 490 
Q 353 981 353 1791 
Q 353 2603 747 3093 
Q 1141 3584 1784 3584 
Q 2172 3584 2450 3431 
Q 2728 3278 2906 2969 
L 2906 3500 
L 3481 3500 
L 3481 434 
z
" transform="scale(0.015625)"/>
     </defs>
     <use xlink:href="#DejaVuSans-44"/>
     <use xlink:href="#DejaVuSans-61" transform="translate(77.001953 0)"/>
     <use xlink:href="#DejaVuSans-74" transform="translate(138.28125 0)"/>
     <use xlink:href="#DejaVuSans-61" transform="translate(177.490234 0)"/>
     <use xlink:href="#DejaVuSans-73" transform="translate(238.769531 0)"/>
     <use xlink:href="#DejaVuSans-65" transform="translate(290.869141 0)"/>
     <use xlink:href="#DejaVuSans-74" transform="translate(352.392578 0)"/>
     <use xlink:href="#DejaVuSans-20" transform="translate(391.601562 0)"/>
     <use xlink:href="#DejaVuSans-66" transform="translate(423.388672 0)"/>
     <use xlink:href="#DejaVuSans-6f" transform="translate(458.59375 0)"/>
     <use xlink:href="#DejaVuSans-72" transform="translate(519.775391 0)"/>
     <use xlink:href="#DejaVuSans-20" transform="translate(560.888672 0)"/>
     <use xlink:href="#DejaVuSans-41" transform="translate(592.675781 0)"/>
     <use xlink:href="#DejaVuSans-6e" transform="translate(661.083984 0)"/>
     <use xlink:href="#DejaVuSans-67" transform="translate(724.462891 0)"/>
     <use xlink:href="#DejaVuSans-65" transform="translate(787.939453 0)"/>
     <use xlink:href="#DejaVuSans-72" transform="translate(849.462891 0)"/>
    </g>
   </g>
  </g>
  <g id="axes_4">
   <g id="patch_92">
    <path d="M 7.2 564.912 
L 35.28 564.912 
L 35.28 454.704 
L 7.2 454.704 
z
" clip-path="url(#pbdbeda8674)"/>
   </g>
   <g id="patch_93">
    <path d="M 35.28 564.912 
L 63.36 564.912 
L 63.36 454.704 
L 35.28 454.704 
z
" clip-path="url(#pbdbeda8674)"/>
   </g>
   <g id="patch_94">
    <path d="M 63.36 564.912 
L 91.44 564.912 
L 91.44 454.704 
L 63.36 454.704 
z
" clip-path="url(#pbdbeda8674)"/>
   </g>
   <g id="patch_95">
    <path d="M 91.44 564.912 
L 119.52 564.912 
L 119.52 454.704 
L 91.44 454.704 
z
" clip-path="url(#pbdbeda8674)"/>
   </g>
   <g id="patch_96">
    <path d="M 119.52 564.912 
L 147.6 564.912 
L 147.6 454.704 
L 119.52 454.704 
z
" clip-path="url(#pbdbeda8674)"/>
   </g>
   <g id="patch_97">
    <path d="M 147.6 564.912 
L 175.68 564.912 
L 175.68 454.704 
L 147.6 454.704 
z
" clip-path="url(#pbdbeda8674)"/>
   </g>
   <g id="patch_98">
    <path d="M 175.68 564.912 
L 203.76 564.912 
L 203.76 454.704 
L 175.68 454.704 
z
" clip-path="url(#pbdbeda8674)"/>
   </g>
   <g id="patch_99">
    <path d="M 203.76 564.912 
L 231.84 564.912 
L 231.84 454.704 
L 203.76 454.704 
z
" clip-path="url(#pbdbeda8674)" style="fill: #646464"/>
   </g>
   <g id="patch_100">
    <path d="M 231.84 564.912 
L 259.92 564.912 
L 259.92 454.704 
L 231.84 454.704 
z
" clip-path="url(#pbdbeda8674)" style="fill: #bdbdbd"/>
   </g>
   <g id="patch_101">
    <path d="M 259.92 564.912 
L 288 564.912 
L 288 454.704 
L 259.92 454.704 
z
" clip-path="url(#pbdbeda8674)" style="fill: #ffffff"/>
   </g>
   <g id="patch_102">
    <path d="M 288 564.912 
L 316.08 564.912 
L 316.08 454.704 
L 288 454.704 
z
" clip-path="url(#pbdbeda8674)" style="fill: #ffffff"/>
   </g>
   <g id="patch_103">
    <path d="M 316.08 564.912 
L 344.16 564.912 
L 344.16 454.704 
L 316.08 454.704 
z
" clip-path="url(#pbdbeda8674)" style="fill: #ffffff"/>
   </g>
   <g id="patch_104">
    <path d="M 344.16 564.912 
L 372.24 564.912 
L 372.24 454.704 
L 344.16 454.704 
z
" clip-path="url(#pbdbeda8674)" style="fill: #1a1919"/>
   </g>
   <g id="patch_105">
    <path d="M 372.24 564.912 
L 400.32 564.912 
L 400.32 454.704 
L 372.24 454.704 
z
" clip-path="url(#pbdbeda8674)" style="fill: #161313"/>
   </g>
   <g id="patch_106">
    <path d="M 400.32 564.912 
L 428.4 564.912 
L 428.4 454.704 
L 400.32 454.704 
z
" clip-path="url(#pbdbeda8674)" style="fill: #b90404"/>
   </g>
   <g id="patch_107">
    <path d="M 428.4 564.912 
L 456.48 564.912 
L 456.48 454.704 
L 428.4 454.704 
z
" clip-path="url(#pbdbeda8674)" style="fill: #ff6251"/>
   </g>
   <g id="patch_108">
    <path d="M 456.48 564.912 
L 484.56 564.912 
L 484.56 454.704 
L 456.48 454.704 
z
" clip-path="url(#pbdbeda8674)" style="fill: #fffb00"/>
   </g>
   <g id="patch_109">
    <path d="M 484.56 564.912 
L 512.64 564.912 
L 512.64 454.704 
L 484.56 454.704 
z
" clip-path="url(#pbdbeda8674)" style="fill: #3e3e37"/>
   </g>
   <g id="patch_110">
    <path d="M 512.64 564.912 
L 540.72 564.912 
L 540.72 454.704 
L 512.64 454.704 
z
" clip-path="url(#pbdbeda8674)" style="fill: #061c14"/>
   </g>
   <g id="patch_111">
    <path d="M 540.72 564.912 
L 568.8 564.912 
L 568.8 454.704 
L 540.72 454.704 
z
" clip-path="url(#pbdbeda8674)" style="fill: #006b59"/>
   </g>
   <g id="patch_112">
    <path d="M 568.8 564.912 
L 596.88 564.912 
L 596.88 454.704 
L 568.8 454.704 
z
" clip-path="url(#pbdbeda8674)" style="fill: #3e7393"/>
   </g>
   <g id="patch_113">
    <path d="M 596.88 564.912 
L 624.96 564.912 
L 624.96 454.704 
L 596.88 454.704 
z
" clip-path="url(#pbdbeda8674)" style="fill: #012f7b"/>
   </g>
   <g id="patch_114">
    <path d="M 624.96 564.912 
L 653.04 564.912 
L 653.04 454.704 
L 624.96 454.704 
z
" clip-path="url(#pbdbeda8674)" style="fill: #3200cc"/>
   </g>
   <g id="patch_115">
    <path d="M 653.04 564.912 
L 681.12 564.912 
L 681.12 454.704 
L 653.04 454.704 
z
" clip-path="url(#pbdbeda8674)" style="fill: #714ca9"/>
   </g>
   <g id="patch_116">
    <path d="M 681.12 564.912 
L 709.2 564.912 
L 709.2 454.704 
L 681.12 454.704 
z
" clip-path="url(#pbdbeda8674)" style="fill: #170236"/>
   </g>
   <g id="patch_117">
    <path d="M 709.2 564.912 
L 737.28 564.912 
L 737.28 454.704 
L 709.2 454.704 
z
" clip-path="url(#pbdbeda8674)" style="fill: #37283e"/>
   </g>
   <g id="patch_118">
    <path d="M 737.28 564.912 
L 765.36 564.912 
L 765.36 454.704 
L 737.28 454.704 
z
" clip-path="url(#pbdbeda8674)" style="fill: #9647b3"/>
   </g>
   <g id="patch_119">
    <path d="M 765.36 564.912 
L 793.44 564.912 
L 793.44 454.704 
L 765.36 454.704 
z
" clip-path="url(#pbdbeda8674)" style="fill: #be4bb5"/>
   </g>
   <g id="patch_120">
    <path d="M 793.44 564.912 
L 821.52 564.912 
L 821.52 454.704 
L 793.44 454.704 
z
" clip-path="url(#pbdbeda8674)" style="fill: #171213"/>
   </g>
   <g id="patch_121">
    <path d="M 821.52 564.912 
L 849.6 564.912 
L 849.6 454.704 
L 821.52 454.704 
z
" clip-path="url(#pbdbeda8674)" style="fill: #200207"/>
   </g>
   <g id="text_4">
    <!-- Dataset for Fear -->
    <g transform="translate(7.2 448.704) scale(0.12 -0.12)">
     <defs>
      <path id="DejaVuSans-46" d="M 628 4666 
L 3309 4666 
L 3309 4134 
L 1259 4134 
L 1259 2759 
L 3109 2759 
L 3109 2228 
L 1259 2228 
L 1259 0 
L 628 0 
L 628 4666 
z
" transform="scale(0.015625)"/>
     </defs>
     <use xlink:href="#DejaVuSans-44"/>
     <use xlink:href="#DejaVuSans-61" transform="translate(77.001953 0)"/>
     <use xlink:href="#DejaVuSans-74" transform="translate(138.28125 0)"/>
     <use xlink:href="#DejaVuSans-61" transform="translate(177.490234 0)"/>
     <use xlink:href="#DejaVuSans-73" transform="translate(238.769531 0)"/>
     <use xlink:href="#DejaVuSans-65" transform="translate(290.869141 0)"/>
     <use xlink:href="#DejaVuSans-74" transform="translate(352.392578 0)"/>
     <use xlink:href="#DejaVuSans-20" transform="translate(391.601562 0)"/>
     <use xlink:href="#DejaVuSans-66" transform="translate(423.388672 0)"/>
     <use xlink:href="#DejaVuSans-6f" transform="translate(458.59375 0)"/>
     <use xlink:href="#DejaVuSans-72" transform="translate(519.775391 0)"/>
     <use xlink:href="#DejaVuSans-20" transform="translate(560.888672 0)"/>
     <use xlink:href="#DejaVuSans-46" transform="translate(592.675781 0)"/>
     <use xlink:href="#DejaVuSans-65" transform="translate(644.695312 0)"/>
     <use xlink:href="#DejaVuSans-61" transform="translate(706.21875 0)"/>
     <use xlink:href="#DejaVuSans-72" transform="translate(767.498047 0)"/>
    </g>
   </g>
  </g>
  <g id="axes_5">
   <g id="patch_122">
    <path d="M 7.2 702 
L 35.28 702 
L 35.28 591.792 
L 7.2 591.792 
z
" clip-path="url(#p00cd214f65)"/>
   </g>
   <g id="patch_123">
    <path d="M 35.28 702 
L 63.36 702 
L 63.36 591.792 
L 35.28 591.792 
z
" clip-path="url(#p00cd214f65)"/>
   </g>
   <g id="patch_124">
    <path d="M 63.36 702 
L 91.44 702 
L 91.44 591.792 
L 63.36 591.792 
z
" clip-path="url(#p00cd214f65)" style="fill: #646464"/>
   </g>
   <g id="patch_125">
    <path d="M 91.44 702 
L 119.52 702 
L 119.52 591.792 
L 91.44 591.792 
z
" clip-path="url(#p00cd214f65)" style="fill: #ffffff"/>
   </g>
   <g id="patch_126">
    <path d="M 119.52 702 
L 147.6 702 
L 147.6 591.792 
L 119.52 591.792 
z
" clip-path="url(#p00cd214f65)" style="fill: #ffffff"/>
   </g>
   <g id="patch_127">
    <path d="M 147.6 702 
L 175.68 702 
L 175.68 591.792 
L 147.6 591.792 
z
" clip-path="url(#p00cd214f65)" style="fill: #ffffff"/>
   </g>
   <g id="patch_128">
    <path d="M 175.68 702 
L 203.76 702 
L 203.76 591.792 
L 175.68 591.792 
z
" clip-path="url(#p00cd214f65)" style="fill: #1a1919"/>
   </g>
   <g id="patch_129">
    <path d="M 203.76 702 
L 231.84 702 
L 231.84 591.792 
L 203.76 591.792 
z
" clip-path="url(#p00cd214f65)" style="fill: #9e0000"/>
   </g>
   <g id="patch_130">
    <path d="M 231.84 702 
L 259.92 702 
L 259.92 591.792 
L 231.84 591.792 
z
" clip-path="url(#p00cd214f65)" style="fill: #d58400"/>
   </g>
   <g id="patch_131">
    <path d="M 259.92 702 
L 288 702 
L 288 591.792 
L 259.92 591.792 
z
" clip-path="url(#p00cd214f65)" style="fill: #563d00"/>
   </g>
   <g id="patch_132">
    <path d="M 288 702 
L 316.08 702 
L 316.08 591.792 
L 288 591.792 
z
" clip-path="url(#p00cd214f65)" style="fill: #221b02"/>
   </g>
   <g id="patch_133">
    <path d="M 316.08 702 
L 344.16 702 
L 344.16 591.792 
L 316.08 591.792 
z
" clip-path="url(#p00cd214f65)" style="fill: #fff700"/>
   </g>
   <g id="patch_134">
    <path d="M 344.16 702 
L 372.24 702 
L 372.24 591.792 
L 344.16 591.792 
z
" clip-path="url(#p00cd214f65)" style="fill: #fffb00"/>
   </g>
   <g id="patch_135">
    <path d="M 372.24 702 
L 400.32 702 
L 400.32 591.792 
L 372.24 591.792 
z
" clip-path="url(#p00cd214f65)" style="fill: #90901d"/>
   </g>
   <g id="patch_136">
    <path d="M 400.32 702 
L 428.4 702 
L 428.4 591.792 
L 400.32 591.792 
z
" clip-path="url(#p00cd214f65)" style="fill: #ffff00"/>
   </g>
   <g id="patch_137">
    <path d="M 428.4 702 
L 456.48 702 
L 456.48 591.792 
L 428.4 591.792 
z
" clip-path="url(#p00cd214f65)" style="fill: #c6ff80"/>
   </g>
   <g id="patch_138">
    <path d="M 456.48 702 
L 484.56 702 
L 484.56 591.792 
L 456.48 591.792 
z
" clip-path="url(#p00cd214f65)" style="fill: #121c06"/>
   </g>
   <g id="patch_139">
    <path d="M 484.56 702 
L 512.64 702 
L 512.64 591.792 
L 484.56 591.792 
z
" clip-path="url(#p00cd214f65)" style="fill: #3b651f"/>
   </g>
   <g id="patch_140">
    <path d="M 512.64 702 
L 540.72 702 
L 540.72 591.792 
L 512.64 591.792 
z
" clip-path="url(#p00cd214f65)" style="fill: #9ee17a"/>
   </g>
   <g id="patch_141">
    <path d="M 540.72 702 
L 568.8 702 
L 568.8 591.792 
L 540.72 591.792 
z
" clip-path="url(#p00cd214f65)" style="fill: #99ff7b"/>
   </g>
   <g id="patch_142">
    <path d="M 568.8 702 
L 596.88 702 
L 596.88 591.792 
L 568.8 591.792 
z
" clip-path="url(#p00cd214f65)" style="fill: #174214"/>
   </g>
   <g id="patch_143">
    <path d="M 596.88 702 
L 624.96 702 
L 624.96 591.792 
L 596.88 591.792 
z
" clip-path="url(#p00cd214f65)" style="fill: #09460d"/>
   </g>
   <g id="patch_144">
    <path d="M 624.96 702 
L 653.04 702 
L 653.04 591.792 
L 624.96 591.792 
z
" clip-path="url(#p00cd214f65)" style="fill: #62cbb6"/>
   </g>
   <g id="patch_145">
    <path d="M 653.04 702 
L 681.12 702 
L 681.12 591.792 
L 653.04 591.792 
z
" clip-path="url(#p00cd214f65)" style="fill: #00ffff"/>
   </g>
   <g id="patch_146">
    <path d="M 681.12 702 
L 709.2 702 
L 709.2 591.792 
L 681.12 591.792 
z
" clip-path="url(#p00cd214f65)" style="fill: #bfccd4"/>
   </g>
   <g id="patch_147">
    <path d="M 709.2 702 
L 737.28 702 
L 737.28 591.792 
L 709.2 591.792 
z
" clip-path="url(#p00cd214f65)" style="fill: #3d365e"/>
   </g>
   <g id="patch_148">
    <path d="M 737.28 702 
L 765.36 702 
L 765.36 591.792 
L 737.28 591.792 
z
" clip-path="url(#p00cd214f65)" style="fill: #be0aff"/>
   </g>
   <g id="patch_149">
    <path d="M 765.36 702 
L 793.44 702 
L 793.44 591.792 
L 765.36 591.792 
z
" clip-path="url(#p00cd214f65)" style="fill: #fb00fa"/>
   </g>
   <g id="patch_150">
    <path d="M 793.44 702 
L 821.52 702 
L 821.52 591.792 
L 793.44 591.792 
z
" clip-path="url(#p00cd214f65)" style="fill: #be4bb5"/>
   </g>
   <g id="patch_151">
    <path d="M 821.52 702 
L 849.6 702 
L 849.6 591.792 
L 821.52 591.792 
z
" clip-path="url(#p00cd214f65)" style="fill: #680845"/>
   </g>
   <g id="text_5">
    <!-- Dataset for Disgust -->
    <g transform="translate(7.2 585.792) scale(0.12 -0.12)">
     <defs>
      <path id="DejaVuSans-69" d="M 603 3500 
L 1178 3500 
L 1178 0 
L 603 0 
L 603 3500 
z
M 603 4863 
L 1178 4863 
L 1178 4134 
L 603 4134 
L 603 4863 
z
" transform="scale(0.015625)"/>
      <path id="DejaVuSans-75" d="M 544 1381 
L 544 3500 
L 1119 3500 
L 1119 1403 
Q 1119 906 1312 657 
Q 1506 409 1894 409 
Q 2359 409 2629 706 
Q 2900 1003 2900 1516 
L 2900 3500 
L 3475 3500 
L 3475 0 
L 2900 0 
L 2900 538 
Q 2691 219 2414 64 
Q 2138 -91 1772 -91 
Q 1169 -91 856 284 
Q 544 659 544 1381 
z
M 1991 3584 
L 1991 3584 
z
" transform="scale(0.015625)"/>
     </defs>
     <use xlink:href="#DejaVuSans-44"/>
     <use xlink:href="#DejaVuSans-61" transform="translate(77.001953 0)"/>
     <use xlink:href="#DejaVuSans-74" transform="translate(138.28125 0)"/>
     <use xlink:href="#DejaVuSans-61" transform="translate(177.490234 0)"/>
     <use xlink:href="#DejaVuSans-73" transform="translate(238.769531 0)"/>
     <use xlink:href="#DejaVuSans-65" transform="translate(290.869141 0)"/>
     <use xlink:href="#DejaVuSans-74" transform="translate(352.392578 0)"/>
     <use xlink:href="#DejaVuSans-20" transform="translate(391.601562 0)"/>
     <use xlink:href="#DejaVuSans-66" transform="translate(423.388672 0)"/>
     <use xlink:href="#DejaVuSans-6f" transform="translate(458.59375 0)"/>
     <use xlink:href="#DejaVuSans-72" transform="translate(519.775391 0)"/>
     <use xlink:href="#DejaVuSans-20" transform="translate(560.888672 0)"/>
     <use xlink:href="#DejaVuSans-44" transform="translate(592.675781 0)"/>
     <use xlink:href="#DejaVuSans-69" transform="translate(669.677734 0)"/>
     <use xlink:href="#DejaVuSans-73" transform="translate(697.460938 0)"/>
     <use xlink:href="#DejaVuSans-67" transform="translate(749.560547 0)"/>
     <use xlink:href="#DejaVuSans-75" transform="translate(813.037109 0)"/>
     <use xlink:href="#DejaVuSans-73" transform="translate(876.416016 0)"/>
     <use xlink:href="#DejaVuSans-74" transform="translate(928.515625 0)"/>
    </g>
   </g>
  </g>
  <g id="text_6">
   <!-- Color Grid of Inner Ring Color -->
   <g transform="translate(340.178437 16.318125) scale(0.12 -0.12)">
    <defs>
     <path id="DejaVuSans-43" d="M 4122 4306 
L 4122 3641 
Q 3803 3938 3442 4084 
Q 3081 4231 2675 4231 
Q 1875 4231 1450 3742 
Q 1025 3253 1025 2328 
Q 1025 1406 1450 917 
Q 1875 428 2675 428 
Q 3081 428 3442 575 
Q 3803 722 4122 1019 
L 4122 359 
Q 3791 134 3420 21 
Q 3050 -91 2638 -91 
Q 1578 -91 968 557 
Q 359 1206 359 2328 
Q 359 3453 968 4101 
Q 1578 4750 2638 4750 
Q 3056 4750 3426 4639 
Q 3797 4528 4122 4306 
z
" transform="scale(0.015625)"/>
     <path id="DejaVuSans-6c" d="M 603 4863 
L 1178 4863 
L 1178 0 
L 603 0 
L 603 4863 
z
" transform="scale(0.015625)"/>
     <path id="DejaVuSans-47" d="M 3809 666 
L 3809 1919 
L 2778 1919 
L 2778 2438 
L 4434 2438 
L 4434 434 
Q 4069 175 3628 42 
Q 3188 -91 2688 -91 
Q 1594 -91 976 548 
Q 359 1188 359 2328 
Q 359 3472 976 4111 
Q 1594 4750 2688 4750 
Q 3144 4750 3555 4637 
Q 3966 4525 4313 4306 
L 4313 3634 
Q 3963 3931 3569 4081 
Q 3175 4231 2741 4231 
Q 1884 4231 1454 3753 
Q 1025 3275 1025 2328 
Q 1025 1384 1454 906 
Q 1884 428 2741 428 
Q 3075 428 3337 486 
Q 3600 544 3809 666 
z
" transform="scale(0.015625)"/>
     <path id="DejaVuSans-49" d="M 628 4666 
L 1259 4666 
L 1259 0 
L 628 0 
L 628 4666 
z
" transform="scale(0.015625)"/>
     <path id="DejaVuSans-52" d="M 2841 2188 
Q 3044 2119 3236 1894 
Q 3428 1669 3622 1275 
L 4263 0 
L 3584 0 
L 2988 1197 
Q 2756 1666 2539 1819 
Q 2322 1972 1947 1972 
L 1259 1972 
L 1259 0 
L 628 0 
L 628 4666 
L 2053 4666 
Q 2853 4666 3247 4331 
Q 3641 3997 3641 3322 
Q 3641 2881 3436 2590 
Q 3231 2300 2841 2188 
z
M 1259 4147 
L 1259 2491 
L 2053 2491 
Q 2509 2491 2742 2702 
Q 2975 2913 2975 3322 
Q 2975 3731 2742 3939 
Q 2509 4147 2053 4147 
L 1259 4147 
z
" transform="scale(0.015625)"/>
    </defs>
    <use xlink:href="#DejaVuSans-43"/>
    <use xlink:href="#DejaVuSans-6f" transform="translate(69.824219 0)"/>
    <use xlink:href="#DejaVuSans-6c" transform="translate(131.005859 0)"/>
    <use xlink:href="#DejaVuSans-6f" transform="translate(158.789062 0)"/>
    <use xlink:href="#DejaVuSans-72" transform="translate(219.970703 0)"/>
    <use xlink:href="#DejaVuSans-20" transform="translate(261.083984 0)"/>
    <use xlink:href="#DejaVuSans-47" transform="translate(292.871094 0)"/>
    <use xlink:href="#DejaVuSans-72" transform="translate(370.361328 0)"/>
    <use xlink:href="#DejaVuSans-69" transform="translate(411.474609 0)"/>
    <use xlink:href="#DejaVuSans-64" transform="translate(439.257812 0)"/>
    <use xlink:href="#DejaVuSans-20" transform="translate(502.734375 0)"/>
    <use xlink:href="#DejaVuSans-6f" transform="translate(534.521484 0)"/>
    <use xlink:href="#DejaVuSans-66" transform="translate(595.703125 0)"/>
    <use xlink:href="#DejaVuSans-20" transform="translate(630.908203 0)"/>
    <use xlink:href="#DejaVuSans-49" transform="translate(662.695312 0)"/>
    <use xlink:href="#DejaVuSans-6e" transform="translate(692.1875 0)"/>
    <use xlink:href="#DejaVuSans-6e" transform="translate(755.566406 0)"/>
    <use xlink:href="#DejaVuSans-65" transform="translate(818.945312 0)"/>
    <use xlink:href="#DejaVuSans-72" transform="translate(880.46875 0)"/>
    <use xlink:href="#DejaVuSans-20" transform="translate(921.582031 0)"/>
    <use xlink:href="#DejaVuSans-52" transform="translate(953.369141 0)"/>
    <use xlink:href="#DejaVuSans-69" transform="translate(1022.851562 0)"/>
    <use xlink:href="#DejaVuSans-6e" transform="translate(1050.634766 0)"/>
    <use xlink:href="#DejaVuSans-67" transform="translate(1114.013672 0)"/>
    <use xlink:href="#DejaVuSans-20" transform="translate(1177.490234 0)"/>
    <use xlink:href="#DejaVuSans-43" transform="translate(1209.277344 0)"/>
    <use xlink:href="#DejaVuSans-6f" transform="translate(1279.101562 0)"/>
    <use xlink:href="#DejaVuSans-6c" transform="translate(1340.283203 0)"/>
    <use xlink:href="#DejaVuSans-6f" transform="translate(1368.066406 0)"/>
    <use xlink:href="#DejaVuSans-72" transform="translate(1429.248047 0)"/>
   </g>
  </g>
 </g>
 <defs>
  <clipPath id="p5d5dbe868f">
   <rect x="7.2" y="43.44" width="842.4" height="110.208"/>
  </clipPath>
  <clipPath id="p68fd60dce9">
   <rect x="7.2" y="180.528" width="842.4" height="110.208"/>
  </clipPath>
  <clipPath id="p58efbc1d4a">
   <rect x="7.2" y="317.616" width="842.4" height="110.208"/>
  </clipPath>
  <clipPath id="pbdbeda8674">
   <rect x="7.2" y="454.704" width="842.4" height="110.208"/>
  </clipPath>
  <clipPath id="p00cd214f65">
   <rect x="7.2" y="591.792" width="842.4" height="110.208"/>
  </clipPath>
 </defs>
</svg>
