<?xml version="1.0" encoding="utf-8" standalone="no"?>
<!DOCTYPE svg PUBLIC "-//W3C//DTD SVG 1.1//EN"
  "http://www.w3.org/Graphics/SVG/1.1/DTD/svg11.dtd">
<svg xmlns:xlink="http://www.w3.org/1999/xlink" width="717.403125pt" height="392.514375pt" viewBox="0 0 717.403125 392.514375" xmlns="http://www.w3.org/2000/svg" version="1.1">
 <metadata>
  <rdf:RDF xmlns:dc="http://purl.org/dc/elements/1.1/" xmlns:cc="http://creativecommons.org/ns#" xmlns:rdf="http://www.w3.org/1999/02/22-rdf-syntax-ns#">
   <cc:Work>
    <dc:type rdf:resource="http://purl.org/dc/dcmitype/StillImage"/>
    <dc:date>2025-02-01T00:57:35.637246</dc:date>
    <dc:format>image/svg+xml</dc:format>
    <dc:creator>
     <cc:Agent>
      <dc:title>Matplotlib v3.10.0, https://matplotlib.org/</dc:title>
     </cc:Agent>
    </dc:creator>
   </cc:Work>
  </rdf:RDF>
 </metadata>
 <defs>
  <style type="text/css">*{stroke-linejoin: round; stroke-linecap: butt}</style>
 </defs>
 <g id="figure_1">
  <g id="patch_1">
   <path d="M 0 392.514375 
L 717.403125 392.514375 
L 717.403125 0 
L 0 0 
z
" style="fill: #ffffff"/>
  </g>
  <g id="axes_1">
   <g id="patch_2">
    <path d="M 40.603125 354.958125 
L 710.203125 354.958125 
L 710.203125 22.318125 
L 40.603125 22.318125 
z
" style="fill: #ffffff"/>
   </g>
   <g id="matplotlib.axis_1">
    <g id="xtick_1">
     <g id="line2d_1">
      <path d="M 138.675852 354.958125 
L 138.675852 22.318125 
" clip-path="url(#pab2feef2d5)" style="fill: none; stroke: #b0b0b0; stroke-width: 0.8; stroke-linecap: square"/>
     </g>
     <g id="line2d_2">
      <defs>
       <path id="m2fae5db3f1" d="M 0 0 
L 0 3.5 
" style="stroke: #000000; stroke-width: 0.8"/>
      </defs>
      <g>
       <use xlink:href="#m2fae5db3f1" x="138.675852" y="354.958125" style="stroke: #000000; stroke-width: 0.8"/>
      </g>
     </g>
     <g id="text_1">
      <!-- 0.2 -->
      <g transform="translate(130.72429 369.556562) scale(0.1 -0.1)">
       <defs>
        <path id="DejaVuSans-30" d="M 2034 4250 
Q 1547 4250 1301 3770 
Q 1056 3291 1056 2328 
Q 1056 1369 1301 889 
Q 1547 409 2034 409 
Q 2525 409 2770 889 
Q 3016 1369 3016 2328 
Q 3016 3291 2770 3770 
Q 2525 4250 2034 4250 
z
M 2034 4750 
Q 2819 4750 3233 4129 
Q 3647 3509 3647 2328 
Q 3647 1150 3233 529 
Q 2819 -91 2034 -91 
Q 1250 -91 836 529 
Q 422 1150 422 2328 
Q 422 3509 836 4129 
Q 1250 4750 2034 4750 
z
" transform="scale(0.015625)"/>
        <path id="DejaVuSans-2e" d="M 684 794 
L 1344 794 
L 1344 0 
L 684 0 
L 684 794 
z
" transform="scale(0.015625)"/>
        <path id="DejaVuSans-32" d="M 1228 531 
L 3431 531 
L 3431 0 
L 469 0 
L 469 531 
Q 828 903 1448 1529 
Q 2069 2156 2228 2338 
Q 2531 2678 2651 2914 
Q 2772 3150 2772 3378 
Q 2772 3750 2511 3984 
Q 2250 4219 1831 4219 
Q 1534 4219 1204 4116 
Q 875 4013 500 3803 
L 500 4441 
Q 881 4594 1212 4672 
Q 1544 4750 1819 4750 
Q 2544 4750 2975 4387 
Q 3406 4025 3406 3419 
Q 3406 3131 3298 2873 
Q 3191 2616 2906 2266 
Q 2828 2175 2409 1742 
Q 1991 1309 1228 531 
z
" transform="scale(0.015625)"/>
       </defs>
       <use xlink:href="#DejaVuSans-30"/>
       <use xlink:href="#DejaVuSans-2e" transform="translate(63.623047 0)"/>
       <use xlink:href="#DejaVuSans-32" transform="translate(95.410156 0)"/>
      </g>
     </g>
    </g>
    <g id="xtick_2">
     <g id="line2d_3">
      <path d="M 273.94858 354.958125 
L 273.94858 22.318125 
" clip-path="url(#pab2feef2d5)" style="fill: none; stroke: #b0b0b0; stroke-width: 0.8; stroke-linecap: square"/>
     </g>
     <g id="line2d_4">
      <g>
       <use xlink:href="#m2fae5db3f1" x="273.94858" y="354.958125" style="stroke: #000000; stroke-width: 0.8"/>
      </g>
     </g>
     <g id="text_2">
      <!-- 0.4 -->
      <g transform="translate(265.997017 369.556562) scale(0.1 -0.1)">
       <defs>
        <path id="DejaVuSans-34" d="M 2419 4116 
L 825 1625 
L 2419 1625 
L 2419 4116 
z
M 2253 4666 
L 3047 4666 
L 3047 1625 
L 3713 1625 
L 3713 1100 
L 3047 1100 
L 3047 0 
L 2419 0 
L 2419 1100 
L 313 1100 
L 313 1709 
L 2253 4666 
z
" transform="scale(0.015625)"/>
       </defs>
       <use xlink:href="#DejaVuSans-30"/>
       <use xlink:href="#DejaVuSans-2e" transform="translate(63.623047 0)"/>
       <use xlink:href="#DejaVuSans-34" transform="translate(95.410156 0)"/>
      </g>
     </g>
    </g>
    <g id="xtick_3">
     <g id="line2d_5">
      <path d="M 409.221307 354.958125 
L 409.221307 22.318125 
" clip-path="url(#pab2feef2d5)" style="fill: none; stroke: #b0b0b0; stroke-width: 0.8; stroke-linecap: square"/>
     </g>
     <g id="line2d_6">
      <g>
       <use xlink:href="#m2fae5db3f1" x="409.221307" y="354.958125" style="stroke: #000000; stroke-width: 0.8"/>
      </g>
     </g>
     <g id="text_3">
      <!-- 0.6 -->
      <g transform="translate(401.269744 369.556562) scale(0.1 -0.1)">
       <defs>
        <path id="DejaVuSans-36" d="M 2113 2584 
Q 1688 2584 1439 2293 
Q 1191 2003 1191 1497 
Q 1191 994 1439 701 
Q 1688 409 2113 409 
Q 2538 409 2786 701 
Q 3034 994 3034 1497 
Q 3034 2003 2786 2293 
Q 2538 2584 2113 2584 
z
M 3366 4563 
L 3366 3988 
Q 3128 4100 2886 4159 
Q 2644 4219 2406 4219 
Q 1781 4219 1451 3797 
Q 1122 3375 1075 2522 
Q 1259 2794 1537 2939 
Q 1816 3084 2150 3084 
Q 2853 3084 3261 2657 
Q 3669 2231 3669 1497 
Q 3669 778 3244 343 
Q 2819 -91 2113 -91 
Q 1303 -91 875 529 
Q 447 1150 447 2328 
Q 447 3434 972 4092 
Q 1497 4750 2381 4750 
Q 2619 4750 2861 4703 
Q 3103 4656 3366 4563 
z
" transform="scale(0.015625)"/>
       </defs>
       <use xlink:href="#DejaVuSans-30"/>
       <use xlink:href="#DejaVuSans-2e" transform="translate(63.623047 0)"/>
       <use xlink:href="#DejaVuSans-36" transform="translate(95.410156 0)"/>
      </g>
     </g>
    </g>
    <g id="xtick_4">
     <g id="line2d_7">
      <path d="M 544.494034 354.958125 
L 544.494034 22.318125 
" clip-path="url(#pab2feef2d5)" style="fill: none; stroke: #b0b0b0; stroke-width: 0.8; stroke-linecap: square"/>
     </g>
     <g id="line2d_8">
      <g>
       <use xlink:href="#m2fae5db3f1" x="544.494034" y="354.958125" style="stroke: #000000; stroke-width: 0.8"/>
      </g>
     </g>
     <g id="text_4">
      <!-- 0.8 -->
      <g transform="translate(536.542472 369.556562) scale(0.1 -0.1)">
       <defs>
        <path id="DejaVuSans-38" d="M 2034 2216 
Q 1584 2216 1326 1975 
Q 1069 1734 1069 1313 
Q 1069 891 1326 650 
Q 1584 409 2034 409 
Q 2484 409 2743 651 
Q 3003 894 3003 1313 
Q 3003 1734 2745 1975 
Q 2488 2216 2034 2216 
z
M 1403 2484 
Q 997 2584 770 2862 
Q 544 3141 544 3541 
Q 544 4100 942 4425 
Q 1341 4750 2034 4750 
Q 2731 4750 3128 4425 
Q 3525 4100 3525 3541 
Q 3525 3141 3298 2862 
Q 3072 2584 2669 2484 
Q 3125 2378 3379 2068 
Q 3634 1759 3634 1313 
Q 3634 634 3220 271 
Q 2806 -91 2034 -91 
Q 1263 -91 848 271 
Q 434 634 434 1313 
Q 434 1759 690 2068 
Q 947 2378 1403 2484 
z
M 1172 3481 
Q 1172 3119 1398 2916 
Q 1625 2713 2034 2713 
Q 2441 2713 2670 2916 
Q 2900 3119 2900 3481 
Q 2900 3844 2670 4047 
Q 2441 4250 2034 4250 
Q 1625 4250 1398 4047 
Q 1172 3844 1172 3481 
z
" transform="scale(0.015625)"/>
       </defs>
       <use xlink:href="#DejaVuSans-30"/>
       <use xlink:href="#DejaVuSans-2e" transform="translate(63.623047 0)"/>
       <use xlink:href="#DejaVuSans-38" transform="translate(95.410156 0)"/>
      </g>
     </g>
    </g>
    <g id="xtick_5">
     <g id="line2d_9">
      <path d="M 679.766761 354.958125 
L 679.766761 22.318125 
" clip-path="url(#pab2feef2d5)" style="fill: none; stroke: #b0b0b0; stroke-width: 0.8; stroke-linecap: square"/>
     </g>
     <g id="line2d_10">
      <g>
       <use xlink:href="#m2fae5db3f1" x="679.766761" y="354.958125" style="stroke: #000000; stroke-width: 0.8"/>
      </g>
     </g>
     <g id="text_5">
      <!-- 1.0 -->
      <g transform="translate(671.815199 369.556562) scale(0.1 -0.1)">
       <defs>
        <path id="DejaVuSans-31" d="M 794 531 
L 1825 531 
L 1825 4091 
L 703 3866 
L 703 4441 
L 1819 4666 
L 2450 4666 
L 2450 531 
L 3481 531 
L 3481 0 
L 794 0 
L 794 531 
z
" transform="scale(0.015625)"/>
       </defs>
       <use xlink:href="#DejaVuSans-31"/>
       <use xlink:href="#DejaVuSans-2e" transform="translate(63.623047 0)"/>
       <use xlink:href="#DejaVuSans-30" transform="translate(95.410156 0)"/>
      </g>
     </g>
    </g>
    <g id="text_6">
     <!-- Values of Noise (Distortion / Disturbance) -->
     <g transform="translate(272.089063 383.234687) scale(0.1 -0.1)">
      <defs>
       <path id="DejaVuSans-56" d="M 1831 0 
L 50 4666 
L 709 4666 
L 2188 738 
L 3669 4666 
L 4325 4666 
L 2547 0 
L 1831 0 
z
" transform="scale(0.015625)"/>
       <path id="DejaVuSans-61" d="M 2194 1759 
Q 1497 1759 1228 1600 
Q 959 1441 959 1056 
Q 959 750 1161 570 
Q 1363 391 1709 391 
Q 2188 391 2477 730 
Q 2766 1069 2766 1631 
L 2766 1759 
L 2194 1759 
z
M 3341 1997 
L 3341 0 
L 2766 0 
L 2766 531 
Q 2569 213 2275 61 
Q 1981 -91 1556 -91 
Q 1019 -91 701 211 
Q 384 513 384 1019 
Q 384 1609 779 1909 
Q 1175 2209 1959 2209 
L 2766 2209 
L 2766 2266 
Q 2766 2663 2505 2880 
Q 2244 3097 1772 3097 
Q 1472 3097 1187 3025 
Q 903 2953 641 2809 
L 641 3341 
Q 956 3463 1253 3523 
Q 1550 3584 1831 3584 
Q 2591 3584 2966 3190 
Q 3341 2797 3341 1997 
z
" transform="scale(0.015625)"/>
       <path id="DejaVuSans-6c" d="M 603 4863 
L 1178 4863 
L 1178 0 
L 603 0 
L 603 4863 
z
" transform="scale(0.015625)"/>
       <path id="DejaVuSans-75" d="M 544 1381 
L 544 3500 
L 1119 3500 
L 1119 1403 
Q 1119 906 1312 657 
Q 1506 409 1894 409 
Q 2359 409 2629 706 
Q 2900 1003 2900 1516 
L 2900 3500 
L 3475 3500 
L 3475 0 
L 2900 0 
L 2900 538 
Q 2691 219 2414 64 
Q 2138 -91 1772 -91 
Q 1169 -91 856 284 
Q 544 659 544 1381 
z
M 1991 3584 
L 1991 3584 
z
" transform="scale(0.015625)"/>
       <path id="DejaVuSans-65" d="M 3597 1894 
L 3597 1613 
L 953 1613 
Q 991 1019 1311 708 
Q 1631 397 2203 397 
Q 2534 397 2845 478 
Q 3156 559 3463 722 
L 3463 178 
Q 3153 47 2828 -22 
Q 2503 -91 2169 -91 
Q 1331 -91 842 396 
Q 353 884 353 1716 
Q 353 2575 817 3079 
Q 1281 3584 2069 3584 
Q 2775 3584 3186 3129 
Q 3597 2675 3597 1894 
z
M 3022 2063 
Q 3016 2534 2758 2815 
Q 2500 3097 2075 3097 
Q 1594 3097 1305 2825 
Q 1016 2553 972 2059 
L 3022 2063 
z
" transform="scale(0.015625)"/>
       <path id="DejaVuSans-73" d="M 2834 3397 
L 2834 2853 
Q 2591 2978 2328 3040 
Q 2066 3103 1784 3103 
Q 1356 3103 1142 2972 
Q 928 2841 928 2578 
Q 928 2378 1081 2264 
Q 1234 2150 1697 2047 
L 1894 2003 
Q 2506 1872 2764 1633 
Q 3022 1394 3022 966 
Q 3022 478 2636 193 
Q 2250 -91 1575 -91 
Q 1294 -91 989 -36 
Q 684 19 347 128 
L 347 722 
Q 666 556 975 473 
Q 1284 391 1588 391 
Q 1994 391 2212 530 
Q 2431 669 2431 922 
Q 2431 1156 2273 1281 
Q 2116 1406 1581 1522 
L 1381 1569 
Q 847 1681 609 1914 
Q 372 2147 372 2553 
Q 372 3047 722 3315 
Q 1072 3584 1716 3584 
Q 2034 3584 2315 3537 
Q 2597 3491 2834 3397 
z
" transform="scale(0.015625)"/>
       <path id="DejaVuSans-20" transform="scale(0.015625)"/>
       <path id="DejaVuSans-6f" d="M 1959 3097 
Q 1497 3097 1228 2736 
Q 959 2375 959 1747 
Q 959 1119 1226 758 
Q 1494 397 1959 397 
Q 2419 397 2687 759 
Q 2956 1122 2956 1747 
Q 2956 2369 2687 2733 
Q 2419 3097 1959 3097 
z
M 1959 3584 
Q 2709 3584 3137 3096 
Q 3566 2609 3566 1747 
Q 3566 888 3137 398 
Q 2709 -91 1959 -91 
Q 1206 -91 779 398 
Q 353 888 353 1747 
Q 353 2609 779 3096 
Q 1206 3584 1959 3584 
z
" transform="scale(0.015625)"/>
       <path id="DejaVuSans-66" d="M 2375 4863 
L 2375 4384 
L 1825 4384 
Q 1516 4384 1395 4259 
Q 1275 4134 1275 3809 
L 1275 3500 
L 2222 3500 
L 2222 3053 
L 1275 3053 
L 1275 0 
L 697 0 
L 697 3053 
L 147 3053 
L 147 3500 
L 697 3500 
L 697 3744 
Q 697 4328 969 4595 
Q 1241 4863 1831 4863 
L 2375 4863 
z
" transform="scale(0.015625)"/>
       <path id="DejaVuSans-4e" d="M 628 4666 
L 1478 4666 
L 3547 763 
L 3547 4666 
L 4159 4666 
L 4159 0 
L 3309 0 
L 1241 3903 
L 1241 0 
L 628 0 
L 628 4666 
z
" transform="scale(0.015625)"/>
       <path id="DejaVuSans-69" d="M 603 3500 
L 1178 3500 
L 1178 0 
L 603 0 
L 603 3500 
z
M 603 4863 
L 1178 4863 
L 1178 4134 
L 603 4134 
L 603 4863 
z
" transform="scale(0.015625)"/>
       <path id="DejaVuSans-28" d="M 1984 4856 
Q 1566 4138 1362 3434 
Q 1159 2731 1159 2009 
Q 1159 1288 1364 580 
Q 1569 -128 1984 -844 
L 1484 -844 
Q 1016 -109 783 600 
Q 550 1309 550 2009 
Q 550 2706 781 3412 
Q 1013 4119 1484 4856 
L 1984 4856 
z
" transform="scale(0.015625)"/>
       <path id="DejaVuSans-44" d="M 1259 4147 
L 1259 519 
L 2022 519 
Q 2988 519 3436 956 
Q 3884 1394 3884 2338 
Q 3884 3275 3436 3711 
Q 2988 4147 2022 4147 
L 1259 4147 
z
M 628 4666 
L 1925 4666 
Q 3281 4666 3915 4102 
Q 4550 3538 4550 2338 
Q 4550 1131 3912 565 
Q 3275 0 1925 0 
L 628 0 
L 628 4666 
z
" transform="scale(0.015625)"/>
       <path id="DejaVuSans-74" d="M 1172 4494 
L 1172 3500 
L 2356 3500 
L 2356 3053 
L 1172 3053 
L 1172 1153 
Q 1172 725 1289 603 
Q 1406 481 1766 481 
L 2356 481 
L 2356 0 
L 1766 0 
Q 1100 0 847 248 
Q 594 497 594 1153 
L 594 3053 
L 172 3053 
L 172 3500 
L 594 3500 
L 594 4494 
L 1172 4494 
z
" transform="scale(0.015625)"/>
       <path id="DejaVuSans-72" d="M 2631 2963 
Q 2534 3019 2420 3045 
Q 2306 3072 2169 3072 
Q 1681 3072 1420 2755 
Q 1159 2438 1159 1844 
L 1159 0 
L 581 0 
L 581 3500 
L 1159 3500 
L 1159 2956 
Q 1341 3275 1631 3429 
Q 1922 3584 2338 3584 
Q 2397 3584 2469 3576 
Q 2541 3569 2628 3553 
L 2631 2963 
z
" transform="scale(0.015625)"/>
       <path id="DejaVuSans-6e" d="M 3513 2113 
L 3513 0 
L 2938 0 
L 2938 2094 
Q 2938 2591 2744 2837 
Q 2550 3084 2163 3084 
Q 1697 3084 1428 2787 
Q 1159 2491 1159 1978 
L 1159 0 
L 581 0 
L 581 3500 
L 1159 3500 
L 1159 2956 
Q 1366 3272 1645 3428 
Q 1925 3584 2291 3584 
Q 2894 3584 3203 3211 
Q 3513 2838 3513 2113 
z
" transform="scale(0.015625)"/>
       <path id="DejaVuSans-2f" d="M 1625 4666 
L 2156 4666 
L 531 -594 
L 0 -594 
L 1625 4666 
z
" transform="scale(0.015625)"/>
       <path id="DejaVuSans-62" d="M 3116 1747 
Q 3116 2381 2855 2742 
Q 2594 3103 2138 3103 
Q 1681 3103 1420 2742 
Q 1159 2381 1159 1747 
Q 1159 1113 1420 752 
Q 1681 391 2138 391 
Q 2594 391 2855 752 
Q 3116 1113 3116 1747 
z
M 1159 2969 
Q 1341 3281 1617 3432 
Q 1894 3584 2278 3584 
Q 2916 3584 3314 3078 
Q 3713 2572 3713 1747 
Q 3713 922 3314 415 
Q 2916 -91 2278 -91 
Q 1894 -91 1617 61 
Q 1341 213 1159 525 
L 1159 0 
L 581 0 
L 581 4863 
L 1159 4863 
L 1159 2969 
z
" transform="scale(0.015625)"/>
       <path id="DejaVuSans-63" d="M 3122 3366 
L 3122 2828 
Q 2878 2963 2633 3030 
Q 2388 3097 2138 3097 
Q 1578 3097 1268 2742 
Q 959 2388 959 1747 
Q 959 1106 1268 751 
Q 1578 397 2138 397 
Q 2388 397 2633 464 
Q 2878 531 3122 666 
L 3122 134 
Q 2881 22 2623 -34 
Q 2366 -91 2075 -91 
Q 1284 -91 818 406 
Q 353 903 353 1747 
Q 353 2603 823 3093 
Q 1294 3584 2113 3584 
Q 2378 3584 2631 3529 
Q 2884 3475 3122 3366 
z
" transform="scale(0.015625)"/>
       <path id="DejaVuSans-29" d="M 513 4856 
L 1013 4856 
Q 1481 4119 1714 3412 
Q 1947 2706 1947 2009 
Q 1947 1309 1714 600 
Q 1481 -109 1013 -844 
L 513 -844 
Q 928 -128 1133 580 
Q 1338 1288 1338 2009 
Q 1338 2731 1133 3434 
Q 928 4138 513 4856 
z
" transform="scale(0.015625)"/>
      </defs>
      <use xlink:href="#DejaVuSans-56"/>
      <use xlink:href="#DejaVuSans-61" transform="translate(60.658203 0)"/>
      <use xlink:href="#DejaVuSans-6c" transform="translate(121.9375 0)"/>
      <use xlink:href="#DejaVuSans-75" transform="translate(149.720703 0)"/>
      <use xlink:href="#DejaVuSans-65" transform="translate(213.099609 0)"/>
      <use xlink:href="#DejaVuSans-73" transform="translate(274.623047 0)"/>
      <use xlink:href="#DejaVuSans-20" transform="translate(326.722656 0)"/>
      <use xlink:href="#DejaVuSans-6f" transform="translate(358.509766 0)"/>
      <use xlink:href="#DejaVuSans-66" transform="translate(419.691406 0)"/>
      <use xlink:href="#DejaVuSans-20" transform="translate(454.896484 0)"/>
      <use xlink:href="#DejaVuSans-4e" transform="translate(486.683594 0)"/>
      <use xlink:href="#DejaVuSans-6f" transform="translate(561.488281 0)"/>
      <use xlink:href="#DejaVuSans-69" transform="translate(622.669922 0)"/>
      <use xlink:href="#DejaVuSans-73" transform="translate(650.453125 0)"/>
      <use xlink:href="#DejaVuSans-65" transform="translate(702.552734 0)"/>
      <use xlink:href="#DejaVuSans-20" transform="translate(764.076172 0)"/>
      <use xlink:href="#DejaVuSans-28" transform="translate(795.863281 0)"/>
      <use xlink:href="#DejaVuSans-44" transform="translate(834.876953 0)"/>
      <use xlink:href="#DejaVuSans-69" transform="translate(911.878906 0)"/>
      <use xlink:href="#DejaVuSans-73" transform="translate(939.662109 0)"/>
      <use xlink:href="#DejaVuSans-74" transform="translate(991.761719 0)"/>
      <use xlink:href="#DejaVuSans-6f" transform="translate(1030.970703 0)"/>
      <use xlink:href="#DejaVuSans-72" transform="translate(1092.152344 0)"/>
      <use xlink:href="#DejaVuSans-74" transform="translate(1133.265625 0)"/>
      <use xlink:href="#DejaVuSans-69" transform="translate(1172.474609 0)"/>
      <use xlink:href="#DejaVuSans-6f" transform="translate(1200.257812 0)"/>
      <use xlink:href="#DejaVuSans-6e" transform="translate(1261.439453 0)"/>
      <use xlink:href="#DejaVuSans-20" transform="translate(1324.818359 0)"/>
      <use xlink:href="#DejaVuSans-2f" transform="translate(1356.605469 0)"/>
      <use xlink:href="#DejaVuSans-20" transform="translate(1390.296875 0)"/>
      <use xlink:href="#DejaVuSans-44" transform="translate(1422.083984 0)"/>
      <use xlink:href="#DejaVuSans-69" transform="translate(1499.085938 0)"/>
      <use xlink:href="#DejaVuSans-73" transform="translate(1526.869141 0)"/>
      <use xlink:href="#DejaVuSans-74" transform="translate(1578.96875 0)"/>
      <use xlink:href="#DejaVuSans-75" transform="translate(1618.177734 0)"/>
      <use xlink:href="#DejaVuSans-72" transform="translate(1681.556641 0)"/>
      <use xlink:href="#DejaVuSans-62" transform="translate(1722.669922 0)"/>
      <use xlink:href="#DejaVuSans-61" transform="translate(1786.146484 0)"/>
      <use xlink:href="#DejaVuSans-6e" transform="translate(1847.425781 0)"/>
      <use xlink:href="#DejaVuSans-63" transform="translate(1910.804688 0)"/>
      <use xlink:href="#DejaVuSans-65" transform="translate(1965.785156 0)"/>
      <use xlink:href="#DejaVuSans-29" transform="translate(2027.308594 0)"/>
     </g>
    </g>
   </g>
   <g id="matplotlib.axis_2">
    <g id="ytick_1">
     <g id="line2d_11">
      <path d="M 40.603125 339.838125 
L 710.203125 339.838125 
" clip-path="url(#pab2feef2d5)" style="fill: none; stroke: #b0b0b0; stroke-width: 0.8; stroke-linecap: square"/>
     </g>
     <g id="line2d_12">
      <defs>
       <path id="m473c6ccbd7" d="M 0 0 
L -3.5 0 
" style="stroke: #000000; stroke-width: 0.8"/>
      </defs>
      <g>
       <use xlink:href="#m473c6ccbd7" x="40.603125" y="339.838125" style="stroke: #000000; stroke-width: 0.8"/>
      </g>
     </g>
     <g id="text_7">
      <!-- 0 -->
      <g transform="translate(27.240625 343.637344) scale(0.1 -0.1)">
       <use xlink:href="#DejaVuSans-30"/>
      </g>
     </g>
    </g>
    <g id="ytick_2">
     <g id="line2d_13">
      <path d="M 40.603125 293.315048 
L 710.203125 293.315048 
" clip-path="url(#pab2feef2d5)" style="fill: none; stroke: #b0b0b0; stroke-width: 0.8; stroke-linecap: square"/>
     </g>
     <g id="line2d_14">
      <g>
       <use xlink:href="#m473c6ccbd7" x="40.603125" y="293.315048" style="stroke: #000000; stroke-width: 0.8"/>
      </g>
     </g>
     <g id="text_8">
      <!-- 2 -->
      <g transform="translate(27.240625 297.114267) scale(0.1 -0.1)">
       <use xlink:href="#DejaVuSans-32"/>
      </g>
     </g>
    </g>
    <g id="ytick_3">
     <g id="line2d_15">
      <path d="M 40.603125 246.791971 
L 710.203125 246.791971 
" clip-path="url(#pab2feef2d5)" style="fill: none; stroke: #b0b0b0; stroke-width: 0.8; stroke-linecap: square"/>
     </g>
     <g id="line2d_16">
      <g>
       <use xlink:href="#m473c6ccbd7" x="40.603125" y="246.791971" style="stroke: #000000; stroke-width: 0.8"/>
      </g>
     </g>
     <g id="text_9">
      <!-- 4 -->
      <g transform="translate(27.240625 250.59119) scale(0.1 -0.1)">
       <use xlink:href="#DejaVuSans-34"/>
      </g>
     </g>
    </g>
    <g id="ytick_4">
     <g id="line2d_17">
      <path d="M 40.603125 200.268894 
L 710.203125 200.268894 
" clip-path="url(#pab2feef2d5)" style="fill: none; stroke: #b0b0b0; stroke-width: 0.8; stroke-linecap: square"/>
     </g>
     <g id="line2d_18">
      <g>
       <use xlink:href="#m473c6ccbd7" x="40.603125" y="200.268894" style="stroke: #000000; stroke-width: 0.8"/>
      </g>
     </g>
     <g id="text_10">
      <!-- 6 -->
      <g transform="translate(27.240625 204.068113) scale(0.1 -0.1)">
       <use xlink:href="#DejaVuSans-36"/>
      </g>
     </g>
    </g>
    <g id="ytick_5">
     <g id="line2d_19">
      <path d="M 40.603125 153.745817 
L 710.203125 153.745817 
" clip-path="url(#pab2feef2d5)" style="fill: none; stroke: #b0b0b0; stroke-width: 0.8; stroke-linecap: square"/>
     </g>
     <g id="line2d_20">
      <g>
       <use xlink:href="#m473c6ccbd7" x="40.603125" y="153.745817" style="stroke: #000000; stroke-width: 0.8"/>
      </g>
     </g>
     <g id="text_11">
      <!-- 8 -->
      <g transform="translate(27.240625 157.545036) scale(0.1 -0.1)">
       <use xlink:href="#DejaVuSans-38"/>
      </g>
     </g>
    </g>
    <g id="ytick_6">
     <g id="line2d_21">
      <path d="M 40.603125 107.22274 
L 710.203125 107.22274 
" clip-path="url(#pab2feef2d5)" style="fill: none; stroke: #b0b0b0; stroke-width: 0.8; stroke-linecap: square"/>
     </g>
     <g id="line2d_22">
      <g>
       <use xlink:href="#m473c6ccbd7" x="40.603125" y="107.22274" style="stroke: #000000; stroke-width: 0.8"/>
      </g>
     </g>
     <g id="text_12">
      <!-- 10 -->
      <g transform="translate(20.878125 111.021959) scale(0.1 -0.1)">
       <use xlink:href="#DejaVuSans-31"/>
       <use xlink:href="#DejaVuSans-30" transform="translate(63.623047 0)"/>
      </g>
     </g>
    </g>
    <g id="ytick_7">
     <g id="line2d_23">
      <path d="M 40.603125 60.699663 
L 710.203125 60.699663 
" clip-path="url(#pab2feef2d5)" style="fill: none; stroke: #b0b0b0; stroke-width: 0.8; stroke-linecap: square"/>
     </g>
     <g id="line2d_24">
      <g>
       <use xlink:href="#m473c6ccbd7" x="40.603125" y="60.699663" style="stroke: #000000; stroke-width: 0.8"/>
      </g>
     </g>
     <g id="text_13">
      <!-- 12 -->
      <g transform="translate(20.878125 64.498882) scale(0.1 -0.1)">
       <use xlink:href="#DejaVuSans-31"/>
       <use xlink:href="#DejaVuSans-32" transform="translate(63.623047 0)"/>
      </g>
     </g>
    </g>
    <g id="text_14">
     <!-- Frequency -->
     <g transform="translate(14.798438 214.467812) rotate(-90) scale(0.1 -0.1)">
      <defs>
       <path id="DejaVuSans-46" d="M 628 4666 
L 3309 4666 
L 3309 4134 
L 1259 4134 
L 1259 2759 
L 3109 2759 
L 3109 2228 
L 1259 2228 
L 1259 0 
L 628 0 
L 628 4666 
z
" transform="scale(0.015625)"/>
       <path id="DejaVuSans-71" d="M 947 1747 
Q 947 1113 1208 752 
Q 1469 391 1925 391 
Q 2381 391 2643 752 
Q 2906 1113 2906 1747 
Q 2906 2381 2643 2742 
Q 2381 3103 1925 3103 
Q 1469 3103 1208 2742 
Q 947 2381 947 1747 
z
M 2906 525 
Q 2725 213 2448 61 
Q 2172 -91 1784 -91 
Q 1150 -91 751 415 
Q 353 922 353 1747 
Q 353 2572 751 3078 
Q 1150 3584 1784 3584 
Q 2172 3584 2448 3432 
Q 2725 3281 2906 2969 
L 2906 3500 
L 3481 3500 
L 3481 -1331 
L 2906 -1331 
L 2906 525 
z
" transform="scale(0.015625)"/>
       <path id="DejaVuSans-79" d="M 2059 -325 
Q 1816 -950 1584 -1140 
Q 1353 -1331 966 -1331 
L 506 -1331 
L 506 -850 
L 844 -850 
Q 1081 -850 1212 -737 
Q 1344 -625 1503 -206 
L 1606 56 
L 191 3500 
L 800 3500 
L 1894 763 
L 2988 3500 
L 3597 3500 
L 2059 -325 
z
" transform="scale(0.015625)"/>
      </defs>
      <use xlink:href="#DejaVuSans-46"/>
      <use xlink:href="#DejaVuSans-72" transform="translate(50.269531 0)"/>
      <use xlink:href="#DejaVuSans-65" transform="translate(89.132812 0)"/>
      <use xlink:href="#DejaVuSans-71" transform="translate(150.65625 0)"/>
      <use xlink:href="#DejaVuSans-75" transform="translate(214.132812 0)"/>
      <use xlink:href="#DejaVuSans-65" transform="translate(277.511719 0)"/>
      <use xlink:href="#DejaVuSans-6e" transform="translate(339.035156 0)"/>
      <use xlink:href="#DejaVuSans-63" transform="translate(402.414062 0)"/>
      <use xlink:href="#DejaVuSans-79" transform="translate(457.394531 0)"/>
     </g>
    </g>
   </g>
   <g id="line2d_25">
    <path d="M 71.039489 200.268894 
L 77.803125 316.576587 
L 84.566761 339.838125 
L 91.330398 339.838125 
L 98.094034 316.576587 
L 104.85767 316.576587 
L 111.621307 316.576587 
L 118.384943 316.576587 
L 131.912216 339.838125 
L 138.675852 316.576587 
L 145.439489 316.576587 
L 152.203125 339.838125 
L 158.966761 339.838125 
L 165.730398 339.838125 
L 172.494034 339.838125 
L 186.021307 293.315048 
L 192.784943 339.838125 
L 199.54858 339.838125 
L 206.312216 293.315048 
L 219.839489 316.576587 
L 253.65767 339.838125 
L 260.421307 339.838125 
L 267.184943 316.576587 
L 273.94858 293.315048 
L 280.712216 316.576587 
L 287.475852 339.838125 
L 294.239489 339.838125 
L 314.530398 316.576587 
L 328.05767 339.838125 
L 334.821307 339.838125 
L 341.584943 339.838125 
L 348.34858 339.838125 
L 355.112216 316.576587 
L 368.639489 316.576587 
L 375.403125 339.838125 
L 395.694034 339.838125 
L 415.984943 339.838125 
L 422.74858 339.838125 
L 443.039489 339.838125 
L 449.803125 339.838125 
L 463.330398 339.838125 
L 483.621307 339.838125 
L 490.384943 339.838125 
L 497.14858 339.838125 
L 503.912216 339.838125 
L 564.784943 316.576587 
L 571.54858 339.838125 
L 578.312216 339.838125 
L 585.075852 339.838125 
L 612.130398 339.838125 
L 625.65767 339.838125 
L 652.712216 316.576587 
L 659.475852 339.838125 
L 666.239489 339.838125 
L 679.766761 270.05351 
" clip-path="url(#pab2feef2d5)" style="fill: none; stroke: #0000ff; stroke-width: 1.5; stroke-linecap: square"/>
    <defs>
     <path id="m7c7b727b69" d="M 0 3 
C 0.795609 3 1.55874 2.683901 2.12132 2.12132 
C 2.683901 1.55874 3 0.795609 3 0 
C 3 -0.795609 2.683901 -1.55874 2.12132 -2.12132 
C 1.55874 -2.683901 0.795609 -3 0 -3 
C -0.795609 -3 -1.55874 -2.683901 -2.12132 -2.12132 
C -2.683901 -1.55874 -3 -0.795609 -3 0 
C -3 0.795609 -2.683901 1.55874 -2.12132 2.12132 
C -1.55874 2.683901 -0.795609 3 0 3 
z
" style="stroke: #0000ff"/>
    </defs>
    <g clip-path="url(#pab2feef2d5)">
     <use xlink:href="#m7c7b727b69" x="71.039489" y="200.268894" style="fill: #0000ff; stroke: #0000ff"/>
     <use xlink:href="#m7c7b727b69" x="77.803125" y="316.576587" style="fill: #0000ff; stroke: #0000ff"/>
     <use xlink:href="#m7c7b727b69" x="84.566761" y="339.838125" style="fill: #0000ff; stroke: #0000ff"/>
     <use xlink:href="#m7c7b727b69" x="91.330398" y="339.838125" style="fill: #0000ff; stroke: #0000ff"/>
     <use xlink:href="#m7c7b727b69" x="98.094034" y="316.576587" style="fill: #0000ff; stroke: #0000ff"/>
     <use xlink:href="#m7c7b727b69" x="104.85767" y="316.576587" style="fill: #0000ff; stroke: #0000ff"/>
     <use xlink:href="#m7c7b727b69" x="111.621307" y="316.576587" style="fill: #0000ff; stroke: #0000ff"/>
     <use xlink:href="#m7c7b727b69" x="118.384943" y="316.576587" style="fill: #0000ff; stroke: #0000ff"/>
     <use xlink:href="#m7c7b727b69" x="131.912216" y="339.838125" style="fill: #0000ff; stroke: #0000ff"/>
     <use xlink:href="#m7c7b727b69" x="138.675852" y="316.576587" style="fill: #0000ff; stroke: #0000ff"/>
     <use xlink:href="#m7c7b727b69" x="145.439489" y="316.576587" style="fill: #0000ff; stroke: #0000ff"/>
     <use xlink:href="#m7c7b727b69" x="152.203125" y="339.838125" style="fill: #0000ff; stroke: #0000ff"/>
     <use xlink:href="#m7c7b727b69" x="158.966761" y="339.838125" style="fill: #0000ff; stroke: #0000ff"/>
     <use xlink:href="#m7c7b727b69" x="165.730398" y="339.838125" style="fill: #0000ff; stroke: #0000ff"/>
     <use xlink:href="#m7c7b727b69" x="172.494034" y="339.838125" style="fill: #0000ff; stroke: #0000ff"/>
     <use xlink:href="#m7c7b727b69" x="186.021307" y="293.315048" style="fill: #0000ff; stroke: #0000ff"/>
     <use xlink:href="#m7c7b727b69" x="192.784943" y="339.838125" style="fill: #0000ff; stroke: #0000ff"/>
     <use xlink:href="#m7c7b727b69" x="199.54858" y="339.838125" style="fill: #0000ff; stroke: #0000ff"/>
     <use xlink:href="#m7c7b727b69" x="206.312216" y="293.315048" style="fill: #0000ff; stroke: #0000ff"/>
     <use xlink:href="#m7c7b727b69" x="219.839489" y="316.576587" style="fill: #0000ff; stroke: #0000ff"/>
     <use xlink:href="#m7c7b727b69" x="253.65767" y="339.838125" style="fill: #0000ff; stroke: #0000ff"/>
     <use xlink:href="#m7c7b727b69" x="260.421307" y="339.838125" style="fill: #0000ff; stroke: #0000ff"/>
     <use xlink:href="#m7c7b727b69" x="267.184943" y="316.576587" style="fill: #0000ff; stroke: #0000ff"/>
     <use xlink:href="#m7c7b727b69" x="273.94858" y="293.315048" style="fill: #0000ff; stroke: #0000ff"/>
     <use xlink:href="#m7c7b727b69" x="280.712216" y="316.576587" style="fill: #0000ff; stroke: #0000ff"/>
     <use xlink:href="#m7c7b727b69" x="287.475852" y="339.838125" style="fill: #0000ff; stroke: #0000ff"/>
     <use xlink:href="#m7c7b727b69" x="294.239489" y="339.838125" style="fill: #0000ff; stroke: #0000ff"/>
     <use xlink:href="#m7c7b727b69" x="314.530398" y="316.576587" style="fill: #0000ff; stroke: #0000ff"/>
     <use xlink:href="#m7c7b727b69" x="328.05767" y="339.838125" style="fill: #0000ff; stroke: #0000ff"/>
     <use xlink:href="#m7c7b727b69" x="334.821307" y="339.838125" style="fill: #0000ff; stroke: #0000ff"/>
     <use xlink:href="#m7c7b727b69" x="341.584943" y="339.838125" style="fill: #0000ff; stroke: #0000ff"/>
     <use xlink:href="#m7c7b727b69" x="348.34858" y="339.838125" style="fill: #0000ff; stroke: #0000ff"/>
     <use xlink:href="#m7c7b727b69" x="355.112216" y="316.576587" style="fill: #0000ff; stroke: #0000ff"/>
     <use xlink:href="#m7c7b727b69" x="368.639489" y="316.576587" style="fill: #0000ff; stroke: #0000ff"/>
     <use xlink:href="#m7c7b727b69" x="375.403125" y="339.838125" style="fill: #0000ff; stroke: #0000ff"/>
     <use xlink:href="#m7c7b727b69" x="395.694034" y="339.838125" style="fill: #0000ff; stroke: #0000ff"/>
     <use xlink:href="#m7c7b727b69" x="415.984943" y="339.838125" style="fill: #0000ff; stroke: #0000ff"/>
     <use xlink:href="#m7c7b727b69" x="422.74858" y="339.838125" style="fill: #0000ff; stroke: #0000ff"/>
     <use xlink:href="#m7c7b727b69" x="443.039489" y="339.838125" style="fill: #0000ff; stroke: #0000ff"/>
     <use xlink:href="#m7c7b727b69" x="449.803125" y="339.838125" style="fill: #0000ff; stroke: #0000ff"/>
     <use xlink:href="#m7c7b727b69" x="463.330398" y="339.838125" style="fill: #0000ff; stroke: #0000ff"/>
     <use xlink:href="#m7c7b727b69" x="483.621307" y="339.838125" style="fill: #0000ff; stroke: #0000ff"/>
     <use xlink:href="#m7c7b727b69" x="490.384943" y="339.838125" style="fill: #0000ff; stroke: #0000ff"/>
     <use xlink:href="#m7c7b727b69" x="497.14858" y="339.838125" style="fill: #0000ff; stroke: #0000ff"/>
     <use xlink:href="#m7c7b727b69" x="503.912216" y="339.838125" style="fill: #0000ff; stroke: #0000ff"/>
     <use xlink:href="#m7c7b727b69" x="564.784943" y="316.576587" style="fill: #0000ff; stroke: #0000ff"/>
     <use xlink:href="#m7c7b727b69" x="571.54858" y="339.838125" style="fill: #0000ff; stroke: #0000ff"/>
     <use xlink:href="#m7c7b727b69" x="578.312216" y="339.838125" style="fill: #0000ff; stroke: #0000ff"/>
     <use xlink:href="#m7c7b727b69" x="585.075852" y="339.838125" style="fill: #0000ff; stroke: #0000ff"/>
     <use xlink:href="#m7c7b727b69" x="612.130398" y="339.838125" style="fill: #0000ff; stroke: #0000ff"/>
     <use xlink:href="#m7c7b727b69" x="625.65767" y="339.838125" style="fill: #0000ff; stroke: #0000ff"/>
     <use xlink:href="#m7c7b727b69" x="652.712216" y="316.576587" style="fill: #0000ff; stroke: #0000ff"/>
     <use xlink:href="#m7c7b727b69" x="659.475852" y="339.838125" style="fill: #0000ff; stroke: #0000ff"/>
     <use xlink:href="#m7c7b727b69" x="666.239489" y="339.838125" style="fill: #0000ff; stroke: #0000ff"/>
     <use xlink:href="#m7c7b727b69" x="679.766761" y="270.05351" style="fill: #0000ff; stroke: #0000ff"/>
    </g>
   </g>
   <g id="line2d_26">
    <path d="M 71.039489 153.745817 
L 77.803125 293.315048 
L 84.566761 339.838125 
L 91.330398 293.315048 
L 98.094034 316.576587 
L 104.85767 339.838125 
L 111.621307 316.576587 
L 118.384943 339.838125 
L 131.912216 316.576587 
L 138.675852 339.838125 
L 145.439489 339.838125 
L 152.203125 316.576587 
L 158.966761 339.838125 
L 165.730398 316.576587 
L 172.494034 339.838125 
L 186.021307 293.315048 
L 192.784943 339.838125 
L 199.54858 339.838125 
L 206.312216 339.838125 
L 219.839489 339.838125 
L 253.65767 339.838125 
L 260.421307 270.05351 
L 267.184943 339.838125 
L 273.94858 339.838125 
L 280.712216 339.838125 
L 287.475852 339.838125 
L 294.239489 316.576587 
L 314.530398 339.838125 
L 328.05767 316.576587 
L 334.821307 339.838125 
L 341.584943 339.838125 
L 348.34858 339.838125 
L 355.112216 339.838125 
L 368.639489 339.838125 
L 375.403125 339.838125 
L 395.694034 339.838125 
L 415.984943 293.315048 
L 422.74858 339.838125 
L 443.039489 339.838125 
L 449.803125 339.838125 
L 463.330398 339.838125 
L 483.621307 339.838125 
L 490.384943 339.838125 
L 497.14858 316.576587 
L 503.912216 339.838125 
L 564.784943 339.838125 
L 571.54858 339.838125 
L 578.312216 339.838125 
L 585.075852 339.838125 
L 612.130398 339.838125 
L 625.65767 339.838125 
L 652.712216 339.838125 
L 659.475852 316.576587 
L 666.239489 339.838125 
L 679.766761 293.315048 
" clip-path="url(#pab2feef2d5)" style="fill: none; stroke: #ffa500; stroke-width: 1.5; stroke-linecap: square"/>
    <defs>
     <path id="m5e1a6413f3" d="M 0 3 
C 0.795609 3 1.55874 2.683901 2.12132 2.12132 
C 2.683901 1.55874 3 0.795609 3 0 
C 3 -0.795609 2.683901 -1.55874 2.12132 -2.12132 
C 1.55874 -2.683901 0.795609 -3 0 -3 
C -0.795609 -3 -1.55874 -2.683901 -2.12132 -2.12132 
C -2.683901 -1.55874 -3 -0.795609 -3 0 
C -3 0.795609 -2.683901 1.55874 -2.12132 2.12132 
C -1.55874 2.683901 -0.795609 3 0 3 
z
" style="stroke: #ffa500"/>
    </defs>
    <g clip-path="url(#pab2feef2d5)">
     <use xlink:href="#m5e1a6413f3" x="71.039489" y="153.745817" style="fill: #ffa500; stroke: #ffa500"/>
     <use xlink:href="#m5e1a6413f3" x="77.803125" y="293.315048" style="fill: #ffa500; stroke: #ffa500"/>
     <use xlink:href="#m5e1a6413f3" x="84.566761" y="339.838125" style="fill: #ffa500; stroke: #ffa500"/>
     <use xlink:href="#m5e1a6413f3" x="91.330398" y="293.315048" style="fill: #ffa500; stroke: #ffa500"/>
     <use xlink:href="#m5e1a6413f3" x="98.094034" y="316.576587" style="fill: #ffa500; stroke: #ffa500"/>
     <use xlink:href="#m5e1a6413f3" x="104.85767" y="339.838125" style="fill: #ffa500; stroke: #ffa500"/>
     <use xlink:href="#m5e1a6413f3" x="111.621307" y="316.576587" style="fill: #ffa500; stroke: #ffa500"/>
     <use xlink:href="#m5e1a6413f3" x="118.384943" y="339.838125" style="fill: #ffa500; stroke: #ffa500"/>
     <use xlink:href="#m5e1a6413f3" x="131.912216" y="316.576587" style="fill: #ffa500; stroke: #ffa500"/>
     <use xlink:href="#m5e1a6413f3" x="138.675852" y="339.838125" style="fill: #ffa500; stroke: #ffa500"/>
     <use xlink:href="#m5e1a6413f3" x="145.439489" y="339.838125" style="fill: #ffa500; stroke: #ffa500"/>
     <use xlink:href="#m5e1a6413f3" x="152.203125" y="316.576587" style="fill: #ffa500; stroke: #ffa500"/>
     <use xlink:href="#m5e1a6413f3" x="158.966761" y="339.838125" style="fill: #ffa500; stroke: #ffa500"/>
     <use xlink:href="#m5e1a6413f3" x="165.730398" y="316.576587" style="fill: #ffa500; stroke: #ffa500"/>
     <use xlink:href="#m5e1a6413f3" x="172.494034" y="339.838125" style="fill: #ffa500; stroke: #ffa500"/>
     <use xlink:href="#m5e1a6413f3" x="186.021307" y="293.315048" style="fill: #ffa500; stroke: #ffa500"/>
     <use xlink:href="#m5e1a6413f3" x="192.784943" y="339.838125" style="fill: #ffa500; stroke: #ffa500"/>
     <use xlink:href="#m5e1a6413f3" x="199.54858" y="339.838125" style="fill: #ffa500; stroke: #ffa500"/>
     <use xlink:href="#m5e1a6413f3" x="206.312216" y="339.838125" style="fill: #ffa500; stroke: #ffa500"/>
     <use xlink:href="#m5e1a6413f3" x="219.839489" y="339.838125" style="fill: #ffa500; stroke: #ffa500"/>
     <use xlink:href="#m5e1a6413f3" x="253.65767" y="339.838125" style="fill: #ffa500; stroke: #ffa500"/>
     <use xlink:href="#m5e1a6413f3" x="260.421307" y="270.05351" style="fill: #ffa500; stroke: #ffa500"/>
     <use xlink:href="#m5e1a6413f3" x="267.184943" y="339.838125" style="fill: #ffa500; stroke: #ffa500"/>
     <use xlink:href="#m5e1a6413f3" x="273.94858" y="339.838125" style="fill: #ffa500; stroke: #ffa500"/>
     <use xlink:href="#m5e1a6413f3" x="280.712216" y="339.838125" style="fill: #ffa500; stroke: #ffa500"/>
     <use xlink:href="#m5e1a6413f3" x="287.475852" y="339.838125" style="fill: #ffa500; stroke: #ffa500"/>
     <use xlink:href="#m5e1a6413f3" x="294.239489" y="316.576587" style="fill: #ffa500; stroke: #ffa500"/>
     <use xlink:href="#m5e1a6413f3" x="314.530398" y="339.838125" style="fill: #ffa500; stroke: #ffa500"/>
     <use xlink:href="#m5e1a6413f3" x="328.05767" y="316.576587" style="fill: #ffa500; stroke: #ffa500"/>
     <use xlink:href="#m5e1a6413f3" x="334.821307" y="339.838125" style="fill: #ffa500; stroke: #ffa500"/>
     <use xlink:href="#m5e1a6413f3" x="341.584943" y="339.838125" style="fill: #ffa500; stroke: #ffa500"/>
     <use xlink:href="#m5e1a6413f3" x="348.34858" y="339.838125" style="fill: #ffa500; stroke: #ffa500"/>
     <use xlink:href="#m5e1a6413f3" x="355.112216" y="339.838125" style="fill: #ffa500; stroke: #ffa500"/>
     <use xlink:href="#m5e1a6413f3" x="368.639489" y="339.838125" style="fill: #ffa500; stroke: #ffa500"/>
     <use xlink:href="#m5e1a6413f3" x="375.403125" y="339.838125" style="fill: #ffa500; stroke: #ffa500"/>
     <use xlink:href="#m5e1a6413f3" x="395.694034" y="339.838125" style="fill: #ffa500; stroke: #ffa500"/>
     <use xlink:href="#m5e1a6413f3" x="415.984943" y="293.315048" style="fill: #ffa500; stroke: #ffa500"/>
     <use xlink:href="#m5e1a6413f3" x="422.74858" y="339.838125" style="fill: #ffa500; stroke: #ffa500"/>
     <use xlink:href="#m5e1a6413f3" x="443.039489" y="339.838125" style="fill: #ffa500; stroke: #ffa500"/>
     <use xlink:href="#m5e1a6413f3" x="449.803125" y="339.838125" style="fill: #ffa500; stroke: #ffa500"/>
     <use xlink:href="#m5e1a6413f3" x="463.330398" y="339.838125" style="fill: #ffa500; stroke: #ffa500"/>
     <use xlink:href="#m5e1a6413f3" x="483.621307" y="339.838125" style="fill: #ffa500; stroke: #ffa500"/>
     <use xlink:href="#m5e1a6413f3" x="490.384943" y="339.838125" style="fill: #ffa500; stroke: #ffa500"/>
     <use xlink:href="#m5e1a6413f3" x="497.14858" y="316.576587" style="fill: #ffa500; stroke: #ffa500"/>
     <use xlink:href="#m5e1a6413f3" x="503.912216" y="339.838125" style="fill: #ffa500; stroke: #ffa500"/>
     <use xlink:href="#m5e1a6413f3" x="564.784943" y="339.838125" style="fill: #ffa500; stroke: #ffa500"/>
     <use xlink:href="#m5e1a6413f3" x="571.54858" y="339.838125" style="fill: #ffa500; stroke: #ffa500"/>
     <use xlink:href="#m5e1a6413f3" x="578.312216" y="339.838125" style="fill: #ffa500; stroke: #ffa500"/>
     <use xlink:href="#m5e1a6413f3" x="585.075852" y="339.838125" style="fill: #ffa500; stroke: #ffa500"/>
     <use xlink:href="#m5e1a6413f3" x="612.130398" y="339.838125" style="fill: #ffa500; stroke: #ffa500"/>
     <use xlink:href="#m5e1a6413f3" x="625.65767" y="339.838125" style="fill: #ffa500; stroke: #ffa500"/>
     <use xlink:href="#m5e1a6413f3" x="652.712216" y="339.838125" style="fill: #ffa500; stroke: #ffa500"/>
     <use xlink:href="#m5e1a6413f3" x="659.475852" y="316.576587" style="fill: #ffa500; stroke: #ffa500"/>
     <use xlink:href="#m5e1a6413f3" x="666.239489" y="339.838125" style="fill: #ffa500; stroke: #ffa500"/>
     <use xlink:href="#m5e1a6413f3" x="679.766761" y="293.315048" style="fill: #ffa500; stroke: #ffa500"/>
    </g>
   </g>
   <g id="line2d_27">
    <path d="M 71.039489 316.576587 
L 77.803125 339.838125 
L 84.566761 316.576587 
L 91.330398 339.838125 
L 98.094034 339.838125 
L 104.85767 339.838125 
L 111.621307 339.838125 
L 118.384943 339.838125 
L 131.912216 339.838125 
L 138.675852 339.838125 
L 145.439489 339.838125 
L 152.203125 339.838125 
L 158.966761 339.838125 
L 165.730398 339.838125 
L 172.494034 339.838125 
L 186.021307 339.838125 
L 192.784943 339.838125 
L 199.54858 339.838125 
L 206.312216 339.838125 
L 219.839489 339.838125 
L 253.65767 316.576587 
L 260.421307 339.838125 
L 267.184943 339.838125 
L 273.94858 339.838125 
L 280.712216 339.838125 
L 287.475852 339.838125 
L 294.239489 339.838125 
L 314.530398 339.838125 
L 328.05767 339.838125 
L 334.821307 339.838125 
L 341.584943 339.838125 
L 348.34858 339.838125 
L 355.112216 339.838125 
L 368.639489 339.838125 
L 375.403125 316.576587 
L 395.694034 293.315048 
L 415.984943 293.315048 
L 422.74858 316.576587 
L 443.039489 339.838125 
L 449.803125 339.838125 
L 463.330398 339.838125 
L 483.621307 339.838125 
L 490.384943 339.838125 
L 497.14858 339.838125 
L 503.912216 339.838125 
L 564.784943 293.315048 
L 571.54858 339.838125 
L 578.312216 339.838125 
L 585.075852 316.576587 
L 612.130398 316.576587 
L 625.65767 316.576587 
L 652.712216 339.838125 
L 659.475852 316.576587 
L 666.239489 293.315048 
L 679.766761 37.438125 
" clip-path="url(#pab2feef2d5)" style="fill: none; stroke: #008000; stroke-width: 1.5; stroke-linecap: square"/>
    <defs>
     <path id="m47496fe83f" d="M 0 3 
C 0.795609 3 1.55874 2.683901 2.12132 2.12132 
C 2.683901 1.55874 3 0.795609 3 0 
C 3 -0.795609 2.683901 -1.55874 2.12132 -2.12132 
C 1.55874 -2.683901 0.795609 -3 0 -3 
C -0.795609 -3 -1.55874 -2.683901 -2.12132 -2.12132 
C -2.683901 -1.55874 -3 -0.795609 -3 0 
C -3 0.795609 -2.683901 1.55874 -2.12132 2.12132 
C -1.55874 2.683901 -0.795609 3 0 3 
z
" style="stroke: #008000"/>
    </defs>
    <g clip-path="url(#pab2feef2d5)">
     <use xlink:href="#m47496fe83f" x="71.039489" y="316.576587" style="fill: #008000; stroke: #008000"/>
     <use xlink:href="#m47496fe83f" x="77.803125" y="339.838125" style="fill: #008000; stroke: #008000"/>
     <use xlink:href="#m47496fe83f" x="84.566761" y="316.576587" style="fill: #008000; stroke: #008000"/>
     <use xlink:href="#m47496fe83f" x="91.330398" y="339.838125" style="fill: #008000; stroke: #008000"/>
     <use xlink:href="#m47496fe83f" x="98.094034" y="339.838125" style="fill: #008000; stroke: #008000"/>
     <use xlink:href="#m47496fe83f" x="104.85767" y="339.838125" style="fill: #008000; stroke: #008000"/>
     <use xlink:href="#m47496fe83f" x="111.621307" y="339.838125" style="fill: #008000; stroke: #008000"/>
     <use xlink:href="#m47496fe83f" x="118.384943" y="339.838125" style="fill: #008000; stroke: #008000"/>
     <use xlink:href="#m47496fe83f" x="131.912216" y="339.838125" style="fill: #008000; stroke: #008000"/>
     <use xlink:href="#m47496fe83f" x="138.675852" y="339.838125" style="fill: #008000; stroke: #008000"/>
     <use xlink:href="#m47496fe83f" x="145.439489" y="339.838125" style="fill: #008000; stroke: #008000"/>
     <use xlink:href="#m47496fe83f" x="152.203125" y="339.838125" style="fill: #008000; stroke: #008000"/>
     <use xlink:href="#m47496fe83f" x="158.966761" y="339.838125" style="fill: #008000; stroke: #008000"/>
     <use xlink:href="#m47496fe83f" x="165.730398" y="339.838125" style="fill: #008000; stroke: #008000"/>
     <use xlink:href="#m47496fe83f" x="172.494034" y="339.838125" style="fill: #008000; stroke: #008000"/>
     <use xlink:href="#m47496fe83f" x="186.021307" y="339.838125" style="fill: #008000; stroke: #008000"/>
     <use xlink:href="#m47496fe83f" x="192.784943" y="339.838125" style="fill: #008000; stroke: #008000"/>
     <use xlink:href="#m47496fe83f" x="199.54858" y="339.838125" style="fill: #008000; stroke: #008000"/>
     <use xlink:href="#m47496fe83f" x="206.312216" y="339.838125" style="fill: #008000; stroke: #008000"/>
     <use xlink:href="#m47496fe83f" x="219.839489" y="339.838125" style="fill: #008000; stroke: #008000"/>
     <use xlink:href="#m47496fe83f" x="253.65767" y="316.576587" style="fill: #008000; stroke: #008000"/>
     <use xlink:href="#m47496fe83f" x="260.421307" y="339.838125" style="fill: #008000; stroke: #008000"/>
     <use xlink:href="#m47496fe83f" x="267.184943" y="339.838125" style="fill: #008000; stroke: #008000"/>
     <use xlink:href="#m47496fe83f" x="273.94858" y="339.838125" style="fill: #008000; stroke: #008000"/>
     <use xlink:href="#m47496fe83f" x="280.712216" y="339.838125" style="fill: #008000; stroke: #008000"/>
     <use xlink:href="#m47496fe83f" x="287.475852" y="339.838125" style="fill: #008000; stroke: #008000"/>
     <use xlink:href="#m47496fe83f" x="294.239489" y="339.838125" style="fill: #008000; stroke: #008000"/>
     <use xlink:href="#m47496fe83f" x="314.530398" y="339.838125" style="fill: #008000; stroke: #008000"/>
     <use xlink:href="#m47496fe83f" x="328.05767" y="339.838125" style="fill: #008000; stroke: #008000"/>
     <use xlink:href="#m47496fe83f" x="334.821307" y="339.838125" style="fill: #008000; stroke: #008000"/>
     <use xlink:href="#m47496fe83f" x="341.584943" y="339.838125" style="fill: #008000; stroke: #008000"/>
     <use xlink:href="#m47496fe83f" x="348.34858" y="339.838125" style="fill: #008000; stroke: #008000"/>
     <use xlink:href="#m47496fe83f" x="355.112216" y="339.838125" style="fill: #008000; stroke: #008000"/>
     <use xlink:href="#m47496fe83f" x="368.639489" y="339.838125" style="fill: #008000; stroke: #008000"/>
     <use xlink:href="#m47496fe83f" x="375.403125" y="316.576587" style="fill: #008000; stroke: #008000"/>
     <use xlink:href="#m47496fe83f" x="395.694034" y="293.315048" style="fill: #008000; stroke: #008000"/>
     <use xlink:href="#m47496fe83f" x="415.984943" y="293.315048" style="fill: #008000; stroke: #008000"/>
     <use xlink:href="#m47496fe83f" x="422.74858" y="316.576587" style="fill: #008000; stroke: #008000"/>
     <use xlink:href="#m47496fe83f" x="443.039489" y="339.838125" style="fill: #008000; stroke: #008000"/>
     <use xlink:href="#m47496fe83f" x="449.803125" y="339.838125" style="fill: #008000; stroke: #008000"/>
     <use xlink:href="#m47496fe83f" x="463.330398" y="339.838125" style="fill: #008000; stroke: #008000"/>
     <use xlink:href="#m47496fe83f" x="483.621307" y="339.838125" style="fill: #008000; stroke: #008000"/>
     <use xlink:href="#m47496fe83f" x="490.384943" y="339.838125" style="fill: #008000; stroke: #008000"/>
     <use xlink:href="#m47496fe83f" x="497.14858" y="339.838125" style="fill: #008000; stroke: #008000"/>
     <use xlink:href="#m47496fe83f" x="503.912216" y="339.838125" style="fill: #008000; stroke: #008000"/>
     <use xlink:href="#m47496fe83f" x="564.784943" y="293.315048" style="fill: #008000; stroke: #008000"/>
     <use xlink:href="#m47496fe83f" x="571.54858" y="339.838125" style="fill: #008000; stroke: #008000"/>
     <use xlink:href="#m47496fe83f" x="578.312216" y="339.838125" style="fill: #008000; stroke: #008000"/>
     <use xlink:href="#m47496fe83f" x="585.075852" y="316.576587" style="fill: #008000; stroke: #008000"/>
     <use xlink:href="#m47496fe83f" x="612.130398" y="316.576587" style="fill: #008000; stroke: #008000"/>
     <use xlink:href="#m47496fe83f" x="625.65767" y="316.576587" style="fill: #008000; stroke: #008000"/>
     <use xlink:href="#m47496fe83f" x="652.712216" y="339.838125" style="fill: #008000; stroke: #008000"/>
     <use xlink:href="#m47496fe83f" x="659.475852" y="316.576587" style="fill: #008000; stroke: #008000"/>
     <use xlink:href="#m47496fe83f" x="666.239489" y="293.315048" style="fill: #008000; stroke: #008000"/>
     <use xlink:href="#m47496fe83f" x="679.766761" y="37.438125" style="fill: #008000; stroke: #008000"/>
    </g>
   </g>
   <g id="line2d_28">
    <path d="M 71.039489 316.576587 
L 77.803125 339.838125 
L 84.566761 339.838125 
L 91.330398 339.838125 
L 98.094034 339.838125 
L 104.85767 339.838125 
L 111.621307 339.838125 
L 118.384943 339.838125 
L 131.912216 339.838125 
L 138.675852 339.838125 
L 145.439489 339.838125 
L 152.203125 339.838125 
L 158.966761 339.838125 
L 165.730398 339.838125 
L 172.494034 316.576587 
L 186.021307 316.576587 
L 192.784943 316.576587 
L 199.54858 316.576587 
L 206.312216 339.838125 
L 219.839489 339.838125 
L 253.65767 293.315048 
L 260.421307 339.838125 
L 267.184943 339.838125 
L 273.94858 339.838125 
L 280.712216 339.838125 
L 287.475852 339.838125 
L 294.239489 339.838125 
L 314.530398 339.838125 
L 328.05767 339.838125 
L 334.821307 316.576587 
L 341.584943 339.838125 
L 348.34858 339.838125 
L 355.112216 339.838125 
L 368.639489 293.315048 
L 375.403125 270.05351 
L 395.694034 339.838125 
L 415.984943 339.838125 
L 422.74858 316.576587 
L 443.039489 339.838125 
L 449.803125 316.576587 
L 463.330398 316.576587 
L 483.621307 339.838125 
L 490.384943 316.576587 
L 497.14858 339.838125 
L 503.912216 316.576587 
L 564.784943 339.838125 
L 571.54858 339.838125 
L 578.312216 316.576587 
L 585.075852 293.315048 
L 612.130398 316.576587 
L 625.65767 339.838125 
L 652.712216 339.838125 
L 659.475852 316.576587 
L 666.239489 339.838125 
L 679.766761 177.007356 
" clip-path="url(#pab2feef2d5)" style="fill: none; stroke: #ff0000; stroke-width: 1.5; stroke-linecap: square"/>
    <defs>
     <path id="m583f63a2ab" d="M 0 3 
C 0.795609 3 1.55874 2.683901 2.12132 2.12132 
C 2.683901 1.55874 3 0.795609 3 0 
C 3 -0.795609 2.683901 -1.55874 2.12132 -2.12132 
C 1.55874 -2.683901 0.795609 -3 0 -3 
C -0.795609 -3 -1.55874 -2.683901 -2.12132 -2.12132 
C -2.683901 -1.55874 -3 -0.795609 -3 0 
C -3 0.795609 -2.683901 1.55874 -2.12132 2.12132 
C -1.55874 2.683901 -0.795609 3 0 3 
z
" style="stroke: #ff0000"/>
    </defs>
    <g clip-path="url(#pab2feef2d5)">
     <use xlink:href="#m583f63a2ab" x="71.039489" y="316.576587" style="fill: #ff0000; stroke: #ff0000"/>
     <use xlink:href="#m583f63a2ab" x="77.803125" y="339.838125" style="fill: #ff0000; stroke: #ff0000"/>
     <use xlink:href="#m583f63a2ab" x="84.566761" y="339.838125" style="fill: #ff0000; stroke: #ff0000"/>
     <use xlink:href="#m583f63a2ab" x="91.330398" y="339.838125" style="fill: #ff0000; stroke: #ff0000"/>
     <use xlink:href="#m583f63a2ab" x="98.094034" y="339.838125" style="fill: #ff0000; stroke: #ff0000"/>
     <use xlink:href="#m583f63a2ab" x="104.85767" y="339.838125" style="fill: #ff0000; stroke: #ff0000"/>
     <use xlink:href="#m583f63a2ab" x="111.621307" y="339.838125" style="fill: #ff0000; stroke: #ff0000"/>
     <use xlink:href="#m583f63a2ab" x="118.384943" y="339.838125" style="fill: #ff0000; stroke: #ff0000"/>
     <use xlink:href="#m583f63a2ab" x="131.912216" y="339.838125" style="fill: #ff0000; stroke: #ff0000"/>
     <use xlink:href="#m583f63a2ab" x="138.675852" y="339.838125" style="fill: #ff0000; stroke: #ff0000"/>
     <use xlink:href="#m583f63a2ab" x="145.439489" y="339.838125" style="fill: #ff0000; stroke: #ff0000"/>
     <use xlink:href="#m583f63a2ab" x="152.203125" y="339.838125" style="fill: #ff0000; stroke: #ff0000"/>
     <use xlink:href="#m583f63a2ab" x="158.966761" y="339.838125" style="fill: #ff0000; stroke: #ff0000"/>
     <use xlink:href="#m583f63a2ab" x="165.730398" y="339.838125" style="fill: #ff0000; stroke: #ff0000"/>
     <use xlink:href="#m583f63a2ab" x="172.494034" y="316.576587" style="fill: #ff0000; stroke: #ff0000"/>
     <use xlink:href="#m583f63a2ab" x="186.021307" y="316.576587" style="fill: #ff0000; stroke: #ff0000"/>
     <use xlink:href="#m583f63a2ab" x="192.784943" y="316.576587" style="fill: #ff0000; stroke: #ff0000"/>
     <use xlink:href="#m583f63a2ab" x="199.54858" y="316.576587" style="fill: #ff0000; stroke: #ff0000"/>
     <use xlink:href="#m583f63a2ab" x="206.312216" y="339.838125" style="fill: #ff0000; stroke: #ff0000"/>
     <use xlink:href="#m583f63a2ab" x="219.839489" y="339.838125" style="fill: #ff0000; stroke: #ff0000"/>
     <use xlink:href="#m583f63a2ab" x="253.65767" y="293.315048" style="fill: #ff0000; stroke: #ff0000"/>
     <use xlink:href="#m583f63a2ab" x="260.421307" y="339.838125" style="fill: #ff0000; stroke: #ff0000"/>
     <use xlink:href="#m583f63a2ab" x="267.184943" y="339.838125" style="fill: #ff0000; stroke: #ff0000"/>
     <use xlink:href="#m583f63a2ab" x="273.94858" y="339.838125" style="fill: #ff0000; stroke: #ff0000"/>
     <use xlink:href="#m583f63a2ab" x="280.712216" y="339.838125" style="fill: #ff0000; stroke: #ff0000"/>
     <use xlink:href="#m583f63a2ab" x="287.475852" y="339.838125" style="fill: #ff0000; stroke: #ff0000"/>
     <use xlink:href="#m583f63a2ab" x="294.239489" y="339.838125" style="fill: #ff0000; stroke: #ff0000"/>
     <use xlink:href="#m583f63a2ab" x="314.530398" y="339.838125" style="fill: #ff0000; stroke: #ff0000"/>
     <use xlink:href="#m583f63a2ab" x="328.05767" y="339.838125" style="fill: #ff0000; stroke: #ff0000"/>
     <use xlink:href="#m583f63a2ab" x="334.821307" y="316.576587" style="fill: #ff0000; stroke: #ff0000"/>
     <use xlink:href="#m583f63a2ab" x="341.584943" y="339.838125" style="fill: #ff0000; stroke: #ff0000"/>
     <use xlink:href="#m583f63a2ab" x="348.34858" y="339.838125" style="fill: #ff0000; stroke: #ff0000"/>
     <use xlink:href="#m583f63a2ab" x="355.112216" y="339.838125" style="fill: #ff0000; stroke: #ff0000"/>
     <use xlink:href="#m583f63a2ab" x="368.639489" y="293.315048" style="fill: #ff0000; stroke: #ff0000"/>
     <use xlink:href="#m583f63a2ab" x="375.403125" y="270.05351" style="fill: #ff0000; stroke: #ff0000"/>
     <use xlink:href="#m583f63a2ab" x="395.694034" y="339.838125" style="fill: #ff0000; stroke: #ff0000"/>
     <use xlink:href="#m583f63a2ab" x="415.984943" y="339.838125" style="fill: #ff0000; stroke: #ff0000"/>
     <use xlink:href="#m583f63a2ab" x="422.74858" y="316.576587" style="fill: #ff0000; stroke: #ff0000"/>
     <use xlink:href="#m583f63a2ab" x="443.039489" y="339.838125" style="fill: #ff0000; stroke: #ff0000"/>
     <use xlink:href="#m583f63a2ab" x="449.803125" y="316.576587" style="fill: #ff0000; stroke: #ff0000"/>
     <use xlink:href="#m583f63a2ab" x="463.330398" y="316.576587" style="fill: #ff0000; stroke: #ff0000"/>
     <use xlink:href="#m583f63a2ab" x="483.621307" y="339.838125" style="fill: #ff0000; stroke: #ff0000"/>
     <use xlink:href="#m583f63a2ab" x="490.384943" y="316.576587" style="fill: #ff0000; stroke: #ff0000"/>
     <use xlink:href="#m583f63a2ab" x="497.14858" y="339.838125" style="fill: #ff0000; stroke: #ff0000"/>
     <use xlink:href="#m583f63a2ab" x="503.912216" y="316.576587" style="fill: #ff0000; stroke: #ff0000"/>
     <use xlink:href="#m583f63a2ab" x="564.784943" y="339.838125" style="fill: #ff0000; stroke: #ff0000"/>
     <use xlink:href="#m583f63a2ab" x="571.54858" y="339.838125" style="fill: #ff0000; stroke: #ff0000"/>
     <use xlink:href="#m583f63a2ab" x="578.312216" y="316.576587" style="fill: #ff0000; stroke: #ff0000"/>
     <use xlink:href="#m583f63a2ab" x="585.075852" y="293.315048" style="fill: #ff0000; stroke: #ff0000"/>
     <use xlink:href="#m583f63a2ab" x="612.130398" y="316.576587" style="fill: #ff0000; stroke: #ff0000"/>
     <use xlink:href="#m583f63a2ab" x="625.65767" y="339.838125" style="fill: #ff0000; stroke: #ff0000"/>
     <use xlink:href="#m583f63a2ab" x="652.712216" y="339.838125" style="fill: #ff0000; stroke: #ff0000"/>
     <use xlink:href="#m583f63a2ab" x="659.475852" y="316.576587" style="fill: #ff0000; stroke: #ff0000"/>
     <use xlink:href="#m583f63a2ab" x="666.239489" y="339.838125" style="fill: #ff0000; stroke: #ff0000"/>
     <use xlink:href="#m583f63a2ab" x="679.766761" y="177.007356" style="fill: #ff0000; stroke: #ff0000"/>
    </g>
   </g>
   <g id="line2d_29">
    <path d="M 71.039489 316.576587 
L 77.803125 339.838125 
L 84.566761 339.838125 
L 91.330398 339.838125 
L 98.094034 339.838125 
L 104.85767 339.838125 
L 111.621307 339.838125 
L 118.384943 339.838125 
L 131.912216 316.576587 
L 138.675852 339.838125 
L 145.439489 316.576587 
L 152.203125 339.838125 
L 158.966761 316.576587 
L 165.730398 339.838125 
L 172.494034 339.838125 
L 186.021307 339.838125 
L 192.784943 339.838125 
L 199.54858 339.838125 
L 206.312216 339.838125 
L 219.839489 339.838125 
L 253.65767 339.838125 
L 260.421307 339.838125 
L 267.184943 339.838125 
L 273.94858 339.838125 
L 280.712216 339.838125 
L 287.475852 316.576587 
L 294.239489 339.838125 
L 314.530398 339.838125 
L 328.05767 316.576587 
L 334.821307 339.838125 
L 341.584943 316.576587 
L 348.34858 316.576587 
L 355.112216 293.315048 
L 368.639489 316.576587 
L 375.403125 293.315048 
L 395.694034 339.838125 
L 415.984943 316.576587 
L 422.74858 339.838125 
L 443.039489 293.315048 
L 449.803125 316.576587 
L 463.330398 339.838125 
L 483.621307 316.576587 
L 490.384943 339.838125 
L 497.14858 339.838125 
L 503.912216 339.838125 
L 564.784943 339.838125 
L 571.54858 316.576587 
L 578.312216 316.576587 
L 585.075852 339.838125 
L 612.130398 339.838125 
L 625.65767 339.838125 
L 652.712216 293.315048 
L 659.475852 316.576587 
L 666.239489 339.838125 
L 679.766761 177.007356 
" clip-path="url(#pab2feef2d5)" style="fill: none; stroke: #800080; stroke-width: 1.5; stroke-linecap: square"/>
    <defs>
     <path id="mbdf2f20e36" d="M 0 3 
C 0.795609 3 1.55874 2.683901 2.12132 2.12132 
C 2.683901 1.55874 3 0.795609 3 0 
C 3 -0.795609 2.683901 -1.55874 2.12132 -2.12132 
C 1.55874 -2.683901 0.795609 -3 0 -3 
C -0.795609 -3 -1.55874 -2.683901 -2.12132 -2.12132 
C -2.683901 -1.55874 -3 -0.795609 -3 0 
C -3 0.795609 -2.683901 1.55874 -2.12132 2.12132 
C -1.55874 2.683901 -0.795609 3 0 3 
z
" style="stroke: #800080"/>
    </defs>
    <g clip-path="url(#pab2feef2d5)">
     <use xlink:href="#mbdf2f20e36" x="71.039489" y="316.576587" style="fill: #800080; stroke: #800080"/>
     <use xlink:href="#mbdf2f20e36" x="77.803125" y="339.838125" style="fill: #800080; stroke: #800080"/>
     <use xlink:href="#mbdf2f20e36" x="84.566761" y="339.838125" style="fill: #800080; stroke: #800080"/>
     <use xlink:href="#mbdf2f20e36" x="91.330398" y="339.838125" style="fill: #800080; stroke: #800080"/>
     <use xlink:href="#mbdf2f20e36" x="98.094034" y="339.838125" style="fill: #800080; stroke: #800080"/>
     <use xlink:href="#mbdf2f20e36" x="104.85767" y="339.838125" style="fill: #800080; stroke: #800080"/>
     <use xlink:href="#mbdf2f20e36" x="111.621307" y="339.838125" style="fill: #800080; stroke: #800080"/>
     <use xlink:href="#mbdf2f20e36" x="118.384943" y="339.838125" style="fill: #800080; stroke: #800080"/>
     <use xlink:href="#mbdf2f20e36" x="131.912216" y="316.576587" style="fill: #800080; stroke: #800080"/>
     <use xlink:href="#mbdf2f20e36" x="138.675852" y="339.838125" style="fill: #800080; stroke: #800080"/>
     <use xlink:href="#mbdf2f20e36" x="145.439489" y="316.576587" style="fill: #800080; stroke: #800080"/>
     <use xlink:href="#mbdf2f20e36" x="152.203125" y="339.838125" style="fill: #800080; stroke: #800080"/>
     <use xlink:href="#mbdf2f20e36" x="158.966761" y="316.576587" style="fill: #800080; stroke: #800080"/>
     <use xlink:href="#mbdf2f20e36" x="165.730398" y="339.838125" style="fill: #800080; stroke: #800080"/>
     <use xlink:href="#mbdf2f20e36" x="172.494034" y="339.838125" style="fill: #800080; stroke: #800080"/>
     <use xlink:href="#mbdf2f20e36" x="186.021307" y="339.838125" style="fill: #800080; stroke: #800080"/>
     <use xlink:href="#mbdf2f20e36" x="192.784943" y="339.838125" style="fill: #800080; stroke: #800080"/>
     <use xlink:href="#mbdf2f20e36" x="199.54858" y="339.838125" style="fill: #800080; stroke: #800080"/>
     <use xlink:href="#mbdf2f20e36" x="206.312216" y="339.838125" style="fill: #800080; stroke: #800080"/>
     <use xlink:href="#mbdf2f20e36" x="219.839489" y="339.838125" style="fill: #800080; stroke: #800080"/>
     <use xlink:href="#mbdf2f20e36" x="253.65767" y="339.838125" style="fill: #800080; stroke: #800080"/>
     <use xlink:href="#mbdf2f20e36" x="260.421307" y="339.838125" style="fill: #800080; stroke: #800080"/>
     <use xlink:href="#mbdf2f20e36" x="267.184943" y="339.838125" style="fill: #800080; stroke: #800080"/>
     <use xlink:href="#mbdf2f20e36" x="273.94858" y="339.838125" style="fill: #800080; stroke: #800080"/>
     <use xlink:href="#mbdf2f20e36" x="280.712216" y="339.838125" style="fill: #800080; stroke: #800080"/>
     <use xlink:href="#mbdf2f20e36" x="287.475852" y="316.576587" style="fill: #800080; stroke: #800080"/>
     <use xlink:href="#mbdf2f20e36" x="294.239489" y="339.838125" style="fill: #800080; stroke: #800080"/>
     <use xlink:href="#mbdf2f20e36" x="314.530398" y="339.838125" style="fill: #800080; stroke: #800080"/>
     <use xlink:href="#mbdf2f20e36" x="328.05767" y="316.576587" style="fill: #800080; stroke: #800080"/>
     <use xlink:href="#mbdf2f20e36" x="334.821307" y="339.838125" style="fill: #800080; stroke: #800080"/>
     <use xlink:href="#mbdf2f20e36" x="341.584943" y="316.576587" style="fill: #800080; stroke: #800080"/>
     <use xlink:href="#mbdf2f20e36" x="348.34858" y="316.576587" style="fill: #800080; stroke: #800080"/>
     <use xlink:href="#mbdf2f20e36" x="355.112216" y="293.315048" style="fill: #800080; stroke: #800080"/>
     <use xlink:href="#mbdf2f20e36" x="368.639489" y="316.576587" style="fill: #800080; stroke: #800080"/>
     <use xlink:href="#mbdf2f20e36" x="375.403125" y="293.315048" style="fill: #800080; stroke: #800080"/>
     <use xlink:href="#mbdf2f20e36" x="395.694034" y="339.838125" style="fill: #800080; stroke: #800080"/>
     <use xlink:href="#mbdf2f20e36" x="415.984943" y="316.576587" style="fill: #800080; stroke: #800080"/>
     <use xlink:href="#mbdf2f20e36" x="422.74858" y="339.838125" style="fill: #800080; stroke: #800080"/>
     <use xlink:href="#mbdf2f20e36" x="443.039489" y="293.315048" style="fill: #800080; stroke: #800080"/>
     <use xlink:href="#mbdf2f20e36" x="449.803125" y="316.576587" style="fill: #800080; stroke: #800080"/>
     <use xlink:href="#mbdf2f20e36" x="463.330398" y="339.838125" style="fill: #800080; stroke: #800080"/>
     <use xlink:href="#mbdf2f20e36" x="483.621307" y="316.576587" style="fill: #800080; stroke: #800080"/>
     <use xlink:href="#mbdf2f20e36" x="490.384943" y="339.838125" style="fill: #800080; stroke: #800080"/>
     <use xlink:href="#mbdf2f20e36" x="497.14858" y="339.838125" style="fill: #800080; stroke: #800080"/>
     <use xlink:href="#mbdf2f20e36" x="503.912216" y="339.838125" style="fill: #800080; stroke: #800080"/>
     <use xlink:href="#mbdf2f20e36" x="564.784943" y="339.838125" style="fill: #800080; stroke: #800080"/>
     <use xlink:href="#mbdf2f20e36" x="571.54858" y="316.576587" style="fill: #800080; stroke: #800080"/>
     <use xlink:href="#mbdf2f20e36" x="578.312216" y="316.576587" style="fill: #800080; stroke: #800080"/>
     <use xlink:href="#mbdf2f20e36" x="585.075852" y="339.838125" style="fill: #800080; stroke: #800080"/>
     <use xlink:href="#mbdf2f20e36" x="612.130398" y="339.838125" style="fill: #800080; stroke: #800080"/>
     <use xlink:href="#mbdf2f20e36" x="625.65767" y="339.838125" style="fill: #800080; stroke: #800080"/>
     <use xlink:href="#mbdf2f20e36" x="652.712216" y="293.315048" style="fill: #800080; stroke: #800080"/>
     <use xlink:href="#mbdf2f20e36" x="659.475852" y="316.576587" style="fill: #800080; stroke: #800080"/>
     <use xlink:href="#mbdf2f20e36" x="666.239489" y="339.838125" style="fill: #800080; stroke: #800080"/>
     <use xlink:href="#mbdf2f20e36" x="679.766761" y="177.007356" style="fill: #800080; stroke: #800080"/>
    </g>
   </g>
   <g id="patch_3">
    <path d="M 40.603125 354.958125 
L 40.603125 22.318125 
" style="fill: none; stroke: #000000; stroke-width: 0.8; stroke-linejoin: miter; stroke-linecap: square"/>
   </g>
   <g id="patch_4">
    <path d="M 710.203125 354.958125 
L 710.203125 22.318125 
" style="fill: none; stroke: #000000; stroke-width: 0.8; stroke-linejoin: miter; stroke-linecap: square"/>
   </g>
   <g id="patch_5">
    <path d="M 40.603125 354.958125 
L 710.203125 354.958125 
" style="fill: none; stroke: #000000; stroke-width: 0.8; stroke-linejoin: miter; stroke-linecap: square"/>
   </g>
   <g id="patch_6">
    <path d="M 40.603125 22.318125 
L 710.203125 22.318125 
" style="fill: none; stroke: #000000; stroke-width: 0.8; stroke-linejoin: miter; stroke-linecap: square"/>
   </g>
   <g id="text_15">
    <!-- Frequency Data of Noise (Distortion / Disturbance) -->
    <g transform="translate(223.800938 16.318125) scale(0.12 -0.12)">
     <use xlink:href="#DejaVuSans-46"/>
     <use xlink:href="#DejaVuSans-72" transform="translate(50.269531 0)"/>
     <use xlink:href="#DejaVuSans-65" transform="translate(89.132812 0)"/>
     <use xlink:href="#DejaVuSans-71" transform="translate(150.65625 0)"/>
     <use xlink:href="#DejaVuSans-75" transform="translate(214.132812 0)"/>
     <use xlink:href="#DejaVuSans-65" transform="translate(277.511719 0)"/>
     <use xlink:href="#DejaVuSans-6e" transform="translate(339.035156 0)"/>
     <use xlink:href="#DejaVuSans-63" transform="translate(402.414062 0)"/>
     <use xlink:href="#DejaVuSans-79" transform="translate(457.394531 0)"/>
     <use xlink:href="#DejaVuSans-20" transform="translate(516.574219 0)"/>
     <use xlink:href="#DejaVuSans-44" transform="translate(548.361328 0)"/>
     <use xlink:href="#DejaVuSans-61" transform="translate(625.363281 0)"/>
     <use xlink:href="#DejaVuSans-74" transform="translate(686.642578 0)"/>
     <use xlink:href="#DejaVuSans-61" transform="translate(725.851562 0)"/>
     <use xlink:href="#DejaVuSans-20" transform="translate(787.130859 0)"/>
     <use xlink:href="#DejaVuSans-6f" transform="translate(818.917969 0)"/>
     <use xlink:href="#DejaVuSans-66" transform="translate(880.099609 0)"/>
     <use xlink:href="#DejaVuSans-20" transform="translate(915.304688 0)"/>
     <use xlink:href="#DejaVuSans-4e" transform="translate(947.091797 0)"/>
     <use xlink:href="#DejaVuSans-6f" transform="translate(1021.896484 0)"/>
     <use xlink:href="#DejaVuSans-69" transform="translate(1083.078125 0)"/>
     <use xlink:href="#DejaVuSans-73" transform="translate(1110.861328 0)"/>
     <use xlink:href="#DejaVuSans-65" transform="translate(1162.960938 0)"/>
     <use xlink:href="#DejaVuSans-20" transform="translate(1224.484375 0)"/>
     <use xlink:href="#DejaVuSans-28" transform="translate(1256.271484 0)"/>
     <use xlink:href="#DejaVuSans-44" transform="translate(1295.285156 0)"/>
     <use xlink:href="#DejaVuSans-69" transform="translate(1372.287109 0)"/>
     <use xlink:href="#DejaVuSans-73" transform="translate(1400.070312 0)"/>
     <use xlink:href="#DejaVuSans-74" transform="translate(1452.169922 0)"/>
     <use xlink:href="#DejaVuSans-6f" transform="translate(1491.378906 0)"/>
     <use xlink:href="#DejaVuSans-72" transform="translate(1552.560547 0)"/>
     <use xlink:href="#DejaVuSans-74" transform="translate(1593.673828 0)"/>
     <use xlink:href="#DejaVuSans-69" transform="translate(1632.882812 0)"/>
     <use xlink:href="#DejaVuSans-6f" transform="translate(1660.666016 0)"/>
     <use xlink:href="#DejaVuSans-6e" transform="translate(1721.847656 0)"/>
     <use xlink:href="#DejaVuSans-20" transform="translate(1785.226562 0)"/>
     <use xlink:href="#DejaVuSans-2f" transform="translate(1817.013672 0)"/>
     <use xlink:href="#DejaVuSans-20" transform="translate(1850.705078 0)"/>
     <use xlink:href="#DejaVuSans-44" transform="translate(1882.492188 0)"/>
     <use xlink:href="#DejaVuSans-69" transform="translate(1959.494141 0)"/>
     <use xlink:href="#DejaVuSans-73" transform="translate(1987.277344 0)"/>
     <use xlink:href="#DejaVuSans-74" transform="translate(2039.376953 0)"/>
     <use xlink:href="#DejaVuSans-75" transform="translate(2078.585938 0)"/>
     <use xlink:href="#DejaVuSans-72" transform="translate(2141.964844 0)"/>
     <use xlink:href="#DejaVuSans-62" transform="translate(2183.078125 0)"/>
     <use xlink:href="#DejaVuSans-61" transform="translate(2246.554688 0)"/>
     <use xlink:href="#DejaVuSans-6e" transform="translate(2307.833984 0)"/>
     <use xlink:href="#DejaVuSans-63" transform="translate(2371.212891 0)"/>
     <use xlink:href="#DejaVuSans-65" transform="translate(2426.193359 0)"/>
     <use xlink:href="#DejaVuSans-29" transform="translate(2487.716797 0)"/>
    </g>
   </g>
   <g id="legend_1">
    <g id="patch_7">
     <path d="M 47.603125 103.70875 
L 117.10625 103.70875 
Q 119.10625 103.70875 119.10625 101.70875 
L 119.10625 29.318125 
Q 119.10625 27.318125 117.10625 27.318125 
L 47.603125 27.318125 
Q 45.603125 27.318125 45.603125 29.318125 
L 45.603125 101.70875 
Q 45.603125 103.70875 47.603125 103.70875 
z
" style="fill: #ffffff; opacity: 0.8; stroke: #cccccc; stroke-linejoin: miter"/>
    </g>
    <g id="line2d_30">
     <path d="M 49.603125 35.416562 
L 59.603125 35.416562 
L 69.603125 35.416562 
" style="fill: none; stroke: #0000ff; stroke-width: 1.5; stroke-linecap: square"/>
     <g>
      <use xlink:href="#m7c7b727b69" x="59.603125" y="35.416562" style="fill: #0000ff; stroke: #0000ff"/>
     </g>
    </g>
    <g id="text_16">
     <!-- Joy -->
     <g transform="translate(77.603125 38.916562) scale(0.1 -0.1)">
      <defs>
       <path id="DejaVuSans-4a" d="M 628 4666 
L 1259 4666 
L 1259 325 
Q 1259 -519 939 -900 
Q 619 -1281 -91 -1281 
L -331 -1281 
L -331 -750 
L -134 -750 
Q 284 -750 456 -515 
Q 628 -281 628 325 
L 628 4666 
z
" transform="scale(0.015625)"/>
      </defs>
      <use xlink:href="#DejaVuSans-4a"/>
      <use xlink:href="#DejaVuSans-6f" transform="translate(29.492188 0)"/>
      <use xlink:href="#DejaVuSans-79" transform="translate(90.673828 0)"/>
     </g>
    </g>
    <g id="line2d_31">
     <path d="M 49.603125 50.094688 
L 59.603125 50.094688 
L 69.603125 50.094688 
" style="fill: none; stroke: #ffa500; stroke-width: 1.5; stroke-linecap: square"/>
     <g>
      <use xlink:href="#m5e1a6413f3" x="59.603125" y="50.094688" style="fill: #ffa500; stroke: #ffa500"/>
     </g>
    </g>
    <g id="text_17">
     <!-- Sad -->
     <g transform="translate(77.603125 53.594688) scale(0.1 -0.1)">
      <defs>
       <path id="DejaVuSans-53" d="M 3425 4513 
L 3425 3897 
Q 3066 4069 2747 4153 
Q 2428 4238 2131 4238 
Q 1616 4238 1336 4038 
Q 1056 3838 1056 3469 
Q 1056 3159 1242 3001 
Q 1428 2844 1947 2747 
L 2328 2669 
Q 3034 2534 3370 2195 
Q 3706 1856 3706 1288 
Q 3706 609 3251 259 
Q 2797 -91 1919 -91 
Q 1588 -91 1214 -16 
Q 841 59 441 206 
L 441 856 
Q 825 641 1194 531 
Q 1563 422 1919 422 
Q 2459 422 2753 634 
Q 3047 847 3047 1241 
Q 3047 1584 2836 1778 
Q 2625 1972 2144 2069 
L 1759 2144 
Q 1053 2284 737 2584 
Q 422 2884 422 3419 
Q 422 4038 858 4394 
Q 1294 4750 2059 4750 
Q 2388 4750 2728 4690 
Q 3069 4631 3425 4513 
z
" transform="scale(0.015625)"/>
       <path id="DejaVuSans-64" d="M 2906 2969 
L 2906 4863 
L 3481 4863 
L 3481 0 
L 2906 0 
L 2906 525 
Q 2725 213 2448 61 
Q 2172 -91 1784 -91 
Q 1150 -91 751 415 
Q 353 922 353 1747 
Q 353 2572 751 3078 
Q 1150 3584 1784 3584 
Q 2172 3584 2448 3432 
Q 2725 3281 2906 2969 
z
M 947 1747 
Q 947 1113 1208 752 
Q 1469 391 1925 391 
Q 2381 391 2643 752 
Q 2906 1113 2906 1747 
Q 2906 2381 2643 2742 
Q 2381 3103 1925 3103 
Q 1469 3103 1208 2742 
Q 947 2381 947 1747 
z
" transform="scale(0.015625)"/>
      </defs>
      <use xlink:href="#DejaVuSans-53"/>
      <use xlink:href="#DejaVuSans-61" transform="translate(63.476562 0)"/>
      <use xlink:href="#DejaVuSans-64" transform="translate(124.755859 0)"/>
     </g>
    </g>
    <g id="line2d_32">
     <path d="M 49.603125 64.772812 
L 59.603125 64.772812 
L 69.603125 64.772812 
" style="fill: none; stroke: #008000; stroke-width: 1.5; stroke-linecap: square"/>
     <g>
      <use xlink:href="#m47496fe83f" x="59.603125" y="64.772812" style="fill: #008000; stroke: #008000"/>
     </g>
    </g>
    <g id="text_18">
     <!-- Anger -->
     <g transform="translate(77.603125 68.272812) scale(0.1 -0.1)">
      <defs>
       <path id="DejaVuSans-41" d="M 2188 4044 
L 1331 1722 
L 3047 1722 
L 2188 4044 
z
M 1831 4666 
L 2547 4666 
L 4325 0 
L 3669 0 
L 3244 1197 
L 1141 1197 
L 716 0 
L 50 0 
L 1831 4666 
z
" transform="scale(0.015625)"/>
       <path id="DejaVuSans-67" d="M 2906 1791 
Q 2906 2416 2648 2759 
Q 2391 3103 1925 3103 
Q 1463 3103 1205 2759 
Q 947 2416 947 1791 
Q 947 1169 1205 825 
Q 1463 481 1925 481 
Q 2391 481 2648 825 
Q 2906 1169 2906 1791 
z
M 3481 434 
Q 3481 -459 3084 -895 
Q 2688 -1331 1869 -1331 
Q 1566 -1331 1297 -1286 
Q 1028 -1241 775 -1147 
L 775 -588 
Q 1028 -725 1275 -790 
Q 1522 -856 1778 -856 
Q 2344 -856 2625 -561 
Q 2906 -266 2906 331 
L 2906 616 
Q 2728 306 2450 153 
Q 2172 0 1784 0 
Q 1141 0 747 490 
Q 353 981 353 1791 
Q 353 2603 747 3093 
Q 1141 3584 1784 3584 
Q 2172 3584 2450 3431 
Q 2728 3278 2906 2969 
L 2906 3500 
L 3481 3500 
L 3481 434 
z
" transform="scale(0.015625)"/>
      </defs>
      <use xlink:href="#DejaVuSans-41"/>
      <use xlink:href="#DejaVuSans-6e" transform="translate(68.408203 0)"/>
      <use xlink:href="#DejaVuSans-67" transform="translate(131.787109 0)"/>
      <use xlink:href="#DejaVuSans-65" transform="translate(195.263672 0)"/>
      <use xlink:href="#DejaVuSans-72" transform="translate(256.787109 0)"/>
     </g>
    </g>
    <g id="line2d_33">
     <path d="M 49.603125 79.450938 
L 59.603125 79.450938 
L 69.603125 79.450938 
" style="fill: none; stroke: #ff0000; stroke-width: 1.5; stroke-linecap: square"/>
     <g>
      <use xlink:href="#m583f63a2ab" x="59.603125" y="79.450938" style="fill: #ff0000; stroke: #ff0000"/>
     </g>
    </g>
    <g id="text_19">
     <!-- Fear -->
     <g transform="translate(77.603125 82.950938) scale(0.1 -0.1)">
      <use xlink:href="#DejaVuSans-46"/>
      <use xlink:href="#DejaVuSans-65" transform="translate(52.019531 0)"/>
      <use xlink:href="#DejaVuSans-61" transform="translate(113.542969 0)"/>
      <use xlink:href="#DejaVuSans-72" transform="translate(174.822266 0)"/>
     </g>
    </g>
    <g id="line2d_34">
     <path d="M 49.603125 94.129063 
L 59.603125 94.129063 
L 69.603125 94.129063 
" style="fill: none; stroke: #800080; stroke-width: 1.5; stroke-linecap: square"/>
     <g>
      <use xlink:href="#mbdf2f20e36" x="59.603125" y="94.129063" style="fill: #800080; stroke: #800080"/>
     </g>
    </g>
    <g id="text_20">
     <!-- Disgust -->
     <g transform="translate(77.603125 97.629063) scale(0.1 -0.1)">
      <use xlink:href="#DejaVuSans-44"/>
      <use xlink:href="#DejaVuSans-69" transform="translate(77.001953 0)"/>
      <use xlink:href="#DejaVuSans-73" transform="translate(104.785156 0)"/>
      <use xlink:href="#DejaVuSans-67" transform="translate(156.884766 0)"/>
      <use xlink:href="#DejaVuSans-75" transform="translate(220.361328 0)"/>
      <use xlink:href="#DejaVuSans-73" transform="translate(283.740234 0)"/>
      <use xlink:href="#DejaVuSans-74" transform="translate(335.839844 0)"/>
     </g>
    </g>
   </g>
  </g>
 </g>
 <defs>
  <clipPath id="pab2feef2d5">
   <rect x="40.603125" y="22.318125" width="669.6" height="332.64"/>
  </clipPath>
 </defs>
</svg>
