<?xml version="1.0" encoding="utf-8" standalone="no"?>
<!DOCTYPE svg PUBLIC "-//W3C//DTD SVG 1.1//EN"
  "http://www.w3.org/Graphics/SVG/1.1/DTD/svg11.dtd">
<svg xmlns:xlink="http://www.w3.org/1999/xlink" width="717.403125pt" height="392.514375pt" viewBox="0 0 717.403125 392.514375" xmlns="http://www.w3.org/2000/svg" version="1.1">
 <metadata>
  <rdf:RDF xmlns:dc="http://purl.org/dc/elements/1.1/" xmlns:cc="http://creativecommons.org/ns#" xmlns:rdf="http://www.w3.org/1999/02/22-rdf-syntax-ns#">
   <cc:Work>
    <dc:type rdf:resource="http://purl.org/dc/dcmitype/StillImage"/>
    <dc:date>2025-02-01T00:31:04.036021</dc:date>
    <dc:format>image/svg+xml</dc:format>
    <dc:creator>
     <cc:Agent>
      <dc:title>Matplotlib v3.10.0, https://matplotlib.org/</dc:title>
     </cc:Agent>
    </dc:creator>
   </cc:Work>
  </rdf:RDF>
 </metadata>
 <defs>
  <style type="text/css">*{stroke-linejoin: round; stroke-linecap: butt}</style>
 </defs>
 <g id="figure_1">
  <g id="patch_1">
   <path d="M 0 392.514375 
L 717.403125 392.514375 
L 717.403125 0 
L 0 0 
z
" style="fill: #ffffff"/>
  </g>
  <g id="axes_1">
   <g id="patch_2">
    <path d="M 40.603125 354.958125 
L 710.203125 354.958125 
L 710.203125 22.318125 
L 40.603125 22.318125 
z
" style="fill: #ffffff"/>
   </g>
   <g id="matplotlib.axis_1">
    <g id="xtick_1">
     <g id="line2d_1">
      <path d="M 71.039489 354.958125 
L 71.039489 22.318125 
" clip-path="url(#p89224b04b9)" style="fill: none; stroke: #b0b0b0; stroke-width: 0.8; stroke-linecap: square"/>
     </g>
     <g id="line2d_2">
      <defs>
       <path id="m5da0949b9c" d="M 0 0 
L 0 3.5 
" style="stroke: #000000; stroke-width: 0.8"/>
      </defs>
      <g>
       <use xlink:href="#m5da0949b9c" x="71.039489" y="354.958125" style="stroke: #000000; stroke-width: 0.8"/>
      </g>
     </g>
     <g id="text_1">
      <!-- 1.0 -->
      <g transform="translate(63.087926 369.556562) scale(0.1 -0.1)">
       <defs>
        <path id="DejaVuSans-31" d="M 794 531 
L 1825 531 
L 1825 4091 
L 703 3866 
L 703 4441 
L 1819 4666 
L 2450 4666 
L 2450 531 
L 3481 531 
L 3481 0 
L 794 0 
L 794 531 
z
" transform="scale(0.015625)"/>
        <path id="DejaVuSans-2e" d="M 684 794 
L 1344 794 
L 1344 0 
L 684 0 
L 684 794 
z
" transform="scale(0.015625)"/>
        <path id="DejaVuSans-30" d="M 2034 4250 
Q 1547 4250 1301 3770 
Q 1056 3291 1056 2328 
Q 1056 1369 1301 889 
Q 1547 409 2034 409 
Q 2525 409 2770 889 
Q 3016 1369 3016 2328 
Q 3016 3291 2770 3770 
Q 2525 4250 2034 4250 
z
M 2034 4750 
Q 2819 4750 3233 4129 
Q 3647 3509 3647 2328 
Q 3647 1150 3233 529 
Q 2819 -91 2034 -91 
Q 1250 -91 836 529 
Q 422 1150 422 2328 
Q 422 3509 836 4129 
Q 1250 4750 2034 4750 
z
" transform="scale(0.015625)"/>
       </defs>
       <use xlink:href="#DejaVuSans-31"/>
       <use xlink:href="#DejaVuSans-2e" transform="translate(63.623047 0)"/>
       <use xlink:href="#DejaVuSans-30" transform="translate(95.410156 0)"/>
      </g>
     </g>
    </g>
    <g id="xtick_2">
     <g id="line2d_3">
      <path d="M 147.130398 354.958125 
L 147.130398 22.318125 
" clip-path="url(#p89224b04b9)" style="fill: none; stroke: #b0b0b0; stroke-width: 0.8; stroke-linecap: square"/>
     </g>
     <g id="line2d_4">
      <g>
       <use xlink:href="#m5da0949b9c" x="147.130398" y="354.958125" style="stroke: #000000; stroke-width: 0.8"/>
      </g>
     </g>
     <g id="text_2">
      <!-- 1.5 -->
      <g transform="translate(139.178835 369.556562) scale(0.1 -0.1)">
       <defs>
        <path id="DejaVuSans-35" d="M 691 4666 
L 3169 4666 
L 3169 4134 
L 1269 4134 
L 1269 2991 
Q 1406 3038 1543 3061 
Q 1681 3084 1819 3084 
Q 2600 3084 3056 2656 
Q 3513 2228 3513 1497 
Q 3513 744 3044 326 
Q 2575 -91 1722 -91 
Q 1428 -91 1123 -41 
Q 819 9 494 109 
L 494 744 
Q 775 591 1075 516 
Q 1375 441 1709 441 
Q 2250 441 2565 725 
Q 2881 1009 2881 1497 
Q 2881 1984 2565 2268 
Q 2250 2553 1709 2553 
Q 1456 2553 1204 2497 
Q 953 2441 691 2322 
L 691 4666 
z
" transform="scale(0.015625)"/>
       </defs>
       <use xlink:href="#DejaVuSans-31"/>
       <use xlink:href="#DejaVuSans-2e" transform="translate(63.623047 0)"/>
       <use xlink:href="#DejaVuSans-35" transform="translate(95.410156 0)"/>
      </g>
     </g>
    </g>
    <g id="xtick_3">
     <g id="line2d_5">
      <path d="M 223.221307 354.958125 
L 223.221307 22.318125 
" clip-path="url(#p89224b04b9)" style="fill: none; stroke: #b0b0b0; stroke-width: 0.8; stroke-linecap: square"/>
     </g>
     <g id="line2d_6">
      <g>
       <use xlink:href="#m5da0949b9c" x="223.221307" y="354.958125" style="stroke: #000000; stroke-width: 0.8"/>
      </g>
     </g>
     <g id="text_3">
      <!-- 2.0 -->
      <g transform="translate(215.269744 369.556562) scale(0.1 -0.1)">
       <defs>
        <path id="DejaVuSans-32" d="M 1228 531 
L 3431 531 
L 3431 0 
L 469 0 
L 469 531 
Q 828 903 1448 1529 
Q 2069 2156 2228 2338 
Q 2531 2678 2651 2914 
Q 2772 3150 2772 3378 
Q 2772 3750 2511 3984 
Q 2250 4219 1831 4219 
Q 1534 4219 1204 4116 
Q 875 4013 500 3803 
L 500 4441 
Q 881 4594 1212 4672 
Q 1544 4750 1819 4750 
Q 2544 4750 2975 4387 
Q 3406 4025 3406 3419 
Q 3406 3131 3298 2873 
Q 3191 2616 2906 2266 
Q 2828 2175 2409 1742 
Q 1991 1309 1228 531 
z
" transform="scale(0.015625)"/>
       </defs>
       <use xlink:href="#DejaVuSans-32"/>
       <use xlink:href="#DejaVuSans-2e" transform="translate(63.623047 0)"/>
       <use xlink:href="#DejaVuSans-30" transform="translate(95.410156 0)"/>
      </g>
     </g>
    </g>
    <g id="xtick_4">
     <g id="line2d_7">
      <path d="M 299.312216 354.958125 
L 299.312216 22.318125 
" clip-path="url(#p89224b04b9)" style="fill: none; stroke: #b0b0b0; stroke-width: 0.8; stroke-linecap: square"/>
     </g>
     <g id="line2d_8">
      <g>
       <use xlink:href="#m5da0949b9c" x="299.312216" y="354.958125" style="stroke: #000000; stroke-width: 0.8"/>
      </g>
     </g>
     <g id="text_4">
      <!-- 2.5 -->
      <g transform="translate(291.360653 369.556562) scale(0.1 -0.1)">
       <use xlink:href="#DejaVuSans-32"/>
       <use xlink:href="#DejaVuSans-2e" transform="translate(63.623047 0)"/>
       <use xlink:href="#DejaVuSans-35" transform="translate(95.410156 0)"/>
      </g>
     </g>
    </g>
    <g id="xtick_5">
     <g id="line2d_9">
      <path d="M 375.403125 354.958125 
L 375.403125 22.318125 
" clip-path="url(#p89224b04b9)" style="fill: none; stroke: #b0b0b0; stroke-width: 0.8; stroke-linecap: square"/>
     </g>
     <g id="line2d_10">
      <g>
       <use xlink:href="#m5da0949b9c" x="375.403125" y="354.958125" style="stroke: #000000; stroke-width: 0.8"/>
      </g>
     </g>
     <g id="text_5">
      <!-- 3.0 -->
      <g transform="translate(367.451563 369.556562) scale(0.1 -0.1)">
       <defs>
        <path id="DejaVuSans-33" d="M 2597 2516 
Q 3050 2419 3304 2112 
Q 3559 1806 3559 1356 
Q 3559 666 3084 287 
Q 2609 -91 1734 -91 
Q 1441 -91 1130 -33 
Q 819 25 488 141 
L 488 750 
Q 750 597 1062 519 
Q 1375 441 1716 441 
Q 2309 441 2620 675 
Q 2931 909 2931 1356 
Q 2931 1769 2642 2001 
Q 2353 2234 1838 2234 
L 1294 2234 
L 1294 2753 
L 1863 2753 
Q 2328 2753 2575 2939 
Q 2822 3125 2822 3475 
Q 2822 3834 2567 4026 
Q 2313 4219 1838 4219 
Q 1578 4219 1281 4162 
Q 984 4106 628 3988 
L 628 4550 
Q 988 4650 1302 4700 
Q 1616 4750 1894 4750 
Q 2613 4750 3031 4423 
Q 3450 4097 3450 3541 
Q 3450 3153 3228 2886 
Q 3006 2619 2597 2516 
z
" transform="scale(0.015625)"/>
       </defs>
       <use xlink:href="#DejaVuSans-33"/>
       <use xlink:href="#DejaVuSans-2e" transform="translate(63.623047 0)"/>
       <use xlink:href="#DejaVuSans-30" transform="translate(95.410156 0)"/>
      </g>
     </g>
    </g>
    <g id="xtick_6">
     <g id="line2d_11">
      <path d="M 451.494034 354.958125 
L 451.494034 22.318125 
" clip-path="url(#p89224b04b9)" style="fill: none; stroke: #b0b0b0; stroke-width: 0.8; stroke-linecap: square"/>
     </g>
     <g id="line2d_12">
      <g>
       <use xlink:href="#m5da0949b9c" x="451.494034" y="354.958125" style="stroke: #000000; stroke-width: 0.8"/>
      </g>
     </g>
     <g id="text_6">
      <!-- 3.5 -->
      <g transform="translate(443.542472 369.556562) scale(0.1 -0.1)">
       <use xlink:href="#DejaVuSans-33"/>
       <use xlink:href="#DejaVuSans-2e" transform="translate(63.623047 0)"/>
       <use xlink:href="#DejaVuSans-35" transform="translate(95.410156 0)"/>
      </g>
     </g>
    </g>
    <g id="xtick_7">
     <g id="line2d_13">
      <path d="M 527.584943 354.958125 
L 527.584943 22.318125 
" clip-path="url(#p89224b04b9)" style="fill: none; stroke: #b0b0b0; stroke-width: 0.8; stroke-linecap: square"/>
     </g>
     <g id="line2d_14">
      <g>
       <use xlink:href="#m5da0949b9c" x="527.584943" y="354.958125" style="stroke: #000000; stroke-width: 0.8"/>
      </g>
     </g>
     <g id="text_7">
      <!-- 4.0 -->
      <g transform="translate(519.633381 369.556562) scale(0.1 -0.1)">
       <defs>
        <path id="DejaVuSans-34" d="M 2419 4116 
L 825 1625 
L 2419 1625 
L 2419 4116 
z
M 2253 4666 
L 3047 4666 
L 3047 1625 
L 3713 1625 
L 3713 1100 
L 3047 1100 
L 3047 0 
L 2419 0 
L 2419 1100 
L 313 1100 
L 313 1709 
L 2253 4666 
z
" transform="scale(0.015625)"/>
       </defs>
       <use xlink:href="#DejaVuSans-34"/>
       <use xlink:href="#DejaVuSans-2e" transform="translate(63.623047 0)"/>
       <use xlink:href="#DejaVuSans-30" transform="translate(95.410156 0)"/>
      </g>
     </g>
    </g>
    <g id="xtick_8">
     <g id="line2d_15">
      <path d="M 603.675852 354.958125 
L 603.675852 22.318125 
" clip-path="url(#p89224b04b9)" style="fill: none; stroke: #b0b0b0; stroke-width: 0.8; stroke-linecap: square"/>
     </g>
     <g id="line2d_16">
      <g>
       <use xlink:href="#m5da0949b9c" x="603.675852" y="354.958125" style="stroke: #000000; stroke-width: 0.8"/>
      </g>
     </g>
     <g id="text_8">
      <!-- 4.5 -->
      <g transform="translate(595.72429 369.556562) scale(0.1 -0.1)">
       <use xlink:href="#DejaVuSans-34"/>
       <use xlink:href="#DejaVuSans-2e" transform="translate(63.623047 0)"/>
       <use xlink:href="#DejaVuSans-35" transform="translate(95.410156 0)"/>
      </g>
     </g>
    </g>
    <g id="xtick_9">
     <g id="line2d_17">
      <path d="M 679.766761 354.958125 
L 679.766761 22.318125 
" clip-path="url(#p89224b04b9)" style="fill: none; stroke: #b0b0b0; stroke-width: 0.8; stroke-linecap: square"/>
     </g>
     <g id="line2d_18">
      <g>
       <use xlink:href="#m5da0949b9c" x="679.766761" y="354.958125" style="stroke: #000000; stroke-width: 0.8"/>
      </g>
     </g>
     <g id="text_9">
      <!-- 5.0 -->
      <g transform="translate(671.815199 369.556562) scale(0.1 -0.1)">
       <use xlink:href="#DejaVuSans-35"/>
       <use xlink:href="#DejaVuSans-2e" transform="translate(63.623047 0)"/>
       <use xlink:href="#DejaVuSans-30" transform="translate(95.410156 0)"/>
      </g>
     </g>
    </g>
    <g id="text_10">
     <!-- Values of Boldness / Thickness -->
     <g transform="translate(298.988281 383.234687) scale(0.1 -0.1)">
      <defs>
       <path id="DejaVuSans-56" d="M 1831 0 
L 50 4666 
L 709 4666 
L 2188 738 
L 3669 4666 
L 4325 4666 
L 2547 0 
L 1831 0 
z
" transform="scale(0.015625)"/>
       <path id="DejaVuSans-61" d="M 2194 1759 
Q 1497 1759 1228 1600 
Q 959 1441 959 1056 
Q 959 750 1161 570 
Q 1363 391 1709 391 
Q 2188 391 2477 730 
Q 2766 1069 2766 1631 
L 2766 1759 
L 2194 1759 
z
M 3341 1997 
L 3341 0 
L 2766 0 
L 2766 531 
Q 2569 213 2275 61 
Q 1981 -91 1556 -91 
Q 1019 -91 701 211 
Q 384 513 384 1019 
Q 384 1609 779 1909 
Q 1175 2209 1959 2209 
L 2766 2209 
L 2766 2266 
Q 2766 2663 2505 2880 
Q 2244 3097 1772 3097 
Q 1472 3097 1187 3025 
Q 903 2953 641 2809 
L 641 3341 
Q 956 3463 1253 3523 
Q 1550 3584 1831 3584 
Q 2591 3584 2966 3190 
Q 3341 2797 3341 1997 
z
" transform="scale(0.015625)"/>
       <path id="DejaVuSans-6c" d="M 603 4863 
L 1178 4863 
L 1178 0 
L 603 0 
L 603 4863 
z
" transform="scale(0.015625)"/>
       <path id="DejaVuSans-75" d="M 544 1381 
L 544 3500 
L 1119 3500 
L 1119 1403 
Q 1119 906 1312 657 
Q 1506 409 1894 409 
Q 2359 409 2629 706 
Q 2900 1003 2900 1516 
L 2900 3500 
L 3475 3500 
L 3475 0 
L 2900 0 
L 2900 538 
Q 2691 219 2414 64 
Q 2138 -91 1772 -91 
Q 1169 -91 856 284 
Q 544 659 544 1381 
z
M 1991 3584 
L 1991 3584 
z
" transform="scale(0.015625)"/>
       <path id="DejaVuSans-65" d="M 3597 1894 
L 3597 1613 
L 953 1613 
Q 991 1019 1311 708 
Q 1631 397 2203 397 
Q 2534 397 2845 478 
Q 3156 559 3463 722 
L 3463 178 
Q 3153 47 2828 -22 
Q 2503 -91 2169 -91 
Q 1331 -91 842 396 
Q 353 884 353 1716 
Q 353 2575 817 3079 
Q 1281 3584 2069 3584 
Q 2775 3584 3186 3129 
Q 3597 2675 3597 1894 
z
M 3022 2063 
Q 3016 2534 2758 2815 
Q 2500 3097 2075 3097 
Q 1594 3097 1305 2825 
Q 1016 2553 972 2059 
L 3022 2063 
z
" transform="scale(0.015625)"/>
       <path id="DejaVuSans-73" d="M 2834 3397 
L 2834 2853 
Q 2591 2978 2328 3040 
Q 2066 3103 1784 3103 
Q 1356 3103 1142 2972 
Q 928 2841 928 2578 
Q 928 2378 1081 2264 
Q 1234 2150 1697 2047 
L 1894 2003 
Q 2506 1872 2764 1633 
Q 3022 1394 3022 966 
Q 3022 478 2636 193 
Q 2250 -91 1575 -91 
Q 1294 -91 989 -36 
Q 684 19 347 128 
L 347 722 
Q 666 556 975 473 
Q 1284 391 1588 391 
Q 1994 391 2212 530 
Q 2431 669 2431 922 
Q 2431 1156 2273 1281 
Q 2116 1406 1581 1522 
L 1381 1569 
Q 847 1681 609 1914 
Q 372 2147 372 2553 
Q 372 3047 722 3315 
Q 1072 3584 1716 3584 
Q 2034 3584 2315 3537 
Q 2597 3491 2834 3397 
z
" transform="scale(0.015625)"/>
       <path id="DejaVuSans-20" transform="scale(0.015625)"/>
       <path id="DejaVuSans-6f" d="M 1959 3097 
Q 1497 3097 1228 2736 
Q 959 2375 959 1747 
Q 959 1119 1226 758 
Q 1494 397 1959 397 
Q 2419 397 2687 759 
Q 2956 1122 2956 1747 
Q 2956 2369 2687 2733 
Q 2419 3097 1959 3097 
z
M 1959 3584 
Q 2709 3584 3137 3096 
Q 3566 2609 3566 1747 
Q 3566 888 3137 398 
Q 2709 -91 1959 -91 
Q 1206 -91 779 398 
Q 353 888 353 1747 
Q 353 2609 779 3096 
Q 1206 3584 1959 3584 
z
" transform="scale(0.015625)"/>
       <path id="DejaVuSans-66" d="M 2375 4863 
L 2375 4384 
L 1825 4384 
Q 1516 4384 1395 4259 
Q 1275 4134 1275 3809 
L 1275 3500 
L 2222 3500 
L 2222 3053 
L 1275 3053 
L 1275 0 
L 697 0 
L 697 3053 
L 147 3053 
L 147 3500 
L 697 3500 
L 697 3744 
Q 697 4328 969 4595 
Q 1241 4863 1831 4863 
L 2375 4863 
z
" transform="scale(0.015625)"/>
       <path id="DejaVuSans-42" d="M 1259 2228 
L 1259 519 
L 2272 519 
Q 2781 519 3026 730 
Q 3272 941 3272 1375 
Q 3272 1813 3026 2020 
Q 2781 2228 2272 2228 
L 1259 2228 
z
M 1259 4147 
L 1259 2741 
L 2194 2741 
Q 2656 2741 2882 2914 
Q 3109 3088 3109 3444 
Q 3109 3797 2882 3972 
Q 2656 4147 2194 4147 
L 1259 4147 
z
M 628 4666 
L 2241 4666 
Q 2963 4666 3353 4366 
Q 3744 4066 3744 3513 
Q 3744 3084 3544 2831 
Q 3344 2578 2956 2516 
Q 3422 2416 3680 2098 
Q 3938 1781 3938 1306 
Q 3938 681 3513 340 
Q 3088 0 2303 0 
L 628 0 
L 628 4666 
z
" transform="scale(0.015625)"/>
       <path id="DejaVuSans-64" d="M 2906 2969 
L 2906 4863 
L 3481 4863 
L 3481 0 
L 2906 0 
L 2906 525 
Q 2725 213 2448 61 
Q 2172 -91 1784 -91 
Q 1150 -91 751 415 
Q 353 922 353 1747 
Q 353 2572 751 3078 
Q 1150 3584 1784 3584 
Q 2172 3584 2448 3432 
Q 2725 3281 2906 2969 
z
M 947 1747 
Q 947 1113 1208 752 
Q 1469 391 1925 391 
Q 2381 391 2643 752 
Q 2906 1113 2906 1747 
Q 2906 2381 2643 2742 
Q 2381 3103 1925 3103 
Q 1469 3103 1208 2742 
Q 947 2381 947 1747 
z
" transform="scale(0.015625)"/>
       <path id="DejaVuSans-6e" d="M 3513 2113 
L 3513 0 
L 2938 0 
L 2938 2094 
Q 2938 2591 2744 2837 
Q 2550 3084 2163 3084 
Q 1697 3084 1428 2787 
Q 1159 2491 1159 1978 
L 1159 0 
L 581 0 
L 581 3500 
L 1159 3500 
L 1159 2956 
Q 1366 3272 1645 3428 
Q 1925 3584 2291 3584 
Q 2894 3584 3203 3211 
Q 3513 2838 3513 2113 
z
" transform="scale(0.015625)"/>
       <path id="DejaVuSans-2f" d="M 1625 4666 
L 2156 4666 
L 531 -594 
L 0 -594 
L 1625 4666 
z
" transform="scale(0.015625)"/>
       <path id="DejaVuSans-54" d="M -19 4666 
L 3928 4666 
L 3928 4134 
L 2272 4134 
L 2272 0 
L 1638 0 
L 1638 4134 
L -19 4134 
L -19 4666 
z
" transform="scale(0.015625)"/>
       <path id="DejaVuSans-68" d="M 3513 2113 
L 3513 0 
L 2938 0 
L 2938 2094 
Q 2938 2591 2744 2837 
Q 2550 3084 2163 3084 
Q 1697 3084 1428 2787 
Q 1159 2491 1159 1978 
L 1159 0 
L 581 0 
L 581 4863 
L 1159 4863 
L 1159 2956 
Q 1366 3272 1645 3428 
Q 1925 3584 2291 3584 
Q 2894 3584 3203 3211 
Q 3513 2838 3513 2113 
z
" transform="scale(0.015625)"/>
       <path id="DejaVuSans-69" d="M 603 3500 
L 1178 3500 
L 1178 0 
L 603 0 
L 603 3500 
z
M 603 4863 
L 1178 4863 
L 1178 4134 
L 603 4134 
L 603 4863 
z
" transform="scale(0.015625)"/>
       <path id="DejaVuSans-63" d="M 3122 3366 
L 3122 2828 
Q 2878 2963 2633 3030 
Q 2388 3097 2138 3097 
Q 1578 3097 1268 2742 
Q 959 2388 959 1747 
Q 959 1106 1268 751 
Q 1578 397 2138 397 
Q 2388 397 2633 464 
Q 2878 531 3122 666 
L 3122 134 
Q 2881 22 2623 -34 
Q 2366 -91 2075 -91 
Q 1284 -91 818 406 
Q 353 903 353 1747 
Q 353 2603 823 3093 
Q 1294 3584 2113 3584 
Q 2378 3584 2631 3529 
Q 2884 3475 3122 3366 
z
" transform="scale(0.015625)"/>
       <path id="DejaVuSans-6b" d="M 581 4863 
L 1159 4863 
L 1159 1991 
L 2875 3500 
L 3609 3500 
L 1753 1863 
L 3688 0 
L 2938 0 
L 1159 1709 
L 1159 0 
L 581 0 
L 581 4863 
z
" transform="scale(0.015625)"/>
      </defs>
      <use xlink:href="#DejaVuSans-56"/>
      <use xlink:href="#DejaVuSans-61" transform="translate(60.658203 0)"/>
      <use xlink:href="#DejaVuSans-6c" transform="translate(121.9375 0)"/>
      <use xlink:href="#DejaVuSans-75" transform="translate(149.720703 0)"/>
      <use xlink:href="#DejaVuSans-65" transform="translate(213.099609 0)"/>
      <use xlink:href="#DejaVuSans-73" transform="translate(274.623047 0)"/>
      <use xlink:href="#DejaVuSans-20" transform="translate(326.722656 0)"/>
      <use xlink:href="#DejaVuSans-6f" transform="translate(358.509766 0)"/>
      <use xlink:href="#DejaVuSans-66" transform="translate(419.691406 0)"/>
      <use xlink:href="#DejaVuSans-20" transform="translate(454.896484 0)"/>
      <use xlink:href="#DejaVuSans-42" transform="translate(486.683594 0)"/>
      <use xlink:href="#DejaVuSans-6f" transform="translate(555.287109 0)"/>
      <use xlink:href="#DejaVuSans-6c" transform="translate(616.46875 0)"/>
      <use xlink:href="#DejaVuSans-64" transform="translate(644.251953 0)"/>
      <use xlink:href="#DejaVuSans-6e" transform="translate(707.728516 0)"/>
      <use xlink:href="#DejaVuSans-65" transform="translate(771.107422 0)"/>
      <use xlink:href="#DejaVuSans-73" transform="translate(832.630859 0)"/>
      <use xlink:href="#DejaVuSans-73" transform="translate(884.730469 0)"/>
      <use xlink:href="#DejaVuSans-20" transform="translate(936.830078 0)"/>
      <use xlink:href="#DejaVuSans-2f" transform="translate(968.617188 0)"/>
      <use xlink:href="#DejaVuSans-20" transform="translate(1002.308594 0)"/>
      <use xlink:href="#DejaVuSans-54" transform="translate(1034.095703 0)"/>
      <use xlink:href="#DejaVuSans-68" transform="translate(1095.179688 0)"/>
      <use xlink:href="#DejaVuSans-69" transform="translate(1158.558594 0)"/>
      <use xlink:href="#DejaVuSans-63" transform="translate(1186.341797 0)"/>
      <use xlink:href="#DejaVuSans-6b" transform="translate(1241.322266 0)"/>
      <use xlink:href="#DejaVuSans-6e" transform="translate(1299.232422 0)"/>
      <use xlink:href="#DejaVuSans-65" transform="translate(1362.611328 0)"/>
      <use xlink:href="#DejaVuSans-73" transform="translate(1424.134766 0)"/>
      <use xlink:href="#DejaVuSans-73" transform="translate(1476.234375 0)"/>
     </g>
    </g>
   </g>
   <g id="matplotlib.axis_2">
    <g id="ytick_1">
     <g id="line2d_19">
      <path d="M 40.603125 339.838125 
L 710.203125 339.838125 
" clip-path="url(#p89224b04b9)" style="fill: none; stroke: #b0b0b0; stroke-width: 0.8; stroke-linecap: square"/>
     </g>
     <g id="line2d_20">
      <defs>
       <path id="mc15df9a75c" d="M 0 0 
L -3.5 0 
" style="stroke: #000000; stroke-width: 0.8"/>
      </defs>
      <g>
       <use xlink:href="#mc15df9a75c" x="40.603125" y="339.838125" style="stroke: #000000; stroke-width: 0.8"/>
      </g>
     </g>
     <g id="text_11">
      <!-- 0 -->
      <g transform="translate(27.240625 343.637344) scale(0.1 -0.1)">
       <use xlink:href="#DejaVuSans-30"/>
      </g>
     </g>
    </g>
    <g id="ytick_2">
     <g id="line2d_21">
      <path d="M 40.603125 284.856307 
L 710.203125 284.856307 
" clip-path="url(#p89224b04b9)" style="fill: none; stroke: #b0b0b0; stroke-width: 0.8; stroke-linecap: square"/>
     </g>
     <g id="line2d_22">
      <g>
       <use xlink:href="#mc15df9a75c" x="40.603125" y="284.856307" style="stroke: #000000; stroke-width: 0.8"/>
      </g>
     </g>
     <g id="text_12">
      <!-- 2 -->
      <g transform="translate(27.240625 288.655526) scale(0.1 -0.1)">
       <use xlink:href="#DejaVuSans-32"/>
      </g>
     </g>
    </g>
    <g id="ytick_3">
     <g id="line2d_23">
      <path d="M 40.603125 229.874489 
L 710.203125 229.874489 
" clip-path="url(#p89224b04b9)" style="fill: none; stroke: #b0b0b0; stroke-width: 0.8; stroke-linecap: square"/>
     </g>
     <g id="line2d_24">
      <g>
       <use xlink:href="#mc15df9a75c" x="40.603125" y="229.874489" style="stroke: #000000; stroke-width: 0.8"/>
      </g>
     </g>
     <g id="text_13">
      <!-- 4 -->
      <g transform="translate(27.240625 233.673707) scale(0.1 -0.1)">
       <use xlink:href="#DejaVuSans-34"/>
      </g>
     </g>
    </g>
    <g id="ytick_4">
     <g id="line2d_25">
      <path d="M 40.603125 174.89267 
L 710.203125 174.89267 
" clip-path="url(#p89224b04b9)" style="fill: none; stroke: #b0b0b0; stroke-width: 0.8; stroke-linecap: square"/>
     </g>
     <g id="line2d_26">
      <g>
       <use xlink:href="#mc15df9a75c" x="40.603125" y="174.89267" style="stroke: #000000; stroke-width: 0.8"/>
      </g>
     </g>
     <g id="text_14">
      <!-- 6 -->
      <g transform="translate(27.240625 178.691889) scale(0.1 -0.1)">
       <defs>
        <path id="DejaVuSans-36" d="M 2113 2584 
Q 1688 2584 1439 2293 
Q 1191 2003 1191 1497 
Q 1191 994 1439 701 
Q 1688 409 2113 409 
Q 2538 409 2786 701 
Q 3034 994 3034 1497 
Q 3034 2003 2786 2293 
Q 2538 2584 2113 2584 
z
M 3366 4563 
L 3366 3988 
Q 3128 4100 2886 4159 
Q 2644 4219 2406 4219 
Q 1781 4219 1451 3797 
Q 1122 3375 1075 2522 
Q 1259 2794 1537 2939 
Q 1816 3084 2150 3084 
Q 2853 3084 3261 2657 
Q 3669 2231 3669 1497 
Q 3669 778 3244 343 
Q 2819 -91 2113 -91 
Q 1303 -91 875 529 
Q 447 1150 447 2328 
Q 447 3434 972 4092 
Q 1497 4750 2381 4750 
Q 2619 4750 2861 4703 
Q 3103 4656 3366 4563 
z
" transform="scale(0.015625)"/>
       </defs>
       <use xlink:href="#DejaVuSans-36"/>
      </g>
     </g>
    </g>
    <g id="ytick_5">
     <g id="line2d_27">
      <path d="M 40.603125 119.910852 
L 710.203125 119.910852 
" clip-path="url(#p89224b04b9)" style="fill: none; stroke: #b0b0b0; stroke-width: 0.8; stroke-linecap: square"/>
     </g>
     <g id="line2d_28">
      <g>
       <use xlink:href="#mc15df9a75c" x="40.603125" y="119.910852" style="stroke: #000000; stroke-width: 0.8"/>
      </g>
     </g>
     <g id="text_15">
      <!-- 8 -->
      <g transform="translate(27.240625 123.710071) scale(0.1 -0.1)">
       <defs>
        <path id="DejaVuSans-38" d="M 2034 2216 
Q 1584 2216 1326 1975 
Q 1069 1734 1069 1313 
Q 1069 891 1326 650 
Q 1584 409 2034 409 
Q 2484 409 2743 651 
Q 3003 894 3003 1313 
Q 3003 1734 2745 1975 
Q 2488 2216 2034 2216 
z
M 1403 2484 
Q 997 2584 770 2862 
Q 544 3141 544 3541 
Q 544 4100 942 4425 
Q 1341 4750 2034 4750 
Q 2731 4750 3128 4425 
Q 3525 4100 3525 3541 
Q 3525 3141 3298 2862 
Q 3072 2584 2669 2484 
Q 3125 2378 3379 2068 
Q 3634 1759 3634 1313 
Q 3634 634 3220 271 
Q 2806 -91 2034 -91 
Q 1263 -91 848 271 
Q 434 634 434 1313 
Q 434 1759 690 2068 
Q 947 2378 1403 2484 
z
M 1172 3481 
Q 1172 3119 1398 2916 
Q 1625 2713 2034 2713 
Q 2441 2713 2670 2916 
Q 2900 3119 2900 3481 
Q 2900 3844 2670 4047 
Q 2441 4250 2034 4250 
Q 1625 4250 1398 4047 
Q 1172 3844 1172 3481 
z
" transform="scale(0.015625)"/>
       </defs>
       <use xlink:href="#DejaVuSans-38"/>
      </g>
     </g>
    </g>
    <g id="ytick_6">
     <g id="line2d_29">
      <path d="M 40.603125 64.929034 
L 710.203125 64.929034 
" clip-path="url(#p89224b04b9)" style="fill: none; stroke: #b0b0b0; stroke-width: 0.8; stroke-linecap: square"/>
     </g>
     <g id="line2d_30">
      <g>
       <use xlink:href="#mc15df9a75c" x="40.603125" y="64.929034" style="stroke: #000000; stroke-width: 0.8"/>
      </g>
     </g>
     <g id="text_16">
      <!-- 10 -->
      <g transform="translate(20.878125 68.728253) scale(0.1 -0.1)">
       <use xlink:href="#DejaVuSans-31"/>
       <use xlink:href="#DejaVuSans-30" transform="translate(63.623047 0)"/>
      </g>
     </g>
    </g>
    <g id="text_17">
     <!-- Frequency -->
     <g transform="translate(14.798438 214.467812) rotate(-90) scale(0.1 -0.1)">
      <defs>
       <path id="DejaVuSans-46" d="M 628 4666 
L 3309 4666 
L 3309 4134 
L 1259 4134 
L 1259 2759 
L 3109 2759 
L 3109 2228 
L 1259 2228 
L 1259 0 
L 628 0 
L 628 4666 
z
" transform="scale(0.015625)"/>
       <path id="DejaVuSans-72" d="M 2631 2963 
Q 2534 3019 2420 3045 
Q 2306 3072 2169 3072 
Q 1681 3072 1420 2755 
Q 1159 2438 1159 1844 
L 1159 0 
L 581 0 
L 581 3500 
L 1159 3500 
L 1159 2956 
Q 1341 3275 1631 3429 
Q 1922 3584 2338 3584 
Q 2397 3584 2469 3576 
Q 2541 3569 2628 3553 
L 2631 2963 
z
" transform="scale(0.015625)"/>
       <path id="DejaVuSans-71" d="M 947 1747 
Q 947 1113 1208 752 
Q 1469 391 1925 391 
Q 2381 391 2643 752 
Q 2906 1113 2906 1747 
Q 2906 2381 2643 2742 
Q 2381 3103 1925 3103 
Q 1469 3103 1208 2742 
Q 947 2381 947 1747 
z
M 2906 525 
Q 2725 213 2448 61 
Q 2172 -91 1784 -91 
Q 1150 -91 751 415 
Q 353 922 353 1747 
Q 353 2572 751 3078 
Q 1150 3584 1784 3584 
Q 2172 3584 2448 3432 
Q 2725 3281 2906 2969 
L 2906 3500 
L 3481 3500 
L 3481 -1331 
L 2906 -1331 
L 2906 525 
z
" transform="scale(0.015625)"/>
       <path id="DejaVuSans-79" d="M 2059 -325 
Q 1816 -950 1584 -1140 
Q 1353 -1331 966 -1331 
L 506 -1331 
L 506 -850 
L 844 -850 
Q 1081 -850 1212 -737 
Q 1344 -625 1503 -206 
L 1606 56 
L 191 3500 
L 800 3500 
L 1894 763 
L 2988 3500 
L 3597 3500 
L 2059 -325 
z
" transform="scale(0.015625)"/>
      </defs>
      <use xlink:href="#DejaVuSans-46"/>
      <use xlink:href="#DejaVuSans-72" transform="translate(50.269531 0)"/>
      <use xlink:href="#DejaVuSans-65" transform="translate(89.132812 0)"/>
      <use xlink:href="#DejaVuSans-71" transform="translate(150.65625 0)"/>
      <use xlink:href="#DejaVuSans-75" transform="translate(214.132812 0)"/>
      <use xlink:href="#DejaVuSans-65" transform="translate(277.511719 0)"/>
      <use xlink:href="#DejaVuSans-6e" transform="translate(339.035156 0)"/>
      <use xlink:href="#DejaVuSans-63" transform="translate(402.414062 0)"/>
      <use xlink:href="#DejaVuSans-79" transform="translate(457.394531 0)"/>
     </g>
    </g>
   </g>
   <g id="line2d_31">
    <path d="M 71.039489 339.838125 
L 87.779489 339.838125 
L 92.344943 339.838125 
L 102.99767 339.838125 
L 124.303125 339.838125 
L 128.86858 339.838125 
L 134.955852 339.838125 
L 139.521307 339.838125 
L 144.086761 339.838125 
L 148.652216 339.838125 
L 159.304943 339.838125 
L 160.826761 339.838125 
L 182.132216 339.838125 
L 188.219489 339.838125 
L 192.784943 339.838125 
L 212.56858 312.347216 
L 217.134034 339.838125 
L 223.221307 339.838125 
L 224.743125 339.838125 
L 227.786761 339.838125 
L 230.830398 339.838125 
L 236.91767 339.838125 
L 244.526761 312.347216 
L 247.570398 339.838125 
L 249.092216 339.838125 
L 258.223125 339.838125 
L 273.441307 312.347216 
L 274.963125 339.838125 
L 279.52858 339.838125 
L 285.615852 312.347216 
L 288.659489 339.838125 
L 302.355852 339.838125 
L 308.443125 339.838125 
L 325.183125 312.347216 
L 332.792216 339.838125 
L 337.35767 312.347216 
L 338.879489 339.838125 
L 346.48858 312.347216 
L 355.619489 339.838125 
L 358.663125 339.838125 
L 360.184943 339.838125 
L 367.794034 312.347216 
L 372.359489 312.347216 
L 373.881307 339.838125 
L 376.924943 312.347216 
L 378.446761 312.347216 
L 383.012216 339.838125 
L 389.099489 339.838125 
L 390.621307 339.838125 
L 395.186761 339.838125 
L 405.839489 339.838125 
L 411.926761 339.838125 
L 413.44858 339.838125 
L 425.623125 339.838125 
L 431.710398 339.838125 
L 433.232216 339.838125 
L 436.275852 339.838125 
L 440.841307 339.838125 
L 442.363125 339.838125 
L 443.884943 312.347216 
L 462.146761 339.838125 
L 465.190398 339.838125 
L 468.234034 339.838125 
L 477.364943 339.838125 
L 481.930398 312.347216 
L 491.061307 339.838125 
L 498.670398 339.838125 
L 506.279489 284.856307 
L 510.844943 312.347216 
L 512.366761 312.347216 
L 533.672216 284.856307 
L 535.194034 339.838125 
L 539.759489 339.838125 
L 556.499489 339.838125 
L 561.064943 312.347216 
L 571.71767 339.838125 
L 602.154034 339.838125 
L 608.241307 339.838125 
L 611.284943 312.347216 
L 644.764943 339.838125 
L 650.852216 339.838125 
L 655.41767 339.838125 
L 663.026761 312.347216 
L 666.070398 339.838125 
L 673.679489 339.838125 
L 679.766761 119.910852 
" clip-path="url(#p89224b04b9)" style="fill: none; stroke: #0000ff; stroke-width: 1.5; stroke-linecap: square"/>
    <defs>
     <path id="mfc79b69a23" d="M 0 3 
C 0.795609 3 1.55874 2.683901 2.12132 2.12132 
C 2.683901 1.55874 3 0.795609 3 0 
C 3 -0.795609 2.683901 -1.55874 2.12132 -2.12132 
C 1.55874 -2.683901 0.795609 -3 0 -3 
C -0.795609 -3 -1.55874 -2.683901 -2.12132 -2.12132 
C -2.683901 -1.55874 -3 -0.795609 -3 0 
C -3 0.795609 -2.683901 1.55874 -2.12132 2.12132 
C -1.55874 2.683901 -0.795609 3 0 3 
z
" style="stroke: #0000ff"/>
    </defs>
    <g clip-path="url(#p89224b04b9)">
     <use xlink:href="#mfc79b69a23" x="71.039489" y="339.838125" style="fill: #0000ff; stroke: #0000ff"/>
     <use xlink:href="#mfc79b69a23" x="87.779489" y="339.838125" style="fill: #0000ff; stroke: #0000ff"/>
     <use xlink:href="#mfc79b69a23" x="92.344943" y="339.838125" style="fill: #0000ff; stroke: #0000ff"/>
     <use xlink:href="#mfc79b69a23" x="102.99767" y="339.838125" style="fill: #0000ff; stroke: #0000ff"/>
     <use xlink:href="#mfc79b69a23" x="124.303125" y="339.838125" style="fill: #0000ff; stroke: #0000ff"/>
     <use xlink:href="#mfc79b69a23" x="128.86858" y="339.838125" style="fill: #0000ff; stroke: #0000ff"/>
     <use xlink:href="#mfc79b69a23" x="134.955852" y="339.838125" style="fill: #0000ff; stroke: #0000ff"/>
     <use xlink:href="#mfc79b69a23" x="139.521307" y="339.838125" style="fill: #0000ff; stroke: #0000ff"/>
     <use xlink:href="#mfc79b69a23" x="144.086761" y="339.838125" style="fill: #0000ff; stroke: #0000ff"/>
     <use xlink:href="#mfc79b69a23" x="148.652216" y="339.838125" style="fill: #0000ff; stroke: #0000ff"/>
     <use xlink:href="#mfc79b69a23" x="159.304943" y="339.838125" style="fill: #0000ff; stroke: #0000ff"/>
     <use xlink:href="#mfc79b69a23" x="160.826761" y="339.838125" style="fill: #0000ff; stroke: #0000ff"/>
     <use xlink:href="#mfc79b69a23" x="182.132216" y="339.838125" style="fill: #0000ff; stroke: #0000ff"/>
     <use xlink:href="#mfc79b69a23" x="188.219489" y="339.838125" style="fill: #0000ff; stroke: #0000ff"/>
     <use xlink:href="#mfc79b69a23" x="192.784943" y="339.838125" style="fill: #0000ff; stroke: #0000ff"/>
     <use xlink:href="#mfc79b69a23" x="212.56858" y="312.347216" style="fill: #0000ff; stroke: #0000ff"/>
     <use xlink:href="#mfc79b69a23" x="217.134034" y="339.838125" style="fill: #0000ff; stroke: #0000ff"/>
     <use xlink:href="#mfc79b69a23" x="223.221307" y="339.838125" style="fill: #0000ff; stroke: #0000ff"/>
     <use xlink:href="#mfc79b69a23" x="224.743125" y="339.838125" style="fill: #0000ff; stroke: #0000ff"/>
     <use xlink:href="#mfc79b69a23" x="227.786761" y="339.838125" style="fill: #0000ff; stroke: #0000ff"/>
     <use xlink:href="#mfc79b69a23" x="230.830398" y="339.838125" style="fill: #0000ff; stroke: #0000ff"/>
     <use xlink:href="#mfc79b69a23" x="236.91767" y="339.838125" style="fill: #0000ff; stroke: #0000ff"/>
     <use xlink:href="#mfc79b69a23" x="244.526761" y="312.347216" style="fill: #0000ff; stroke: #0000ff"/>
     <use xlink:href="#mfc79b69a23" x="247.570398" y="339.838125" style="fill: #0000ff; stroke: #0000ff"/>
     <use xlink:href="#mfc79b69a23" x="249.092216" y="339.838125" style="fill: #0000ff; stroke: #0000ff"/>
     <use xlink:href="#mfc79b69a23" x="258.223125" y="339.838125" style="fill: #0000ff; stroke: #0000ff"/>
     <use xlink:href="#mfc79b69a23" x="273.441307" y="312.347216" style="fill: #0000ff; stroke: #0000ff"/>
     <use xlink:href="#mfc79b69a23" x="274.963125" y="339.838125" style="fill: #0000ff; stroke: #0000ff"/>
     <use xlink:href="#mfc79b69a23" x="279.52858" y="339.838125" style="fill: #0000ff; stroke: #0000ff"/>
     <use xlink:href="#mfc79b69a23" x="285.615852" y="312.347216" style="fill: #0000ff; stroke: #0000ff"/>
     <use xlink:href="#mfc79b69a23" x="288.659489" y="339.838125" style="fill: #0000ff; stroke: #0000ff"/>
     <use xlink:href="#mfc79b69a23" x="302.355852" y="339.838125" style="fill: #0000ff; stroke: #0000ff"/>
     <use xlink:href="#mfc79b69a23" x="308.443125" y="339.838125" style="fill: #0000ff; stroke: #0000ff"/>
     <use xlink:href="#mfc79b69a23" x="325.183125" y="312.347216" style="fill: #0000ff; stroke: #0000ff"/>
     <use xlink:href="#mfc79b69a23" x="332.792216" y="339.838125" style="fill: #0000ff; stroke: #0000ff"/>
     <use xlink:href="#mfc79b69a23" x="337.35767" y="312.347216" style="fill: #0000ff; stroke: #0000ff"/>
     <use xlink:href="#mfc79b69a23" x="338.879489" y="339.838125" style="fill: #0000ff; stroke: #0000ff"/>
     <use xlink:href="#mfc79b69a23" x="346.48858" y="312.347216" style="fill: #0000ff; stroke: #0000ff"/>
     <use xlink:href="#mfc79b69a23" x="355.619489" y="339.838125" style="fill: #0000ff; stroke: #0000ff"/>
     <use xlink:href="#mfc79b69a23" x="358.663125" y="339.838125" style="fill: #0000ff; stroke: #0000ff"/>
     <use xlink:href="#mfc79b69a23" x="360.184943" y="339.838125" style="fill: #0000ff; stroke: #0000ff"/>
     <use xlink:href="#mfc79b69a23" x="367.794034" y="312.347216" style="fill: #0000ff; stroke: #0000ff"/>
     <use xlink:href="#mfc79b69a23" x="372.359489" y="312.347216" style="fill: #0000ff; stroke: #0000ff"/>
     <use xlink:href="#mfc79b69a23" x="373.881307" y="339.838125" style="fill: #0000ff; stroke: #0000ff"/>
     <use xlink:href="#mfc79b69a23" x="376.924943" y="312.347216" style="fill: #0000ff; stroke: #0000ff"/>
     <use xlink:href="#mfc79b69a23" x="378.446761" y="312.347216" style="fill: #0000ff; stroke: #0000ff"/>
     <use xlink:href="#mfc79b69a23" x="383.012216" y="339.838125" style="fill: #0000ff; stroke: #0000ff"/>
     <use xlink:href="#mfc79b69a23" x="389.099489" y="339.838125" style="fill: #0000ff; stroke: #0000ff"/>
     <use xlink:href="#mfc79b69a23" x="390.621307" y="339.838125" style="fill: #0000ff; stroke: #0000ff"/>
     <use xlink:href="#mfc79b69a23" x="395.186761" y="339.838125" style="fill: #0000ff; stroke: #0000ff"/>
     <use xlink:href="#mfc79b69a23" x="405.839489" y="339.838125" style="fill: #0000ff; stroke: #0000ff"/>
     <use xlink:href="#mfc79b69a23" x="411.926761" y="339.838125" style="fill: #0000ff; stroke: #0000ff"/>
     <use xlink:href="#mfc79b69a23" x="413.44858" y="339.838125" style="fill: #0000ff; stroke: #0000ff"/>
     <use xlink:href="#mfc79b69a23" x="425.623125" y="339.838125" style="fill: #0000ff; stroke: #0000ff"/>
     <use xlink:href="#mfc79b69a23" x="431.710398" y="339.838125" style="fill: #0000ff; stroke: #0000ff"/>
     <use xlink:href="#mfc79b69a23" x="433.232216" y="339.838125" style="fill: #0000ff; stroke: #0000ff"/>
     <use xlink:href="#mfc79b69a23" x="436.275852" y="339.838125" style="fill: #0000ff; stroke: #0000ff"/>
     <use xlink:href="#mfc79b69a23" x="440.841307" y="339.838125" style="fill: #0000ff; stroke: #0000ff"/>
     <use xlink:href="#mfc79b69a23" x="442.363125" y="339.838125" style="fill: #0000ff; stroke: #0000ff"/>
     <use xlink:href="#mfc79b69a23" x="443.884943" y="312.347216" style="fill: #0000ff; stroke: #0000ff"/>
     <use xlink:href="#mfc79b69a23" x="462.146761" y="339.838125" style="fill: #0000ff; stroke: #0000ff"/>
     <use xlink:href="#mfc79b69a23" x="465.190398" y="339.838125" style="fill: #0000ff; stroke: #0000ff"/>
     <use xlink:href="#mfc79b69a23" x="468.234034" y="339.838125" style="fill: #0000ff; stroke: #0000ff"/>
     <use xlink:href="#mfc79b69a23" x="477.364943" y="339.838125" style="fill: #0000ff; stroke: #0000ff"/>
     <use xlink:href="#mfc79b69a23" x="481.930398" y="312.347216" style="fill: #0000ff; stroke: #0000ff"/>
     <use xlink:href="#mfc79b69a23" x="491.061307" y="339.838125" style="fill: #0000ff; stroke: #0000ff"/>
     <use xlink:href="#mfc79b69a23" x="498.670398" y="339.838125" style="fill: #0000ff; stroke: #0000ff"/>
     <use xlink:href="#mfc79b69a23" x="506.279489" y="284.856307" style="fill: #0000ff; stroke: #0000ff"/>
     <use xlink:href="#mfc79b69a23" x="510.844943" y="312.347216" style="fill: #0000ff; stroke: #0000ff"/>
     <use xlink:href="#mfc79b69a23" x="512.366761" y="312.347216" style="fill: #0000ff; stroke: #0000ff"/>
     <use xlink:href="#mfc79b69a23" x="533.672216" y="284.856307" style="fill: #0000ff; stroke: #0000ff"/>
     <use xlink:href="#mfc79b69a23" x="535.194034" y="339.838125" style="fill: #0000ff; stroke: #0000ff"/>
     <use xlink:href="#mfc79b69a23" x="539.759489" y="339.838125" style="fill: #0000ff; stroke: #0000ff"/>
     <use xlink:href="#mfc79b69a23" x="556.499489" y="339.838125" style="fill: #0000ff; stroke: #0000ff"/>
     <use xlink:href="#mfc79b69a23" x="561.064943" y="312.347216" style="fill: #0000ff; stroke: #0000ff"/>
     <use xlink:href="#mfc79b69a23" x="571.71767" y="339.838125" style="fill: #0000ff; stroke: #0000ff"/>
     <use xlink:href="#mfc79b69a23" x="602.154034" y="339.838125" style="fill: #0000ff; stroke: #0000ff"/>
     <use xlink:href="#mfc79b69a23" x="608.241307" y="339.838125" style="fill: #0000ff; stroke: #0000ff"/>
     <use xlink:href="#mfc79b69a23" x="611.284943" y="312.347216" style="fill: #0000ff; stroke: #0000ff"/>
     <use xlink:href="#mfc79b69a23" x="644.764943" y="339.838125" style="fill: #0000ff; stroke: #0000ff"/>
     <use xlink:href="#mfc79b69a23" x="650.852216" y="339.838125" style="fill: #0000ff; stroke: #0000ff"/>
     <use xlink:href="#mfc79b69a23" x="655.41767" y="339.838125" style="fill: #0000ff; stroke: #0000ff"/>
     <use xlink:href="#mfc79b69a23" x="663.026761" y="312.347216" style="fill: #0000ff; stroke: #0000ff"/>
     <use xlink:href="#mfc79b69a23" x="666.070398" y="339.838125" style="fill: #0000ff; stroke: #0000ff"/>
     <use xlink:href="#mfc79b69a23" x="673.679489" y="339.838125" style="fill: #0000ff; stroke: #0000ff"/>
     <use xlink:href="#mfc79b69a23" x="679.766761" y="119.910852" style="fill: #0000ff; stroke: #0000ff"/>
    </g>
   </g>
   <g id="line2d_32">
    <path d="M 71.039489 92.419943 
L 87.779489 339.838125 
L 92.344943 312.347216 
L 102.99767 312.347216 
L 124.303125 312.347216 
L 128.86858 312.347216 
L 134.955852 339.838125 
L 139.521307 339.838125 
L 144.086761 312.347216 
L 148.652216 339.838125 
L 159.304943 312.347216 
L 160.826761 339.838125 
L 182.132216 312.347216 
L 188.219489 339.838125 
L 192.784943 339.838125 
L 212.56858 312.347216 
L 217.134034 339.838125 
L 223.221307 339.838125 
L 224.743125 339.838125 
L 227.786761 339.838125 
L 230.830398 312.347216 
L 236.91767 339.838125 
L 244.526761 339.838125 
L 247.570398 312.347216 
L 249.092216 339.838125 
L 258.223125 339.838125 
L 273.441307 339.838125 
L 274.963125 339.838125 
L 279.52858 312.347216 
L 285.615852 339.838125 
L 288.659489 339.838125 
L 302.355852 339.838125 
L 308.443125 339.838125 
L 325.183125 312.347216 
L 332.792216 339.838125 
L 337.35767 339.838125 
L 338.879489 339.838125 
L 346.48858 339.838125 
L 355.619489 339.838125 
L 358.663125 339.838125 
L 360.184943 312.347216 
L 367.794034 339.838125 
L 372.359489 339.838125 
L 373.881307 339.838125 
L 376.924943 339.838125 
L 378.446761 312.347216 
L 383.012216 312.347216 
L 389.099489 312.347216 
L 390.621307 339.838125 
L 395.186761 339.838125 
L 405.839489 339.838125 
L 411.926761 339.838125 
L 413.44858 339.838125 
L 425.623125 339.838125 
L 431.710398 339.838125 
L 433.232216 339.838125 
L 436.275852 312.347216 
L 440.841307 339.838125 
L 442.363125 339.838125 
L 443.884943 339.838125 
L 462.146761 339.838125 
L 465.190398 339.838125 
L 468.234034 339.838125 
L 477.364943 312.347216 
L 481.930398 339.838125 
L 491.061307 339.838125 
L 498.670398 339.838125 
L 506.279489 339.838125 
L 510.844943 339.838125 
L 512.366761 339.838125 
L 533.672216 339.838125 
L 535.194034 339.838125 
L 539.759489 339.838125 
L 556.499489 339.838125 
L 561.064943 339.838125 
L 571.71767 339.838125 
L 602.154034 339.838125 
L 608.241307 339.838125 
L 611.284943 312.347216 
L 644.764943 339.838125 
L 650.852216 339.838125 
L 655.41767 339.838125 
L 663.026761 339.838125 
L 666.070398 339.838125 
L 673.679489 339.838125 
L 679.766761 284.856307 
" clip-path="url(#p89224b04b9)" style="fill: none; stroke: #ffa500; stroke-width: 1.5; stroke-linecap: square"/>
    <defs>
     <path id="mc0e8bc7054" d="M 0 3 
C 0.795609 3 1.55874 2.683901 2.12132 2.12132 
C 2.683901 1.55874 3 0.795609 3 0 
C 3 -0.795609 2.683901 -1.55874 2.12132 -2.12132 
C 1.55874 -2.683901 0.795609 -3 0 -3 
C -0.795609 -3 -1.55874 -2.683901 -2.12132 -2.12132 
C -2.683901 -1.55874 -3 -0.795609 -3 0 
C -3 0.795609 -2.683901 1.55874 -2.12132 2.12132 
C -1.55874 2.683901 -0.795609 3 0 3 
z
" style="stroke: #ffa500"/>
    </defs>
    <g clip-path="url(#p89224b04b9)">
     <use xlink:href="#mc0e8bc7054" x="71.039489" y="92.419943" style="fill: #ffa500; stroke: #ffa500"/>
     <use xlink:href="#mc0e8bc7054" x="87.779489" y="339.838125" style="fill: #ffa500; stroke: #ffa500"/>
     <use xlink:href="#mc0e8bc7054" x="92.344943" y="312.347216" style="fill: #ffa500; stroke: #ffa500"/>
     <use xlink:href="#mc0e8bc7054" x="102.99767" y="312.347216" style="fill: #ffa500; stroke: #ffa500"/>
     <use xlink:href="#mc0e8bc7054" x="124.303125" y="312.347216" style="fill: #ffa500; stroke: #ffa500"/>
     <use xlink:href="#mc0e8bc7054" x="128.86858" y="312.347216" style="fill: #ffa500; stroke: #ffa500"/>
     <use xlink:href="#mc0e8bc7054" x="134.955852" y="339.838125" style="fill: #ffa500; stroke: #ffa500"/>
     <use xlink:href="#mc0e8bc7054" x="139.521307" y="339.838125" style="fill: #ffa500; stroke: #ffa500"/>
     <use xlink:href="#mc0e8bc7054" x="144.086761" y="312.347216" style="fill: #ffa500; stroke: #ffa500"/>
     <use xlink:href="#mc0e8bc7054" x="148.652216" y="339.838125" style="fill: #ffa500; stroke: #ffa500"/>
     <use xlink:href="#mc0e8bc7054" x="159.304943" y="312.347216" style="fill: #ffa500; stroke: #ffa500"/>
     <use xlink:href="#mc0e8bc7054" x="160.826761" y="339.838125" style="fill: #ffa500; stroke: #ffa500"/>
     <use xlink:href="#mc0e8bc7054" x="182.132216" y="312.347216" style="fill: #ffa500; stroke: #ffa500"/>
     <use xlink:href="#mc0e8bc7054" x="188.219489" y="339.838125" style="fill: #ffa500; stroke: #ffa500"/>
     <use xlink:href="#mc0e8bc7054" x="192.784943" y="339.838125" style="fill: #ffa500; stroke: #ffa500"/>
     <use xlink:href="#mc0e8bc7054" x="212.56858" y="312.347216" style="fill: #ffa500; stroke: #ffa500"/>
     <use xlink:href="#mc0e8bc7054" x="217.134034" y="339.838125" style="fill: #ffa500; stroke: #ffa500"/>
     <use xlink:href="#mc0e8bc7054" x="223.221307" y="339.838125" style="fill: #ffa500; stroke: #ffa500"/>
     <use xlink:href="#mc0e8bc7054" x="224.743125" y="339.838125" style="fill: #ffa500; stroke: #ffa500"/>
     <use xlink:href="#mc0e8bc7054" x="227.786761" y="339.838125" style="fill: #ffa500; stroke: #ffa500"/>
     <use xlink:href="#mc0e8bc7054" x="230.830398" y="312.347216" style="fill: #ffa500; stroke: #ffa500"/>
     <use xlink:href="#mc0e8bc7054" x="236.91767" y="339.838125" style="fill: #ffa500; stroke: #ffa500"/>
     <use xlink:href="#mc0e8bc7054" x="244.526761" y="339.838125" style="fill: #ffa500; stroke: #ffa500"/>
     <use xlink:href="#mc0e8bc7054" x="247.570398" y="312.347216" style="fill: #ffa500; stroke: #ffa500"/>
     <use xlink:href="#mc0e8bc7054" x="249.092216" y="339.838125" style="fill: #ffa500; stroke: #ffa500"/>
     <use xlink:href="#mc0e8bc7054" x="258.223125" y="339.838125" style="fill: #ffa500; stroke: #ffa500"/>
     <use xlink:href="#mc0e8bc7054" x="273.441307" y="339.838125" style="fill: #ffa500; stroke: #ffa500"/>
     <use xlink:href="#mc0e8bc7054" x="274.963125" y="339.838125" style="fill: #ffa500; stroke: #ffa500"/>
     <use xlink:href="#mc0e8bc7054" x="279.52858" y="312.347216" style="fill: #ffa500; stroke: #ffa500"/>
     <use xlink:href="#mc0e8bc7054" x="285.615852" y="339.838125" style="fill: #ffa500; stroke: #ffa500"/>
     <use xlink:href="#mc0e8bc7054" x="288.659489" y="339.838125" style="fill: #ffa500; stroke: #ffa500"/>
     <use xlink:href="#mc0e8bc7054" x="302.355852" y="339.838125" style="fill: #ffa500; stroke: #ffa500"/>
     <use xlink:href="#mc0e8bc7054" x="308.443125" y="339.838125" style="fill: #ffa500; stroke: #ffa500"/>
     <use xlink:href="#mc0e8bc7054" x="325.183125" y="312.347216" style="fill: #ffa500; stroke: #ffa500"/>
     <use xlink:href="#mc0e8bc7054" x="332.792216" y="339.838125" style="fill: #ffa500; stroke: #ffa500"/>
     <use xlink:href="#mc0e8bc7054" x="337.35767" y="339.838125" style="fill: #ffa500; stroke: #ffa500"/>
     <use xlink:href="#mc0e8bc7054" x="338.879489" y="339.838125" style="fill: #ffa500; stroke: #ffa500"/>
     <use xlink:href="#mc0e8bc7054" x="346.48858" y="339.838125" style="fill: #ffa500; stroke: #ffa500"/>
     <use xlink:href="#mc0e8bc7054" x="355.619489" y="339.838125" style="fill: #ffa500; stroke: #ffa500"/>
     <use xlink:href="#mc0e8bc7054" x="358.663125" y="339.838125" style="fill: #ffa500; stroke: #ffa500"/>
     <use xlink:href="#mc0e8bc7054" x="360.184943" y="312.347216" style="fill: #ffa500; stroke: #ffa500"/>
     <use xlink:href="#mc0e8bc7054" x="367.794034" y="339.838125" style="fill: #ffa500; stroke: #ffa500"/>
     <use xlink:href="#mc0e8bc7054" x="372.359489" y="339.838125" style="fill: #ffa500; stroke: #ffa500"/>
     <use xlink:href="#mc0e8bc7054" x="373.881307" y="339.838125" style="fill: #ffa500; stroke: #ffa500"/>
     <use xlink:href="#mc0e8bc7054" x="376.924943" y="339.838125" style="fill: #ffa500; stroke: #ffa500"/>
     <use xlink:href="#mc0e8bc7054" x="378.446761" y="312.347216" style="fill: #ffa500; stroke: #ffa500"/>
     <use xlink:href="#mc0e8bc7054" x="383.012216" y="312.347216" style="fill: #ffa500; stroke: #ffa500"/>
     <use xlink:href="#mc0e8bc7054" x="389.099489" y="312.347216" style="fill: #ffa500; stroke: #ffa500"/>
     <use xlink:href="#mc0e8bc7054" x="390.621307" y="339.838125" style="fill: #ffa500; stroke: #ffa500"/>
     <use xlink:href="#mc0e8bc7054" x="395.186761" y="339.838125" style="fill: #ffa500; stroke: #ffa500"/>
     <use xlink:href="#mc0e8bc7054" x="405.839489" y="339.838125" style="fill: #ffa500; stroke: #ffa500"/>
     <use xlink:href="#mc0e8bc7054" x="411.926761" y="339.838125" style="fill: #ffa500; stroke: #ffa500"/>
     <use xlink:href="#mc0e8bc7054" x="413.44858" y="339.838125" style="fill: #ffa500; stroke: #ffa500"/>
     <use xlink:href="#mc0e8bc7054" x="425.623125" y="339.838125" style="fill: #ffa500; stroke: #ffa500"/>
     <use xlink:href="#mc0e8bc7054" x="431.710398" y="339.838125" style="fill: #ffa500; stroke: #ffa500"/>
     <use xlink:href="#mc0e8bc7054" x="433.232216" y="339.838125" style="fill: #ffa500; stroke: #ffa500"/>
     <use xlink:href="#mc0e8bc7054" x="436.275852" y="312.347216" style="fill: #ffa500; stroke: #ffa500"/>
     <use xlink:href="#mc0e8bc7054" x="440.841307" y="339.838125" style="fill: #ffa500; stroke: #ffa500"/>
     <use xlink:href="#mc0e8bc7054" x="442.363125" y="339.838125" style="fill: #ffa500; stroke: #ffa500"/>
     <use xlink:href="#mc0e8bc7054" x="443.884943" y="339.838125" style="fill: #ffa500; stroke: #ffa500"/>
     <use xlink:href="#mc0e8bc7054" x="462.146761" y="339.838125" style="fill: #ffa500; stroke: #ffa500"/>
     <use xlink:href="#mc0e8bc7054" x="465.190398" y="339.838125" style="fill: #ffa500; stroke: #ffa500"/>
     <use xlink:href="#mc0e8bc7054" x="468.234034" y="339.838125" style="fill: #ffa500; stroke: #ffa500"/>
     <use xlink:href="#mc0e8bc7054" x="477.364943" y="312.347216" style="fill: #ffa500; stroke: #ffa500"/>
     <use xlink:href="#mc0e8bc7054" x="481.930398" y="339.838125" style="fill: #ffa500; stroke: #ffa500"/>
     <use xlink:href="#mc0e8bc7054" x="491.061307" y="339.838125" style="fill: #ffa500; stroke: #ffa500"/>
     <use xlink:href="#mc0e8bc7054" x="498.670398" y="339.838125" style="fill: #ffa500; stroke: #ffa500"/>
     <use xlink:href="#mc0e8bc7054" x="506.279489" y="339.838125" style="fill: #ffa500; stroke: #ffa500"/>
     <use xlink:href="#mc0e8bc7054" x="510.844943" y="339.838125" style="fill: #ffa500; stroke: #ffa500"/>
     <use xlink:href="#mc0e8bc7054" x="512.366761" y="339.838125" style="fill: #ffa500; stroke: #ffa500"/>
     <use xlink:href="#mc0e8bc7054" x="533.672216" y="339.838125" style="fill: #ffa500; stroke: #ffa500"/>
     <use xlink:href="#mc0e8bc7054" x="535.194034" y="339.838125" style="fill: #ffa500; stroke: #ffa500"/>
     <use xlink:href="#mc0e8bc7054" x="539.759489" y="339.838125" style="fill: #ffa500; stroke: #ffa500"/>
     <use xlink:href="#mc0e8bc7054" x="556.499489" y="339.838125" style="fill: #ffa500; stroke: #ffa500"/>
     <use xlink:href="#mc0e8bc7054" x="561.064943" y="339.838125" style="fill: #ffa500; stroke: #ffa500"/>
     <use xlink:href="#mc0e8bc7054" x="571.71767" y="339.838125" style="fill: #ffa500; stroke: #ffa500"/>
     <use xlink:href="#mc0e8bc7054" x="602.154034" y="339.838125" style="fill: #ffa500; stroke: #ffa500"/>
     <use xlink:href="#mc0e8bc7054" x="608.241307" y="339.838125" style="fill: #ffa500; stroke: #ffa500"/>
     <use xlink:href="#mc0e8bc7054" x="611.284943" y="312.347216" style="fill: #ffa500; stroke: #ffa500"/>
     <use xlink:href="#mc0e8bc7054" x="644.764943" y="339.838125" style="fill: #ffa500; stroke: #ffa500"/>
     <use xlink:href="#mc0e8bc7054" x="650.852216" y="339.838125" style="fill: #ffa500; stroke: #ffa500"/>
     <use xlink:href="#mc0e8bc7054" x="655.41767" y="339.838125" style="fill: #ffa500; stroke: #ffa500"/>
     <use xlink:href="#mc0e8bc7054" x="663.026761" y="339.838125" style="fill: #ffa500; stroke: #ffa500"/>
     <use xlink:href="#mc0e8bc7054" x="666.070398" y="339.838125" style="fill: #ffa500; stroke: #ffa500"/>
     <use xlink:href="#mc0e8bc7054" x="673.679489" y="339.838125" style="fill: #ffa500; stroke: #ffa500"/>
     <use xlink:href="#mc0e8bc7054" x="679.766761" y="284.856307" style="fill: #ffa500; stroke: #ffa500"/>
    </g>
   </g>
   <g id="line2d_33">
    <path d="M 71.039489 339.838125 
L 87.779489 339.838125 
L 92.344943 339.838125 
L 102.99767 339.838125 
L 124.303125 339.838125 
L 128.86858 339.838125 
L 134.955852 339.838125 
L 139.521307 339.838125 
L 144.086761 339.838125 
L 148.652216 339.838125 
L 159.304943 339.838125 
L 160.826761 339.838125 
L 182.132216 339.838125 
L 188.219489 339.838125 
L 192.784943 339.838125 
L 212.56858 339.838125 
L 217.134034 339.838125 
L 223.221307 339.838125 
L 224.743125 339.838125 
L 227.786761 339.838125 
L 230.830398 339.838125 
L 236.91767 339.838125 
L 244.526761 339.838125 
L 247.570398 339.838125 
L 249.092216 339.838125 
L 258.223125 339.838125 
L 273.441307 339.838125 
L 274.963125 312.347216 
L 279.52858 339.838125 
L 285.615852 339.838125 
L 288.659489 339.838125 
L 302.355852 339.838125 
L 308.443125 339.838125 
L 325.183125 339.838125 
L 332.792216 339.838125 
L 337.35767 339.838125 
L 338.879489 339.838125 
L 346.48858 339.838125 
L 355.619489 339.838125 
L 358.663125 312.347216 
L 360.184943 284.856307 
L 367.794034 339.838125 
L 372.359489 339.838125 
L 373.881307 339.838125 
L 376.924943 339.838125 
L 378.446761 339.838125 
L 383.012216 339.838125 
L 389.099489 339.838125 
L 390.621307 312.347216 
L 395.186761 312.347216 
L 405.839489 339.838125 
L 411.926761 339.838125 
L 413.44858 339.838125 
L 425.623125 339.838125 
L 431.710398 339.838125 
L 433.232216 312.347216 
L 436.275852 312.347216 
L 440.841307 312.347216 
L 442.363125 339.838125 
L 443.884943 339.838125 
L 462.146761 339.838125 
L 465.190398 312.347216 
L 468.234034 339.838125 
L 477.364943 339.838125 
L 481.930398 339.838125 
L 491.061307 312.347216 
L 498.670398 312.347216 
L 506.279489 339.838125 
L 510.844943 312.347216 
L 512.366761 339.838125 
L 533.672216 339.838125 
L 535.194034 339.838125 
L 539.759489 339.838125 
L 556.499489 339.838125 
L 561.064943 339.838125 
L 571.71767 339.838125 
L 602.154034 339.838125 
L 608.241307 312.347216 
L 611.284943 312.347216 
L 644.764943 339.838125 
L 650.852216 312.347216 
L 655.41767 312.347216 
L 663.026761 312.347216 
L 666.070398 339.838125 
L 673.679489 312.347216 
L 679.766761 37.438125 
" clip-path="url(#p89224b04b9)" style="fill: none; stroke: #008000; stroke-width: 1.5; stroke-linecap: square"/>
    <defs>
     <path id="mba09a98c9a" d="M 0 3 
C 0.795609 3 1.55874 2.683901 2.12132 2.12132 
C 2.683901 1.55874 3 0.795609 3 0 
C 3 -0.795609 2.683901 -1.55874 2.12132 -2.12132 
C 1.55874 -2.683901 0.795609 -3 0 -3 
C -0.795609 -3 -1.55874 -2.683901 -2.12132 -2.12132 
C -2.683901 -1.55874 -3 -0.795609 -3 0 
C -3 0.795609 -2.683901 1.55874 -2.12132 2.12132 
C -1.55874 2.683901 -0.795609 3 0 3 
z
" style="stroke: #008000"/>
    </defs>
    <g clip-path="url(#p89224b04b9)">
     <use xlink:href="#mba09a98c9a" x="71.039489" y="339.838125" style="fill: #008000; stroke: #008000"/>
     <use xlink:href="#mba09a98c9a" x="87.779489" y="339.838125" style="fill: #008000; stroke: #008000"/>
     <use xlink:href="#mba09a98c9a" x="92.344943" y="339.838125" style="fill: #008000; stroke: #008000"/>
     <use xlink:href="#mba09a98c9a" x="102.99767" y="339.838125" style="fill: #008000; stroke: #008000"/>
     <use xlink:href="#mba09a98c9a" x="124.303125" y="339.838125" style="fill: #008000; stroke: #008000"/>
     <use xlink:href="#mba09a98c9a" x="128.86858" y="339.838125" style="fill: #008000; stroke: #008000"/>
     <use xlink:href="#mba09a98c9a" x="134.955852" y="339.838125" style="fill: #008000; stroke: #008000"/>
     <use xlink:href="#mba09a98c9a" x="139.521307" y="339.838125" style="fill: #008000; stroke: #008000"/>
     <use xlink:href="#mba09a98c9a" x="144.086761" y="339.838125" style="fill: #008000; stroke: #008000"/>
     <use xlink:href="#mba09a98c9a" x="148.652216" y="339.838125" style="fill: #008000; stroke: #008000"/>
     <use xlink:href="#mba09a98c9a" x="159.304943" y="339.838125" style="fill: #008000; stroke: #008000"/>
     <use xlink:href="#mba09a98c9a" x="160.826761" y="339.838125" style="fill: #008000; stroke: #008000"/>
     <use xlink:href="#mba09a98c9a" x="182.132216" y="339.838125" style="fill: #008000; stroke: #008000"/>
     <use xlink:href="#mba09a98c9a" x="188.219489" y="339.838125" style="fill: #008000; stroke: #008000"/>
     <use xlink:href="#mba09a98c9a" x="192.784943" y="339.838125" style="fill: #008000; stroke: #008000"/>
     <use xlink:href="#mba09a98c9a" x="212.56858" y="339.838125" style="fill: #008000; stroke: #008000"/>
     <use xlink:href="#mba09a98c9a" x="217.134034" y="339.838125" style="fill: #008000; stroke: #008000"/>
     <use xlink:href="#mba09a98c9a" x="223.221307" y="339.838125" style="fill: #008000; stroke: #008000"/>
     <use xlink:href="#mba09a98c9a" x="224.743125" y="339.838125" style="fill: #008000; stroke: #008000"/>
     <use xlink:href="#mba09a98c9a" x="227.786761" y="339.838125" style="fill: #008000; stroke: #008000"/>
     <use xlink:href="#mba09a98c9a" x="230.830398" y="339.838125" style="fill: #008000; stroke: #008000"/>
     <use xlink:href="#mba09a98c9a" x="236.91767" y="339.838125" style="fill: #008000; stroke: #008000"/>
     <use xlink:href="#mba09a98c9a" x="244.526761" y="339.838125" style="fill: #008000; stroke: #008000"/>
     <use xlink:href="#mba09a98c9a" x="247.570398" y="339.838125" style="fill: #008000; stroke: #008000"/>
     <use xlink:href="#mba09a98c9a" x="249.092216" y="339.838125" style="fill: #008000; stroke: #008000"/>
     <use xlink:href="#mba09a98c9a" x="258.223125" y="339.838125" style="fill: #008000; stroke: #008000"/>
     <use xlink:href="#mba09a98c9a" x="273.441307" y="339.838125" style="fill: #008000; stroke: #008000"/>
     <use xlink:href="#mba09a98c9a" x="274.963125" y="312.347216" style="fill: #008000; stroke: #008000"/>
     <use xlink:href="#mba09a98c9a" x="279.52858" y="339.838125" style="fill: #008000; stroke: #008000"/>
     <use xlink:href="#mba09a98c9a" x="285.615852" y="339.838125" style="fill: #008000; stroke: #008000"/>
     <use xlink:href="#mba09a98c9a" x="288.659489" y="339.838125" style="fill: #008000; stroke: #008000"/>
     <use xlink:href="#mba09a98c9a" x="302.355852" y="339.838125" style="fill: #008000; stroke: #008000"/>
     <use xlink:href="#mba09a98c9a" x="308.443125" y="339.838125" style="fill: #008000; stroke: #008000"/>
     <use xlink:href="#mba09a98c9a" x="325.183125" y="339.838125" style="fill: #008000; stroke: #008000"/>
     <use xlink:href="#mba09a98c9a" x="332.792216" y="339.838125" style="fill: #008000; stroke: #008000"/>
     <use xlink:href="#mba09a98c9a" x="337.35767" y="339.838125" style="fill: #008000; stroke: #008000"/>
     <use xlink:href="#mba09a98c9a" x="338.879489" y="339.838125" style="fill: #008000; stroke: #008000"/>
     <use xlink:href="#mba09a98c9a" x="346.48858" y="339.838125" style="fill: #008000; stroke: #008000"/>
     <use xlink:href="#mba09a98c9a" x="355.619489" y="339.838125" style="fill: #008000; stroke: #008000"/>
     <use xlink:href="#mba09a98c9a" x="358.663125" y="312.347216" style="fill: #008000; stroke: #008000"/>
     <use xlink:href="#mba09a98c9a" x="360.184943" y="284.856307" style="fill: #008000; stroke: #008000"/>
     <use xlink:href="#mba09a98c9a" x="367.794034" y="339.838125" style="fill: #008000; stroke: #008000"/>
     <use xlink:href="#mba09a98c9a" x="372.359489" y="339.838125" style="fill: #008000; stroke: #008000"/>
     <use xlink:href="#mba09a98c9a" x="373.881307" y="339.838125" style="fill: #008000; stroke: #008000"/>
     <use xlink:href="#mba09a98c9a" x="376.924943" y="339.838125" style="fill: #008000; stroke: #008000"/>
     <use xlink:href="#mba09a98c9a" x="378.446761" y="339.838125" style="fill: #008000; stroke: #008000"/>
     <use xlink:href="#mba09a98c9a" x="383.012216" y="339.838125" style="fill: #008000; stroke: #008000"/>
     <use xlink:href="#mba09a98c9a" x="389.099489" y="339.838125" style="fill: #008000; stroke: #008000"/>
     <use xlink:href="#mba09a98c9a" x="390.621307" y="312.347216" style="fill: #008000; stroke: #008000"/>
     <use xlink:href="#mba09a98c9a" x="395.186761" y="312.347216" style="fill: #008000; stroke: #008000"/>
     <use xlink:href="#mba09a98c9a" x="405.839489" y="339.838125" style="fill: #008000; stroke: #008000"/>
     <use xlink:href="#mba09a98c9a" x="411.926761" y="339.838125" style="fill: #008000; stroke: #008000"/>
     <use xlink:href="#mba09a98c9a" x="413.44858" y="339.838125" style="fill: #008000; stroke: #008000"/>
     <use xlink:href="#mba09a98c9a" x="425.623125" y="339.838125" style="fill: #008000; stroke: #008000"/>
     <use xlink:href="#mba09a98c9a" x="431.710398" y="339.838125" style="fill: #008000; stroke: #008000"/>
     <use xlink:href="#mba09a98c9a" x="433.232216" y="312.347216" style="fill: #008000; stroke: #008000"/>
     <use xlink:href="#mba09a98c9a" x="436.275852" y="312.347216" style="fill: #008000; stroke: #008000"/>
     <use xlink:href="#mba09a98c9a" x="440.841307" y="312.347216" style="fill: #008000; stroke: #008000"/>
     <use xlink:href="#mba09a98c9a" x="442.363125" y="339.838125" style="fill: #008000; stroke: #008000"/>
     <use xlink:href="#mba09a98c9a" x="443.884943" y="339.838125" style="fill: #008000; stroke: #008000"/>
     <use xlink:href="#mba09a98c9a" x="462.146761" y="339.838125" style="fill: #008000; stroke: #008000"/>
     <use xlink:href="#mba09a98c9a" x="465.190398" y="312.347216" style="fill: #008000; stroke: #008000"/>
     <use xlink:href="#mba09a98c9a" x="468.234034" y="339.838125" style="fill: #008000; stroke: #008000"/>
     <use xlink:href="#mba09a98c9a" x="477.364943" y="339.838125" style="fill: #008000; stroke: #008000"/>
     <use xlink:href="#mba09a98c9a" x="481.930398" y="339.838125" style="fill: #008000; stroke: #008000"/>
     <use xlink:href="#mba09a98c9a" x="491.061307" y="312.347216" style="fill: #008000; stroke: #008000"/>
     <use xlink:href="#mba09a98c9a" x="498.670398" y="312.347216" style="fill: #008000; stroke: #008000"/>
     <use xlink:href="#mba09a98c9a" x="506.279489" y="339.838125" style="fill: #008000; stroke: #008000"/>
     <use xlink:href="#mba09a98c9a" x="510.844943" y="312.347216" style="fill: #008000; stroke: #008000"/>
     <use xlink:href="#mba09a98c9a" x="512.366761" y="339.838125" style="fill: #008000; stroke: #008000"/>
     <use xlink:href="#mba09a98c9a" x="533.672216" y="339.838125" style="fill: #008000; stroke: #008000"/>
     <use xlink:href="#mba09a98c9a" x="535.194034" y="339.838125" style="fill: #008000; stroke: #008000"/>
     <use xlink:href="#mba09a98c9a" x="539.759489" y="339.838125" style="fill: #008000; stroke: #008000"/>
     <use xlink:href="#mba09a98c9a" x="556.499489" y="339.838125" style="fill: #008000; stroke: #008000"/>
     <use xlink:href="#mba09a98c9a" x="561.064943" y="339.838125" style="fill: #008000; stroke: #008000"/>
     <use xlink:href="#mba09a98c9a" x="571.71767" y="339.838125" style="fill: #008000; stroke: #008000"/>
     <use xlink:href="#mba09a98c9a" x="602.154034" y="339.838125" style="fill: #008000; stroke: #008000"/>
     <use xlink:href="#mba09a98c9a" x="608.241307" y="312.347216" style="fill: #008000; stroke: #008000"/>
     <use xlink:href="#mba09a98c9a" x="611.284943" y="312.347216" style="fill: #008000; stroke: #008000"/>
     <use xlink:href="#mba09a98c9a" x="644.764943" y="339.838125" style="fill: #008000; stroke: #008000"/>
     <use xlink:href="#mba09a98c9a" x="650.852216" y="312.347216" style="fill: #008000; stroke: #008000"/>
     <use xlink:href="#mba09a98c9a" x="655.41767" y="312.347216" style="fill: #008000; stroke: #008000"/>
     <use xlink:href="#mba09a98c9a" x="663.026761" y="312.347216" style="fill: #008000; stroke: #008000"/>
     <use xlink:href="#mba09a98c9a" x="666.070398" y="339.838125" style="fill: #008000; stroke: #008000"/>
     <use xlink:href="#mba09a98c9a" x="673.679489" y="312.347216" style="fill: #008000; stroke: #008000"/>
     <use xlink:href="#mba09a98c9a" x="679.766761" y="37.438125" style="fill: #008000; stroke: #008000"/>
    </g>
   </g>
   <g id="line2d_34">
    <path d="M 71.039489 202.38358 
L 87.779489 339.838125 
L 92.344943 339.838125 
L 102.99767 339.838125 
L 124.303125 339.838125 
L 128.86858 339.838125 
L 134.955852 312.347216 
L 139.521307 312.347216 
L 144.086761 339.838125 
L 148.652216 312.347216 
L 159.304943 339.838125 
L 160.826761 312.347216 
L 182.132216 339.838125 
L 188.219489 312.347216 
L 192.784943 312.347216 
L 212.56858 339.838125 
L 217.134034 339.838125 
L 223.221307 339.838125 
L 224.743125 312.347216 
L 227.786761 339.838125 
L 230.830398 339.838125 
L 236.91767 312.347216 
L 244.526761 339.838125 
L 247.570398 339.838125 
L 249.092216 312.347216 
L 258.223125 339.838125 
L 273.441307 339.838125 
L 274.963125 312.347216 
L 279.52858 312.347216 
L 285.615852 312.347216 
L 288.659489 312.347216 
L 302.355852 339.838125 
L 308.443125 312.347216 
L 325.183125 339.838125 
L 332.792216 339.838125 
L 337.35767 339.838125 
L 338.879489 339.838125 
L 346.48858 339.838125 
L 355.619489 339.838125 
L 358.663125 339.838125 
L 360.184943 312.347216 
L 367.794034 339.838125 
L 372.359489 339.838125 
L 373.881307 339.838125 
L 376.924943 339.838125 
L 378.446761 339.838125 
L 383.012216 339.838125 
L 389.099489 339.838125 
L 390.621307 339.838125 
L 395.186761 339.838125 
L 405.839489 339.838125 
L 411.926761 312.347216 
L 413.44858 312.347216 
L 425.623125 312.347216 
L 431.710398 312.347216 
L 433.232216 339.838125 
L 436.275852 339.838125 
L 440.841307 339.838125 
L 442.363125 339.838125 
L 443.884943 339.838125 
L 462.146761 312.347216 
L 465.190398 339.838125 
L 468.234034 312.347216 
L 477.364943 339.838125 
L 481.930398 339.838125 
L 491.061307 339.838125 
L 498.670398 339.838125 
L 506.279489 339.838125 
L 510.844943 339.838125 
L 512.366761 339.838125 
L 533.672216 339.838125 
L 535.194034 339.838125 
L 539.759489 339.838125 
L 556.499489 339.838125 
L 561.064943 339.838125 
L 571.71767 339.838125 
L 602.154034 339.838125 
L 608.241307 339.838125 
L 611.284943 312.347216 
L 644.764943 339.838125 
L 650.852216 312.347216 
L 655.41767 339.838125 
L 663.026761 339.838125 
L 666.070398 339.838125 
L 673.679489 339.838125 
L 679.766761 284.856307 
" clip-path="url(#p89224b04b9)" style="fill: none; stroke: #ff0000; stroke-width: 1.5; stroke-linecap: square"/>
    <defs>
     <path id="mf06884f162" d="M 0 3 
C 0.795609 3 1.55874 2.683901 2.12132 2.12132 
C 2.683901 1.55874 3 0.795609 3 0 
C 3 -0.795609 2.683901 -1.55874 2.12132 -2.12132 
C 1.55874 -2.683901 0.795609 -3 0 -3 
C -0.795609 -3 -1.55874 -2.683901 -2.12132 -2.12132 
C -2.683901 -1.55874 -3 -0.795609 -3 0 
C -3 0.795609 -2.683901 1.55874 -2.12132 2.12132 
C -1.55874 2.683901 -0.795609 3 0 3 
z
" style="stroke: #ff0000"/>
    </defs>
    <g clip-path="url(#p89224b04b9)">
     <use xlink:href="#mf06884f162" x="71.039489" y="202.38358" style="fill: #ff0000; stroke: #ff0000"/>
     <use xlink:href="#mf06884f162" x="87.779489" y="339.838125" style="fill: #ff0000; stroke: #ff0000"/>
     <use xlink:href="#mf06884f162" x="92.344943" y="339.838125" style="fill: #ff0000; stroke: #ff0000"/>
     <use xlink:href="#mf06884f162" x="102.99767" y="339.838125" style="fill: #ff0000; stroke: #ff0000"/>
     <use xlink:href="#mf06884f162" x="124.303125" y="339.838125" style="fill: #ff0000; stroke: #ff0000"/>
     <use xlink:href="#mf06884f162" x="128.86858" y="339.838125" style="fill: #ff0000; stroke: #ff0000"/>
     <use xlink:href="#mf06884f162" x="134.955852" y="312.347216" style="fill: #ff0000; stroke: #ff0000"/>
     <use xlink:href="#mf06884f162" x="139.521307" y="312.347216" style="fill: #ff0000; stroke: #ff0000"/>
     <use xlink:href="#mf06884f162" x="144.086761" y="339.838125" style="fill: #ff0000; stroke: #ff0000"/>
     <use xlink:href="#mf06884f162" x="148.652216" y="312.347216" style="fill: #ff0000; stroke: #ff0000"/>
     <use xlink:href="#mf06884f162" x="159.304943" y="339.838125" style="fill: #ff0000; stroke: #ff0000"/>
     <use xlink:href="#mf06884f162" x="160.826761" y="312.347216" style="fill: #ff0000; stroke: #ff0000"/>
     <use xlink:href="#mf06884f162" x="182.132216" y="339.838125" style="fill: #ff0000; stroke: #ff0000"/>
     <use xlink:href="#mf06884f162" x="188.219489" y="312.347216" style="fill: #ff0000; stroke: #ff0000"/>
     <use xlink:href="#mf06884f162" x="192.784943" y="312.347216" style="fill: #ff0000; stroke: #ff0000"/>
     <use xlink:href="#mf06884f162" x="212.56858" y="339.838125" style="fill: #ff0000; stroke: #ff0000"/>
     <use xlink:href="#mf06884f162" x="217.134034" y="339.838125" style="fill: #ff0000; stroke: #ff0000"/>
     <use xlink:href="#mf06884f162" x="223.221307" y="339.838125" style="fill: #ff0000; stroke: #ff0000"/>
     <use xlink:href="#mf06884f162" x="224.743125" y="312.347216" style="fill: #ff0000; stroke: #ff0000"/>
     <use xlink:href="#mf06884f162" x="227.786761" y="339.838125" style="fill: #ff0000; stroke: #ff0000"/>
     <use xlink:href="#mf06884f162" x="230.830398" y="339.838125" style="fill: #ff0000; stroke: #ff0000"/>
     <use xlink:href="#mf06884f162" x="236.91767" y="312.347216" style="fill: #ff0000; stroke: #ff0000"/>
     <use xlink:href="#mf06884f162" x="244.526761" y="339.838125" style="fill: #ff0000; stroke: #ff0000"/>
     <use xlink:href="#mf06884f162" x="247.570398" y="339.838125" style="fill: #ff0000; stroke: #ff0000"/>
     <use xlink:href="#mf06884f162" x="249.092216" y="312.347216" style="fill: #ff0000; stroke: #ff0000"/>
     <use xlink:href="#mf06884f162" x="258.223125" y="339.838125" style="fill: #ff0000; stroke: #ff0000"/>
     <use xlink:href="#mf06884f162" x="273.441307" y="339.838125" style="fill: #ff0000; stroke: #ff0000"/>
     <use xlink:href="#mf06884f162" x="274.963125" y="312.347216" style="fill: #ff0000; stroke: #ff0000"/>
     <use xlink:href="#mf06884f162" x="279.52858" y="312.347216" style="fill: #ff0000; stroke: #ff0000"/>
     <use xlink:href="#mf06884f162" x="285.615852" y="312.347216" style="fill: #ff0000; stroke: #ff0000"/>
     <use xlink:href="#mf06884f162" x="288.659489" y="312.347216" style="fill: #ff0000; stroke: #ff0000"/>
     <use xlink:href="#mf06884f162" x="302.355852" y="339.838125" style="fill: #ff0000; stroke: #ff0000"/>
     <use xlink:href="#mf06884f162" x="308.443125" y="312.347216" style="fill: #ff0000; stroke: #ff0000"/>
     <use xlink:href="#mf06884f162" x="325.183125" y="339.838125" style="fill: #ff0000; stroke: #ff0000"/>
     <use xlink:href="#mf06884f162" x="332.792216" y="339.838125" style="fill: #ff0000; stroke: #ff0000"/>
     <use xlink:href="#mf06884f162" x="337.35767" y="339.838125" style="fill: #ff0000; stroke: #ff0000"/>
     <use xlink:href="#mf06884f162" x="338.879489" y="339.838125" style="fill: #ff0000; stroke: #ff0000"/>
     <use xlink:href="#mf06884f162" x="346.48858" y="339.838125" style="fill: #ff0000; stroke: #ff0000"/>
     <use xlink:href="#mf06884f162" x="355.619489" y="339.838125" style="fill: #ff0000; stroke: #ff0000"/>
     <use xlink:href="#mf06884f162" x="358.663125" y="339.838125" style="fill: #ff0000; stroke: #ff0000"/>
     <use xlink:href="#mf06884f162" x="360.184943" y="312.347216" style="fill: #ff0000; stroke: #ff0000"/>
     <use xlink:href="#mf06884f162" x="367.794034" y="339.838125" style="fill: #ff0000; stroke: #ff0000"/>
     <use xlink:href="#mf06884f162" x="372.359489" y="339.838125" style="fill: #ff0000; stroke: #ff0000"/>
     <use xlink:href="#mf06884f162" x="373.881307" y="339.838125" style="fill: #ff0000; stroke: #ff0000"/>
     <use xlink:href="#mf06884f162" x="376.924943" y="339.838125" style="fill: #ff0000; stroke: #ff0000"/>
     <use xlink:href="#mf06884f162" x="378.446761" y="339.838125" style="fill: #ff0000; stroke: #ff0000"/>
     <use xlink:href="#mf06884f162" x="383.012216" y="339.838125" style="fill: #ff0000; stroke: #ff0000"/>
     <use xlink:href="#mf06884f162" x="389.099489" y="339.838125" style="fill: #ff0000; stroke: #ff0000"/>
     <use xlink:href="#mf06884f162" x="390.621307" y="339.838125" style="fill: #ff0000; stroke: #ff0000"/>
     <use xlink:href="#mf06884f162" x="395.186761" y="339.838125" style="fill: #ff0000; stroke: #ff0000"/>
     <use xlink:href="#mf06884f162" x="405.839489" y="339.838125" style="fill: #ff0000; stroke: #ff0000"/>
     <use xlink:href="#mf06884f162" x="411.926761" y="312.347216" style="fill: #ff0000; stroke: #ff0000"/>
     <use xlink:href="#mf06884f162" x="413.44858" y="312.347216" style="fill: #ff0000; stroke: #ff0000"/>
     <use xlink:href="#mf06884f162" x="425.623125" y="312.347216" style="fill: #ff0000; stroke: #ff0000"/>
     <use xlink:href="#mf06884f162" x="431.710398" y="312.347216" style="fill: #ff0000; stroke: #ff0000"/>
     <use xlink:href="#mf06884f162" x="433.232216" y="339.838125" style="fill: #ff0000; stroke: #ff0000"/>
     <use xlink:href="#mf06884f162" x="436.275852" y="339.838125" style="fill: #ff0000; stroke: #ff0000"/>
     <use xlink:href="#mf06884f162" x="440.841307" y="339.838125" style="fill: #ff0000; stroke: #ff0000"/>
     <use xlink:href="#mf06884f162" x="442.363125" y="339.838125" style="fill: #ff0000; stroke: #ff0000"/>
     <use xlink:href="#mf06884f162" x="443.884943" y="339.838125" style="fill: #ff0000; stroke: #ff0000"/>
     <use xlink:href="#mf06884f162" x="462.146761" y="312.347216" style="fill: #ff0000; stroke: #ff0000"/>
     <use xlink:href="#mf06884f162" x="465.190398" y="339.838125" style="fill: #ff0000; stroke: #ff0000"/>
     <use xlink:href="#mf06884f162" x="468.234034" y="312.347216" style="fill: #ff0000; stroke: #ff0000"/>
     <use xlink:href="#mf06884f162" x="477.364943" y="339.838125" style="fill: #ff0000; stroke: #ff0000"/>
     <use xlink:href="#mf06884f162" x="481.930398" y="339.838125" style="fill: #ff0000; stroke: #ff0000"/>
     <use xlink:href="#mf06884f162" x="491.061307" y="339.838125" style="fill: #ff0000; stroke: #ff0000"/>
     <use xlink:href="#mf06884f162" x="498.670398" y="339.838125" style="fill: #ff0000; stroke: #ff0000"/>
     <use xlink:href="#mf06884f162" x="506.279489" y="339.838125" style="fill: #ff0000; stroke: #ff0000"/>
     <use xlink:href="#mf06884f162" x="510.844943" y="339.838125" style="fill: #ff0000; stroke: #ff0000"/>
     <use xlink:href="#mf06884f162" x="512.366761" y="339.838125" style="fill: #ff0000; stroke: #ff0000"/>
     <use xlink:href="#mf06884f162" x="533.672216" y="339.838125" style="fill: #ff0000; stroke: #ff0000"/>
     <use xlink:href="#mf06884f162" x="535.194034" y="339.838125" style="fill: #ff0000; stroke: #ff0000"/>
     <use xlink:href="#mf06884f162" x="539.759489" y="339.838125" style="fill: #ff0000; stroke: #ff0000"/>
     <use xlink:href="#mf06884f162" x="556.499489" y="339.838125" style="fill: #ff0000; stroke: #ff0000"/>
     <use xlink:href="#mf06884f162" x="561.064943" y="339.838125" style="fill: #ff0000; stroke: #ff0000"/>
     <use xlink:href="#mf06884f162" x="571.71767" y="339.838125" style="fill: #ff0000; stroke: #ff0000"/>
     <use xlink:href="#mf06884f162" x="602.154034" y="339.838125" style="fill: #ff0000; stroke: #ff0000"/>
     <use xlink:href="#mf06884f162" x="608.241307" y="339.838125" style="fill: #ff0000; stroke: #ff0000"/>
     <use xlink:href="#mf06884f162" x="611.284943" y="312.347216" style="fill: #ff0000; stroke: #ff0000"/>
     <use xlink:href="#mf06884f162" x="644.764943" y="339.838125" style="fill: #ff0000; stroke: #ff0000"/>
     <use xlink:href="#mf06884f162" x="650.852216" y="312.347216" style="fill: #ff0000; stroke: #ff0000"/>
     <use xlink:href="#mf06884f162" x="655.41767" y="339.838125" style="fill: #ff0000; stroke: #ff0000"/>
     <use xlink:href="#mf06884f162" x="663.026761" y="339.838125" style="fill: #ff0000; stroke: #ff0000"/>
     <use xlink:href="#mf06884f162" x="666.070398" y="339.838125" style="fill: #ff0000; stroke: #ff0000"/>
     <use xlink:href="#mf06884f162" x="673.679489" y="339.838125" style="fill: #ff0000; stroke: #ff0000"/>
     <use xlink:href="#mf06884f162" x="679.766761" y="284.856307" style="fill: #ff0000; stroke: #ff0000"/>
    </g>
   </g>
   <g id="line2d_35">
    <path d="M 71.039489 312.347216 
L 87.779489 312.347216 
L 92.344943 339.838125 
L 102.99767 339.838125 
L 124.303125 339.838125 
L 128.86858 339.838125 
L 134.955852 339.838125 
L 139.521307 339.838125 
L 144.086761 339.838125 
L 148.652216 339.838125 
L 159.304943 312.347216 
L 160.826761 339.838125 
L 182.132216 339.838125 
L 188.219489 339.838125 
L 192.784943 339.838125 
L 212.56858 339.838125 
L 217.134034 312.347216 
L 223.221307 312.347216 
L 224.743125 339.838125 
L 227.786761 312.347216 
L 230.830398 339.838125 
L 236.91767 339.838125 
L 244.526761 339.838125 
L 247.570398 339.838125 
L 249.092216 339.838125 
L 258.223125 312.347216 
L 273.441307 339.838125 
L 274.963125 339.838125 
L 279.52858 339.838125 
L 285.615852 339.838125 
L 288.659489 339.838125 
L 302.355852 312.347216 
L 308.443125 339.838125 
L 325.183125 339.838125 
L 332.792216 284.856307 
L 337.35767 339.838125 
L 338.879489 312.347216 
L 346.48858 339.838125 
L 355.619489 312.347216 
L 358.663125 339.838125 
L 360.184943 312.347216 
L 367.794034 339.838125 
L 372.359489 339.838125 
L 373.881307 312.347216 
L 376.924943 339.838125 
L 378.446761 339.838125 
L 383.012216 339.838125 
L 389.099489 339.838125 
L 390.621307 339.838125 
L 395.186761 339.838125 
L 405.839489 312.347216 
L 411.926761 339.838125 
L 413.44858 339.838125 
L 425.623125 339.838125 
L 431.710398 339.838125 
L 433.232216 339.838125 
L 436.275852 339.838125 
L 440.841307 339.838125 
L 442.363125 312.347216 
L 443.884943 339.838125 
L 462.146761 339.838125 
L 465.190398 339.838125 
L 468.234034 339.838125 
L 477.364943 339.838125 
L 481.930398 339.838125 
L 491.061307 339.838125 
L 498.670398 339.838125 
L 506.279489 339.838125 
L 510.844943 339.838125 
L 512.366761 339.838125 
L 533.672216 339.838125 
L 535.194034 312.347216 
L 539.759489 284.856307 
L 556.499489 312.347216 
L 561.064943 339.838125 
L 571.71767 312.347216 
L 602.154034 312.347216 
L 608.241307 339.838125 
L 611.284943 312.347216 
L 644.764943 312.347216 
L 650.852216 312.347216 
L 655.41767 339.838125 
L 663.026761 339.838125 
L 666.070398 312.347216 
L 673.679489 339.838125 
L 679.766761 229.874489 
" clip-path="url(#p89224b04b9)" style="fill: none; stroke: #800080; stroke-width: 1.5; stroke-linecap: square"/>
    <defs>
     <path id="m803e3f5228" d="M 0 3 
C 0.795609 3 1.55874 2.683901 2.12132 2.12132 
C 2.683901 1.55874 3 0.795609 3 0 
C 3 -0.795609 2.683901 -1.55874 2.12132 -2.12132 
C 1.55874 -2.683901 0.795609 -3 0 -3 
C -0.795609 -3 -1.55874 -2.683901 -2.12132 -2.12132 
C -2.683901 -1.55874 -3 -0.795609 -3 0 
C -3 0.795609 -2.683901 1.55874 -2.12132 2.12132 
C -1.55874 2.683901 -0.795609 3 0 3 
z
" style="stroke: #800080"/>
    </defs>
    <g clip-path="url(#p89224b04b9)">
     <use xlink:href="#m803e3f5228" x="71.039489" y="312.347216" style="fill: #800080; stroke: #800080"/>
     <use xlink:href="#m803e3f5228" x="87.779489" y="312.347216" style="fill: #800080; stroke: #800080"/>
     <use xlink:href="#m803e3f5228" x="92.344943" y="339.838125" style="fill: #800080; stroke: #800080"/>
     <use xlink:href="#m803e3f5228" x="102.99767" y="339.838125" style="fill: #800080; stroke: #800080"/>
     <use xlink:href="#m803e3f5228" x="124.303125" y="339.838125" style="fill: #800080; stroke: #800080"/>
     <use xlink:href="#m803e3f5228" x="128.86858" y="339.838125" style="fill: #800080; stroke: #800080"/>
     <use xlink:href="#m803e3f5228" x="134.955852" y="339.838125" style="fill: #800080; stroke: #800080"/>
     <use xlink:href="#m803e3f5228" x="139.521307" y="339.838125" style="fill: #800080; stroke: #800080"/>
     <use xlink:href="#m803e3f5228" x="144.086761" y="339.838125" style="fill: #800080; stroke: #800080"/>
     <use xlink:href="#m803e3f5228" x="148.652216" y="339.838125" style="fill: #800080; stroke: #800080"/>
     <use xlink:href="#m803e3f5228" x="159.304943" y="312.347216" style="fill: #800080; stroke: #800080"/>
     <use xlink:href="#m803e3f5228" x="160.826761" y="339.838125" style="fill: #800080; stroke: #800080"/>
     <use xlink:href="#m803e3f5228" x="182.132216" y="339.838125" style="fill: #800080; stroke: #800080"/>
     <use xlink:href="#m803e3f5228" x="188.219489" y="339.838125" style="fill: #800080; stroke: #800080"/>
     <use xlink:href="#m803e3f5228" x="192.784943" y="339.838125" style="fill: #800080; stroke: #800080"/>
     <use xlink:href="#m803e3f5228" x="212.56858" y="339.838125" style="fill: #800080; stroke: #800080"/>
     <use xlink:href="#m803e3f5228" x="217.134034" y="312.347216" style="fill: #800080; stroke: #800080"/>
     <use xlink:href="#m803e3f5228" x="223.221307" y="312.347216" style="fill: #800080; stroke: #800080"/>
     <use xlink:href="#m803e3f5228" x="224.743125" y="339.838125" style="fill: #800080; stroke: #800080"/>
     <use xlink:href="#m803e3f5228" x="227.786761" y="312.347216" style="fill: #800080; stroke: #800080"/>
     <use xlink:href="#m803e3f5228" x="230.830398" y="339.838125" style="fill: #800080; stroke: #800080"/>
     <use xlink:href="#m803e3f5228" x="236.91767" y="339.838125" style="fill: #800080; stroke: #800080"/>
     <use xlink:href="#m803e3f5228" x="244.526761" y="339.838125" style="fill: #800080; stroke: #800080"/>
     <use xlink:href="#m803e3f5228" x="247.570398" y="339.838125" style="fill: #800080; stroke: #800080"/>
     <use xlink:href="#m803e3f5228" x="249.092216" y="339.838125" style="fill: #800080; stroke: #800080"/>
     <use xlink:href="#m803e3f5228" x="258.223125" y="312.347216" style="fill: #800080; stroke: #800080"/>
     <use xlink:href="#m803e3f5228" x="273.441307" y="339.838125" style="fill: #800080; stroke: #800080"/>
     <use xlink:href="#m803e3f5228" x="274.963125" y="339.838125" style="fill: #800080; stroke: #800080"/>
     <use xlink:href="#m803e3f5228" x="279.52858" y="339.838125" style="fill: #800080; stroke: #800080"/>
     <use xlink:href="#m803e3f5228" x="285.615852" y="339.838125" style="fill: #800080; stroke: #800080"/>
     <use xlink:href="#m803e3f5228" x="288.659489" y="339.838125" style="fill: #800080; stroke: #800080"/>
     <use xlink:href="#m803e3f5228" x="302.355852" y="312.347216" style="fill: #800080; stroke: #800080"/>
     <use xlink:href="#m803e3f5228" x="308.443125" y="339.838125" style="fill: #800080; stroke: #800080"/>
     <use xlink:href="#m803e3f5228" x="325.183125" y="339.838125" style="fill: #800080; stroke: #800080"/>
     <use xlink:href="#m803e3f5228" x="332.792216" y="284.856307" style="fill: #800080; stroke: #800080"/>
     <use xlink:href="#m803e3f5228" x="337.35767" y="339.838125" style="fill: #800080; stroke: #800080"/>
     <use xlink:href="#m803e3f5228" x="338.879489" y="312.347216" style="fill: #800080; stroke: #800080"/>
     <use xlink:href="#m803e3f5228" x="346.48858" y="339.838125" style="fill: #800080; stroke: #800080"/>
     <use xlink:href="#m803e3f5228" x="355.619489" y="312.347216" style="fill: #800080; stroke: #800080"/>
     <use xlink:href="#m803e3f5228" x="358.663125" y="339.838125" style="fill: #800080; stroke: #800080"/>
     <use xlink:href="#m803e3f5228" x="360.184943" y="312.347216" style="fill: #800080; stroke: #800080"/>
     <use xlink:href="#m803e3f5228" x="367.794034" y="339.838125" style="fill: #800080; stroke: #800080"/>
     <use xlink:href="#m803e3f5228" x="372.359489" y="339.838125" style="fill: #800080; stroke: #800080"/>
     <use xlink:href="#m803e3f5228" x="373.881307" y="312.347216" style="fill: #800080; stroke: #800080"/>
     <use xlink:href="#m803e3f5228" x="376.924943" y="339.838125" style="fill: #800080; stroke: #800080"/>
     <use xlink:href="#m803e3f5228" x="378.446761" y="339.838125" style="fill: #800080; stroke: #800080"/>
     <use xlink:href="#m803e3f5228" x="383.012216" y="339.838125" style="fill: #800080; stroke: #800080"/>
     <use xlink:href="#m803e3f5228" x="389.099489" y="339.838125" style="fill: #800080; stroke: #800080"/>
     <use xlink:href="#m803e3f5228" x="390.621307" y="339.838125" style="fill: #800080; stroke: #800080"/>
     <use xlink:href="#m803e3f5228" x="395.186761" y="339.838125" style="fill: #800080; stroke: #800080"/>
     <use xlink:href="#m803e3f5228" x="405.839489" y="312.347216" style="fill: #800080; stroke: #800080"/>
     <use xlink:href="#m803e3f5228" x="411.926761" y="339.838125" style="fill: #800080; stroke: #800080"/>
     <use xlink:href="#m803e3f5228" x="413.44858" y="339.838125" style="fill: #800080; stroke: #800080"/>
     <use xlink:href="#m803e3f5228" x="425.623125" y="339.838125" style="fill: #800080; stroke: #800080"/>
     <use xlink:href="#m803e3f5228" x="431.710398" y="339.838125" style="fill: #800080; stroke: #800080"/>
     <use xlink:href="#m803e3f5228" x="433.232216" y="339.838125" style="fill: #800080; stroke: #800080"/>
     <use xlink:href="#m803e3f5228" x="436.275852" y="339.838125" style="fill: #800080; stroke: #800080"/>
     <use xlink:href="#m803e3f5228" x="440.841307" y="339.838125" style="fill: #800080; stroke: #800080"/>
     <use xlink:href="#m803e3f5228" x="442.363125" y="312.347216" style="fill: #800080; stroke: #800080"/>
     <use xlink:href="#m803e3f5228" x="443.884943" y="339.838125" style="fill: #800080; stroke: #800080"/>
     <use xlink:href="#m803e3f5228" x="462.146761" y="339.838125" style="fill: #800080; stroke: #800080"/>
     <use xlink:href="#m803e3f5228" x="465.190398" y="339.838125" style="fill: #800080; stroke: #800080"/>
     <use xlink:href="#m803e3f5228" x="468.234034" y="339.838125" style="fill: #800080; stroke: #800080"/>
     <use xlink:href="#m803e3f5228" x="477.364943" y="339.838125" style="fill: #800080; stroke: #800080"/>
     <use xlink:href="#m803e3f5228" x="481.930398" y="339.838125" style="fill: #800080; stroke: #800080"/>
     <use xlink:href="#m803e3f5228" x="491.061307" y="339.838125" style="fill: #800080; stroke: #800080"/>
     <use xlink:href="#m803e3f5228" x="498.670398" y="339.838125" style="fill: #800080; stroke: #800080"/>
     <use xlink:href="#m803e3f5228" x="506.279489" y="339.838125" style="fill: #800080; stroke: #800080"/>
     <use xlink:href="#m803e3f5228" x="510.844943" y="339.838125" style="fill: #800080; stroke: #800080"/>
     <use xlink:href="#m803e3f5228" x="512.366761" y="339.838125" style="fill: #800080; stroke: #800080"/>
     <use xlink:href="#m803e3f5228" x="533.672216" y="339.838125" style="fill: #800080; stroke: #800080"/>
     <use xlink:href="#m803e3f5228" x="535.194034" y="312.347216" style="fill: #800080; stroke: #800080"/>
     <use xlink:href="#m803e3f5228" x="539.759489" y="284.856307" style="fill: #800080; stroke: #800080"/>
     <use xlink:href="#m803e3f5228" x="556.499489" y="312.347216" style="fill: #800080; stroke: #800080"/>
     <use xlink:href="#m803e3f5228" x="561.064943" y="339.838125" style="fill: #800080; stroke: #800080"/>
     <use xlink:href="#m803e3f5228" x="571.71767" y="312.347216" style="fill: #800080; stroke: #800080"/>
     <use xlink:href="#m803e3f5228" x="602.154034" y="312.347216" style="fill: #800080; stroke: #800080"/>
     <use xlink:href="#m803e3f5228" x="608.241307" y="339.838125" style="fill: #800080; stroke: #800080"/>
     <use xlink:href="#m803e3f5228" x="611.284943" y="312.347216" style="fill: #800080; stroke: #800080"/>
     <use xlink:href="#m803e3f5228" x="644.764943" y="312.347216" style="fill: #800080; stroke: #800080"/>
     <use xlink:href="#m803e3f5228" x="650.852216" y="312.347216" style="fill: #800080; stroke: #800080"/>
     <use xlink:href="#m803e3f5228" x="655.41767" y="339.838125" style="fill: #800080; stroke: #800080"/>
     <use xlink:href="#m803e3f5228" x="663.026761" y="339.838125" style="fill: #800080; stroke: #800080"/>
     <use xlink:href="#m803e3f5228" x="666.070398" y="312.347216" style="fill: #800080; stroke: #800080"/>
     <use xlink:href="#m803e3f5228" x="673.679489" y="339.838125" style="fill: #800080; stroke: #800080"/>
     <use xlink:href="#m803e3f5228" x="679.766761" y="229.874489" style="fill: #800080; stroke: #800080"/>
    </g>
   </g>
   <g id="patch_3">
    <path d="M 40.603125 354.958125 
L 40.603125 22.318125 
" style="fill: none; stroke: #000000; stroke-width: 0.8; stroke-linejoin: miter; stroke-linecap: square"/>
   </g>
   <g id="patch_4">
    <path d="M 710.203125 354.958125 
L 710.203125 22.318125 
" style="fill: none; stroke: #000000; stroke-width: 0.8; stroke-linejoin: miter; stroke-linecap: square"/>
   </g>
   <g id="patch_5">
    <path d="M 40.603125 354.958125 
L 710.203125 354.958125 
" style="fill: none; stroke: #000000; stroke-width: 0.8; stroke-linejoin: miter; stroke-linecap: square"/>
   </g>
   <g id="patch_6">
    <path d="M 40.603125 22.318125 
L 710.203125 22.318125 
" style="fill: none; stroke: #000000; stroke-width: 0.8; stroke-linejoin: miter; stroke-linecap: square"/>
   </g>
   <g id="text_18">
    <!-- Frequency Data of Boldness / Thickness -->
    <g transform="translate(256.08 16.318125) scale(0.12 -0.12)">
     <defs>
      <path id="DejaVuSans-44" d="M 1259 4147 
L 1259 519 
L 2022 519 
Q 2988 519 3436 956 
Q 3884 1394 3884 2338 
Q 3884 3275 3436 3711 
Q 2988 4147 2022 4147 
L 1259 4147 
z
M 628 4666 
L 1925 4666 
Q 3281 4666 3915 4102 
Q 4550 3538 4550 2338 
Q 4550 1131 3912 565 
Q 3275 0 1925 0 
L 628 0 
L 628 4666 
z
" transform="scale(0.015625)"/>
      <path id="DejaVuSans-74" d="M 1172 4494 
L 1172 3500 
L 2356 3500 
L 2356 3053 
L 1172 3053 
L 1172 1153 
Q 1172 725 1289 603 
Q 1406 481 1766 481 
L 2356 481 
L 2356 0 
L 1766 0 
Q 1100 0 847 248 
Q 594 497 594 1153 
L 594 3053 
L 172 3053 
L 172 3500 
L 594 3500 
L 594 4494 
L 1172 4494 
z
" transform="scale(0.015625)"/>
     </defs>
     <use xlink:href="#DejaVuSans-46"/>
     <use xlink:href="#DejaVuSans-72" transform="translate(50.269531 0)"/>
     <use xlink:href="#DejaVuSans-65" transform="translate(89.132812 0)"/>
     <use xlink:href="#DejaVuSans-71" transform="translate(150.65625 0)"/>
     <use xlink:href="#DejaVuSans-75" transform="translate(214.132812 0)"/>
     <use xlink:href="#DejaVuSans-65" transform="translate(277.511719 0)"/>
     <use xlink:href="#DejaVuSans-6e" transform="translate(339.035156 0)"/>
     <use xlink:href="#DejaVuSans-63" transform="translate(402.414062 0)"/>
     <use xlink:href="#DejaVuSans-79" transform="translate(457.394531 0)"/>
     <use xlink:href="#DejaVuSans-20" transform="translate(516.574219 0)"/>
     <use xlink:href="#DejaVuSans-44" transform="translate(548.361328 0)"/>
     <use xlink:href="#DejaVuSans-61" transform="translate(625.363281 0)"/>
     <use xlink:href="#DejaVuSans-74" transform="translate(686.642578 0)"/>
     <use xlink:href="#DejaVuSans-61" transform="translate(725.851562 0)"/>
     <use xlink:href="#DejaVuSans-20" transform="translate(787.130859 0)"/>
     <use xlink:href="#DejaVuSans-6f" transform="translate(818.917969 0)"/>
     <use xlink:href="#DejaVuSans-66" transform="translate(880.099609 0)"/>
     <use xlink:href="#DejaVuSans-20" transform="translate(915.304688 0)"/>
     <use xlink:href="#DejaVuSans-42" transform="translate(947.091797 0)"/>
     <use xlink:href="#DejaVuSans-6f" transform="translate(1015.695312 0)"/>
     <use xlink:href="#DejaVuSans-6c" transform="translate(1076.876953 0)"/>
     <use xlink:href="#DejaVuSans-64" transform="translate(1104.660156 0)"/>
     <use xlink:href="#DejaVuSans-6e" transform="translate(1168.136719 0)"/>
     <use xlink:href="#DejaVuSans-65" transform="translate(1231.515625 0)"/>
     <use xlink:href="#DejaVuSans-73" transform="translate(1293.039062 0)"/>
     <use xlink:href="#DejaVuSans-73" transform="translate(1345.138672 0)"/>
     <use xlink:href="#DejaVuSans-20" transform="translate(1397.238281 0)"/>
     <use xlink:href="#DejaVuSans-2f" transform="translate(1429.025391 0)"/>
     <use xlink:href="#DejaVuSans-20" transform="translate(1462.716797 0)"/>
     <use xlink:href="#DejaVuSans-54" transform="translate(1494.503906 0)"/>
     <use xlink:href="#DejaVuSans-68" transform="translate(1555.587891 0)"/>
     <use xlink:href="#DejaVuSans-69" transform="translate(1618.966797 0)"/>
     <use xlink:href="#DejaVuSans-63" transform="translate(1646.75 0)"/>
     <use xlink:href="#DejaVuSans-6b" transform="translate(1701.730469 0)"/>
     <use xlink:href="#DejaVuSans-6e" transform="translate(1759.640625 0)"/>
     <use xlink:href="#DejaVuSans-65" transform="translate(1823.019531 0)"/>
     <use xlink:href="#DejaVuSans-73" transform="translate(1884.542969 0)"/>
     <use xlink:href="#DejaVuSans-73" transform="translate(1936.642578 0)"/>
    </g>
   </g>
   <g id="legend_1">
    <g id="patch_7">
     <path d="M 340.651562 103.70875 
L 410.154687 103.70875 
Q 412.154687 103.70875 412.154687 101.70875 
L 412.154687 29.318125 
Q 412.154687 27.318125 410.154687 27.318125 
L 340.651562 27.318125 
Q 338.651562 27.318125 338.651562 29.318125 
L 338.651562 101.70875 
Q 338.651562 103.70875 340.651562 103.70875 
z
" style="fill: #ffffff; opacity: 0.8; stroke: #cccccc; stroke-linejoin: miter"/>
    </g>
    <g id="line2d_36">
     <path d="M 342.651562 35.416562 
L 352.651562 35.416562 
L 362.651562 35.416562 
" style="fill: none; stroke: #0000ff; stroke-width: 1.5; stroke-linecap: square"/>
     <g>
      <use xlink:href="#mfc79b69a23" x="352.651562" y="35.416562" style="fill: #0000ff; stroke: #0000ff"/>
     </g>
    </g>
    <g id="text_19">
     <!-- Joy -->
     <g transform="translate(370.651562 38.916562) scale(0.1 -0.1)">
      <defs>
       <path id="DejaVuSans-4a" d="M 628 4666 
L 1259 4666 
L 1259 325 
Q 1259 -519 939 -900 
Q 619 -1281 -91 -1281 
L -331 -1281 
L -331 -750 
L -134 -750 
Q 284 -750 456 -515 
Q 628 -281 628 325 
L 628 4666 
z
" transform="scale(0.015625)"/>
      </defs>
      <use xlink:href="#DejaVuSans-4a"/>
      <use xlink:href="#DejaVuSans-6f" transform="translate(29.492188 0)"/>
      <use xlink:href="#DejaVuSans-79" transform="translate(90.673828 0)"/>
     </g>
    </g>
    <g id="line2d_37">
     <path d="M 342.651562 50.094688 
L 352.651562 50.094688 
L 362.651562 50.094688 
" style="fill: none; stroke: #ffa500; stroke-width: 1.5; stroke-linecap: square"/>
     <g>
      <use xlink:href="#mc0e8bc7054" x="352.651562" y="50.094688" style="fill: #ffa500; stroke: #ffa500"/>
     </g>
    </g>
    <g id="text_20">
     <!-- Sad -->
     <g transform="translate(370.651562 53.594688) scale(0.1 -0.1)">
      <defs>
       <path id="DejaVuSans-53" d="M 3425 4513 
L 3425 3897 
Q 3066 4069 2747 4153 
Q 2428 4238 2131 4238 
Q 1616 4238 1336 4038 
Q 1056 3838 1056 3469 
Q 1056 3159 1242 3001 
Q 1428 2844 1947 2747 
L 2328 2669 
Q 3034 2534 3370 2195 
Q 3706 1856 3706 1288 
Q 3706 609 3251 259 
Q 2797 -91 1919 -91 
Q 1588 -91 1214 -16 
Q 841 59 441 206 
L 441 856 
Q 825 641 1194 531 
Q 1563 422 1919 422 
Q 2459 422 2753 634 
Q 3047 847 3047 1241 
Q 3047 1584 2836 1778 
Q 2625 1972 2144 2069 
L 1759 2144 
Q 1053 2284 737 2584 
Q 422 2884 422 3419 
Q 422 4038 858 4394 
Q 1294 4750 2059 4750 
Q 2388 4750 2728 4690 
Q 3069 4631 3425 4513 
z
" transform="scale(0.015625)"/>
      </defs>
      <use xlink:href="#DejaVuSans-53"/>
      <use xlink:href="#DejaVuSans-61" transform="translate(63.476562 0)"/>
      <use xlink:href="#DejaVuSans-64" transform="translate(124.755859 0)"/>
     </g>
    </g>
    <g id="line2d_38">
     <path d="M 342.651562 64.772812 
L 352.651562 64.772812 
L 362.651562 64.772812 
" style="fill: none; stroke: #008000; stroke-width: 1.5; stroke-linecap: square"/>
     <g>
      <use xlink:href="#mba09a98c9a" x="352.651562" y="64.772812" style="fill: #008000; stroke: #008000"/>
     </g>
    </g>
    <g id="text_21">
     <!-- Anger -->
     <g transform="translate(370.651562 68.272812) scale(0.1 -0.1)">
      <defs>
       <path id="DejaVuSans-41" d="M 2188 4044 
L 1331 1722 
L 3047 1722 
L 2188 4044 
z
M 1831 4666 
L 2547 4666 
L 4325 0 
L 3669 0 
L 3244 1197 
L 1141 1197 
L 716 0 
L 50 0 
L 1831 4666 
z
" transform="scale(0.015625)"/>
       <path id="DejaVuSans-67" d="M 2906 1791 
Q 2906 2416 2648 2759 
Q 2391 3103 1925 3103 
Q 1463 3103 1205 2759 
Q 947 2416 947 1791 
Q 947 1169 1205 825 
Q 1463 481 1925 481 
Q 2391 481 2648 825 
Q 2906 1169 2906 1791 
z
M 3481 434 
Q 3481 -459 3084 -895 
Q 2688 -1331 1869 -1331 
Q 1566 -1331 1297 -1286 
Q 1028 -1241 775 -1147 
L 775 -588 
Q 1028 -725 1275 -790 
Q 1522 -856 1778 -856 
Q 2344 -856 2625 -561 
Q 2906 -266 2906 331 
L 2906 616 
Q 2728 306 2450 153 
Q 2172 0 1784 0 
Q 1141 0 747 490 
Q 353 981 353 1791 
Q 353 2603 747 3093 
Q 1141 3584 1784 3584 
Q 2172 3584 2450 3431 
Q 2728 3278 2906 2969 
L 2906 3500 
L 3481 3500 
L 3481 434 
z
" transform="scale(0.015625)"/>
      </defs>
      <use xlink:href="#DejaVuSans-41"/>
      <use xlink:href="#DejaVuSans-6e" transform="translate(68.408203 0)"/>
      <use xlink:href="#DejaVuSans-67" transform="translate(131.787109 0)"/>
      <use xlink:href="#DejaVuSans-65" transform="translate(195.263672 0)"/>
      <use xlink:href="#DejaVuSans-72" transform="translate(256.787109 0)"/>
     </g>
    </g>
    <g id="line2d_39">
     <path d="M 342.651562 79.450938 
L 352.651562 79.450938 
L 362.651562 79.450938 
" style="fill: none; stroke: #ff0000; stroke-width: 1.5; stroke-linecap: square"/>
     <g>
      <use xlink:href="#mf06884f162" x="352.651562" y="79.450938" style="fill: #ff0000; stroke: #ff0000"/>
     </g>
    </g>
    <g id="text_22">
     <!-- Fear -->
     <g transform="translate(370.651562 82.950938) scale(0.1 -0.1)">
      <use xlink:href="#DejaVuSans-46"/>
      <use xlink:href="#DejaVuSans-65" transform="translate(52.019531 0)"/>
      <use xlink:href="#DejaVuSans-61" transform="translate(113.542969 0)"/>
      <use xlink:href="#DejaVuSans-72" transform="translate(174.822266 0)"/>
     </g>
    </g>
    <g id="line2d_40">
     <path d="M 342.651562 94.129063 
L 352.651562 94.129063 
L 362.651562 94.129063 
" style="fill: none; stroke: #800080; stroke-width: 1.5; stroke-linecap: square"/>
     <g>
      <use xlink:href="#m803e3f5228" x="352.651562" y="94.129063" style="fill: #800080; stroke: #800080"/>
     </g>
    </g>
    <g id="text_23">
     <!-- Disgust -->
     <g transform="translate(370.651562 97.629063) scale(0.1 -0.1)">
      <use xlink:href="#DejaVuSans-44"/>
      <use xlink:href="#DejaVuSans-69" transform="translate(77.001953 0)"/>
      <use xlink:href="#DejaVuSans-73" transform="translate(104.785156 0)"/>
      <use xlink:href="#DejaVuSans-67" transform="translate(156.884766 0)"/>
      <use xlink:href="#DejaVuSans-75" transform="translate(220.361328 0)"/>
      <use xlink:href="#DejaVuSans-73" transform="translate(283.740234 0)"/>
      <use xlink:href="#DejaVuSans-74" transform="translate(335.839844 0)"/>
     </g>
    </g>
   </g>
  </g>
 </g>
 <defs>
  <clipPath id="p89224b04b9">
   <rect x="40.603125" y="22.318125" width="669.6" height="332.64"/>
  </clipPath>
 </defs>
</svg>
